<?xml version="1.0" encoding="UTF-8" standalone="no"?>
<!-- Created with Inkscape (http://www.inkscape.org/) -->

<svg
   version="1.1"
   id="svg1"
   width="1200"
   height="430.06277"
   viewBox="0 0 1200 430.06277"
   xmlns="http://www.w3.org/2000/svg"
   xmlns:svg="http://www.w3.org/2000/svg">
  <defs
     id="defs1">
    <clipPath
       clipPathUnits="userSpaceOnUse"
       id="clipPath376-4">
      <path
         d="M 415.912,113.01 H 558.546 V 314.333 H 415.912 Z"
         transform="translate(-530.61801,-261.299)"
         id="path376-8" />
    </clipPath>
    <clipPath
       clipPathUnits="userSpaceOnUse"
       id="clipPath373-8">
      <path
         d="M 415.912,113.01 H 558.546 V 314.333 H 415.912 Z"
         transform="translate(-520.69401,-160.7)"
         id="path373-2" />
    </clipPath>
    <clipPath
       clipPathUnits="userSpaceOnUse"
       id="clipPath367-4">
      <path
         d="M 415.912,113.01 H 558.546 V 314.333 H 415.912 Z"
         transform="translate(-507.65901,-163.46701)"
         id="path367-5" />
    </clipPath>
    <clipPath
       clipPathUnits="userSpaceOnUse"
       id="clipPath365-5">
      <path
         d="M 415.912,113.01 H 558.546 V 314.333 H 415.912 Z"
         transform="translate(-509.27321,-167.63401)"
         id="path365-1" />
    </clipPath>
    <clipPath
       clipPathUnits="userSpaceOnUse"
       id="clipPath363-7">
      <path
         d="M 415.912,113.01 H 558.546 V 314.333 H 415.912 Z"
         transform="translate(-509.28101,-169.187)"
         id="path363-1" />
    </clipPath>
    <clipPath
       clipPathUnits="userSpaceOnUse"
       id="clipPath360-1">
      <path
         d="M 415.912,113.01 H 558.546 V 314.333 H 415.912 Z"
         transform="translate(-475.27601,-170.498)"
         id="path360-5" />
    </clipPath>
    <clipPath
       clipPathUnits="userSpaceOnUse"
       id="clipPath358-2">
      <path
         d="M 415.912,113.01 H 558.546 V 314.333 H 415.912 Z"
         transform="translate(0,-2.5000001e-5)"
         id="path358-7" />
    </clipPath>
    <clipPath
       clipPathUnits="userSpaceOnUse"
       id="clipPath356-6">
      <path
         d="M 415.912,113.01 H 558.546 V 314.333 H 415.912 Z"
         transform="translate(-441.69301,-189.973)"
         id="path356-1" />
    </clipPath>
    <clipPath
       clipPathUnits="userSpaceOnUse"
       id="clipPath354-4">
      <path
         d="M 415.912,113.01 H 558.546 V 314.333 H 415.912 Z"
         transform="translate(-441.69301,-130.91)"
         id="path354-2" />
    </clipPath>
    <clipPath
       clipPathUnits="userSpaceOnUse"
       id="clipPath346-3">
      <path
         d="M 415.912,113.01 H 558.546 V 314.333 H 415.912 Z"
         transform="translate(-463.84861,-196.06201)"
         id="path346-2" />
    </clipPath>
    <clipPath
       clipPathUnits="userSpaceOnUse"
       id="clipPath344-2">
      <path
         d="M 415.912,113.01 H 558.546 V 314.333 H 415.912 Z"
         transform="translate(-448.97861,-197.675)"
         id="path344-1" />
    </clipPath>
    <clipPath
       clipPathUnits="userSpaceOnUse"
       id="clipPath342-6">
      <path
         d="M 415.912,113.01 H 558.546 V 314.333 H 415.912 Z"
         transform="translate(-443.56801,-191.75401)"
         id="path342-8" />
    </clipPath>
    <clipPath
       clipPathUnits="userSpaceOnUse"
       id="clipPath336-5">
      <path
         d="M 415.912,113.01 H 558.546 V 314.333 H 415.912 Z"
         transform="matrix(1,0,0,-1,-481.34501,115.187)"
         id="path336-7" />
    </clipPath>
    <clipPath
       clipPathUnits="userSpaceOnUse"
       id="clipPath334-6">
      <path
         d="M 415.912,113.01 H 558.546 V 314.333 H 415.912 Z"
         transform="matrix(1,0,0,-1,-556.56101,251.82701)"
         id="path334-1" />
    </clipPath>
    <clipPath
       clipPathUnits="userSpaceOnUse"
       id="clipPath327-8">
      <path
         d="M 415.912,113.01 H 558.546 V 314.333 H 415.912 Z"
         transform="translate(-530.43302,-288.89311)"
         id="path327-9" />
    </clipPath>
    <clipPath
       clipPathUnits="userSpaceOnUse"
       id="clipPath325-2">
      <path
         d="M 415.912,113.01 H 558.546 V 314.333 H 415.912 Z"
         transform="translate(0,-1e-4)"
         id="path325-7" />
    </clipPath>
    <clipPath
       clipPathUnits="userSpaceOnUse"
       id="clipPath323-9">
      <path
         d="M 415.912,113.01 H 558.546 V 314.333 H 415.912 Z"
         transform="translate(-496.85101,-295.6181)"
         id="path323-5" />
    </clipPath>
    <clipPath
       clipPathUnits="userSpaceOnUse"
       id="clipPath321-4">
      <path
         d="M 415.912,113.01 H 558.546 V 314.333 H 415.912 Z"
         transform="translate(-496.85101,-236.55601)"
         id="path321-3" />
    </clipPath>
    <clipPath
       clipPathUnits="userSpaceOnUse"
       id="clipPath313-1">
      <path
         d="M 415.912,113.01 H 558.546 V 314.333 H 415.912 Z"
         transform="matrix(1,0,0,-1,-517.48451,307.66461)"
         id="path313-2" />
    </clipPath>
    <clipPath
       clipPathUnits="userSpaceOnUse"
       id="clipPath311-3">
      <path
         d="M 415.912,113.01 H 558.546 V 314.333 H 415.912 Z"
         transform="matrix(1,0,0,-1,-513.76451,307.66461)"
         id="path311-3" />
    </clipPath>
    <clipPath
       clipPathUnits="userSpaceOnUse"
       id="clipPath309-4">
      <path
         d="M 415.912,113.01 H 558.546 V 314.333 H 415.912 Z"
         transform="matrix(1,0,0,-1,-511.78052,307.66461)"
         id="path309-1" />
    </clipPath>
    <clipPath
       clipPathUnits="userSpaceOnUse"
       id="clipPath307-1">
      <path
         d="M 415.912,113.01 H 558.546 V 314.333 H 415.912 Z"
         transform="matrix(1,0,0,-1,-509.54852,307.66461)"
         id="path307-3" />
    </clipPath>
    <clipPath
       clipPathUnits="userSpaceOnUse"
       id="clipPath305-8">
      <path
         d="M 415.912,113.01 H 558.546 V 314.333 H 415.912 Z"
         transform="translate(-519.00752,-301.70661)"
         id="path305-7" />
    </clipPath>
    <clipPath
       clipPathUnits="userSpaceOnUse"
       id="clipPath303-4">
      <path
         d="M 415.912,113.01 H 558.546 V 314.333 H 415.912 Z"
         transform="translate(-504.13611,-303.32051)"
         id="path303-2" />
    </clipPath>
    <clipPath
       clipPathUnits="userSpaceOnUse"
       id="clipPath301-7">
      <path
         d="M 415.912,113.01 H 558.546 V 314.333 H 415.912 Z"
         transform="translate(-498.72601,-297.39901)"
         id="path301-7" />
    </clipPath>
    <clipPath
       clipPathUnits="userSpaceOnUse"
       id="clipPath297-9">
      <path
         d="M 415.912,113.01 H 558.546 V 314.333 H 415.912 Z"
         transform="translate(-441.51621,-260.90591)"
         id="path297-3" />
    </clipPath>
    <clipPath
       clipPathUnits="userSpaceOnUse"
       id="clipPath295-1">
      <path
         d="M 415.912,113.01 H 558.546 V 314.333 H 415.912 Z"
         transform="translate(-443.13001,-275.777)"
         id="path295-9" />
    </clipPath>
    <clipPath
       clipPathUnits="userSpaceOnUse"
       id="clipPath291-8">
      <path
         d="M 415.912,113.01 H 558.546 V 314.333 H 415.912 Z"
         transform="translate(-454.87101,-276.14311)"
         id="path291-6" />
    </clipPath>
    <clipPath
       clipPathUnits="userSpaceOnUse"
       id="clipPath289-5">
      <path
         d="M 415.912,113.01 H 558.546 V 314.333 H 415.912 Z"
         transform="translate(0,-1e-4)"
         id="path289-0" />
    </clipPath>
    <clipPath
       clipPathUnits="userSpaceOnUse"
       id="clipPath287-2">
      <path
         d="M 415.912,113.01 H 558.546 V 314.333 H 415.912 Z"
         transform="translate(-421.28801,-295.6181)"
         id="path287-8" />
    </clipPath>
    <clipPath
       clipPathUnits="userSpaceOnUse"
       id="clipPath285-6">
      <path
         d="M 415.912,113.01 H 558.546 V 314.333 H 415.912 Z"
         transform="translate(-421.28801,-236.55601)"
         id="path285-0" />
    </clipPath>
    <clipPath
       clipPathUnits="userSpaceOnUse"
       id="clipPath280-2">
      <path
         d="M 415.912,113.01 H 558.546 V 314.333 H 415.912 Z"
         transform="matrix(1,0,0,-1,-415.91201,263.519)"
         id="path280-4" />
    </clipPath>
    <clipPath
       clipPathUnits="userSpaceOnUse"
       id="clipPath276-8">
      <path
         d="M 415.912,113.01 H 558.546 V 314.333 H 415.912 Z"
         transform="matrix(1,0,0,-1,-441.42201,307.66501)"
         id="path276-6" />
    </clipPath>
    <clipPath
       clipPathUnits="userSpaceOnUse"
       id="clipPath274-5">
      <path
         d="M 415.912,113.01 H 558.546 V 314.333 H 415.912 Z"
         transform="matrix(1,0,0,-1,-438.59001,307.66501)"
         id="path274-0" />
    </clipPath>
    <clipPath
       clipPathUnits="userSpaceOnUse"
       id="clipPath272-9">
      <path
         d="M 415.912,113.01 H 558.546 V 314.333 H 415.912 Z"
         transform="matrix(1,0,0,-1,-436.60601,307.66501)"
         id="path272-0" />
    </clipPath>
    <clipPath
       clipPathUnits="userSpaceOnUse"
       id="clipPath270-0">
      <path
         d="M 415.912,113.01 H 558.546 V 314.333 H 415.912 Z"
         transform="matrix(1,0,0,-1,-434.48601,307.66501)"
         id="path270-6" />
    </clipPath>
  </defs>
  <path
     id="path266"
     d="M 32.441705,72.208884 H 177.68623 V 342.37907 H 32.441705"
     style="fill:none;stroke:#275b8d;stroke-width:2.28919;stroke-linecap:butt;stroke-linejoin:miter;stroke-miterlimit:4;stroke-dasharray:none;stroke-opacity:1" />
  <path
     id="path267"
     d="M 57.213505,45.098024 H 130.4035"
     style="fill:none;stroke:#c13439;stroke-width:3.43378;stroke-linecap:butt;stroke-linejoin:miter;stroke-miterlimit:4;stroke-dasharray:none;stroke-opacity:1" />
  <path
     id="path268"
     d="m 125.29674,52.487044 27.91897,-7.48108 -27.91897,-7.48105 z"
     style="fill:#c13439;fill-opacity:1;fill-rule:nonzero;stroke:none;stroke-width:4.57837" />
  <path
     id="path269"
     d="m 1.4893859,-4.4174312 c 0.2109375,0 0.4570313,-0.1640625 0.4570313,-0.4570313 0,-0.1875 -0.1640625,-0.3515625 -0.3632813,-0.3515625 -0.2109375,0 -0.4570312,0.1757813 -0.4570312,0.4570313 0,0.1992187 0.1523437,0.3515625 0.3632812,0.3515625 z M 0.77454219,5.375e-4 1.6300109,-3.86665 H 1.0206359 L 0.16516719,5.375e-4 Z m 0,0"
     style="fill:#241f1f;fill-opacity:1;fill-rule:nonzero;stroke:none"
     aria-label="i"
     transform="matrix(4.5783797,0,0,4.5783797,84.283615,25.209054)"
     clip-path="url(#clipPath270-0)" />
  <path
     id="path271"
     d="M 1.8391125,1.3130375 C 1.3234875,0.305225 1.0070813,-0.62055625 1.0070813,-1.944775 c 0,-1.3359375 0.3164062,-2.25 0.8320312,-3.2695312 L 1.4758313,-5.4838375 c -0.7148438,0.9960938 -1.12500005,2.25 -1.12500005,3.5390625 0,1.2890625 0.41015625,2.5546875 1.12500005,3.5390625 z m 0,0"
     style="fill:#241f1f;fill-opacity:1;fill-rule:nonzero;stroke:none"
     aria-label="("
     transform="matrix(4.5783797,0,0,4.5783797,93.989785,25.209054)"
     clip-path="url(#clipPath272-9)" />
  <path
     id="path273"
     d="m 1.3228859,0.0942875 c 0.234375,0 0.4453125,-0.0703125 0.5859375,-0.1875 l -0.070312,-0.46875 C 1.7564797,-0.49165 1.6158547,-0.444775 1.4752297,-0.444775 c -0.2578125,0 -0.3867188,-0.1171875 -0.3867188,-0.3515625 0,-0.0585938 0.011719,-0.1171875 0.011719,-0.1640625 L 1.6275734,-3.3393062 H 2.4127297 L 2.5416359,-3.86665 H 1.7564797 L 1.9791359,-4.9213375 H 1.3814797 L 1.1471047,-3.86665 H 0.51429219 L 0.38538594,-3.3393062 H 1.0299172 l -0.56250001,2.50781245 c -0.0117188,0.0820313 -0.0234375,0.1875 -0.0234375,0.22265625 0,0.48046875 0.3515625,0.703125 0.87890621,0.703125 z m 0,0"
     style="fill:#241f1f;fill-opacity:1;fill-rule:nonzero;stroke:none"
     aria-label="t"
     transform="matrix(4.5783797,0,0,4.5783797,103.07329,25.209054)"
     clip-path="url(#clipPath274-5)" />
  <path
     id="path275"
     d="m 0.4918625,1.5942875 c 0.7265625,-0.984375 1.1367188,-2.25 1.1367188,-3.5390625 0,-1.2890625 -0.4101563,-2.5429687 -1.1367188,-3.5390625 L 0.1403,-5.2143062 c 0.515625,1.0195312 0.83203125,1.9335937 0.83203125,3.2695312 0,1.32421875 -0.31640625,2.25 -0.83203125,3.2578125 z m 0,0"
     style="fill:#241f1f;fill-opacity:1;fill-rule:nonzero;stroke:none"
     aria-label=")"
     transform="matrix(4.5783797,0,0,4.5783797,116.03927,25.209054)"
     clip-path="url(#clipPath276-8)" />
  <path
     id="path277"
     d="m 33.412335,109.96966 v -2.41436 h -9.55022 v -9.603876 h -2.4144 v 9.603876 h -9.5502 v 2.41436 h 9.5502 v 9.55022 h 2.4144 v -9.55022 z m 0,0"
     style="fill:#241f1f;fill-opacity:1;fill-rule:nonzero;stroke:none;stroke-width:4.57837"
     aria-label="+" />
  <path
     id="path278"
     d="m 33.291635,316.11748 v -2.41436 h -18.29565 v 2.41436 z m 0,0"
     style="fill:#241f1f;fill-opacity:1;fill-rule:nonzero;stroke:none;stroke-width:4.57837"
     aria-label="‒" />
  <path
     id="path279"
     d="M 1.6532297,-0.56343125 C 1.6063547,-1.6415563 1.5594797,-2.0868688 1.4540109,-2.6142125 1.2899484,-3.4814 1.2899484,-3.528275 1.2196359,-3.528275 c -0.046875,0 -0.09375,0 -0.1640625,0.035156 -0.25781246,0.046875 -0.53906246,0.1054688 -0.89062496,0.1640625 v 0.1054688 c 0.0820313,-0.011719 0.1640625,-0.011719 0.24609375,-0.011719 0.29296875,0 0.38671875,0.140625 0.48046875,0.75 0.10546875,0.5976563 0.19921876,1.66406255 0.19921876,2.2148438 v 0.19921875 c 0,0.12890625 0.023437,0.2109375 0.070312,0.2109375 0.140625,0 0.3515625,-0.2578125 0.796875,-0.73828125 0.140625,-0.15234375 0.5859375,-0.65625 0.9492187,-1.21875 0.28125,-0.4335938 0.5039063,-0.9023438 0.5039063,-1.2421875 0,-0.2109375 -0.1875,-0.46875 -0.4453125,-0.46875 -0.1757813,0 -0.3046875,0.1054687 -0.3046875,0.2695312 0,0.1289063 0.058594,0.234375 0.1992187,0.3632813 0.1054688,0.09375 0.140625,0.1523437 0.140625,0.234375 0,0.375 -0.515625,1.2539062 -1.0898437,1.83984375 z m 0,0"
     style="fill:#241f1f;fill-opacity:1;fill-rule:nonzero;stroke:none"
     aria-label="v"
     transform="matrix(4.5783797,0,0,4.5783797,-0.755205,227.32623)"
     clip-path="url(#clipPath280-2)" />
  <path
     id="path281"
     d="m 25.766765,233.3311 c -2.36073,-4.61415 -3.80933,-8.85275 -3.80933,-14.9155 0,-6.11644 1.4486,-10.30136 3.80933,-14.96918 l -1.66322,-1.234 c -3.27284,4.56048 -5.15068,10.30135 -5.15068,16.20318 0,5.90181 1.87784,11.69632 5.15068,16.20316 z m 0,0"
     style="fill:#241f1f;fill-opacity:1;fill-rule:nonzero;stroke:none;stroke-width:4.57837"
     aria-label="(" />
  <path
     id="path282"
     d="m 32.486825,227.75119 c 1.07306,0 2.03881,-0.32174 2.68264,-0.85844 l -0.32174,-2.14611 c -0.37555,0.32174 -1.01939,0.53652 -1.66322,0.53652 -1.18037,0 -1.77057,-0.53652 -1.77057,-1.60959 0,-0.26817 0.0536,-0.53653 0.0536,-0.75113 l 2.41436,-10.89155 h 3.59477 l 0.59016,-2.41437 h -3.59473 l 1.01939,-4.82876 h -2.73628 l -1.07306,4.82876 h -2.89725 l -0.5902,2.41437 h 2.95093 l -2.57534,11.48171 c -0.0536,0.37559 -0.10714,0.85845 -0.10714,1.01942 0,2.19976 1.60959,3.21917 4.02395,3.21917 z m 0,0"
     style="fill:#241f1f;fill-opacity:1;fill-rule:nonzero;stroke:none;stroke-width:4.57837"
     aria-label="t" />
  <path
     id="path283"
     d="m 41.648055,234.61876 c 3.32648,-4.50684 5.20436,-10.30135 5.20436,-16.20316 0,-5.90183 -1.87788,-11.6427 -5.20436,-16.20318 l -1.60958,1.234 c 2.36073,4.66782 3.80937,8.85274 3.80937,14.96918 0,6.06275 -1.44864,10.30135 -3.80937,14.9155 z m 0,0"
     style="fill:#241f1f;fill-opacity:1;fill-rule:nonzero;stroke:none;stroke-width:4.57837"
     aria-label=")" />
  <path
     id="path284"
     d="M 0,0 C 1.016,0 1.839,0.823 1.839,1.838 1.839,2.854 1.016,3.677 0,3.677 -1.016,3.677 -1.839,2.854 -1.839,1.838 -1.839,0.823 -1.016,0 0,0"
     style="fill:#ffffff;fill-opacity:1;fill-rule:nonzero;stroke:#c13439;stroke-width:0.5;stroke-linecap:butt;stroke-linejoin:miter;stroke-miterlimit:4;stroke-dasharray:none;stroke-opacity:1"
     transform="matrix(4.5783797,0,0,-4.5783797,23.858175,350.77307)"
     clip-path="url(#clipPath285-6)" />
  <path
     id="path286"
     d="M 0,0 C 1.016,0 1.839,0.823 1.839,1.839 1.839,2.854 1.016,3.678 0,3.678 -1.016,3.678 -1.839,2.854 -1.839,1.839 -1.839,0.823 -1.016,0 0,0"
     style="fill:#ffffff;fill-opacity:1;fill-rule:nonzero;stroke:#c13439;stroke-width:0.5;stroke-linecap:butt;stroke-linejoin:miter;stroke-miterlimit:4;stroke-dasharray:none;stroke-opacity:1"
     transform="matrix(4.5783797,0,0,-4.5783797,23.858175,80.364364)"
     clip-path="url(#clipPath287-2)" />
  <path
     id="path288"
     d="m 453.341,259.737 h 3.051 v 16.449 h -3.051 z"
     style="fill:#ffffff;fill-opacity:1;fill-rule:nonzero;stroke:none"
     transform="matrix(4.5783797,0,0,-4.5783797,-1904.9583,1433.8159)"
     clip-path="url(#clipPath289-5)" />
  <path
     id="path290"
     d="m 0,0 c 1.818,0 3.292,-1.147 3.292,-2.563 0,-1.416 -1.474,-2.564 -3.292,-2.564 -0.871,0 -1.669,0.26 -2.258,0.69 0.59,0.436 1.381,0.699 2.258,0.699 1.818,0 3.292,-1.147 3.292,-2.563 0,-1.416 -1.474,-2.564 -3.292,-2.564 -0.871,0 -1.669,0.249 -2.258,0.68 0.59,0.435 1.381,0.688 2.258,0.688 1.818,0 3.292,-1.149 3.292,-2.565 0,-1.416 -1.474,-2.563 -3.292,-2.563 -0.871,0 -1.669,0.249 -2.258,0.68 0.59,0.435 1.381,0.687 2.258,0.687 1.818,0 3.292,-1.148 3.292,-2.564 0,-1.415 -1.474,-2.563 -3.292,-2.563"
     style="fill:none;stroke:#078c53;stroke-width:0.5;stroke-linecap:round;stroke-linejoin:bevel;stroke-miterlimit:4;stroke-dasharray:none;stroke-opacity:1"
     transform="matrix(4.5783797,0,0,-4.5783797,177.61388,169.52828)"
     clip-path="url(#clipPath291-8)" />
  <path
     id="path292"
     d="m 105.40109,125.26075 c 0.96575,0 2.09248,-0.75114 2.09248,-2.09248 0,-0.85845 -0.75115,-1.60958 -1.66326,-1.60958 -0.96575,0 -2.09244,0.8048 -2.09244,2.09248 0,0.91207 0.69746,1.60958 1.66322,1.60958 z m -3.27282,20.22713 3.91665,-17.70546 h -2.78995 l -3.916645,17.70546 z m 0,0"
     style="fill:#241f1f;fill-opacity:1;fill-rule:nonzero;stroke:none;stroke-width:4.57837"
     aria-label="i" />
  <path
     id="path293"
     d="m 116.70844,151.497 c -2.36073,-4.61415 -3.80935,-8.85271 -3.80935,-14.9155 0,-6.11643 1.44861,-10.30136 3.80935,-14.96914 l -1.66323,-1.23404 c -3.27285,4.56051 -5.15068,10.30136 -5.15068,16.20318 0,5.90181 1.87783,11.69633 5.15068,16.20317 z m 11.87069,-5.5799 c 6.65296,0 9.3356,-6.70659 9.3356,-12.60842 0,-6.00912 -2.68265,-12.60844 -9.3356,-12.60844 -6.70659,0 -9.33559,6.59932 -9.33559,12.60844 0,5.90183 2.629,12.60842 9.33559,12.60842 z m 0,-2.68265 c -4.66777,0 -6.22373,-5.09701 -6.22373,-9.92577 0,-4.88242 1.55596,-9.92579 6.22373,-9.92579 4.66782,0 6.22374,5.04337 6.22374,9.92579 0,4.82876 -1.55592,9.92577 -6.22374,9.92577 z m 13.46688,9.55022 c 3.32649,-4.50684 5.20432,-10.30136 5.20432,-16.20317 0,-5.90182 -1.87783,-11.64267 -5.20432,-16.20318 l -1.60957,1.23404 c 2.36072,4.66778 3.80934,8.85271 3.80934,14.96914 0,6.06279 -1.44861,10.30135 -3.80934,14.9155 z m 0,0"
     style="fill:#241f1f;fill-opacity:1;fill-rule:nonzero;stroke:none;stroke-width:4.57837"
     aria-label="(0)" />
  <path
     id="path294"
     d="M 0,0 V -15.986"
     style="fill:none;stroke:#c13439;stroke-width:0.75;stroke-linecap:butt;stroke-linejoin:miter;stroke-miterlimit:4;stroke-dasharray:none;stroke-opacity:1"
     transform="matrix(4.5783797,0,0,-4.5783797,123.85915,171.20445)"
     clip-path="url(#clipPath295-1)" />
  <path
     id="path296"
     d="M 0,0 1.634,-6.098 3.268,0 Z"
     style="fill:#c13439;fill-opacity:1;fill-rule:nonzero;stroke:none"
     transform="matrix(4.5783797,0,0,-4.5783797,116.47055,239.28998)"
     clip-path="url(#clipPath297-9)" />
  <path
     id="path298"
     d="m 228.56129,217.87907 0.5902,-2.73632 h -11.42808 l 4.82876,-21.7294 h -3.00456 l -5.41893,24.46572 z m 0,0"
     style="fill:#241f1f;fill-opacity:1;fill-rule:nonzero;stroke:none;stroke-width:4.57837"
     aria-label="L" />
  <path
     id="path299"
     d="m 95.099735,428.77513 c -2.36073,-4.61415 -3.80935,-8.85271 -3.80935,-14.9155 0,-6.11644 1.44862,-10.30137 3.80935,-14.96915 l -1.66323,-1.23403 c -3.27284,4.56051 -5.15067,10.30135 -5.15067,16.20318 0,5.90181 1.87783,11.69632 5.15067,16.20316 z m 17.249415,-6.00912 v -12.1792 c 0,-4.29223 -3.11187,-5.95548 -6.86757,-5.95548 -2.89726,0 -5.15069,0.96574 -7.082195,2.95092 l 1.28768,1.87784 c 1.555955,-1.66323 3.326465,-2.46804 5.418955,-2.46804 2.57533,0 4.45317,1.39498 4.45317,3.7557 v 3.16555 c -1.39497,-1.6096 -3.43378,-2.4144 -5.84814,-2.4144 -3.00457,0 -6.170105,1.87787 -6.170105,5.84818 0,3.863 3.165535,5.84814 6.170105,5.84814 2.41436,0 4.39954,-0.85844 5.84814,-2.46803 v 2.03882 z m -7.61872,-1.55593 c -2.57534,0 -4.39954,-1.60958 -4.39954,-3.80937 0,-2.30705 1.82419,-3.91664 4.39954,-3.91664 1.9315,0 3.80938,0.75114 4.82876,2.19975 v 3.32648 c -1.01938,1.50228 -2.89727,2.19978 -4.82876,2.19978 z m 12.59503,8.85271 c 3.32647,-4.50684 5.20431,-10.30135 5.20431,-16.20316 0,-5.90183 -1.87784,-11.64267 -5.20431,-16.20318 l -1.60959,1.23403 c 2.36072,4.66778 3.80934,8.85271 3.80934,14.96915 0,6.06279 -1.44862,10.30135 -3.80934,14.9155 z m 0,0"
     style="fill:#241f1f;fill-opacity:1;fill-rule:nonzero;stroke:none;stroke-width:4.57837"
     aria-label="(a)" />
  <path
     id="path300"
     d="M 0,0 H 31.723 V -59.01 H 0"
     style="fill:none;stroke:#275b8d;stroke-width:0.5;stroke-linecap:butt;stroke-linejoin:miter;stroke-miterlimit:4;stroke-dasharray:none;stroke-opacity:1"
     transform="matrix(4.5783797,0,0,-4.5783797,378.39876,72.210704)"
     clip-path="url(#clipPath301-7)" />
  <path
     id="path302"
     d="M 0,0 H 15.986"
     style="fill:none;stroke:#c13439;stroke-width:0.75;stroke-linecap:butt;stroke-linejoin:miter;stroke-miterlimit:4;stroke-dasharray:none;stroke-opacity:1"
     transform="matrix(4.5783797,0,0,-4.5783797,403.16822,45.099844)"
     clip-path="url(#clipPath303-4)" />
  <path
     id="path304"
     d="M 0,0 6.097,1.634 0,3.268 Z"
     style="fill:#c13439;fill-opacity:1;fill-rule:nonzero;stroke:none"
     transform="matrix(4.5783797,0,0,-4.5783797,471.25517,52.488894)"
     clip-path="url(#clipPath305-8)" />
  <path
     id="path306"
     d="m 0.85559688,1.375e-4 1.17187502,-5.34375 h -0.65625 l -1.18359377,5.34375 z m 0,0"
     style="fill:#241f1f;fill-opacity:1;fill-rule:nonzero;stroke:none"
     aria-label="I"
     transform="matrix(4.5783797,0,0,4.5783797,427.94827,25.210914)"
     clip-path="url(#clipPath307-1)" />
  <path
     id="path308"
     d="M 1.8403938,1.3126375 C 1.3247688,0.304825 1.0083625,-0.62095625 1.0083625,-1.945175 c 0,-1.3359375 0.3164063,-2.25 0.8320313,-3.2695313 L 1.4771125,-5.4842375 c -0.71484375,0.9960937 -1.125,2.25 -1.125,3.5390625 0,1.2890625 0.41015625,2.5546875 1.125,3.5390625 z m 0,0"
     style="fill:#241f1f;fill-opacity:1;fill-rule:nonzero;stroke:none"
     aria-label="("
     transform="matrix(4.5783797,0,0,4.5783797,438.16722,25.210914)"
     clip-path="url(#clipPath309-4)" />
  <path
     id="path310"
     d="m 1.6522922,0.0938875 c 0.9726562,0 1.5234375,-0.59765625 1.5234375,-1.265625 0,-1.1367188 -2.0273438,-1.0078125 -2.0273438,-1.7109375 0,-0.328125 0.3046875,-0.5859375 0.8320313,-0.5859375 0.4921875,0 0.984375,0.2460937 1.1601562,0.5273437 L 3.4804172,-3.3279875 C 3.2226047,-3.67955 2.6601047,-3.9608 2.0038547,-3.9608 c -0.9375,0 -1.46484376,0.5507812 -1.46484376,1.1953125 0,1.078125 2.03906246,0.9609375 2.03906246,1.6875 0,0.36328125 -0.3398437,0.69140625 -0.890625,0.69140625 -0.5742187,0 -1.06640621,-0.3046875 -1.27734371,-0.609375 L 0.02338594,-0.5858 c 0.3515625,0.4453125 0.9375,0.6796875 1.62890626,0.6796875 z m 0,0"
     style="fill:#241f1f;fill-opacity:1;fill-rule:nonzero;stroke:none"
     aria-label="s"
     transform="matrix(4.5783797,0,0,4.5783797,447.25072,25.210914)"
     clip-path="url(#clipPath311-3)" />
  <path
     id="path312"
     d="m 0.49283906,1.5938875 c 0.72656254,-0.984375 1.13671874,-2.25 1.13671874,-3.5390625 0,-1.2890625 -0.4101562,-2.5429688 -1.13671874,-3.5390625 l -0.3515625,0.2695312 c 0.515625,1.0195313 0.83203125,1.9335938 0.83203125,3.2695313 0,1.32421875 -0.31640625,2.25 -0.83203125,3.2578125 z m 0,0"
     style="fill:#241f1f;fill-opacity:1;fill-rule:nonzero;stroke:none"
     aria-label=")"
     transform="matrix(4.5783797,0,0,4.5783797,464.28228,25.210914)"
     clip-path="url(#clipPath313-1)" />
  <path
     id="path314"
     d="m 379.36616,109.96966 v -2.41436 h -9.55021 v -9.603876 h -2.41436 v 9.603876 h -9.55022 v 2.41436 h 9.55022 v 9.55022 h 2.41436 v -9.55022 z m 0,0"
     style="fill:#241f1f;fill-opacity:1;fill-rule:nonzero;stroke:none;stroke-width:4.57837"
     aria-label="+" />
  <path
     id="path315"
     d="m 379.24542,316.11748 v -2.41436 h -18.29561 v 2.41436 z m 0,0"
     style="fill:#241f1f;fill-opacity:1;fill-rule:nonzero;stroke:none;stroke-width:4.57837"
     aria-label="‒" />
  <path
     id="path316"
     d="m 351.41299,226.94639 15.23742,-24.46572 h -3.64839 l -12.93033,21.13923 -3.59473,-21.13923 h -3.27284 l 4.39953,24.46572 z m 0,0"
     style="fill:#241f1f;fill-opacity:1;fill-rule:nonzero;stroke:none;stroke-width:4.57837"
     aria-label="V" />
  <path
     id="path317"
     d="m 373.43749,232.95551 c -2.36073,-4.61415 -3.80934,-8.85271 -3.80934,-14.9155 0,-6.11643 1.44861,-10.30136 3.80934,-14.96914 l -1.66322,-1.23404 c -3.27285,4.56052 -5.15068,10.30135 -5.15068,16.20318 0,5.90181 1.87783,11.69632 5.15068,16.20316 z m 0,0"
     style="fill:#241f1f;fill-opacity:1;fill-rule:nonzero;stroke:none;stroke-width:4.57837"
     aria-label="(" />
  <path
     id="path318"
     d="m 381.65982,227.37561 c 4.4532,0 6.97487,-2.73628 6.97487,-5.79452 0,-5.2043 -9.28193,-4.61414 -9.28193,-7.83331 0,-1.50229 1.39498,-2.68265 3.80934,-2.68265 2.25342,0 4.50684,1.12672 5.31165,2.4144 l 1.55592,-1.77056 c -1.18035,-1.6096 -3.75571,-2.89726 -6.76027,-2.89726 -4.29223,0 -6.70659,2.5217 -6.70659,5.4726 0,4.93606 9.3356,4.39954 9.3356,7.72601 0,1.66325 -1.55595,3.16554 -4.07762,3.16554 -2.62901,0 -4.88243,-1.39498 -5.84817,-2.78995 l -1.77053,1.87783 c 1.60959,2.03881 4.29223,3.11187 7.45773,3.11187 z m 0,0"
     style="fill:#241f1f;fill-opacity:1;fill-rule:nonzero;stroke:none;stroke-width:4.57837"
     aria-label="s" />
  <path
     id="path319"
     d="m 393.38297,234.24317 c 3.32647,-4.50684 5.20434,-10.30135 5.20434,-16.20316 0,-5.90183 -1.87787,-11.64266 -5.20434,-16.20318 l -1.60959,1.23404 c 2.36072,4.66778 3.80937,8.85271 3.80937,14.96914 0,6.06279 -1.44865,10.30135 -3.80937,14.9155 z m 0,0"
     style="fill:#241f1f;fill-opacity:1;fill-rule:nonzero;stroke:none;stroke-width:4.57837"
     aria-label=")" />
  <path
     id="path320"
     d="M 0,0 C 1.015,0 1.839,0.823 1.839,1.838 1.839,2.854 1.015,3.677 0,3.677 -1.016,3.677 -1.84,2.854 -1.84,1.838 -1.84,0.823 -1.016,0 0,0"
     style="fill:#ffffff;fill-opacity:1;fill-rule:nonzero;stroke:#c13439;stroke-width:0.5;stroke-linecap:butt;stroke-linejoin:miter;stroke-miterlimit:4;stroke-dasharray:none;stroke-opacity:1"
     transform="matrix(4.5783797,0,0,-4.5783797,369.8143,350.77307)"
     clip-path="url(#clipPath321-4)" />
  <path
     id="path322"
     d="M 0,0 C 1.015,0 1.839,0.823 1.839,1.839 1.839,2.854 1.015,3.678 0,3.678 -1.016,3.678 -1.84,2.854 -1.84,1.839 -1.84,0.823 -1.016,0 0,0"
     style="fill:#ffffff;fill-opacity:1;fill-rule:nonzero;stroke:#c13439;stroke-width:0.5;stroke-linecap:butt;stroke-linejoin:miter;stroke-miterlimit:4;stroke-dasharray:none;stroke-opacity:1"
     transform="matrix(4.5783797,0,0,-4.5783797,369.8143,80.364364)"
     clip-path="url(#clipPath323-9)" />
  <path
     id="path324"
     d="m 528.903,272.487 h 3.05 v 16.449 h -3.05 z"
     style="fill:#ffffff;fill-opacity:1;fill-rule:nonzero;stroke:none"
     transform="matrix(4.5783797,0,0,-4.5783797,-1904.9583,1433.8159)"
     clip-path="url(#clipPath325-2)" />
  <path
     id="path326"
     d="m 0,0 c 1.818,0 3.292,-1.147 3.292,-2.563 0,-1.416 -1.474,-2.564 -3.292,-2.564 -0.872,0 -1.668,0.26 -2.258,0.69 0.591,0.436 1.382,0.699 2.258,0.699 1.818,0 3.292,-1.147 3.292,-2.563 0,-1.416 -1.474,-2.564 -3.292,-2.564 -0.872,0 -1.668,0.249 -2.258,0.68 0.591,0.435 1.382,0.688 2.258,0.688 1.818,0 3.292,-1.149 3.292,-2.565 0,-1.416 -1.474,-2.563 -3.292,-2.563 -0.872,0 -1.668,0.249 -2.258,0.68 0.591,0.435 1.382,0.687 2.258,0.687 1.818,0 3.292,-1.148 3.292,-2.564 0,-1.415 -1.474,-2.563 -3.292,-2.563"
     style="fill:none;stroke:#078c53;stroke-width:0.5;stroke-linecap:round;stroke-linejoin:bevel;stroke-miterlimit:4;stroke-dasharray:none;stroke-opacity:1"
     transform="matrix(4.5783797,0,0,-4.5783797,523.56544,111.15394)"
     clip-path="url(#clipPath327-8)" />
  <path
     id="path328"
     d="m 563.90523,159.93391 c 4.45321,0 6.97488,-2.73627 6.97488,-5.79451 0,-5.20432 -9.28193,-4.61412 -9.28193,-7.83329 0,-1.50228 1.39498,-2.68264 3.80933,-2.68264 2.25342,0 4.50684,1.12669 5.31166,2.41436 l 1.55591,-1.77053 c -1.18035,-1.60959 -3.7557,-2.89725 -6.76026,-2.89725 -4.29223,0 -6.7066,2.52167 -6.7066,5.47259 0,4.93603 9.33561,4.3995 9.33561,7.72598 0,1.66326 -1.55595,3.16554 -4.07762,3.16554 -2.62901,0 -4.88243,-1.39497 -5.84818,-2.78995 l -1.77052,1.87787 c 1.60958,2.03881 4.29223,3.11183 7.45772,3.11183 z m 25.49857,-0.42919 0.59016,-2.73631 h -11.42805 l 4.82876,-21.7294 h -3.00455 l -5.41896,24.46571 z m 0,0"
     style="fill:#241f1f;fill-opacity:1;fill-rule:nonzero;stroke:none;stroke-width:4.57837"
     aria-label="sL" />
  <path
     id="path329"
     d="m 439.02816,428.74831 c -2.36072,-4.61415 -3.80933,-8.85275 -3.80933,-14.9155 0,-6.11644 1.44861,-10.30136 3.80933,-14.96918 l -1.66322,-1.234 c -3.27285,4.56048 -5.15068,10.30135 -5.15068,16.20318 0,5.90181 1.87783,11.69632 5.15068,16.20316 z m 6.12986,-10.78425 v -8.04794 c 0.96575,-1.55591 3.1655,-2.84358 5.31162,-2.84358 3.59476,0 5.6872,2.89725 5.6872,6.8139 0,3.91668 -2.09244,6.81393 -5.6872,6.81393 -2.14612,0 -4.34587,-1.23403 -5.31162,-2.73631 z m 0,4.77513 v -2.62901 c 1.34131,1.77056 3.48742,3.05822 6.00912,3.05822 4.61415,0 7.88697,-3.48745 7.88697,-9.28196 0,-5.63354 -3.27282,-9.28193 -7.88697,-9.28193 -2.41439,0 -4.56051,1.18036 -6.00912,3.11186 v -9.4429 h -2.73632 v 24.46572 z m 17.83957,7.29678 c 3.32649,-4.50684 5.20436,-10.30135 5.20436,-16.20316 0,-5.90183 -1.87787,-11.6427 -5.20436,-16.20318 l -1.60958,1.234 c 2.36073,4.66782 3.80937,8.85274 3.80937,14.96918 0,6.06275 -1.44864,10.30135 -3.80937,14.9155 z m 0,0"
     style="fill:#241f1f;fill-opacity:1;fill-rule:nonzero;stroke:none;stroke-width:4.57837"
     aria-label="(b)" />
  <path
     id="path330"
     d="m 582.22771,280.85413 0.5902,-2.73629 h -11.42809 l 4.82877,-21.72943 h -3.00453 l -5.41897,24.46572 z M 594.15207,260.627 c 0.96577,0 2.09248,-0.75113 2.09248,-2.09248 0,-0.85844 -0.75113,-1.60958 -1.66326,-1.60958 -0.96574,0 -2.09244,0.80481 -2.09244,2.09248 0,0.91209 0.69747,1.60958 1.66322,1.60958 z m -3.2728,20.22713 3.91665,-17.70546 h -2.78996 l -3.91664,17.70546 z m 0,0"
     style="fill:#241f1f;fill-opacity:1;fill-rule:nonzero;stroke:none;stroke-width:4.57837"
     aria-label="Li" />
  <path
     id="path331"
     d="m 604.73514,286.86325 c -2.36073,-4.61414 -3.80937,-8.85271 -3.80937,-14.9155 0,-6.11643 1.44865,-10.30135 3.80937,-14.96914 l -1.66325,-1.23403 c -3.27281,4.56051 -5.15068,10.30135 -5.15068,16.20317 0,5.90182 1.87787,11.69633 5.15068,16.20317 z m 11.8707,-5.5799 c 6.65296,0 9.33561,-6.70659 9.33561,-12.60841 0,-6.00913 -2.68265,-12.60845 -9.33561,-12.60845 -6.70663,0 -9.3356,6.59932 -9.3356,12.60845 0,5.90182 2.62897,12.60841 9.3356,12.60841 z m 0,-2.68264 c -4.66782,0 -6.22373,-5.09701 -6.22373,-9.92577 0,-4.88243 1.55591,-9.9258 6.22373,-9.9258 4.66779,0 6.22373,5.04337 6.22373,9.9258 0,4.82876 -1.55594,9.92577 -6.22373,9.92577 z m 0,0"
     style="fill:#241f1f;fill-opacity:1;fill-rule:nonzero;stroke:none;stroke-width:4.57837"
     aria-label="(0" />
  <path
     id="path332"
     d="m 641.54098,261.80734 v -1.8242 h -13.73514 v 1.8242 z m 0,0"
     style="fill:#241f1f;fill-opacity:1;fill-rule:nonzero;stroke:none;stroke-width:4.57837"
     aria-label="‒" />
  <path
     id="path333"
     d="M 0.49251094,1.5932016 C 1.2190734,0.60882656 1.6292297,-0.65679844 1.6292297,-1.9458609 c 0,-1.2890625 -0.4101563,-2.5429688 -1.13671876,-3.5390625 l -0.3515625,0.2695312 c 0.515625,1.0195313 0.83203125,1.9335938 0.83203125,3.2695313 0,1.32421871 -0.31640625,2.24999996 -0.83203125,3.2578125 z m 0,0"
     style="fill:#241f1f;fill-opacity:1;fill-rule:nonzero;stroke:none"
     aria-label=")"
     transform="matrix(4.5783797,0,0,4.5783797,643.18934,280.85664)"
     clip-path="url(#clipPath334-6)" />
  <path
     id="path335"
     d="M 1.8393703,1.3125766 C 1.3237453,0.30476406 1.0073391,-0.62101719 1.0073391,-1.9452359 c 0,-1.3359375 0.3164062,-2.25 0.8320312,-3.2695313 L 1.4760891,-5.4842984 c -0.71484379,0.9960937 -1.12500004,2.25 -1.12500004,3.5390625 0,1.28906246 0.41015625,2.55468746 1.12500004,3.5390625 z M 4.2915188,0.09382656 c 0.703125,0 1.1132812,-0.28125 1.4179687,-0.66796875 l -0.4101562,-0.375 c -0.2460938,0.3515625 -0.5742188,0.50390625 -0.984375,0.50390625 -0.8203125,0 -1.3359375,-0.63281246 -1.3359375,-1.48828126 0,-0.8554687 0.515625,-1.4882812 1.3359375,-1.4882812 0.4101562,0 0.7382812,0.1523437 0.984375,0.5039062 l 0.4101562,-0.375 c -0.3046875,-0.375 -0.7148437,-0.6679687 -1.4179687,-0.6679687 -1.1601563,0 -1.9335938,0.8789062 -1.9335938,2.0273437 0,1.14843751 0.7734375,2.02734376 1.9335938,2.02734376 z M 6.43605,1.5938266 c 0.7265625,-0.98437504 1.1367188,-2.25000004 1.1367188,-3.5390625 0,-1.2890625 -0.4101563,-2.5429688 -1.1367188,-3.5390625 l -0.3515625,0.2695312 c 0.515625,1.0195313 0.8320313,1.9335938 0.8320313,3.2695313 0,1.32421871 -0.3164063,2.24999996 -0.8320313,3.2578125 z m 0,0"
     style="fill:#241f1f;fill-opacity:1;fill-rule:nonzero;stroke:none"
     aria-label="(c)"
     transform="matrix(4.5783797,0,0,4.5783797,951.37573,422.66371)"
     clip-path="url(#clipPath336-5)" />
  <path
     id="path337"
     d="m 751.54333,225.67746 15.2374,-24.46572 h -3.6484 l -12.9303,21.13925 -3.59481,-21.13925 h -3.2727 l 4.3995,24.46572 z m 0,0"
     style="fill:#241f1f;fill-opacity:1;fill-rule:nonzero;stroke:none;stroke-width:4.57837"
     aria-label="V" />
  <path
     id="path338"
     d="m 773.56783,231.68658 c -2.3607,-4.61414 -3.8093,-8.85271 -3.8093,-14.9155 0,-6.11642 1.4486,-10.30135 3.8093,-14.96913 l -1.6632,-1.23403 c -3.2728,4.56051 -5.1506,10.30135 -5.1506,16.20316 0,5.90183 1.8778,11.69634 5.1506,16.20318 z m 0,0"
     style="fill:#241f1f;fill-opacity:1;fill-rule:nonzero;stroke:none;stroke-width:4.57837"
     aria-label="(" />
  <path
     id="path339"
     d="m 781.80353,226.10669 c 4.45329,0 6.97489,-2.73628 6.97489,-5.79451 0,-5.20432 -9.28199,-4.61415 -9.28199,-7.83333 0,-1.50228 1.39509,-2.68264 3.8095,-2.68264 2.2533,0 4.5068,1.12673 5.3116,2.41439 l 1.5559,-1.77056 c -1.1804,-1.60958 -3.7557,-2.89726 -6.7603,-2.89726 -4.2921,0 -6.7066,2.52171 -6.7066,5.4726 0,4.93607 9.3357,4.39954 9.3357,7.72601 0,1.66327 -1.556,3.16555 -4.0777,3.16555 -2.629,0 -4.8824,-1.39497 -5.8481,-2.78996 l -1.7706,1.87784 c 1.6096,2.03881 4.2922,3.11187 7.4577,3.11187 z m 0,0"
     style="fill:#241f1f;fill-opacity:1;fill-rule:nonzero;stroke:none;stroke-width:4.57837"
     aria-label="s" />
  <path
     id="path340"
     d="m 793.51332,232.97426 c 3.3265,-4.50684 5.2043,-10.30135 5.2043,-16.20318 0,-5.90181 -1.87779,-11.64265 -5.2043,-16.20316 l -1.6096,1.23403 c 2.3607,4.66778 3.8094,8.85271 3.8094,14.96913 0,6.06279 -1.44869,10.30136 -3.8094,14.9155 z m 0,0"
     style="fill:#241f1f;fill-opacity:1;fill-rule:nonzero;stroke:none;stroke-width:4.57837"
     aria-label=")" />
  <path
     id="path341"
     d="M 0,0 H 65.624 M 31.723,0 v -59.01 m 33.901,0 H 0 M 65.661,0.2 v -59.41"
     style="fill:none;stroke:#275b8d;stroke-width:0.5;stroke-linecap:butt;stroke-linejoin:miter;stroke-miterlimit:4;stroke-dasharray:none;stroke-opacity:1"
     transform="matrix(4.5783797,0,0,-4.5783797,778.41822,72.110884)"
     clip-path="url(#clipPath342-6)" />
  <path
     id="path343"
     d="M 0,0 H 15.985"
     style="fill:none;stroke:#c13439;stroke-width:0.75;stroke-linecap:butt;stroke-linejoin:miter;stroke-miterlimit:4;stroke-dasharray:none;stroke-opacity:1"
     transform="matrix(4.5783797,0,0,-4.5783797,803.19003,45.002324)"
     clip-path="url(#clipPath344-2)" />
  <path
     id="path345"
     d="M 0,0 6.099,1.633 0,3.267 Z"
     style="fill:#c13439;fill-opacity:1;fill-rule:nonzero;stroke:none"
     transform="matrix(4.5783797,0,0,-4.5783797,871.27052,52.387224)"
     clip-path="url(#clipPath346-3)" />
  <path
     id="path347"
     d="m 831.88853,25.109554 5.36529,-24.46572026 h -3.00459 l -5.4188,24.46572026 z m 0,0"
     style="fill:#241f1f;fill-opacity:1;fill-rule:nonzero;stroke:none;stroke-width:4.57837"
     aria-label="I" />
  <path
     id="path348"
     d="m 846.61622,31.118674 c -2.36069,-4.61415 -3.8094,-8.85271 -3.8094,-14.9155 0,-6.11644 1.4487,-10.3013702 3.8094,-14.9691502 L 844.95303,-6.2570024e-6 C 841.68023,4.5605038 839.80243,10.301344 839.80243,16.203174 c 0,5.90181 1.8778,11.69632 5.1506,16.20316 z m 0,0"
     style="fill:#241f1f;fill-opacity:1;fill-rule:nonzero;stroke:none;stroke-width:4.57837"
     aria-label="(" />
  <path
     id="path349"
     d="m 854.83863,25.538764 c 4.4532,0 6.9748,-2.73627 6.9748,-5.79451 0,-5.20431 -9.2819,-4.61415 -9.2819,-7.83331 0,-1.50229 1.395,-2.6826502 3.80929,-2.6826502 2.25351,0 4.50691,1.1267202 5.3117,2.4144002 l 1.55591,-1.7705702 c -1.1803,-1.60959 -3.7557,-2.89725 -6.7602,-2.89725 -4.2923,0 -6.7066,2.5217 -6.7066,5.4725902 0,4.93607 9.33559,4.39953 9.33559,7.72602 0,1.66325 -1.556,3.16553 -4.0777,3.16553 -2.62899,0 -4.8825,-1.39497 -5.84819,-2.78994 l -1.77051,1.87783 c 1.6096,2.03881 4.29231,3.11186 7.45781,3.11186 z m 0,0"
     style="fill:#241f1f;fill-opacity:1;fill-rule:nonzero;stroke:none;stroke-width:4.57837"
     aria-label="s" />
  <path
     id="path350"
     d="m 866.56173,32.406334 c 3.32639,-4.50684 5.2043,-10.30135 5.2043,-16.20316 0,-5.90183 -1.8779,-11.6426702 -5.2043,-16.2031802570023 L 864.95213,1.2340238 c 2.36069,4.66778 3.8094,8.8527102 3.8094,14.9691502 0,6.06279 -1.4487,10.30135 -3.8094,14.9155 z m 0,0"
     style="fill:#241f1f;fill-opacity:1;fill-rule:nonzero;stroke:none;stroke-width:4.57837"
     aria-label=")" />
  <path
     id="path351"
     d="m 779.38922,109.86771 v -2.41436 h -9.5502 v -9.603886 h -2.41439 v 9.603886 h -9.5502 v 2.41436 h 9.5502 v 9.55022 h 2.41439 v -9.55022 z m 0,0"
     style="fill:#241f1f;fill-opacity:1;fill-rule:nonzero;stroke:none;stroke-width:4.57837"
     aria-label="+" />
  <path
     id="path352"
     d="m 779.26842,316.02893 v -2.4144 h -18.29559 v 2.4144 z m 0,0"
     style="fill:#241f1f;fill-opacity:1;fill-rule:nonzero;stroke:none;stroke-width:4.57837"
     aria-label="‒" />
  <path
     id="path353"
     d="M 0,0 C 1.016,0 1.838,0.823 1.838,1.839 1.838,2.855 1.016,3.678 0,3.678 -1.016,3.678 -1.839,2.855 -1.839,1.839 -1.839,0.823 -1.016,0 0,0"
     style="fill:#ffffff;fill-opacity:1;fill-rule:nonzero;stroke:#c13439;stroke-width:0.5;stroke-linecap:butt;stroke-linejoin:miter;stroke-miterlimit:4;stroke-dasharray:none;stroke-opacity:1"
     transform="matrix(4.5783797,0,0,-4.5783797,769.83382,350.67785)"
     clip-path="url(#clipPath354-4)" />
  <path
     id="path355"
     d="M 0,0 C 1.016,0 1.838,0.823 1.838,1.839 1.838,2.854 1.016,3.677 0,3.677 -1.016,3.677 -1.839,2.854 -1.839,1.839 -1.839,0.823 -1.016,0 0,0"
     style="fill:#ffffff;fill-opacity:1;fill-rule:nonzero;stroke:#c13439;stroke-width:0.5;stroke-linecap:butt;stroke-linejoin:miter;stroke-miterlimit:4;stroke-dasharray:none;stroke-opacity:1"
     transform="matrix(4.5783797,0,0,-4.5783797,769.83382,80.264994)"
     clip-path="url(#clipPath356-6)" />
  <path
     id="path357"
     d="m 473.746,154.092 h 3.05 v 16.449 h -3.05 z"
     style="fill:#ffffff;fill-opacity:1;fill-rule:nonzero;stroke:none"
     transform="matrix(4.5783797,0,0,-4.5783797,-1252.4045,950.03339)"
     clip-path="url(#clipPath358-2)" />
  <path
     id="path359"
     d="M 0,0 C 1.817,0 3.291,-1.148 3.291,-2.564 3.291,-3.98 1.817,-5.128 0,-5.128 c -0.872,0 -1.67,0.261 -2.259,0.692 0.59,0.435 1.382,0.698 2.259,0.698 1.817,0 3.291,-1.148 3.291,-2.564 0,-1.416 -1.474,-2.563 -3.291,-2.563 -0.872,0 -1.67,0.249 -2.259,0.679 0.59,0.436 1.382,0.688 2.259,0.688 1.817,0 3.291,-1.147 3.291,-2.563 0,-1.417 -1.474,-2.564 -3.291,-2.564 -0.872,0 -1.67,0.249 -2.259,0.679 0.59,0.436 1.382,0.688 2.259,0.688 1.817,0 3.291,-1.148 3.291,-2.564 0,-1.415 -1.474,-2.563 -3.291,-2.563"
     style="fill:none;stroke:#078c53;stroke-width:0.5;stroke-linecap:round;stroke-linejoin:bevel;stroke-miterlimit:4;stroke-dasharray:none;stroke-opacity:1"
     transform="matrix(4.5783797,0,0,-4.5783797,923.58953,169.42895)"
     clip-path="url(#clipPath360-1)" />
  <path
     id="path361"
     d="m 964.29052,218.20631 c 4.4532,0 6.9748,-2.73628 6.9748,-5.79452 0,-5.20431 -9.282,-4.61415 -9.282,-7.83332 0,-1.50229 1.395,-2.68264 3.80941,-2.68264 2.2535,0 4.5069,1.12672 5.31169,2.41439 l 1.55591,-1.77056 c -1.1803,-1.60959 -3.7557,-2.89726 -6.7602,-2.89726 -4.2923,0 -6.7067,2.52171 -6.7067,5.4726 0,4.93606 9.3357,4.39954 9.3357,7.72601 0,1.66326 -1.556,3.16555 -4.0777,3.16555 -2.629,0 -4.8824,-1.39498 -5.8482,-2.78996 l -1.7705,1.87784 c 1.6096,2.03881 4.2923,3.11187 7.45779,3.11187 z m 24.7608,-0.42923 0.5902,-2.73628 h -11.4281 l 4.8287,-21.72944 h -3.0045 l -5.419,24.46572 z m 0,0"
     style="fill:#241f1f;fill-opacity:1;fill-rule:nonzero;stroke:none;stroke-width:4.57837"
     aria-label="sL" />
  <path
     id="path362"
     d="m 0,0 c -3.712,0 -6.721,-3.008 -6.721,-6.72 0,-3.712 3.009,-6.72 6.721,-6.72 3.711,0 6.721,3.008 6.721,6.72 C 6.721,-3.008 3.711,0 0,0"
     style="fill:#ffeda7;fill-opacity:1;fill-rule:nonzero;stroke:#c13439;stroke-width:0.5;stroke-linecap:butt;stroke-linejoin:miter;stroke-miterlimit:4;stroke-dasharray:none;stroke-opacity:1"
     transform="matrix(4.5783797,0,0,-4.5783797,1079.2773,175.4312)"
     clip-path="url(#clipPath363-7)" />
  <path
     id="path364"
     d="M 0,0 V -5.282"
     style="fill:none;stroke:#c13439;stroke-width:0.75;stroke-linecap:butt;stroke-linejoin:miter;stroke-miterlimit:4;stroke-dasharray:none;stroke-opacity:1"
     transform="matrix(4.5783797,0,0,-4.5783797,1079.2415,182.5414)"
     clip-path="url(#clipPath365-5)" />
  <path
     id="path366"
     d="M 0,0 1.633,-6.098 3.268,0 Z"
     style="fill:#c13439;fill-opacity:1;fill-rule:nonzero;stroke:none"
     transform="matrix(4.5783797,0,0,-4.5783797,1071.8511,201.61951)"
     clip-path="url(#clipPath367-4)" />
  <path
     id="path368"
     d="m 1139.4537,181.9101 c 0.9657,0 2.0924,-0.75114 2.0924,-2.09245 0,-0.85845 -0.7511,-1.60958 -1.6632,-1.60958 -0.9657,0 -2.0925,0.80477 -2.0925,2.09244 0,0.91211 0.6976,1.60959 1.6633,1.60959 z m -3.2729,20.22716 3.9168,-17.70546 h -2.79 l -3.9167,17.70546 z m 0,0"
     style="fill:#241f1f;fill-opacity:1;fill-rule:nonzero;stroke:none;stroke-width:4.57837"
     aria-label="i" />
  <path
     id="path369"
     d="m 1150.7611,208.14638 c -2.3608,-4.61415 -3.8094,-8.85275 -3.8094,-14.9155 0,-6.11643 1.4486,-10.30136 3.8094,-14.96918 l -1.6633,-1.234 c -3.2729,4.56048 -5.1507,10.30136 -5.1507,16.20318 0,5.90181 1.8778,11.69633 5.1507,16.20317 z m 11.8707,-5.5799 c 6.6528,0 9.3355,-6.70663 9.3355,-12.60845 0,-6.00912 -2.6827,-12.60841 -9.3355,-12.60841 -6.7067,0 -9.3357,6.59929 -9.3357,12.60841 0,5.90182 2.629,12.60845 9.3357,12.60845 z m 0,-2.68265 c -4.6679,0 -6.2238,-5.09704 -6.2238,-9.9258 0,-4.88239 1.5559,-9.92576 6.2238,-9.92576 4.6678,0 6.2237,5.04337 6.2237,9.92576 0,4.82876 -1.5559,9.9258 -6.2237,9.9258 z m 0,0"
     style="fill:#241f1f;fill-opacity:1;fill-rule:nonzero;stroke:none;stroke-width:4.57837"
     aria-label="(0" />
  <path
     id="path370"
     d="m 1187.5803,183.09047 v -1.82421 h -13.7351 v 1.82421 z m 0,0"
     style="fill:#241f1f;fill-opacity:1;fill-rule:nonzero;stroke:none;stroke-width:4.57837"
     aria-label="‒" />
  <path
     id="path371"
     d="m 1191.4702,209.43405 c 3.3265,-4.50684 5.2044,-10.30136 5.2044,-16.20317 0,-5.90182 -1.8779,-11.6427 -5.2044,-16.20318 l -1.6096,1.234 c 2.3607,4.66782 3.8094,8.85275 3.8094,14.96918 0,6.06275 -1.4487,10.30135 -3.8094,14.9155 z m 0,0"
     style="fill:#241f1f;fill-opacity:1;fill-rule:nonzero;stroke:none;stroke-width:4.57837"
     aria-label=")" />
  <path
     id="path372"
     d="M 0,0 H 14.955"
     style="fill:none;stroke:#241f1f;stroke-width:0.5;stroke-linecap:butt;stroke-linejoin:miter;stroke-miterlimit:4;stroke-dasharray:none;stroke-opacity:1"
     transform="matrix(4.5783797,0,0,-4.5783797,1131.5303,214.28791)"
     clip-path="url(#clipPath373-8)" />
  <path
     id="path374"
     d="m 1160.7539,239.85522 c 4.4532,0 6.9748,-2.73628 6.9748,-5.79452 0,-5.2043 -9.2819,-4.61414 -9.2819,-7.83331 0,-1.50228 1.395,-2.68265 3.8094,-2.68265 2.2533,0 4.5068,1.12673 5.3116,2.4144 l 1.5559,-1.77056 c -1.1803,-1.60959 -3.7557,-2.89726 -6.7602,-2.89726 -4.2922,0 -6.7066,2.5217 -6.7066,5.4726 0,4.93605 9.3356,4.39953 9.3356,7.72601 0,1.66325 -1.5559,3.16554 -4.0777,3.16554 -2.6289,0 -4.8824,-1.39498 -5.8481,-2.78995 l -1.7706,1.87783 c 1.6096,2.03881 4.2923,3.11187 7.4578,3.11187 z m 0,0"
     style="fill:#241f1f;fill-opacity:1;fill-rule:nonzero;stroke:none;stroke-width:4.57837"
     aria-label="s" />
  <path
     id="path375"
     d="m 0,0 c -3.713,0 -6.721,-3.008 -6.721,-6.721 0,-3.711 3.008,-6.72 6.721,-6.72 3.711,0 6.721,3.009 6.721,6.72 C 6.721,-3.008 3.711,0 0,0"
     style="fill:#ffeda7;fill-opacity:1;fill-rule:nonzero;stroke:#c13439;stroke-width:0.5;stroke-linecap:butt;stroke-linejoin:miter;stroke-miterlimit:4;stroke-dasharray:none;stroke-opacity:1"
     transform="matrix(4.5783797,0,0,-4.5783797,524.41242,237.49023)"
     clip-path="url(#clipPath376-4)" />
  <path
     id="path377"
     d="m 514.18245,278.21169 v 2.4144 h 9.55021 v 9.60385 h 2.41436 v -9.60385 h 9.55022 v -2.4144 h -9.55022 v -9.55021 h -2.41436 v 9.55021 z m 0,0"
     style="fill:#c13439;fill-opacity:1;fill-rule:nonzero;stroke:none;stroke-width:4.57837"
     aria-label="+" />
  <path
     id="path378"
     d="m 515.80547,252.04254 v 2.41437 h 18.29561 v -2.41437 z m 0,0"
     style="fill:#c13439;fill-opacity:1;fill-rule:nonzero;stroke:none;stroke-width:4.57837"
     aria-label="‒" />
</svg>
