<?xml version="1.0" encoding="UTF-8" standalone="no"?>
<!-- Created with Inkscape (http://www.inkscape.org/) -->

<svg
   version="1.1"
   id="svg1"
   width="1200"
   height="381.53644"
   viewBox="0 0 1200 381.53644"
   xmlns="http://www.w3.org/2000/svg"
   xmlns:svg="http://www.w3.org/2000/svg">
  <defs
     id="defs1">
    <clipPath
       clipPathUnits="userSpaceOnUse"
       id="clipPath543-9">
      <path
         d="M 243.967,616.276 H 540 V 712 H 243.967 Z"
         transform="translate(-374.09001,-646.24302)"
         id="path543-3" />
    </clipPath>
    <clipPath
       clipPathUnits="userSpaceOnUse"
       id="clipPath540-4">
      <path
         d="M 243.967,616.276 H 540 V 712 H 243.967 Z"
         transform="translate(-450.91101,-665.87902)"
         id="path540-4" />
    </clipPath>
    <clipPath
       clipPathUnits="userSpaceOnUse"
       id="clipPath536-6">
      <path
         d="M 243.967,616.276 H 540 V 712 H 243.967 Z"
         transform="translate(-383.71001,-676.29102)"
         id="path536-0" />
    </clipPath>
    <clipPath
       clipPathUnits="userSpaceOnUse"
       id="clipPath532-6">
      <path
         d="M 243.967,616.276 H 540 V 712 H 243.967 Z"
         transform="translate(-512.58311,-664.55071)"
         id="path532-6" />
    </clipPath>
    <clipPath
       clipPathUnits="userSpaceOnUse"
       id="clipPath530-1">
      <path
         d="M 243.967,616.276 H 540 V 712 H 243.967 Z"
         transform="translate(-510.97001,-660.38362)"
         id="path530-8" />
    </clipPath>
    <clipPath
       clipPathUnits="userSpaceOnUse"
       id="clipPath528-4">
      <path
         d="M 243.967,616.276 H 540 V 712 H 243.967 Z"
         transform="translate(-511.06202,-658.83001)"
         id="path528-9" />
    </clipPath>
    <clipPath
       clipPathUnits="userSpaceOnUse"
       id="clipPath524-6">
      <path
         d="M 243.967,616.276 H 540 V 712 H 243.967 Z"
         transform="translate(-469.10401,-667.03501)"
         id="path524-3" />
    </clipPath>
    <clipPath
       clipPathUnits="userSpaceOnUse"
       id="clipPath522-7">
      <path
         d="M 243.967,616.276 H 540 V 712 H 243.967 Z"
         transform="translate(0,2.5000001e-5)"
         id="path522-8" />
    </clipPath>
    <clipPath
       clipPathUnits="userSpaceOnUse"
       id="clipPath520-8">
      <path
         d="M 243.967,616.276 H 540 V 712 H 243.967 Z"
         transform="matrix(1,0,0,-1,-531.13701,662.68201)"
         id="path520-2" />
    </clipPath>
    <clipPath
       clipPathUnits="userSpaceOnUse"
       id="clipPath516-9">
      <path
         d="M 243.967,616.276 H 540 V 712 H 243.967 Z"
         transform="translate(-427.48001,-693.28552)"
         id="path516-1" />
    </clipPath>
    <clipPath
       clipPathUnits="userSpaceOnUse"
       id="clipPath514-3">
      <path
         d="M 243.967,616.276 H 540 V 712 H 243.967 Z"
         transform="translate(-427.48001,-634.22302)"
         id="path514-5" />
    </clipPath>
    <clipPath
       clipPathUnits="userSpaceOnUse"
       id="clipPath510-9">
      <path
         d="M 243.967,616.276 H 540 V 712 H 243.967 Z"
         transform="matrix(1,0,0,-1,-452.11401,705.33172)"
         id="path510-8" />
    </clipPath>
    <clipPath
       clipPathUnits="userSpaceOnUse"
       id="clipPath508-4">
      <path
         d="M 243.967,616.276 H 540 V 712 H 243.967 Z"
         transform="matrix(1,0,0,-1,-448.39401,705.33172)"
         id="path508-0" />
    </clipPath>
    <clipPath
       clipPathUnits="userSpaceOnUse"
       id="clipPath506-7">
      <path
         d="M 243.967,616.276 H 540 V 712 H 243.967 Z"
         transform="matrix(1,0,0,-1,-446.41001,705.33172)"
         id="path506-6" />
    </clipPath>
    <clipPath
       clipPathUnits="userSpaceOnUse"
       id="clipPath504-3">
      <path
         d="M 243.967,616.276 H 540 V 712 H 243.967 Z"
         transform="matrix(1,0,0,-1,-444.17801,705.33172)"
         id="path504-6" />
    </clipPath>
    <clipPath
       clipPathUnits="userSpaceOnUse"
       id="clipPath502-1">
      <path
         d="M 243.967,616.276 H 540 V 712 H 243.967 Z"
         transform="translate(-453.63701,-699.37372)"
         id="path502-5" />
    </clipPath>
    <clipPath
       clipPathUnits="userSpaceOnUse"
       id="clipPath500-4">
      <path
         d="M 243.967,616.276 H 540 V 712 H 243.967 Z"
         transform="translate(-438.76601,-700.98742)"
         id="path500-2" />
    </clipPath>
    <clipPath
       clipPathUnits="userSpaceOnUse"
       id="clipPath498-0">
      <path
         d="M 243.967,616.276 H 540 V 712 H 243.967 Z"
         transform="translate(-429.35501,-695.06602)"
         id="path498-9" />
    </clipPath>
    <clipPath
       clipPathUnits="userSpaceOnUse"
       id="clipPath492-7">
      <path
         d="M 243.967,616.276 H 540 V 712 H 243.967 Z"
         transform="matrix(1,0,0,-1,-475.55201,618.47452)"
         id="path492-3" />
    </clipPath>
    <clipPath
       clipPathUnits="userSpaceOnUse"
       id="clipPath490-7">
      <path
         d="M 243.967,616.276 H 540 V 712 H 243.967 Z"
         transform="translate(-333.95901,-693.21852)"
         id="path490-2" />
    </clipPath>
    <clipPath
       clipPathUnits="userSpaceOnUse"
       id="clipPath488-6">
      <path
         d="M 243.967,616.276 H 540 V 712 H 243.967 Z"
         transform="translate(-333.95901,-634.15602)"
         id="path488-0" />
    </clipPath>
    <clipPath
       clipPathUnits="userSpaceOnUse"
       id="clipPath480-1">
      <path
         d="M 243.967,616.276 H 540 V 712 H 243.967 Z"
         transform="matrix(1,0,0,-1,-361.34201,618.47401)"
         id="path480-6" />
    </clipPath>
    <clipPath
       clipPathUnits="userSpaceOnUse"
       id="clipPath476-5">
      <path
         d="M 243.967,616.276 H 540 V 712 H 243.967 Z"
         transform="translate(-374.02061,-677.40952)"
         id="path476-7" />
    </clipPath>
    <clipPath
       clipPathUnits="userSpaceOnUse"
       id="clipPath474-5">
      <path
         d="M 243.967,616.276 H 540 V 712 H 243.967 Z"
         transform="translate(4.0000001e-4,4.7500001e-4)"
         id="path474-4" />
    </clipPath>
    <clipPath
       clipPathUnits="userSpaceOnUse"
       id="clipPath472-1">
      <path
         d="M 243.967,616.276 H 540 V 712 H 243.967 Z"
         transform="matrix(1,0,0,-1,-357.63661,705.32752)"
         id="path472-2" />
    </clipPath>
    <clipPath
       clipPathUnits="userSpaceOnUse"
       id="clipPath470-0">
      <path
         d="M 243.967,616.276 H 540 V 712 H 243.967 Z"
         transform="matrix(1,0,0,-1,-353.91661,705.32752)"
         id="path470-0" />
    </clipPath>
    <clipPath
       clipPathUnits="userSpaceOnUse"
       id="clipPath468-1">
      <path
         d="M 243.967,616.276 H 540 V 712 H 243.967 Z"
         transform="matrix(1,0,0,-1,-351.93261,705.32752)"
         id="path468-4" />
    </clipPath>
    <clipPath
       clipPathUnits="userSpaceOnUse"
       id="clipPath466-6">
      <path
         d="M 243.967,616.276 H 540 V 712 H 243.967 Z"
         transform="matrix(1,0,0,-1,-349.70061,705.32752)"
         id="path466-0" />
    </clipPath>
    <clipPath
       clipPathUnits="userSpaceOnUse"
       id="clipPath464-7">
      <path
         d="M 243.967,616.276 H 540 V 712 H 243.967 Z"
         transform="translate(-359.15961,-699.36952)"
         id="path464-1" />
    </clipPath>
    <clipPath
       clipPathUnits="userSpaceOnUse"
       id="clipPath462-7">
      <path
         d="M 243.967,616.276 H 540 V 712 H 243.967 Z"
         transform="translate(-344.28861,-700.98332)"
         id="path462-7" />
    </clipPath>
    <clipPath
       clipPathUnits="userSpaceOnUse"
       id="clipPath460-7">
      <path
         d="M 243.967,616.276 H 540 V 712 H 243.967 Z"
         transform="translate(-335.76201,-636.05701)"
         id="path460-7" />
    </clipPath>
    <clipPath
       clipPathUnits="userSpaceOnUse"
       id="clipPath455-3">
      <path
         d="M 243.967,616.276 H 540 V 712 H 243.967 Z"
         transform="translate(-249.37601,-693.19752)"
         id="path455-3" />
    </clipPath>
    <clipPath
       clipPathUnits="userSpaceOnUse"
       id="clipPath453-5">
      <path
         d="M 243.967,616.276 H 540 V 712 H 243.967 Z"
         transform="translate(-249.37601,-634.13502)"
         id="path453-9" />
    </clipPath>
    <clipPath
       clipPathUnits="userSpaceOnUse"
       id="clipPath446-9">
      <path
         d="M 243.967,616.276 H 540 V 712 H 243.967 Z"
         transform="matrix(1,0,0,-1,-243.96701,661.09801)"
         id="path446-8" />
    </clipPath>
    <clipPath
       clipPathUnits="userSpaceOnUse"
       id="clipPath442-1">
      <path
         d="M 243.967,616.276 H 540 V 712 H 243.967 Z"
         transform="matrix(1,0,0,-1,-266.45101,618.45202)"
         id="path442-8" />
    </clipPath>
    <clipPath
       clipPathUnits="userSpaceOnUse"
       id="clipPath436-2">
      <path
         d="M 243.967,616.276 H 540 V 712 H 243.967 Z"
         transform="matrix(1,0,0,-1,-272.55401,705.30702)"
         id="path436-6" />
    </clipPath>
    <clipPath
       clipPathUnits="userSpaceOnUse"
       id="clipPath434-6">
      <path
         d="M 243.967,616.276 H 540 V 712 H 243.967 Z"
         transform="matrix(1,0,0,-1,-269.72201,705.30702)"
         id="path434-0" />
    </clipPath>
    <clipPath
       clipPathUnits="userSpaceOnUse"
       id="clipPath432-3">
      <path
         d="M 243.967,616.276 H 540 V 712 H 243.967 Z"
         transform="matrix(1,0,0,-1,-267.73801,705.30702)"
         id="path432-8" />
    </clipPath>
    <clipPath
       clipPathUnits="userSpaceOnUse"
       id="clipPath430-0">
      <path
         d="M 243.967,616.276 H 540 V 712 H 243.967 Z"
         transform="matrix(1,0,0,-1,-265.61801,705.30702)"
         id="path430-1" />
    </clipPath>
  </defs>
  <path
     id="path426"
     d="M 28.620464,303.65776 H 183.72749 V 64.035122 H 28.620464"
     style="fill:none;stroke:#275b8d;stroke-width:2.03036;stroke-linecap:butt;stroke-linejoin:miter;stroke-miterlimit:4;stroke-dasharray:none;stroke-opacity:1" />
  <path
     id="path427"
     d="M 63.243742,40.010732 H 128.15829"
     style="fill:none;stroke:#c13439;stroke-width:3.04553;stroke-linecap:butt;stroke-linejoin:miter;stroke-miterlimit:4;stroke-dasharray:none;stroke-opacity:1" />
  <path
     id="path428"
     d="m 123.63099,46.563892 24.76223,-6.63521 -24.76223,-6.63518 z"
     style="fill:#c13439;fill-opacity:1;fill-rule:nonzero;stroke:none;stroke-width:4.0607" />
  <path
     id="path429"
     d="m 1.4869688,-4.4190859 c 0.2109375,0 0.4570312,-0.1640625 0.4570312,-0.4570313 0,-0.1875 -0.1640625,-0.3515625 -0.3632812,-0.3515625 -0.2109375,0 -0.4570313,0.1757813 -0.4570313,0.4570313 0,0.1992187 0.1523438,0.3515625 0.3632813,0.3515625 z M 0.772125,-0.00111719 1.6275938,-3.8683047 H 1.0182188 L 0.16275,-0.00111719 Z m 0,0"
     style="fill:#241f1f;fill-opacity:1;fill-rule:nonzero;stroke:none"
     aria-label="i"
     transform="matrix(4.0607123,0,0,4.0607123,87.255131,22.370172)"
     clip-path="url(#clipPath430-0)" />
  <path
     id="path431"
     d="M 1.839625,1.3113828 C 1.324,0.30357031 1.0075938,-0.62221094 1.0075938,-1.9464297 c 0,-1.3359375 0.3164062,-2.25 0.8320312,-3.2695312 L 1.4763438,-5.4854922 c -0.7148438,0.9960938 -1.12500005,2.25 -1.12500005,3.5390625 0,1.28906251 0.41015625,2.55468751 1.12500005,3.5390625 z m 0,0"
     style="fill:#241f1f;fill-opacity:1;fill-rule:nonzero;stroke:none"
     aria-label="("
     transform="matrix(4.0607123,0,0,4.0607123,95.863852,22.370172)"
     clip-path="url(#clipPath432-3)" />
  <path
     id="path433"
     d="m 1.3233984,0.09263281 c 0.234375,0 0.4453125,-0.0703125 0.5859375,-0.1875 l -0.070312,-0.46875 c -0.082031,0.0703125 -0.2226562,0.1171875 -0.3632812,0.1171875 -0.2578125,0 -0.3867188,-0.1171875 -0.3867188,-0.3515625 0,-0.0585938 0.011719,-0.1171875 0.011719,-0.1640625 L 1.6280859,-3.3409609 H 2.4132422 L 2.5421484,-3.8683047 H 1.7569922 L 1.9796484,-4.9229922 H 1.3819922 l -0.234375,1.0546875 H 0.51480469 L 0.38589844,-3.3409609 H 1.0304297 l -0.56250001,2.50781246 c -0.0117188,0.0820313 -0.0234375,0.1875 -0.0234375,0.22265625 0,0.48046875 0.3515625,0.703125 0.87890621,0.703125 z m 0,0"
     style="fill:#241f1f;fill-opacity:1;fill-rule:nonzero;stroke:none"
     aria-label="t"
     transform="matrix(4.0607123,0,0,4.0607123,103.92029,22.370172)"
     clip-path="url(#clipPath434-6)" />
  <path
     id="path435"
     d="m 0.492375,1.5926328 c 0.7265625,-0.98437499 1.1367187,-2.24999999 1.1367187,-3.5390625 0,-1.2890625 -0.4101562,-2.5429687 -1.1367187,-3.5390625 l -0.3515625,0.2695313 c 0.515625,1.0195312 0.83203125,1.9335937 0.83203125,3.2695312 0,1.32421876 -0.31640625,2.25000001 -0.83203125,3.2578125 z m 0,0"
     style="fill:#241f1f;fill-opacity:1;fill-rule:nonzero;stroke:none"
     aria-label=")"
     transform="matrix(4.0607123,0,0,4.0607123,115.42023,22.370172)"
     clip-path="url(#clipPath436-2)" />
  <path
     id="path437"
     d="m 161.89913,178.87829 h 44.72062 v 10.18427 h -44.72062 z"
     style="fill:#ffffff;fill-opacity:1;fill-rule:nonzero;stroke:none;stroke-width:4.0607" />
  <path
     id="path438"
     d="m 183.97725,178.87817 h 22.2324 m -22.22834,9.55893 h 22.44762 m -22.45168,-9.55893 h -22.2324 m 22.23646,9.55893 h -22.24458"
     style="fill:none;stroke:#078c53;stroke-width:2.03036;stroke-linecap:butt;stroke-linejoin:miter;stroke-miterlimit:4;stroke-dasharray:none;stroke-opacity:1" />
  <path
     id="path439"
     d="m 130.05382,137.14421 v -2.14138 h -8.47039 v -8.51799 h -2.14139 v 8.51799 h -8.47039 v 2.14138 h 8.47039 v 8.47039 h 2.14139 v -8.47039 z m 0,0"
     style="fill:#241f1f;fill-opacity:1;fill-rule:nonzero;stroke:none;stroke-width:4.0607"
     aria-label="+" />
  <path
     id="path440"
     d="m 128.87607,225.32196 v -2.14141 h -16.22699 v 2.14141 z m 0,0"
     style="fill:#241f1f;fill-opacity:1;fill-rule:nonzero;stroke:none;stroke-width:4.0607"
     aria-label="‒" />
  <path
     id="path441"
     d="M 1.8404922,1.3128281 C 1.3248672,0.30501562 1.0084609,-0.62076563 1.0084609,-1.9449844 c 0,-1.3359375 0.3164063,-2.25 0.8320313,-3.2695312 L 1.4772109,-5.4840469 c -0.71484371,0.9960938 -1.12499996,2.25 -1.12499996,3.5390625 0,1.28906252 0.41015625,2.55468752 1.12499996,3.5390625 z M 5.6051406,3.28125e-4 V -2.6598281 c 0,-0.9375 -0.6796875,-1.3007813 -1.5,-1.3007813 -0.6328125,0 -1.125,0.2109375 -1.546875,0.6445313 l 0.28125,0.4101562 c 0.3398438,-0.3632812 0.7265625,-0.5390625 1.1835938,-0.5390625 0.5625,0 0.9726562,0.3046875 0.9726562,0.8203125 v 0.6914063 c -0.3046875,-0.3515625 -0.75,-0.5273438 -1.2773437,-0.5273438 -0.65625,0 -1.3476563,0.4101563 -1.3476563,1.2773438 0,0.84374997 0.6914063,1.27734372 1.3476563,1.27734372 0.5273437,0 0.9609375,-0.1875 1.2773437,-0.5390625 V 3.28125e-4 Z M 3.9410781,-0.33951563 c -0.5625,0 -0.9609375,-0.3515625 -0.9609375,-0.83203127 0,-0.5039062 0.3984375,-0.8554687 0.9609375,-0.8554687 0.421875,0 0.8320313,0.1640625 1.0546875,0.4804687 v 0.72656252 c -0.2226562,0.328125 -0.6328125,0.48046875 -1.0546875,0.48046875 z M 6.6920547,1.5940781 c 0.7265625,-0.98437498 1.1367187,-2.24999998 1.1367187,-3.5390625 0,-1.2890625 -0.4101562,-2.5429687 -1.1367187,-3.5390625 l -0.3515625,0.2695313 c 0.515625,1.0195312 0.8320312,1.9335937 0.8320312,3.2695312 0,1.32421877 -0.3164062,2.25000002 -0.8320312,3.2578125 z m 0,0"
     style="fill:#241f1f;fill-opacity:1;fill-rule:nonzero;stroke:none"
     aria-label="(a)"
     transform="matrix(4.0607123,0,0,4.0607123,90.637715,375.06336)"
     clip-path="url(#clipPath442-1)" />
  <path
     id="path443"
     d="m 30.669484,97.802122 v -2.14141 h -8.470392 v -8.51796 H 20.0577 v 8.51796 h -8.470392 v 2.14141 H 20.0577 v 8.470358 h 2.141392 v -8.470358 z m 0,0"
     style="fill:#241f1f;fill-opacity:1;fill-rule:nonzero;stroke:none;stroke-width:4.0607"
     aria-label="+" />
  <path
     id="path444"
     d="m 29.396554,280.70071 v -2.14138 H 13.16957 v 2.14138 z m 0,0"
     style="fill:#241f1f;fill-opacity:1;fill-rule:nonzero;stroke:none;stroke-width:4.0607"
     aria-label="‒" />
  <path
     id="path445"
     d="M 1.6516406,-0.56363281 C 1.6047656,-1.6417578 1.5578906,-2.0870703 1.4524219,-2.6144141 1.2883594,-3.4816016 1.2883594,-3.5284766 1.2180469,-3.5284766 c -0.046875,0 -0.09375,0 -0.1640625,0.035156 -0.25781252,0.046875 -0.53906252,0.1054687 -0.89062502,0.1640625 v 0.1054687 c 0.0820313,-0.011719 0.1640625,-0.011719 0.24609375,-0.011719 0.29296875,0 0.38671875,0.140625 0.48046875,0.75 0.10546875,0.5976562 0.19921872,1.66406249 0.19921872,2.21484374 v 0.19921875 c 0,0.12890625 0.023437,0.2109375 0.070312,0.2109375 0.140625,0 0.3515625,-0.2578125 0.796875,-0.73828125 0.140625,-0.15234375 0.5859375,-0.65625004 0.9492188,-1.21875004 0.28125,-0.4335937 0.5039062,-0.9023437 0.5039062,-1.2421875 0,-0.2109375 -0.1875,-0.46875 -0.4453125,-0.46875 -0.1757812,0 -0.3046875,0.1054688 -0.3046875,0.2695313 0,0.1289062 0.058594,0.234375 0.1992188,0.3632812 0.1054687,0.09375 0.140625,0.1523438 0.140625,0.234375 0,0.375 -0.515625,1.2539063 -1.0898438,1.83984379 z m 0,0"
     style="fill:#241f1f;fill-opacity:1;fill-rule:nonzero;stroke:none"
     aria-label="v"
     transform="matrix(4.0607123,0,0,4.0607123,-0.66335425,201.89023)"
     clip-path="url(#clipPath446-9)" />
  <path
     id="path447"
     d="m 24.483251,207.21531 c -2.093804,-4.09243 -3.378639,-7.85178 -3.378639,-13.22904 0,-5.42486 1.284835,-9.1366 3.378639,-13.27664 l -1.47518,-1.09447 c -2.902775,4.04483 -4.568302,9.1366 -4.568302,14.37111 0,5.23451 1.665527,10.37385 4.568302,14.37112 z m 0,0"
     style="fill:#241f1f;fill-opacity:1;fill-rule:nonzero;stroke:none;stroke-width:4.0607"
     aria-label="(" />
  <path
     id="path448"
     d="m 30.443447,202.26632 c 0.95173,0 1.808286,-0.28537 2.379324,-0.76139 l -0.285519,-1.90345 c -0.333105,0.28536 -0.904143,0.47586 -1.47518,0.47586 -1.046903,0 -1.570354,-0.47586 -1.570354,-1.42759 0,-0.23786 0.0476,-0.47587 0.0476,-0.66621 l 2.141388,-9.66007 H 34.869 l 0.523451,-2.14138 h -3.188294 l 0.904143,-4.28278 h -2.42691 l -0.951729,4.28278 h -2.56967 l -0.523451,2.14138 h 2.617256 l -2.284151,10.1835 c -0.0476,0.33312 -0.09517,0.76139 -0.09517,0.90416 0,1.95103 1.427594,2.85519 3.568986,2.85519 z m 0,0"
     style="fill:#241f1f;fill-opacity:1;fill-rule:nonzero;stroke:none;stroke-width:4.0607"
     aria-label="t" />
  <path
     id="path449"
     d="m 38.568839,208.35739 c 2.950361,-3.99727 4.615888,-9.13661 4.615888,-14.37112 0,-5.23451 -1.665527,-10.32628 -4.615888,-14.37111 l -1.427595,1.09447 c 2.093805,4.14004 3.37864,7.85178 3.37864,13.27664 0,5.37726 -1.284835,9.13661 -3.37864,13.22904 z m 0,0"
     style="fill:#241f1f;fill-opacity:1;fill-rule:nonzero;stroke:none;stroke-width:4.0607"
     aria-label=")" />
  <path
     id="path450"
     d="m 99.895908,189.44176 c -0.190346,-4.37796 -0.380692,-6.18625 -0.80897,-8.32765 -0.666211,-3.5214 -0.666211,-3.71175 -0.95173,-3.71175 -0.190346,0 -0.380692,0 -0.66621,0.14284 -1.046903,0.19034 -2.188978,0.42826 -3.616572,0.66621 v 0.42826 c 0.333105,-0.0475 0.66621,-0.0475 0.999316,-0.0475 1.189661,0 1.570353,0.57104 1.951045,3.04554 0.428278,2.42689 0.80897,6.75728 0.80897,8.99382 v 0.80899 c 0,0.52344 0.09517,0.85656 0.285519,0.85656 0.571038,0 1.427594,-1.04691 3.235884,-2.99797 0.57103,-0.61861 2.37932,-2.66484 3.8545,-4.94899 1.14208,-1.76068 2.04622,-3.66414 2.04622,-5.04417 0,-0.85655 -0.76139,-1.90346 -1.80829,-1.90346 -0.71379,0 -1.23725,0.4283 -1.23725,1.09451 0,0.52344 0.23795,0.95173 0.80897,1.47516 0.42828,0.3807 0.57104,0.61864 0.57104,0.95173 0,1.52277 -2.0938,5.09177 -4.42554,7.4711 z m 0,0"
     style="fill:#241f1f;fill-opacity:1;fill-rule:nonzero;stroke:none;stroke-width:4.0607"
     aria-label="v" />
  <path
     id="path451"
     d="m 118.33567,197.05559 c -2.0938,-4.09243 -3.37863,-7.85178 -3.37863,-13.22904 0,-5.42486 1.28483,-9.1366 3.37863,-13.27664 l -1.47517,-1.09447 c -2.90278,4.04483 -4.56831,9.1366 -4.56831,14.37111 0,5.23451 1.66553,10.37385 4.56831,14.37112 z m 10.52851,-4.94899 c 5.90073,0 8.28005,-5.94833 8.28005,-11.18284 0,-5.32968 -2.37932,-11.1828 -8.28005,-11.1828 -5.94831,0 -8.28004,5.85312 -8.28004,11.1828 0,5.23451 2.33173,11.18284 8.28004,11.18284 z m 0,-2.37932 c -4.14002,0 -5.52003,-4.52074 -5.52003,-8.80352 0,-4.33035 1.38001,-8.80348 5.52003,-8.80348 4.14003,0 5.52003,4.47313 5.52003,8.80348 0,4.28278 -1.38,8.80352 -5.52003,8.80352 z m 11.93231,8.47039 c 2.95036,-3.99727 4.61589,-9.13661 4.61589,-14.37112 0,-5.23451 -1.66553,-10.32628 -4.61589,-14.37111 l -1.42759,1.09447 c 2.0938,4.14004 3.37863,7.85178 3.37863,13.27664 0,5.37726 -1.28483,9.13661 -3.37863,13.22904 z m 0,0"
     style="fill:#241f1f;fill-opacity:1;fill-rule:nonzero;stroke:none;stroke-width:4.0607"
     aria-label="(0)" />
  <path
     id="path452"
     d="M 0,0 C 1.016,0 1.838,0.823 1.838,1.838 1.838,2.854 1.016,3.677 0,3.677 -1.016,3.677 -1.839,2.854 -1.839,1.838 -1.839,0.823 -1.016,0 0,0"
     style="fill:#ffffff;fill-opacity:1;fill-rule:nonzero;stroke:#c13439;stroke-width:0.5;stroke-linecap:butt;stroke-linejoin:miter;stroke-miterlimit:4;stroke-dasharray:none;stroke-opacity:1"
     transform="matrix(4.0607123,0,0,-4.0607123,21.30104,311.37919)"
     clip-path="url(#clipPath453-5)" />
  <path
     id="path454"
     d="M 0,0 C 1.016,0 1.838,0.823 1.838,1.838 1.838,2.854 1.016,3.677 0,3.677 -1.016,3.677 -1.839,2.854 -1.839,1.838 -1.839,0.823 -1.016,0 0,0"
     style="fill:#ffffff;fill-opacity:1;fill-rule:nonzero;stroke:#c13439;stroke-width:0.5;stroke-linecap:butt;stroke-linejoin:miter;stroke-miterlimit:4;stroke-dasharray:none;stroke-opacity:1"
     transform="matrix(4.0607123,0,0,-4.0607123,21.30104,71.543372)"
     clip-path="url(#clipPath455-3)" />
  <path
     id="path456"
     d="m 232.41235,194.91419 c 2.66484,0 5.71038,-0.95173 7.99453,-3.37863 l -1.99863,-1.47519 c -1.71312,1.61794 -3.80692,2.47449 -5.80555,2.47449 -4.47313,0 -7.32832,-2.95036 -7.32832,-7.23314 0,-6.28142 4.52072,-10.42142 9.18419,-10.42142 2.71243,0 5.13934,1.14207 6.42417,3.71174 l 2.56967,-0.99933 c -1.52276,-3.09311 -4.5683,-5.09174 -8.85108,-5.09174 -6.28141,0 -12.18214,5.09174 -12.18214,12.94352 0,5.75795 4.2352,9.4697 9.99316,9.4697 z m 0,0"
     style="fill:#241f1f;fill-opacity:1;fill-rule:nonzero;stroke:none;stroke-width:4.0607"
     aria-label="C" />
  <path
     id="path457"
     d="m 576.81945,229.64043 c -0.19035,-4.37795 -0.38069,-6.18624 -0.80896,-8.32761 -0.66621,-3.5214 -0.66621,-3.71175 -0.95173,-3.71175 -0.19034,0 -0.38069,0 -0.66621,0.14284 -1.04693,0.19034 -2.18901,0.42829 -3.6166,0.66621 v 0.42829 c 0.33312,-0.0475 0.66621,-0.0475 0.99933,-0.0475 1.18965,0 1.57034,0.57104 1.95103,3.04553 0.42829,2.42693 0.80899,6.75728 0.80899,8.99386 v 0.80896 c 0,0.52347 0.095,0.85656 0.28536,0.85656 0.57104,0 1.4276,-1.04691 3.23588,-2.99794 0.57104,-0.61864 2.37933,-2.66484 3.85449,-4.94899 1.14208,-1.76072 2.04624,-3.66417 2.04624,-5.04417 0,-0.85655 -0.76139,-1.90346 -1.80829,-1.90346 -0.71381,0 -1.23725,0.42827 -1.23725,1.09448 0,0.52346 0.23786,0.95173 0.80896,1.47519 0.42829,0.3807 0.57103,0.61861 0.57103,0.95173 0,1.52277 -2.0938,5.09174 -4.42552,7.47106 z m 0,0"
     style="fill:#241f1f;fill-opacity:1;fill-rule:nonzero;stroke:none;stroke-width:4.0607"
     aria-label="v" />
  <path
     id="path458"
     d="m 595.24731,237.25427 c -2.09381,-4.09244 -3.37863,-7.85175 -3.37863,-13.22904 0,-5.42486 1.28482,-9.1366 3.37863,-13.27661 l -1.47517,-1.09451 c -2.90279,4.04487 -4.5683,9.13661 -4.5683,14.37112 0,5.23451 1.66551,10.37385 4.5683,14.37112 z m 10.52853,-4.94899 c 5.90072,0 8.28005,-5.9483 8.28005,-11.18281 0,-5.32968 -2.37933,-11.18284 -8.28005,-11.18284 -5.94833,0 -8.28005,5.85316 -8.28005,11.18284 0,5.23451 2.33172,11.18281 8.28005,11.18281 z m 0,-2.37933 c -4.14004,0 -5.52003,-4.5207 -5.52003,-8.80348 0,-4.33038 1.37999,-8.80351 5.52003,-8.80351 4.14001,0 5.52003,4.47313 5.52003,8.80351 0,4.28278 -1.38002,8.80348 -5.52003,8.80348 z m 11.94419,8.4704 c 2.95036,-3.99727 4.6159,-9.13661 4.6159,-14.37112 0,-5.23451 -1.66554,-10.32625 -4.6159,-14.37112 l -1.4276,1.09451 c 2.09381,4.14001 3.37866,7.85175 3.37866,13.27661 0,5.37729 -1.28485,9.1366 -3.37866,13.22904 z m 0,0"
     style="fill:#241f1f;fill-opacity:1;fill-rule:nonzero;stroke:none;stroke-width:4.0607"
     aria-label="(0)" />
  <path
     id="path459"
     d="M 0,0 H 38.198 V 59.01 H 0"
     style="fill:none;stroke:#275b8d;stroke-width:0.5;stroke-linecap:butt;stroke-linejoin:miter;stroke-miterlimit:4;stroke-dasharray:none;stroke-opacity:1"
     transform="matrix(4.0607123,0,0,-4.0607123,372.08974,303.57453)"
     clip-path="url(#clipPath460-7)" />
  <path
     id="path461"
     d="M 0,0 H 15.986"
     style="fill:none;stroke:#c13439;stroke-width:0.75;stroke-linecap:butt;stroke-linejoin:miter;stroke-miterlimit:4;stroke-dasharray:none;stroke-opacity:1"
     transform="matrix(4.0607123,0,0,-4.0607123,406.71381,39.927492)"
     clip-path="url(#clipPath462-7)" />
  <path
     id="path463"
     d="M 0,0 6.098,1.634 0,3.268 Z"
     style="fill:#c13439;fill-opacity:1;fill-rule:nonzero;stroke:none"
     transform="matrix(4.0607123,0,0,-4.0607123,467.10066,46.480662)"
     clip-path="url(#clipPath464-7)" />
  <path
     id="path465"
     d="m 0.85651719,-0.001125 1.17187501,-5.34375 h -0.65625 l -1.18359376,5.34375 z m 0,0"
     style="fill:#241f1f;fill-opacity:1;fill-rule:nonzero;stroke:none"
     aria-label="I"
     transform="matrix(4.0607123,0,0,4.0607123,428.69038,22.286932)"
     clip-path="url(#clipPath466-6)" />
  <path
     id="path467"
     d="M 1.8383844,1.311375 C 1.3227594,0.3035625 1.0063531,-0.62221875 1.0063531,-1.9464375 c 0,-1.3359375 0.3164063,-2.25 0.8320313,-3.2695313 L 1.4751031,-5.4855 c -0.71484372,0.9960937 -1.12499997,2.25 -1.12499997,3.5390625 0,1.2890625 0.41015625,2.5546875 1.12499997,3.5390625 z m 0,0"
     style="fill:#241f1f;fill-opacity:1;fill-rule:nonzero;stroke:none"
     aria-label="("
     transform="matrix(4.0607123,0,0,4.0607123,437.75389,22.286932)"
     clip-path="url(#clipPath468-1)" />
  <path
     id="path469"
     d="m 1.6532125,0.092625 c 0.9726563,0 1.5234375,-0.59765625 1.5234375,-1.265625 0,-1.1367188 -2.0273437,-1.0078125 -2.0273437,-1.7109375 0,-0.328125 0.3046875,-0.5859375 0.8320312,-0.5859375 0.4921875,0 0.984375,0.2460937 1.1601563,0.5273437 L 3.4813375,-3.32925 C 3.223525,-3.6808125 2.661025,-3.9620625 2.004775,-3.9620625 c -0.9375,0 -1.46484375,0.5507812 -1.46484375,1.1953125 0,1.078125 2.03906255,0.9609375 2.03906255,1.6875 0,0.36328125 -0.3398438,0.69140625 -0.890625,0.69140625 -0.5742188,0 -1.0664063,-0.3046875 -1.2773438,-0.609375 L 0.02430625,-0.5870625 c 0.3515625,0.4453125 0.9375,0.6796875 1.62890625,0.6796875 z m 0,0"
     style="fill:#241f1f;fill-opacity:1;fill-rule:nonzero;stroke:none"
     aria-label="s"
     transform="matrix(4.0607123,0,0,4.0607123,445.81037,22.286932)"
     clip-path="url(#clipPath470-0)" />
  <path
     id="path471"
     d="M 0.49082969,1.592625 C 1.2173922,0.60825 1.6275484,-0.657375 1.6275484,-1.9464375 1.6275484,-3.2355 1.2173922,-4.4894063 0.49082969,-5.4855 l -0.3515625,0.2695312 c 0.515625,1.0195313 0.83203125,1.9335938 0.83203125,3.2695313 0,1.32421875 -0.31640625,2.25 -0.83203125,3.2578125 z m 0,0"
     style="fill:#241f1f;fill-opacity:1;fill-rule:nonzero;stroke:none"
     aria-label=")"
     transform="matrix(4.0607123,0,0,4.0607123,460.91622,22.286932)"
     clip-path="url(#clipPath472-1)" />
  <path
     id="path473"
     d="m 368.583,677.41 h 11.014 v -2.508 h -11.014 z"
     style="fill:#ffffff;fill-opacity:1;fill-rule:nonzero;stroke:none"
     transform="matrix(4.0607123,0,0,-4.0607123,-991.34483,2886.421)"
     clip-path="url(#clipPath474-5)" />
  <path
     id="path475"
     d="M 0,0 H 5.475 M 0.002,-2.353 H 5.529 M 0,0 h -5.475 m 5.477,-2.353 h -5.479"
     style="fill:none;stroke:#078c53;stroke-width:0.5;stroke-linecap:butt;stroke-linejoin:miter;stroke-miterlimit:4;stroke-dasharray:none;stroke-opacity:1"
     transform="matrix(4.0607123,0,0,-4.0607123,527.44692,135.6539)"
     clip-path="url(#clipPath476-5)" />
  <path
     id="path477"
     d="m 504.35714,111.20959 v -2.1414 h -8.4704 v -8.51797 h -2.14139 v 8.51797 h -8.47039 v 2.1414 h 8.47039 v 8.4704 h 2.14139 v -8.4704 z m 0,0"
     style="fill:#241f1f;fill-opacity:1;fill-rule:nonzero;stroke:none;stroke-width:4.0607"
     aria-label="+" />
  <path
     id="path478"
     d="m 502.91767,165.61283 v -2.14138 h -16.227 v 2.14138 z m 0,0"
     style="fill:#241f1f;fill-opacity:1;fill-rule:nonzero;stroke:none;stroke-width:4.0607"
     aria-label="‒" />
  <path
     id="path479"
     d="M 1.8391406,1.3113906 C 1.3235156,0.30357813 1.0071094,-0.62220312 1.0071094,-1.9464219 c 0,-1.3359375 0.3164062,-2.25 0.8320312,-3.2695312 L 1.4758594,-5.4854844 c -0.71484378,0.9960938 -1.12500003,2.25 -1.12500003,3.5390625 0,1.28906253 0.41015625,2.55468753 1.12500003,3.5390625 z m 1.3388672,-2.3554687 v -1.7578125 c 0.2109375,-0.3398438 0.6914063,-0.6210938 1.1601563,-0.6210938 0.7851562,0 1.2421875,0.6328125 1.2421875,1.4882813 0,0.8554687 -0.4570313,1.48828123 -1.2421875,1.48828123 -0.46875,0 -0.9492188,-0.26953125 -1.1601563,-0.59765623 z m 0,1.04296873 v -0.57421875 c 0.2929688,0.38671875 0.7617188,0.66796875 1.3125,0.66796875 1.0078125,0 1.7226563,-0.76171875 1.7226563,-2.02734373 0,-1.2304688 -0.7148438,-2.0273438 -1.7226563,-2.0273438 -0.5273437,0 -0.9960937,0.2578125 -1.3125,0.6796875 v -2.0625 H 2.5803516 v 5.34375003 z M 7.0774219,1.5926406 c 0.7265625,-0.98437497 1.1367187,-2.24999997 1.1367187,-3.5390625 0,-1.2890625 -0.4101562,-2.5429687 -1.1367187,-3.5390625 l -0.3515625,0.2695313 c 0.515625,1.0195312 0.8320312,1.9335937 0.8320312,3.2695312 0,1.32421878 -0.3164062,2.25000003 -0.8320312,3.2578125 z m 0,0"
     style="fill:#241f1f;fill-opacity:1;fill-rule:nonzero;stroke:none"
     aria-label="(b)"
     transform="matrix(4.0607123,0,0,4.0607123,475.96277,374.97403)"
     clip-path="url(#clipPath480-1)" />
  <path
     id="path481"
     d="m 374.14866,97.718822 v -2.14138 h -8.47039 v -8.51799 h -2.14139 v 8.51799 h -8.47039 v 2.14138 h 8.47039 v 8.470388 h 2.14139 v -8.470388 z m 0,0"
     style="fill:#241f1f;fill-opacity:1;fill-rule:nonzero;stroke:none;stroke-width:4.0607"
     aria-label="+" />
  <path
     id="path482"
     d="m 372.87571,280.61744 v -2.14141 h -16.22699 v 2.14141 z m 0,0"
     style="fill:#241f1f;fill-opacity:1;fill-rule:nonzero;stroke:none;stroke-width:4.0607"
     aria-label="‒" />
  <path
     id="path483"
     d="m 348.08316,196.72247 13.51456,-21.69943 h -3.23588 l -11.46834,18.74907 -3.18829,-18.74907 h -2.90278 l 3.90209,21.69943 z m 0,0"
     style="fill:#241f1f;fill-opacity:1;fill-rule:nonzero;stroke:none;stroke-width:4.0607"
     aria-label="V" />
  <path
     id="path484"
     d="m 367.6174,202.05216 c -2.09381,-4.09244 -3.37864,-7.85176 -3.37864,-13.22904 0,-5.42486 1.28483,-9.13661 3.37864,-13.27661 l -1.47518,-1.09451 c -2.90278,4.04487 -4.5683,9.1366 -4.5683,14.37112 0,5.23451 1.66552,10.37385 4.5683,14.37111 z m 0,0"
     style="fill:#241f1f;fill-opacity:1;fill-rule:nonzero;stroke:none;stroke-width:4.0607"
     aria-label="(" />
  <path
     id="path485"
     d="m 374.92194,197.10316 c 3.94968,0 6.18624,-2.42689 6.18624,-5.13934 0,-4.61587 -8.23245,-4.09243 -8.23245,-6.94762 0,-1.33242 1.23725,-2.37932 3.37863,-2.37932 1.99864,0 3.99727,0.99933 4.71106,2.1414 l 1.38001,-1.57037 c -1.0469,-1.42759 -3.33105,-2.56967 -5.99589,-2.56967 -3.80692,0 -5.94831,2.23658 -5.94831,4.85382 0,4.37796 8.28005,3.90209 8.28005,6.85246 0,1.47519 -1.38001,2.80761 -3.61657,2.80761 -2.33175,0 -4.33037,-1.23725 -5.18693,-2.47449 l -1.57035,1.66551 c 1.42759,1.80828 3.80691,2.76001 6.61451,2.76001 z m 0,0"
     style="fill:#241f1f;fill-opacity:1;fill-rule:nonzero;stroke:none;stroke-width:4.0607"
     aria-label="s" />
  <path
     id="path486"
     d="m 385.30769,203.19423 c 2.95036,-3.99726 4.61589,-9.1366 4.61589,-14.37111 0,-5.23452 -1.66553,-10.32625 -4.61589,-14.37112 l -1.42759,1.09451 c 2.0938,4.14 3.37864,7.85175 3.37864,13.27661 0,5.37728 -1.28484,9.1366 -3.37864,13.22904 z m 0,0"
     style="fill:#241f1f;fill-opacity:1;fill-rule:nonzero;stroke:none;stroke-width:4.0607"
     aria-label=")" />
  <path
     id="path487"
     d="M 0,0 C 1.015,0 1.838,0.823 1.838,1.839 1.838,2.854 1.015,3.677 0,3.677 -1.016,3.677 -1.839,2.854 -1.839,1.839 -1.839,0.823 -1.016,0 0,0"
     style="fill:#ffffff;fill-opacity:1;fill-rule:nonzero;stroke:#c13439;stroke-width:0.5;stroke-linecap:butt;stroke-linejoin:miter;stroke-miterlimit:4;stroke-dasharray:none;stroke-opacity:1"
     transform="matrix(4.0607123,0,0,-4.0607123,364.76827,311.29392)"
     clip-path="url(#clipPath488-6)" />
  <path
     id="path489"
     d="M 0,0 C 1.015,0 1.838,0.823 1.838,1.839 1.838,2.854 1.015,3.677 0,3.677 -1.016,3.677 -1.839,2.854 -1.839,1.839 -1.839,0.823 -1.016,0 0,0"
     style="fill:#ffffff;fill-opacity:1;fill-rule:nonzero;stroke:#c13439;stroke-width:0.5;stroke-linecap:butt;stroke-linejoin:miter;stroke-miterlimit:4;stroke-dasharray:none;stroke-opacity:1"
     transform="matrix(4.0607123,0,0,-4.0607123,364.76827,71.458092)"
     clip-path="url(#clipPath490-7)" />
  <path
     id="path491"
     d="M 1.8400781,1.3118906 C 1.3244531,0.30407813 1.0080469,-0.62170312 1.0080469,-1.9459219 c 0,-1.3359375 0.3164062,-2.25 0.8320312,-3.2695312 L 1.4767969,-5.4849844 c -0.71484377,0.9960938 -1.12500002,2.25 -1.12500002,3.5390625 0,1.28906253 0.41015625,2.55468753 1.12500002,3.5390625 z M 4.2922266,0.09314063 c 0.703125,0 1.1132812,-0.28125 1.4179687,-0.66796875 l -0.4101562,-0.375 c -0.2460938,0.3515625 -0.5742188,0.50390625 -0.984375,0.50390625 -0.8203125,0 -1.3359375,-0.63281253 -1.3359375,-1.48828123 0,-0.8554688 0.515625,-1.4882813 1.3359375,-1.4882813 0.4101562,0 0.7382812,0.1523438 0.984375,0.5039063 l 0.4101562,-0.375 c -0.3046875,-0.375 -0.7148437,-0.6679688 -1.4179687,-0.6679688 -1.1601563,0 -1.9335938,0.8789063 -1.9335938,2.0273438 0,1.14843748 0.7734375,2.02734373 1.9335938,2.02734373 z M 6.4367578,1.5931406 c 0.7265625,-0.98437497 1.1367188,-2.24999997 1.1367188,-3.5390625 0,-1.2890625 -0.4101563,-2.5429687 -1.1367188,-3.5390625 l -0.3515625,0.2695313 c 0.515625,1.0195312 0.8320313,1.9335937 0.8320313,3.2695312 0,1.32421878 -0.3164063,2.25000003 -0.8320313,3.2578125 z m 0,0"
     style="fill:#241f1f;fill-opacity:1;fill-rule:nonzero;stroke:none"
     aria-label="(c)"
     transform="matrix(4.0607123,0,0,4.0607123,939.73674,374.97199)"
     clip-path="url(#clipPath492-7)" />
  <path
     id="path493"
     d="m 728.78686,200.16061 13.51456,-21.69944 h -3.23588 l -11.46833,18.74907 -3.18831,-18.74907 h -2.90276 l 3.90209,21.69944 z m 0,0"
     style="fill:#241f1f;fill-opacity:1;fill-rule:nonzero;stroke:none;stroke-width:4.0607"
     aria-label="V" />
  <path
     id="path494"
     d="m 748.3211,205.49029 c -2.09381,-4.09244 -3.37863,-7.85178 -3.37863,-13.22904 0,-5.42486 1.28482,-9.1366 3.37863,-13.27664 l -1.47517,-1.09447 c -2.90279,4.04483 -4.56833,9.1366 -4.56833,14.37111 0,5.23451 1.66554,10.37385 4.56833,14.37112 z m 0,0"
     style="fill:#241f1f;fill-opacity:1;fill-rule:nonzero;stroke:none;stroke-width:4.0607"
     aria-label="(" />
  <path
     id="path495"
     d="m 755.61372,200.5413 c 3.94966,0 6.18624,-2.42693 6.18624,-5.13934 0,-4.6159 -8.23247,-4.09244 -8.23247,-6.94763 0,-1.33242 1.23725,-2.37932 3.37865,-2.37932 1.99864,0 3.99727,0.9993 4.71105,2.14138 l 1.38002,-1.57034 c -1.0469,-1.4276 -3.33105,-2.56967 -5.99589,-2.56967 -3.80692,0 -5.94833,2.23655 -5.94833,4.85382 0,4.37795 8.28005,3.90209 8.28005,6.85245 0,1.47517 -1.37999,2.80759 -3.61657,2.80759 -2.33173,0 -4.33036,-1.23725 -5.18691,-2.4745 l -1.57037,1.66554 c 1.42759,1.80829 3.80692,2.76002 6.61453,2.76002 z m 0,0"
     style="fill:#241f1f;fill-opacity:1;fill-rule:nonzero;stroke:none;stroke-width:4.0607"
     aria-label="s" />
  <path
     id="path496"
     d="m 766.01136,206.63237 c 2.95036,-3.99727 4.6159,-9.13661 4.6159,-14.37112 0,-5.23451 -1.66554,-10.32628 -4.6159,-14.37111 l -1.42759,1.09447 c 2.0938,4.14004 3.37865,7.85178 3.37865,13.27664 0,5.37726 -1.28485,9.1366 -3.37865,13.22904 z m 0,0"
     style="fill:#241f1f;fill-opacity:1;fill-rule:nonzero;stroke:none;stroke-width:4.0607"
     aria-label=")" />
  <path
     id="path497"
     d="M 0,0 H 81.625 M 39.723,0 v -59.01 m 41.902,0 H 0 M 81.661,0.2 v -59.284"
     style="fill:none;stroke:#275b8d;stroke-width:0.5;stroke-linecap:butt;stroke-linejoin:miter;stroke-miterlimit:4;stroke-dasharray:none;stroke-opacity:1"
     transform="matrix(4.0607123,0,0,-4.0607123,752.14401,63.955942)"
     clip-path="url(#clipPath498-0)" />
  <path
     id="path499"
     d="M 0,0 H 15.985"
     style="fill:none;stroke:#c13439;stroke-width:0.75;stroke-linecap:butt;stroke-linejoin:miter;stroke-miterlimit:4;stroke-dasharray:none;stroke-opacity:1"
     transform="matrix(4.0607123,0,0,-4.0607123,790.35937,39.910832)"
     clip-path="url(#clipPath500-4)" />
  <path
     id="path501"
     d="M 0,0 6.099,1.634 0,3.268 Z"
     style="fill:#c13439;fill-opacity:1;fill-rule:nonzero;stroke:none"
     transform="matrix(4.0607123,0,0,-4.0607123,850.74623,46.463602)"
     clip-path="url(#clipPath502-1)" />
  <path
     id="path503"
     d="M 0.85567969,1.453125e-4 2.0275547,-5.3436047 h -0.65625 L 0.18771094,1.453125e-4 Z m 0,0"
     style="fill:#241f1f;fill-opacity:1;fill-rule:nonzero;stroke:none"
     aria-label="I"
     transform="matrix(4.0607123,0,0,4.0607123,812.33595,22.269882)"
     clip-path="url(#clipPath504-3)" />
  <path
     id="path505"
     d="M 1.8404766,1.3126453 C 1.3248516,0.30483281 1.0084453,-0.62094844 1.0084453,-1.9451672 c 0,-1.3359375 0.3164063,-2.25 0.8320313,-3.2695312 L 1.4771953,-5.4842297 c -0.71484374,0.9960938 -1.12499999,2.25 -1.12499999,3.5390625 0,1.28906251 0.41015625,2.55468751 1.12499999,3.5390625 z m 0,0"
     style="fill:#241f1f;fill-opacity:1;fill-rule:nonzero;stroke:none"
     aria-label="("
     transform="matrix(4.0607123,0,0,4.0607123,821.39946,22.269882)"
     clip-path="url(#clipPath506-7)" />
  <path
     id="path507"
     d="m 1.652375,0.09389531 c 0.9726563,0 1.5234375,-0.59765625 1.5234375,-1.26562501 0,-1.1367187 -2.0273437,-1.0078125 -2.0273437,-1.7109375 0,-0.328125 0.3046875,-0.5859375 0.8320312,-0.5859375 0.4921875,0 0.984375,0.2460938 1.1601563,0.5273438 L 3.4805,-3.3279797 C 3.2226875,-3.6795422 2.6601875,-3.9607922 2.0039375,-3.9607922 c -0.9375,0 -1.46484375,0.5507813 -1.46484375,1.1953125 0,1.078125 2.03906255,0.9609375 2.03906255,1.6875 0,0.36328126 -0.3398438,0.69140626 -0.890625,0.69140626 -0.5742188,0 -1.0664063,-0.3046875 -1.2773438,-0.609375 l -0.38671875,0.41015625 c 0.3515625,0.4453125 0.9375,0.6796875 1.62890625,0.6796875 z m 0,0"
     style="fill:#241f1f;fill-opacity:1;fill-rule:nonzero;stroke:none"
     aria-label="s"
     transform="matrix(4.0607123,0,0,4.0607123,829.4559,22.269882)"
     clip-path="url(#clipPath508-4)" />
  <path
     id="path509"
     d="M 0.49292188,1.5938953 C 1.2194844,0.60952031 1.6296406,-0.65610469 1.6296406,-1.9451672 c 0,-1.2890625 -0.4101562,-2.5429687 -1.13671872,-3.5390625 l -0.3515625,0.2695313 c 0.515625,1.0195312 0.83203125,1.9335937 0.83203125,3.2695312 0,1.32421876 -0.31640625,2.25000001 -0.83203125,3.2578125 z m 0,0"
     style="fill:#241f1f;fill-opacity:1;fill-rule:nonzero;stroke:none"
     aria-label=")"
     transform="matrix(4.0607123,0,0,4.0607123,844.56175,22.269882)"
     clip-path="url(#clipPath510-9)" />
  <path
     id="path511"
     d="m 754.05529,97.445212 v -2.14141 h -8.47039 v -8.51796 h -2.14141 v 8.51796 h -8.47039 v 2.14141 h 8.47039 v 8.470388 h 2.14141 v -8.470388 z m 0,0"
     style="fill:#241f1f;fill-opacity:1;fill-rule:nonzero;stroke:none;stroke-width:4.0607"
     aria-label="+" />
  <path
     id="path512"
     d="m 752.87749,280.28435 v -2.14141 h -16.22697 v 2.14141 z m 0,0"
     style="fill:#241f1f;fill-opacity:1;fill-rule:nonzero;stroke:none;stroke-width:4.0607"
     aria-label="‒" />
  <path
     id="path513"
     d="M 0,0 C 1.015,0 1.84,0.823 1.84,1.839 1.84,2.854 1.015,3.678 0,3.678 -1.015,3.678 -1.839,2.854 -1.839,1.839 -1.839,0.823 -1.015,0 0,0"
     style="fill:#ffffff;fill-opacity:1;fill-rule:nonzero;stroke:#c13439;stroke-width:0.5;stroke-linecap:butt;stroke-linejoin:miter;stroke-miterlimit:4;stroke-dasharray:none;stroke-opacity:1"
     transform="matrix(4.0607123,0,0,-4.0607123,744.53017,311.02186)"
     clip-path="url(#clipPath514-3)" />
  <path
     id="path515"
     d="M 0,0 C 1.015,0 1.84,0.823 1.84,1.839 1.84,2.854 1.015,3.678 0,3.678 -1.015,3.678 -1.839,2.854 -1.839,1.839 -1.839,0.823 -1.015,0 0,0"
     style="fill:#ffffff;fill-opacity:1;fill-rule:nonzero;stroke:#c13439;stroke-width:0.5;stroke-linecap:butt;stroke-linejoin:miter;stroke-miterlimit:4;stroke-dasharray:none;stroke-opacity:1"
     transform="matrix(4.0607123,0,0,-4.0607123,744.53017,71.186032)"
     clip-path="url(#clipPath516-9)" />
  <path
     id="path517"
     d="m 1137.7688,195.84213 c 2.6649,0 5.7104,-0.95173 7.9946,-3.37863 l -1.9987,-1.47519 c -1.7131,1.61794 -3.8069,2.4745 -5.8055,2.4745 -4.4732,0 -7.3283,-2.95037 -7.3283,-7.23315 0,-6.28141 4.5207,-10.42142 9.1841,-10.42142 2.7125,0 5.1394,1.14207 6.4242,3.71174 l 2.5697,-0.99933 c -1.5228,-3.0931 -4.5683,-5.09173 -8.8511,-5.09173 -6.2814,0 -12.1821,5.09173 -12.1821,12.94352 0,5.75794 4.2352,9.46969 9.9931,9.46969 z m 0,0"
     style="fill:#241f1f;fill-opacity:1;fill-rule:nonzero;stroke:none;stroke-width:4.0607"
     aria-label="C" />
  <path
     id="path518"
     d="m 1154.4836,193.17729 c -0.1904,-4.37796 -0.3807,-6.18624 -0.809,-8.32762 -0.6662,-3.5214 -0.6662,-3.71175 -0.9517,-3.71175 -0.1904,0 -0.3807,0 -0.6662,0.14284 -1.0469,0.19035 -2.189,0.42829 -3.6166,0.66621 v 0.42829 c 0.3331,-0.0475 0.6662,-0.0475 0.9993,-0.0475 1.1897,0 1.5704,0.57104 1.9511,3.04554 0.4282,2.42692 0.8089,6.75728 0.8089,8.99386 v 0.80895 c 0,0.52347 0.095,0.85656 0.2854,0.85656 0.571,0 1.4276,-1.0469 3.2359,-2.99793 0.571,-0.61864 2.3793,-2.66485 3.8545,-4.949 1.1421,-1.76071 2.0462,-3.66417 2.0462,-5.04416 0,-0.85656 -0.7614,-1.90346 -1.8083,-1.90346 -0.7138,0 -1.2372,0.42826 -1.2372,1.09447 0,0.52347 0.2378,0.95173 0.8089,1.4752 0.4283,0.38069 0.5711,0.61861 0.5711,0.95173 0,1.52276 -2.0938,5.09173 -4.4256,7.47106 z m 0,0"
     style="fill:#241f1f;fill-opacity:1;fill-rule:nonzero;stroke:none;stroke-width:4.0607"
     aria-label="v" />
  <path
     id="path519"
     d="M 1.8400391,1.3133359 C 1.3244141,0.30552344 1.0080078,-0.62025781 1.0080078,-1.9444766 c 0,-1.3359375 0.3164063,-2.25 0.8320313,-3.2695312 L 1.4767578,-5.4835391 c -0.71484374,0.9960938 -1.12499999,2.25 -1.12499999,3.5390625 0,1.28906254 0.41015625,2.55468754 1.12499999,3.5390625 z M 4.4328125,0.09458594 c 1.453125,0 2.0390625,-1.46484374 2.0390625,-2.75390624 0,-1.3125 -0.5859375,-2.7539063 -2.0390625,-2.7539063 -1.4648437,0 -2.0390625,1.4414063 -2.0390625,2.7539063 0,1.2890625 0.5742188,2.75390624 2.0390625,2.75390624 z m 0,-0.5859375 c -1.0195312,0 -1.359375,-1.11328124 -1.359375,-2.16796874 0,-1.0664063 0.3398438,-2.1679688 1.359375,-2.1679688 1.0195313,0 1.359375,1.1015625 1.359375,2.1679688 0,1.0546875 -0.3398437,2.16796874 -1.359375,2.16796874 z M 7.3712891,1.5945859 c 0.7265625,-0.98437496 1.1367187,-2.24999996 1.1367187,-3.5390625 0,-1.2890625 -0.4101562,-2.5429687 -1.1367187,-3.5390625 l -0.3515625,0.2695313 c 0.515625,1.0195312 0.8320312,1.9335937 0.8320312,3.2695312 0,1.32421879 -0.3164062,2.25000004 -0.8320312,3.2578125 z m 0,0"
     style="fill:#241f1f;fill-opacity:1;fill-rule:nonzero;stroke:none"
     aria-label="(0)"
     transform="matrix(4.0607123,0,0,4.0607123,1165.4515,195.45806)"
     clip-path="url(#clipPath520-8)" />
  <path
     id="path521"
     d="m 463.666,667.035 h 11.012 v -2.508 h -11.012 z"
     style="fill:#ffffff;fill-opacity:1;fill-rule:nonzero;stroke:none"
     transform="matrix(4.0607123,0,0,-4.0607123,-991.34313,2886.4192)"
     clip-path="url(#clipPath522-7)" />
  <path
     id="path523"
     d="M 0,0 H 5.474 M 0,-2.353 H 5.528 M 0,0 H -5.476 M 0,-2.353 h -5.478"
     style="fill:none;stroke:#078c53;stroke-width:0.5;stroke-linecap:butt;stroke-linejoin:miter;stroke-miterlimit:4;stroke-dasharray:none;stroke-opacity:1"
     transform="matrix(4.0607123,0,0,-4.0607123,913.55328,177.78178)"
     clip-path="url(#clipPath524-6)" />
  <path
     id="path525"
     d="m 882.33652,128.98315 v -2.14141 h -8.47039 v -8.51796 h -2.14141 v 8.51796 h -8.47039 v 2.14141 h 8.47039 v 8.47039 h 2.14141 v -8.47039 z m 0,0"
     style="fill:#241f1f;fill-opacity:1;fill-rule:nonzero;stroke:none;stroke-width:4.0607"
     aria-label="+" />
  <path
     id="path526"
     d="m 880.89702,232.10302 v -2.1414 h -16.22698 v 2.1414 z m 0,0"
     style="fill:#241f1f;fill-opacity:1;fill-rule:nonzero;stroke:none;stroke-width:4.0607"
     aria-label="‒" />
  <path
     id="path527"
     d="m 0,0 c 3.712,0 6.72,3.009 6.72,6.721 0,3.711 -3.008,6.72 -6.72,6.72 -3.712,0 -6.721,-3.009 -6.721,-6.72 C -6.721,3.009 -3.712,0 0,0"
     style="fill:#ffeda7;fill-opacity:1;fill-rule:nonzero;stroke:#c13439;stroke-width:0.5;stroke-linecap:butt;stroke-linejoin:miter;stroke-miterlimit:4;stroke-dasharray:none;stroke-opacity:1"
     transform="matrix(4.0607123,0,0,-4.0607123,1083.9327,211.09992)"
     clip-path="url(#clipPath528-4)" />
  <path
     id="path529"
     d="M 0,0 V 5.282"
     style="fill:none;stroke:#c13439;stroke-width:0.75;stroke-linecap:butt;stroke-linejoin:miter;stroke-miterlimit:4;stroke-dasharray:none;stroke-opacity:1"
     transform="matrix(4.0607123,0,0,-4.0607123,1083.5591,204.79119)"
     clip-path="url(#clipPath530-1)" />
  <path
     id="path531"
     d="M 0,0 -1.634,6.098 -3.267,0 Z"
     style="fill:#c13439;fill-opacity:1;fill-rule:nonzero;stroke:none"
     transform="matrix(4.0607123,0,0,-4.0607123,1090.1094,187.8698)"
     clip-path="url(#clipPath532-6)" />
  <path
     id="path533"
     d="m 571.97753,167.27834 c 3.94967,0 6.18625,-2.4269 6.18625,-5.13931 0,-4.61591 -8.23248,-4.09244 -8.23248,-6.94763 0,-1.33242 1.23725,-2.37932 3.37866,-2.37932 1.99863,0 3.99726,0.9993 4.71104,2.14138 l 1.38002,-1.57034 c -1.0469,-1.4276 -3.33105,-2.56967 -5.99589,-2.56967 -3.80692,0 -5.94833,2.23655 -5.94833,4.85382 0,4.37795 8.28005,3.90209 8.28005,6.85245 0,1.47517 -1.37999,2.80759 -3.61657,2.80759 -2.33172,0 -4.33036,-1.23725 -5.18691,-2.4745 l -1.57037,1.66554 c 1.42759,1.80829 3.80692,2.75999 6.61453,2.75999 z m 20.34323,0 c 2.66484,0 5.71038,-0.9517 7.99453,-3.37863 l -1.99863,-1.47516 c -1.71312,1.61794 -3.80692,2.47449 -5.80555,2.47449 -4.47313,0 -7.32832,-2.95036 -7.32832,-7.23314 0,-6.28141 4.5207,-10.42145 9.18417,-10.42145 2.71245,0 5.13934,1.14207 6.42419,3.71174 l 2.56967,-0.9993 c -1.52277,-3.09314 -4.5683,-5.09177 -8.85108,-5.09177 -6.28142,0 -12.18214,5.09177 -12.18214,12.94352 0,5.75798 4.23518,9.4697 9.99316,9.4697 z m 0,0"
     style="fill:#241f1f;fill-opacity:1;fill-rule:nonzero;stroke:none;stroke-width:4.0607"
     aria-label="sC" />
  <path
     id="path534"
     d="m 587.51451,135.15748 v -21.69943 h -2.37932 l -5.42486,5.6152 1.61794,1.66555 3.5214,-3.66418 v 18.08286 z m 0,0"
     style="fill:#241f1f;fill-opacity:1;fill-rule:nonzero;stroke:none;stroke-width:4.0607"
     aria-label="1" />
  <path
     id="path535"
     d="M 0,0 H 8.5 M 1.278,-25.242 h 12.438"
     style="fill:none;stroke:#241f1f;stroke-width:0.5;stroke-linecap:butt;stroke-linejoin:miter;stroke-miterlimit:4;stroke-dasharray:none;stroke-opacity:1"
     transform="matrix(4.0607123,0,0,-4.0607123,566.79279,140.1958)"
     clip-path="url(#clipPath536-6)" />
  <path
     id="path537"
     d="m 844.86216,209.55894 c 3.94966,0 6.18624,-2.42689 6.18624,-5.13934 0,-4.61587 -8.23247,-4.09243 -8.23247,-6.94762 0,-1.33242 1.23725,-2.37933 3.37865,-2.37933 1.99864,0 3.99727,0.99934 4.71105,2.14141 l 1.38002,-1.57037 c -1.0469,-1.42759 -3.33105,-2.56967 -5.99589,-2.56967 -3.80692,0 -5.94833,2.23658 -5.94833,4.85382 0,4.37796 8.28005,3.90209 8.28005,6.85245 0,1.4752 -1.37999,2.80762 -3.61657,2.80762 -2.33173,0 -4.33036,-1.23725 -5.18691,-2.47449 l -1.57037,1.66551 c 1.42759,1.80828 3.80691,2.76001 6.61453,2.76001 z m 20.34323,0 c 2.66484,0 5.71037,-0.95173 7.99452,-3.37862 l -1.99863,-1.4752 c -1.71311,1.61794 -3.80691,2.4745 -5.80555,2.4745 -4.47313,0 -7.32831,-2.95036 -7.32831,-7.23315 0,-6.28141 4.5207,-10.42142 9.18417,-10.42142 2.71244,0 5.13934,1.14208 6.42419,3.71175 l 2.56967,-0.99933 c -1.52277,-3.09311 -4.5683,-5.09174 -8.85108,-5.09174 -6.28142,0 -12.18214,5.09174 -12.18214,12.94352 0,5.75795 4.23518,9.46969 9.99316,9.46969 z m 0,0"
     style="fill:#241f1f;fill-opacity:1;fill-rule:nonzero;stroke:none;stroke-width:4.0607"
     aria-label="sC" />
  <path
     id="path538"
     d="m 860.39914,177.43806 v -21.69944 h -2.37933 l -5.42485,5.61521 1.61794,1.66551 3.5214,-3.66414 v 18.08286 z m 0,0"
     style="fill:#241f1f;fill-opacity:1;fill-rule:nonzero;stroke:none;stroke-width:4.0607"
     aria-label="1" />
  <path
     id="path539"
     d="M 0,0 H 8.5"
     style="fill:none;stroke:#241f1f;stroke-width:0.5;stroke-linecap:butt;stroke-linejoin:miter;stroke-miterlimit:4;stroke-dasharray:none;stroke-opacity:1"
     transform="matrix(4.0607123,0,0,-4.0607123,839.67671,182.47595)"
     clip-path="url(#clipPath540-4)" />
  <path
     id="path541"
     d="m 596.84146,262.58218 c 3.94969,0 6.18624,-2.42692 6.18624,-5.13934 0,-4.6159 -8.23244,-4.09243 -8.23244,-6.94762 0,-1.33242 1.23724,-2.37933 3.37862,-2.37933 1.99863,0 3.99726,0.9993 4.71108,2.14138 l 1.37999,-1.57034 c -1.0469,-1.42759 -3.33105,-2.56967 -5.9959,-2.56967 -3.80691,0 -5.94829,2.23655 -5.94829,4.85382 0,4.37796 8.28005,3.90209 8.28005,6.85245 0,1.47517 -1.38003,2.80759 -3.61658,2.80759 -2.33175,0 -4.33038,-1.23725 -5.18694,-2.4745 l -1.57034,1.66555 c 1.4276,1.80828 3.80692,2.76001 6.61451,2.76001 z m 0,0"
     style="fill:#241f1f;fill-opacity:1;fill-rule:nonzero;stroke:none;stroke-width:4.0607"
     aria-label="s" />
  <path
     id="path542"
     d="m 0,0 c 3.713,0 6.721,3.008 6.721,6.721 0,3.711 -3.008,6.72 -6.721,6.72 -3.711,0 -6.721,-3.009 -6.721,-6.72 C -6.721,3.008 -3.711,0 0,0"
     style="fill:#ffeda7;fill-opacity:1;fill-rule:nonzero;stroke:#c13439;stroke-width:0.5;stroke-linecap:butt;stroke-linejoin:miter;stroke-miterlimit:4;stroke-dasharray:none;stroke-opacity:1"
     transform="matrix(4.0607123,0,0,-4.0607123,527.72872,262.21209)"
     clip-path="url(#clipPath543-9)" />
  <path
     id="path544"
     d="m 536.79921,226.09522 v -2.14138 h -8.4704 v -8.51799 h -2.14137 v 8.51799 h -8.47039 v 2.14138 h 8.47039 v 8.47039 h 2.14137 v -8.47039 z m 0,0"
     style="fill:#c13439;fill-opacity:1;fill-rule:nonzero;stroke:none;stroke-width:4.0607"
     aria-label="+" />
  <path
     id="path545"
     d="m 535.35974,249.29363 v -2.14137 h -16.22698 v 2.14137 z m 0,0"
     style="fill:#c13439;fill-opacity:1;fill-rule:nonzero;stroke:none;stroke-width:4.0607"
     aria-label="‒" />
</svg>
