<?xml version="1.0" encoding="UTF-8" standalone="no"?>
<!-- Created with Inkscape (http://www.inkscape.org/) -->

<svg
   width="80.379425mm"
   height="211.66666mm"
   viewBox="0 0 80.379426 211.66666"
   version="1.1"
   id="svg1"
   xml:space="preserve"
   xmlns="http://www.w3.org/2000/svg"
   xmlns:svg="http://www.w3.org/2000/svg"><defs
     id="defs1"><clipPath
       clipPathUnits="userSpaceOnUse"
       id="clipPath7-4"><path
         d="M 422.938,354.256 H 551.471 V 714.099 H 422.938 Z"
         transform="matrix(1,0,0,-1,-422.93801,594.42301)"
         id="path7-3" /></clipPath><clipPath
       clipPathUnits="userSpaceOnUse"
       id="clipPath11-1"><path
         d="M 422.938,354.256 H 551.471 V 714.099 H 422.938 Z"
         transform="matrix(1,0,0,-1,-501.23601,707.43202)"
         id="path11-2" /></clipPath><clipPath
       clipPathUnits="userSpaceOnUse"
       id="clipPath19-3"><path
         d="M 422.938,354.256 H 551.471 V 714.099 H 422.938 Z"
         transform="translate(0,-2.5000001e-5)"
         id="path19-3" /></clipPath><clipPath
       clipPathUnits="userSpaceOnUse"
       id="clipPath48-4"><path
         d="M 422.938,354.256 H 551.471 V 714.099 H 422.938 Z"
         transform="translate(0,-2.5000001e-5)"
         id="path48-1" /></clipPath><clipPath
       clipPathUnits="userSpaceOnUse"
       id="clipPath61-1"><path
         d="M 422.938,354.256 H 551.471 V 714.099 H 422.938 Z"
         transform="translate(0,-2.5e-5)"
         id="path61-3" /></clipPath><clipPath
       clipPathUnits="userSpaceOnUse"
       id="clipPath68-8"><path
         d="M 422.938,354.256 H 551.471 V 714.099 H 422.938 Z"
         transform="translate(0,-2.5e-5)"
         id="path68-7" /></clipPath><clipPath
       clipPathUnits="userSpaceOnUse"
       id="clipPath75-4"><path
         d="M 422.938,354.256 H 551.471 V 714.099 H 422.938 Z"
         transform="translate(0,-2.5e-5)"
         id="path75-2" /></clipPath><clipPath
       clipPathUnits="userSpaceOnUse"
       id="clipPath83-7"><path
         d="M 422.938,354.256 H 551.471 V 714.099 H 422.938 Z"
         transform="translate(-502.78401,-436.43301)"
         id="path83-7" /></clipPath><clipPath
       clipPathUnits="userSpaceOnUse"
       id="clipPath85-9"><path
         d="M 422.938,354.256 H 551.471 V 714.099 H 422.938 Z"
         transform="translate(-502.78401,-432.87101)"
         id="path85-3" /></clipPath><clipPath
       clipPathUnits="userSpaceOnUse"
       id="clipPath87-1"><path
         d="M 422.938,354.256 H 551.471 V 714.099 H 422.938 Z"
         transform="translate(-502.78401,-429.30801)"
         id="path87-9" /></clipPath><clipPath
       clipPathUnits="userSpaceOnUse"
       id="clipPath89-8"><path
         d="M 422.938,354.256 H 551.471 V 714.099 H 422.938 Z"
         transform="translate(-473.64041,-665.48901)"
         id="path89-6" /></clipPath><clipPath
       clipPathUnits="userSpaceOnUse"
       id="clipPath93-5"><path
         d="M 422.938,354.256 H 551.471 V 714.099 H 422.938 Z"
         transform="translate(-473.64101,-573.30602)"
         id="path93-0" /></clipPath><clipPath
       clipPathUnits="userSpaceOnUse"
       id="clipPath97-2"><path
         d="M 422.938,354.256 H 551.471 V 714.099 H 422.938 Z"
         transform="translate(-473.64101,-481.74701)"
         id="path97-8" /></clipPath><clipPath
       clipPathUnits="userSpaceOnUse"
       id="clipPath101-6"><path
         d="M 422.938,354.256 H 551.471 V 714.099 H 422.938 Z"
         transform="translate(-473.64101,-374.21701)"
         id="path101-0" /></clipPath></defs><path
     id="path2"
     d="M 65.466763,7.5673015 H 33.325673 V 35.851441 h 32.14109 z"
     style="fill:none;stroke:#275b8d;stroke-width:0.267843;stroke-linecap:butt;stroke-linejoin:miter;stroke-miterlimit:4;stroke-dasharray:none;stroke-opacity:1" /><path
     id="path3"
     d="m 25.075773,22.745138 1.78282,-2.862562 h -0.42688 l -1.51289,2.473355 -0.42059,-2.473355 h -0.38293 l 0.51476,2.862562 z m 0,0"
     style="fill:#241f1f;fill-opacity:1;fill-rule:nonzero;stroke:none;stroke-width:0.535685"
     aria-label="V" /><path
     id="path4"
     d="m 27.053183,23.853128 c 0.58383,0 0.8161,-0.59009 0.8161,-1.104848 0,-0.527316 -0.23227,-1.111129 -0.8161,-1.111129 -0.59008,0 -0.82236,0.583813 -0.82236,1.111129 0,0.514758 0.23228,1.104848 0.82236,1.104848 z m 0,-0.238546 c -0.40803,0 -0.54613,-0.439428 -0.54613,-0.866302 0,-0.433152 0.13802,-0.87258 0.54613,-0.87258 0.40806,0 0.54616,0.439428 0.54616,0.87258 0,0.426874 -0.13818,0.866302 -0.54616,0.866302 z m 0,0"
     style="fill:#241f1f;fill-opacity:1;fill-rule:nonzero;stroke:none;stroke-width:0.535685"
     aria-label="0" /><path
     id="path5"
     d="m 7.3432524,17.939674 c -0.27622,-0.539867 -0.44571,-1.035796 -0.44571,-1.745157 0,-0.715641 0.16949,-1.205291 0.44571,-1.751438 l -0.1946,-0.144391 c -0.38294,0.533591 -0.60264,1.205289 -0.60264,1.895821 0,0.69053 0.2197,1.368505 0.60264,1.89582 z m 2.01824,-0.703084 v -1.425004 c 0,-0.502206 -0.36411,-0.696809 -0.80353,-0.696809 -0.33899,0 -0.60265,0.112987 -0.82863,0.345264 l 0.15062,0.219715 c 0.18206,-0.194603 0.38921,-0.288767 0.63403,-0.288767 0.30132,0 0.52103,0.163216 0.52103,0.439429 v 0.370376 c -0.1632,-0.188328 -0.40176,-0.282489 -0.68424,-0.282489 -0.35154,0 -0.72192,0.219713 -0.72192,0.684251 0,0.451984 0.37038,0.684253 0.72192,0.684253 0.28248,0 0.51475,-0.100427 0.68424,-0.288767 v 0.238548 z m -0.89143,-0.18205 c -0.30131,0 -0.51475,-0.188326 -0.51475,-0.445706 0,-0.269935 0.21344,-0.458261 0.51475,-0.458261 0.226,0 0.44572,0.08789 0.56499,0.257379 v 0.38921 c -0.1192,0.175771 -0.33899,0.257378 -0.56499,0.257378 z m 1.47367,1.035797 c 0.3892006,-0.527315 0.6089206,-1.205291 0.6089206,-1.89582 0,-0.690532 -0.21972,-1.36223 -0.6089206,-1.895823 l -0.18833,0.144393 c 0.2762106,0.546147 0.4457206,1.035796 0.4457206,1.751437 0,0.709362 -0.16951,1.205291 -0.4457206,1.745158 z m 0,0"
     style="fill:#241f1f;fill-opacity:1;fill-rule:nonzero;stroke:none;stroke-width:0.535685"
     aria-label="(a)" /><path
     id="path6"
     d="M 1.8403203,1.313625 C 1.3246953,0.3058125 1.0082891,-0.61996875 1.0082891,-1.9441875 c 0,-1.3359375 0.3164062,-2.25 0.8320312,-3.2695313 L 1.4770391,-5.48325 c -0.71484379,0.9960937 -1.12500004,2.25 -1.12500004,3.5390625 0,1.2890625 0.41015625,2.5546875 1.12500004,3.5390625 z M 3.1791875,-1.0418438 V -2.7996563 C 3.390125,-3.1395 3.8705938,-3.42075 4.3393438,-3.42075 c 0.7851562,0 1.2421875,0.6328125 1.2421875,1.4882812 0,0.8554688 -0.4570313,1.4882813 -1.2421875,1.4882813 -0.46875,0 -0.9492188,-0.26953125 -1.1601563,-0.5976563 z m 0,1.0429688 v -0.57421875 c 0.2929688,0.38671875 0.7617188,0.66796875 1.3125,0.66796875 1.0078125,0 1.7226563,-0.76171875 1.7226563,-2.0273438 0,-1.2304687 -0.7148438,-2.0273437 -1.7226563,-2.0273437 -0.5273437,0 -0.9960937,0.2578125 -1.3125,0.6796875 v -2.0625 H 2.5815313 v 5.34375 z m 3.8964844,1.59375 c 0.7265625,-0.984375 1.1367187,-2.25 1.1367187,-3.5390625 0,-1.2890625 -0.4101562,-2.5429688 -1.1367187,-3.5390625 l -0.3515625,0.2695312 c 0.515625,1.0195313 0.8320312,1.9335938 0.8320312,3.2695313 0,1.32421875 -0.3164062,2.25 -0.8320312,3.2578125 z m 0,0"
     style="fill:#241f1f;fill-opacity:1;fill-rule:nonzero;stroke:none"
     aria-label="(b)"
     transform="matrix(0.53568448,0,0,0.53568448,6.2554224,63.399543)"
     clip-path="url(#clipPath7-4)" /><path
     id="path8"
     d="m 44.148663,5.1893805 h 8.5629"
     style="fill:none;stroke:#c13439;stroke-width:0.401763;stroke-linecap:butt;stroke-linejoin:miter;stroke-miterlimit:4;stroke-dasharray:none;stroke-opacity:1" /><path
     id="path9"
     d="m 52.114873,6.0538715 3.26661,-0.875308 -3.26661,-0.87531 z"
     style="fill:#c13439;fill-opacity:1;fill-rule:nonzero;stroke:none;stroke-width:0.535685" /><path
     id="path10"
     d="M 1.6652672,5.59375e-4 V -5.3431906 H 0.52854844 V 5.59375e-4 Z m 0,0"
     style="fill:#241f1f;fill-opacity:1;fill-rule:nonzero;stroke:none"
     aria-label="I"
     transform="matrix(0.53568448,0,0,0.53568448,48.198493,2.8622625)"
     clip-path="url(#clipPath11-1)" /><path
     id="path12"
     d="m 50.214243,3.9705485 c 0.49592,0 0.86002,-0.451984 0.86002,-0.935355 0,-0.414319 -0.26994,-0.690532 -0.70935,-0.690532 -0.50222,0 -0.86631,0.451985 -0.86631,0.941635 0,0.408039 0.26992,0.684252 0.71564,0.684252 z m 0.007,-0.213437 c -0.29504,0 -0.46452,-0.188327 -0.46452,-0.483372 0,-0.364097 0.25109,-0.715641 0.60262,-0.715641 0.29505,0 0.46455,0.188328 0.46455,0.483372 0,0.364098 -0.25111,0.715641 -0.60265,0.715641 z m 0,0"
     style="fill:#241f1f;fill-opacity:1;fill-rule:nonzero;stroke:none;stroke-width:0.535685"
     aria-label="o" /><path
     id="path13"
     d="M 51.647073,43.045175 V 42.29187 h -2.27874 v -2.278753 h -0.75332 v 2.278753 h -2.27875 v 0.753305 h 2.27875 v 2.278753 h 0.75332 v -2.278753 z m 0,0"
     style="fill:#241f1f;fill-opacity:1;fill-rule:nonzero;stroke:none;stroke-width:0.535685"
     aria-label="+" /><path
     id="path14"
     d="m 51.647073,92.361633 v -0.7533 h -2.27874 v -2.27876 h -0.75332 v 2.27876 h -2.27875 v 0.7533 h 2.27875 v 2.27875 h 0.75332 v -2.27875 z m 0,0"
     style="fill:#241f1f;fill-opacity:1;fill-rule:nonzero;stroke:none;stroke-width:0.535685"
     aria-label="+" /><path
     id="path15"
     d="m 51.647073,141.35322 v -0.75331 h -2.27874 v -2.27877 h -0.75332 v 2.27877 h -2.27875 v 0.75331 h 2.27875 v 2.27873 h 0.75332 v -2.27873 z m 0,0"
     style="fill:#241f1f;fill-opacity:1;fill-rule:nonzero;stroke:none;stroke-width:0.535685"
     aria-label="+" /><path
     id="path16"
     d="m 26.210253,72.939443 h -4.9915 l 3.18785,-3.65605"
     style="fill:none;stroke:#241f1f;stroke-width:0.267843;stroke-linecap:butt;stroke-linejoin:miter;stroke-miterlimit:4;stroke-dasharray:none;stroke-opacity:1" /><path
     id="path17"
     d="m 56.178043,28.351737 h 18.79717 V 15.033013 h -18.79717 z"
     style="fill:#ffffff;fill-opacity:1;fill-rule:nonzero;stroke:none;stroke-width:0.535685" /><path
     id="path18"
     d="m 551.222,684.712 h -35.09 v -24.863 h 35.09 z"
     style="fill:none;stroke:#c13439;stroke-width:0.5;stroke-linecap:butt;stroke-linejoin:miter;stroke-miterlimit:4;stroke-dasharray:none;stroke-opacity:1"
     transform="matrix(0.53568448,0,0,-0.53568448,-220.30586,381.82261)"
     clip-path="url(#clipPath19-3)" /><path
     id="path20"
     d="m 60.197113,22.763972 v -0.533593 h -1.38106 l 1.34967,-1.839323 v -0.489648 h -2.14692 v 0.53987 h 1.34968 l -1.34968,1.826766 v 0.495928 z m 0,0"
     style="fill:#241f1f;fill-opacity:1;fill-rule:nonzero;stroke:none;stroke-width:0.535685"
     aria-label="Z" /><path
     id="path21"
     d="m 61.360023,23.467057 c -0.27622,-0.539869 -0.44571,-1.035797 -0.44571,-1.74516 0,-0.715641 0.16949,-1.20529 0.44571,-1.751437 l -0.1946,-0.144393 c -0.38294,0.533593 -0.60264,1.205292 -0.60264,1.895823 0,0.690529 0.2197,1.368506 0.60264,1.89582 z m 0,0"
     style="fill:#241f1f;fill-opacity:1;fill-rule:nonzero;stroke:none;stroke-width:0.535685"
     aria-label="(" /><path
     id="path22"
     d="m 63.458303,20.880706 v 0.06905 c 0.18204,0 0.35153,0.03139 0.40175,0.232268 0.0188,0.06277 0.0188,0.182048 0.0188,0.263658 0,0.269935 -0.0691,0.646589 -0.20088,0.897689 -0.1004,0.175771 -0.26366,0.376654 -0.50222,0.376654 -0.18204,0 -0.28248,-0.175771 -0.28248,-0.357819 0,-0.03139 0,-0.06277 0.012,-0.09416 0.0376,-0.06277 0.0941,-0.156939 0.13187,-0.213437 0.0941,-0.163217 0.17577,-0.433151 0.17577,-0.627755 0,-0.11928 -0.0439,-0.200882 -0.14441,-0.200882 -0.16321,0 -0.28876,0.207159 -0.35153,0.433151 -0.0315,0.125547 -0.0503,0.257379 -0.0503,0.370374 0,0.05651 0.007,0.150664 0.012,0.213438 -0.0815,0.238548 -0.33271,0.477094 -0.52104,0.477094 -0.13819,0 -0.24483,-0.10672 -0.24483,-0.401763 0,-0.357821 0.15695,-0.816081 0.37039,-1.092294 0.1632,-0.200883 0.35781,-0.276212 0.57753,-0.276212 v -0.06905 h -0.0816 c -0.60263,0 -1.04207,0.458261 -1.18645,0.979296 -0.0315,0.112987 -0.0439,0.232271 -0.0439,0.345268 0,0.426872 0.28248,0.608922 0.55868,0.608922 0.30134,0 0.45827,-0.10672 0.62776,-0.307601 0.0691,0.150663 0.15695,0.307601 0.48964,0.307601 0.27623,0 0.60266,-0.188327 0.82866,-0.608922 0.11293,-0.213438 0.18832,-0.433152 0.18832,-0.665421 0,-0.200882 -0.0565,-0.395486 -0.19462,-0.51476 -0.11293,-0.100453 -0.28876,-0.144377 -0.50846,-0.144377 z m 0,0"
     style="fill:#241f1f;fill-opacity:1;fill-rule:nonzero;stroke:none;stroke-width:0.535685"
     aria-label="ω" /><path
     id="path24"
     d="m 68.213533,21.389187 v -0.28249 h -2.52356 v 0.28249 z m 0,0.860024 v -0.28249 h -2.52356 v 0.28249 z m 0,0"
     style="fill:#241f1f;fill-opacity:1;fill-rule:nonzero;stroke:none;stroke-width:0.535685"
     aria-label="=" /><path
     id="path25"
     d="m 70.835983,22.814192 c 0.77842,0 1.09229,-0.784696 1.09229,-1.475225 0,-0.703086 -0.31387,-1.475226 -1.09229,-1.475226 -0.7847,0 -1.09228,0.77214 -1.09228,1.475226 0,0.690529 0.30758,1.475225 1.09228,1.475225 z m 0,-0.313878 c -0.54614,0 -0.72819,-0.596368 -0.72819,-1.161347 0,-0.571257 0.18205,-1.161347 0.72819,-1.161347 0.54614,0 0.7282,0.59009 0.7282,1.161347 0,0.564979 -0.18206,1.161347 -0.7282,1.161347 z m 1.57409,1.117403 c 0.38922,-0.527313 0.60892,-1.20529 0.60892,-1.89582 0,-0.69053 -0.2197,-1.362229 -0.60892,-1.895822 l -0.18832,0.144393 c 0.27622,0.546147 0.44571,1.035796 0.44571,1.751437 0,0.709363 -0.16949,1.20529 -0.44571,1.74516 z m 0,0"
     style="fill:#241f1f;fill-opacity:1;fill-rule:nonzero;stroke:none;stroke-width:0.535685"
     aria-label=" 0)" /><path
     id="path26"
     d="m 65.466813,57.010853 h -32.14107 v 28.28414 h 32.14107 z"
     style="fill:none;stroke:#275b8d;stroke-width:0.267843;stroke-linecap:butt;stroke-linejoin:miter;stroke-miterlimit:4;stroke-dasharray:none;stroke-opacity:1" /><path
     id="path27"
     d="m 18.336823,72.173013 1.78282,-2.86256 h -0.42687 l -1.51289,2.47336 -0.4206,-2.47336 h -0.38293 l 0.51477,2.86256 z m 0,0"
     style="fill:#241f1f;fill-opacity:1;fill-rule:nonzero;stroke:none;stroke-width:0.535685"
     aria-label="V" /><path
     id="path28"
     d="m 20.276573,73.243353 v -2.14065 h -0.23854 l -0.53359,0.55242 0.15693,0.16322 0.34527,-0.3641 v 1.78911 z m 0,0"
     style="fill:#241f1f;fill-opacity:1;fill-rule:nonzero;stroke:none;stroke-width:0.535685"
     aria-label="1     " /><path
     id="path29"
     d="m 26.786393,69.982153 c 0,-0.50848 -0.2197,-0.71564 -0.5273,-0.71564 -0.1695,0 -0.33272,0.0376 -0.52104,0.18204 -0.46455,0.35155 -0.95419,1.11114 -0.95419,2.03394 0,0.45197 0.20716,0.74075 0.55241,0.74075 0.30134,0 0.59638,-0.13811 0.87887,-0.5022 0.31387,-0.42688 0.57125,-1.04208 0.57125,-1.73889 z m -1.48777,0.70309 c 0.1068,-0.38294 0.52731,-1.33085 0.90396,-1.33085 0.15064,0 0.226,0.17578 0.226,0.45199 0,0.32016 -0.0565,0.62775 -0.1256,0.87886 z m 0.97303,0.1381 c -0.1068,0.4206 -0.47083,1.30574 -0.88514,1.30574 -0.15696,0 -0.23856,-0.21972 -0.23856,-0.59638 0,-0.26993 0.0439,-0.49592 0.1256,-0.70936 z m 0,0"
     style="fill:#241f1f;fill-opacity:1;fill-rule:nonzero;stroke:none;stroke-width:0.535685"
     aria-label="θ" /><path
     id="path30"
     d="m 27.569533,73.243353 v -2.14065 h -0.23855 l -0.5336,0.55242 0.15693,0.16322 0.34529,-0.3641 v 1.78911 z m 0,0"
     style="fill:#241f1f;fill-opacity:1;fill-rule:nonzero;stroke:none;stroke-width:0.535685"
     aria-label="1" /><path
     id="path31"
     d="m 26.210253,122.3633 h -4.9915 l 3.18785,-3.6566"
     style="fill:none;stroke:#241f1f;stroke-width:0.267843;stroke-linecap:butt;stroke-linejoin:miter;stroke-miterlimit:4;stroke-dasharray:none;stroke-opacity:1" /><path
     id="path32"
     d="m 17.357503,121.61189 1.78283,-2.86257 h -0.42687 l -1.51289,2.47337 -0.4206,-2.47337 h -0.38294 l 0.51478,2.86257 z m 0,0"
     style="fill:#241f1f;fill-opacity:1;fill-rule:nonzero;stroke:none;stroke-width:0.535685"
     aria-label="V" /><path
     id="path33"
     d="m 20.207523,122.68378 v -0.23855 h -1.04836 c 0.59637,-0.47082 1.04209,-0.87258 1.04209,-1.30574 0,-0.42688 -0.36411,-0.63402 -0.72193,-0.63402 -0.30131,0 -0.58382,0.1256 -0.74703,0.33898 l 0.16321,0.1695 c 0.1256,-0.15694 0.32643,-0.26995 0.58382,-0.26995 0.21972,0 0.44572,0.11933 0.44572,0.39549 0,0.37039 -0.41434,0.72192 -1.18647,1.33086 v 0.21343 z m 0,0"
     style="fill:#241f1f;fill-opacity:1;fill-rule:nonzero;stroke:none;stroke-width:0.535685"
     aria-label="2     " /><path
     id="path34"
     d="m 26.714213,119.42101 c 0,-0.50847 -0.21972,-0.71563 -0.52731,-0.71563 -0.16949,0 -0.33272,0.0377 -0.52104,0.18206 -0.46455,0.35154 -0.95419,1.11112 -0.95419,2.03392 0,0.45197 0.20716,0.74075 0.55242,0.74075 0.30133,0 0.59637,-0.13803 0.87886,-0.50222 0.31387,-0.42686 0.57126,-1.04206 0.57126,-1.73888 z m -1.48778,0.70311 c 0.1068,-0.38295 0.52731,-1.33086 0.90396,-1.33086 0.15063,0 0.226,0.17578 0.226,0.45199 0,0.32016 -0.0565,0.62776 -0.1256,0.87887 z m 0.97302,0.13803 c -0.1068,0.42058 -0.47082,1.30572 -0.88514,1.30572 -0.15694,0 -0.23854,-0.21971 -0.23854,-0.59636 0,-0.26995 0.0439,-0.49592 0.1256,-0.70936 z m 0,0"
     style="fill:#241f1f;fill-opacity:1;fill-rule:nonzero;stroke:none;stroke-width:0.535685"
     aria-label="θ" /><path
     id="path35"
     d="m 28.300863,122.68378 v -0.23855 h -1.04834 c 0.59637,-0.47082 1.04206,-0.87258 1.04206,-1.30574 0,-0.42688 -0.36409,-0.63402 -0.7219,-0.63402 -0.30134,0 -0.58383,0.1256 -0.74703,0.33898 l 0.1632,0.1695 c 0.1256,-0.15694 0.32644,-0.26995 0.58383,-0.26995 0.2197,0 0.44569,0.11933 0.44569,0.39549 0,0.37039 -0.41431,0.72192 -1.18646,1.33086 v 0.21343 z m 0,0"
     style="fill:#241f1f;fill-opacity:1;fill-rule:nonzero;stroke:none;stroke-width:0.535685"
     aria-label="2" /><path
     id="path36"
     d="m 26.210253,179.96544 h -4.9915 l 3.18785,-3.65606"
     style="fill:none;stroke:#241f1f;stroke-width:0.267843;stroke-linecap:butt;stroke-linejoin:miter;stroke-miterlimit:4;stroke-dasharray:none;stroke-opacity:1" /><path
     id="path37"
     d="m 18.024523,179.21471 1.78282,-2.86257 h -0.42688 l -1.5129,2.47337 -0.42059,-2.47337 h -0.38292 l 0.51476,2.86257 z m 0,0"
     style="fill:#241f1f;fill-opacity:1;fill-rule:nonzero;stroke:none;stroke-width:0.535685"
     aria-label="V" /><path
     id="path38"
     d="m 20.157313,180.28503 0.23854,-1.07972 c 0.007,-0.0315 0.0188,-0.0941 0.0188,-0.1256 0,-0.2511 -0.18832,-0.38292 -0.46453,-0.38292 -0.21972,0 -0.41431,0.13173 -0.54615,0.26365 l 0.0503,-0.22599 h -0.23854 l -0.34528,1.55055 h 0.23856 l 0.2511,-1.12996 c 0.11933,-0.1256 0.30132,-0.24481 0.49593,-0.24481 0.1695,0 0.3076,0.0691 0.3076,0.25111 0,0.0315 -0.012,0.0753 -0.0188,0.1068 l -0.22599,1.01694 z m 0,0"
     style="fill:#241f1f;fill-opacity:1;fill-rule:nonzero;stroke:none;stroke-width:0.535685"
     aria-label="n" /><path
     id="path40"
     d="m 26.833473,177.02385 c 0,-0.50849 -0.2197,-0.71564 -0.5273,-0.71564 -0.1695,0 -0.33271,0.0376 -0.52103,0.18204 -0.46455,0.35155 -0.9542,1.11112 -0.9542,2.03392 0,0.45199 0.20717,0.74075 0.55243,0.74075 0.30132,0 0.59636,-0.13818 0.87886,-0.50219 0.31388,-0.42688 0.57124,-1.04209 0.57124,-1.73888 z m -1.48777,0.70308 c 0.1068,-0.38293 0.52731,-1.33085 0.90397,-1.33085 0.15063,0 0.22599,0.17579 0.22599,0.45199 0,0.32016 -0.0565,0.62776 -0.1256,0.87886 z m 0.97303,0.13803 c -0.1068,0.42059 -0.47082,1.30572 -0.88514,1.30572 -0.15694,0 -0.23854,-0.2197 -0.23854,-0.59636 0,-0.26993 0.0439,-0.49592 0.1256,-0.70936 z m 0,0"
     style="fill:#241f1f;fill-opacity:1;fill-rule:nonzero;stroke:none;stroke-width:0.535685"
     aria-label="θ" /><path
     id="path41"
     d="m 28.131373,180.28503 0.23853,-1.07972 c 0.007,-0.0315 0.0188,-0.0941 0.0188,-0.1256 0,-0.2511 -0.18832,-0.38292 -0.46453,-0.38292 -0.21971,0 -0.41431,0.13173 -0.54615,0.26365 l 0.0503,-0.22599 h -0.23855 l -0.34527,1.55055 h 0.23855 l 0.25111,-1.12996 c 0.11933,-0.1256 0.30132,-0.24481 0.49593,-0.24481 0.1695,0 0.30759,0.0691 0.30759,0.25111 0,0.0315 -0.012,0.0753 -0.0188,0.1068 l -0.22599,1.01694 z m 0,0"
     style="fill:#241f1f;fill-opacity:1;fill-rule:nonzero;stroke:none;stroke-width:0.535685"
     aria-label="n" /><path
     id="path42"
     d="m 44.148713,54.632953 h 8.56292"
     style="fill:none;stroke:#c13439;stroke-width:0.401763;stroke-linecap:butt;stroke-linejoin:miter;stroke-miterlimit:4;stroke-dasharray:none;stroke-opacity:1" /><path
     id="path43"
     d="m 52.114943,55.497553 3.2666,-0.87531 -3.2666,-0.87531 z"
     style="fill:#c13439;fill-opacity:1;fill-rule:nonzero;stroke:none;stroke-width:0.535685" /><path
     id="path44"
     d="m 49.464053,52.306133 v -2.862562 h -0.60892 v 2.862562 z m 0,0"
     style="fill:#241f1f;fill-opacity:1;fill-rule:nonzero;stroke:none;stroke-width:0.535685"
     aria-label="I" /><path
     id="path45"
     d="m 50.587733,53.378033 v -2.14065 h -0.23854 l -0.5336,0.55242 0.15696,0.16322 0.34525,-0.3641 v 1.78911 z m 0,0"
     style="fill:#241f1f;fill-opacity:1;fill-rule:nonzero;stroke:none;stroke-width:0.535685"
     aria-label="1" /><path
     id="path46"
     d="m 56.178093,77.795423 h 18.79716 v -13.31873 h -18.79716 z"
     style="fill:#ffffff;fill-opacity:1;fill-rule:nonzero;stroke:none;stroke-width:0.535685" /><path
     id="path47"
     d="m 551.222,592.412 h -35.09 v -24.863 h 35.09 z"
     style="fill:none;stroke:#c13439;stroke-width:0.5;stroke-linecap:butt;stroke-linejoin:miter;stroke-miterlimit:4;stroke-dasharray:none;stroke-opacity:1"
     transform="matrix(0.53568448,0,0,-0.53568448,-220.30582,381.82261)"
     clip-path="url(#clipPath48-4)" /><path
     id="path49"
     d="m 63.098903,72.207543 v -0.53358 h -1.38107 l 1.34968,-1.83933 v -0.48965 h -2.14692 v 0.53987 h 1.34967 l -1.34967,1.82677 v 0.49592 z m 0,0"
     style="fill:#241f1f;fill-opacity:1;fill-rule:nonzero;stroke:none;stroke-width:0.535685"
     aria-label="Z" /><path
     id="path50"
     d="m 64.260253,72.910623 c -0.27622,-0.53986 -0.44571,-1.03578 -0.44571,-1.74514 0,-0.71565 0.16949,-1.2053 0.44571,-1.75145 l -0.19462,-0.14437 c -0.38292,0.53359 -0.60262,1.20528 -0.60262,1.89582 0,0.69053 0.2197,1.3685 0.60262,1.89581 z m 0,0"
     style="fill:#241f1f;fill-opacity:1;fill-rule:nonzero;stroke:none;stroke-width:0.535685"
     aria-label="(" /><path
     id="path51"
     d="m 66.360093,70.324273 v 0.0691 c 0.18204,0 0.35153,0.0313 0.40175,0.23227 0.0188,0.0628 0.0188,0.18205 0.0188,0.26365 0,0.26994 -0.0691,0.64659 -0.20088,0.8977 -0.1004,0.17577 -0.26367,0.37665 -0.50222,0.37665 -0.18204,0 -0.28249,-0.17577 -0.28249,-0.35783 0,-0.0313 0,-0.0628 0.012,-0.0941 0.0377,-0.0628 0.0941,-0.15693 0.13187,-0.21343 0.0941,-0.16322 0.17577,-0.43316 0.17577,-0.62776 0,-0.11933 -0.0439,-0.20088 -0.14441,-0.20088 -0.16322,0 -0.28876,0.20716 -0.35154,0.43315 -0.0315,0.1256 -0.0503,0.25739 -0.0503,0.37037 0,0.0565 0.007,0.15067 0.012,0.21344 -0.0816,0.23855 -0.33271,0.4771 -0.52104,0.4771 -0.13818,0 -0.24482,-0.10667 -0.24482,-0.40176 0,-0.35783 0.15694,-0.81608 0.37038,-1.0923 0.16321,-0.20088 0.35782,-0.27621 0.57753,-0.27621 v -0.0691 h -0.0816 c -0.60265,0 -1.04208,0.45826 -1.18646,0.9793 -0.0315,0.11293 -0.0439,0.23226 -0.0439,0.34526 0,0.42687 0.28251,0.60892 0.55871,0.60892 0.30132,0 0.45826,-0.10666 0.62776,-0.3076 0.0691,0.15067 0.15693,0.3076 0.48964,0.3076 0.27621,0 0.60264,-0.18833 0.82864,-0.60892 0.11293,-0.21344 0.18833,-0.43316 0.18833,-0.66542 0,-0.20088 -0.0565,-0.39548 -0.19461,-0.51477 -0.11294,-0.1004 -0.28876,-0.14438 -0.5085,-0.14438 z m 0,0"
     style="fill:#241f1f;fill-opacity:1;fill-rule:nonzero;stroke:none;stroke-width:0.535685"
     aria-label="ω" /><path
     id="path52"
     d="m 68.263773,73.317113 c 0.5838,0 0.81607,-0.5901 0.81607,-1.10486 0,-0.52731 -0.23227,-1.11112 -0.81607,-1.11112 -0.59009,0 -0.82236,0.58381 -0.82236,1.11112 0,0.51476 0.23227,1.10486 0.82236,1.10486 z m 0,-0.23855 c -0.40805,0 -0.54616,-0.43943 -0.54616,-0.86631 0,-0.43315 0.13804,-0.87257 0.54616,-0.87257 0.40803,0 0.54615,0.43942 0.54615,0.87257 0,0.42688 -0.13819,0.86631 -0.54615,0.86631 z m 0,0"
     style="fill:#241f1f;fill-opacity:1;fill-rule:nonzero;stroke:none;stroke-width:0.535685"
     aria-label="0" /><path
     id="path53"
     d="m 69.508303,73.061293 c 0.3892,-0.52732 0.6089,-1.20529 0.6089,-1.89581 0,-0.69054 -0.2197,-1.36223 -0.6089,-1.89583 l -0.18834,0.14437 c 0.27622,0.54615 0.44571,1.0358 0.44571,1.75144 0,0.70936 -0.16949,1.2053 -0.44571,1.74516 z m 0,0"
     style="fill:#241f1f;fill-opacity:1;fill-rule:nonzero;stroke:none;stroke-width:0.535685"
     aria-label=")" /><path
     id="path54"
     d="m 65.466863,106.03295 h -32.14108 v 28.2836 h 32.14108 z"
     style="fill:none;stroke:#275b8d;stroke-width:0.267843;stroke-linecap:butt;stroke-linejoin:miter;stroke-miterlimit:4;stroke-dasharray:none;stroke-opacity:1" /><path
     id="path55"
     d="m 44.148773,103.65504 h 8.5629"
     style="fill:none;stroke:#c13439;stroke-width:0.401763;stroke-linecap:butt;stroke-linejoin:miter;stroke-miterlimit:4;stroke-dasharray:none;stroke-opacity:1" /><path
     id="path56"
     d="m 52.114993,104.51911 3.26661,-0.87479 -3.26661,-0.87529 z"
     style="fill:#c13439;fill-opacity:1;fill-rule:nonzero;stroke:none;stroke-width:0.535685" /><path
     id="path57"
     d="m 49.063853,101.32755 v -2.862577 h -0.60892 v 2.862577 z m 0,0"
     style="fill:#241f1f;fill-opacity:1;fill-rule:nonzero;stroke:none;stroke-width:0.535685"
     aria-label="I" /><path
     id="path58"
     d="m 50.991083,102.39944 v -0.23855 h -1.04836 c 0.59636,-0.47081 1.04207,-0.87257 1.04207,-1.30573 0,-0.42687 -0.36409,-0.63403 -0.72191,-0.63403 -0.30133,0 -0.58381,0.1256 -0.74704,0.33899 l 0.16323,0.16949 c 0.1256,-0.15693 0.32642,-0.26993 0.58381,-0.26993 0.21971,0 0.4457,0.1192 0.4457,0.39548 0,0.37037 -0.41431,0.72192 -1.18646,1.33084 v 0.21344 z m 0,0"
     style="fill:#241f1f;fill-opacity:1;fill-rule:nonzero;stroke:none;stroke-width:0.535685"
     aria-label="2" /><path
     id="path59"
     d="m 56.178143,126.81697 h 18.79718 v -13.31873 h -18.79718 z"
     style="fill:#ffffff;fill-opacity:1;fill-rule:nonzero;stroke:none;stroke-width:0.535685" /><path
     id="path60"
     d="m 551.222,500.9 h -35.09 v -24.863 h 35.09 z"
     style="fill:none;stroke:#c13439;stroke-width:0.5;stroke-linecap:butt;stroke-linejoin:miter;stroke-miterlimit:4;stroke-dasharray:none;stroke-opacity:1"
     transform="matrix(0.53568448,0,0,-0.53568448,-220.30575,381.82261)"
     clip-path="url(#clipPath61-1)" /><path
     id="path62"
     d="m 61.838683,121.22896 v -0.53359 h -1.38105 l 1.34967,-1.83933 v -0.48966 h -2.14693 v 0.53987 h 1.34969 l -1.34969,1.82678 v 0.49593 z m 0,0"
     style="fill:#241f1f;fill-opacity:1;fill-rule:nonzero;stroke:none;stroke-width:0.535685"
     aria-label="Z" /><path
     id="path63"
     d="m 63.001593,121.93204 c -0.2762,-0.53988 -0.44569,-1.0358 -0.44569,-1.74516 0,-0.71564 0.16949,-1.2053 0.44569,-1.75143 l -0.1946,-0.14441 c -0.38293,0.5336 -0.60264,1.20529 -0.60264,1.89583 0,0.69053 0.21971,1.3685 0.60264,1.89582 z m 2.27405,-0.70308 v -0.32016 h -1.40618 c 0.79725,-0.62776 1.39362,-1.16136 1.39362,-1.74516 0,-0.56499 -0.48964,-0.83491 -0.96047,-0.83491 -0.40803,0 -0.77842,0.16321 -0.99812,0.44571 l 0.2197,0.23226 c 0.16951,-0.2197 0.43316,-0.3641 0.77842,-0.3641 0.29505,0 0.59639,0.15693 0.59639,0.52104 0,0.49593 -0.55871,0.97301 -1.58825,1.78283 v 0.28249 z m 0,0"
     style="fill:#241f1f;fill-opacity:1;fill-rule:nonzero;stroke:none;stroke-width:0.535685"
     aria-label="(2" /><path
     id="path64"
     d="m 67.620323,119.34569 v 0.0691 c 0.18204,0 0.35153,0.0315 0.40175,0.23226 0.0188,0.0627 0.0188,0.18206 0.0188,0.26366 0,0.26995 -0.0691,0.6466 -0.20088,0.89769 -0.1004,0.17578 -0.26366,0.37666 -0.50222,0.37666 -0.18204,0 -0.28248,-0.17578 -0.28248,-0.35783 0,-0.0315 0,-0.0627 0.012,-0.0941 0.0377,-0.0627 0.0941,-0.15694 0.13187,-0.21343 0.0941,-0.16323 0.17577,-0.43315 0.17577,-0.62776 0,-0.1192 -0.0439,-0.20088 -0.14441,-0.20088 -0.16322,0 -0.28876,0.20714 -0.35154,0.43315 -0.0315,0.1256 -0.0503,0.25738 -0.0503,0.37037 0,0.0565 0.007,0.15063 0.012,0.21344 -0.0817,0.23855 -0.33271,0.47709 -0.52104,0.47709 -0.13819,0 -0.24483,-0.1068 -0.24483,-0.40176 0,-0.35781 0.15695,-0.81608 0.37039,-1.09229 0.1632,-0.20088 0.35781,-0.27622 0.57753,-0.27622 v -0.0691 h -0.0817 c -0.60264,0 -1.04207,0.45825 -1.18646,0.97929 -0.0315,0.11294 -0.0439,0.23228 -0.0439,0.34527 0,0.42688 0.28248,0.60892 0.55869,0.60892 0.30133,0 0.45827,-0.1068 0.62776,-0.3076 0.0691,0.15064 0.15695,0.3076 0.48964,0.3076 0.27623,0 0.60266,-0.18832 0.82866,-0.60892 0.11293,-0.21344 0.18832,-0.43315 0.18832,-0.66543 0,-0.20088 -0.0565,-0.39548 -0.19462,-0.51475 -0.11293,-0.1004 -0.28877,-0.1444 -0.50848,-0.1444 z m 0,0"
     style="fill:#241f1f;fill-opacity:1;fill-rule:nonzero;stroke:none;stroke-width:0.535685"
     aria-label="ω" /><path
     id="path65"
     d="m 69.523993,122.33852 c 0.5838,0 0.81608,-0.59009 0.81608,-1.10485 0,-0.52731 -0.23228,-1.11114 -0.81608,-1.11114 -0.59008,0 -0.82236,0.58383 -0.82236,1.11114 0,0.51476 0.23228,1.10485 0.82236,1.10485 z m 0,-0.23855 c -0.40806,0 -0.54616,-0.43944 -0.54616,-0.8663 0,-0.43315 0.13818,-0.87258 0.54616,-0.87258 0.40804,0 0.54615,0.43943 0.54615,0.87258 0,0.42686 -0.13819,0.8663 -0.54615,0.8663 z m 0,0"
     style="fill:#241f1f;fill-opacity:1;fill-rule:nonzero;stroke:none;stroke-width:0.535685"
     aria-label="0" /><path
     id="path66"
     d="m 70.768513,122.08271 c 0.38921,-0.52732 0.60892,-1.2053 0.60892,-1.89583 0,-0.69054 -0.21971,-1.36223 -0.60892,-1.89582 l -0.18832,0.1444 c 0.27621,0.54614 0.44571,1.03579 0.44571,1.75143 0,0.70938 -0.1695,1.20528 -0.44571,1.74516 z m 0,0"
     style="fill:#241f1f;fill-opacity:1;fill-rule:nonzero;stroke:none;stroke-width:0.535685"
     aria-label=")" /><path
     id="path67"
     d="m 533.472,407.306 h -60 v -52.8 h 60 z"
     style="fill:none;stroke:#275b8d;stroke-width:0.5;stroke-linecap:butt;stroke-linejoin:miter;stroke-miterlimit:4;stroke-dasharray:none;stroke-opacity:1"
     transform="matrix(0.53568448,0,0,-0.53568448,-220.30575,381.82261)"
     clip-path="url(#clipPath68-8)" /><path
     id="path69"
     d="m 44.148823,161.25667 h 8.56292"
     style="fill:none;stroke:#c13439;stroke-width:0.401763;stroke-linecap:butt;stroke-linejoin:miter;stroke-miterlimit:4;stroke-dasharray:none;stroke-opacity:1" /><path
     id="path70"
     d="m 52.115033,162.1218 3.26662,-0.87532 -3.26662,-0.8753 z"
     style="fill:#c13439;fill-opacity:1;fill-rule:nonzero;stroke:none;stroke-width:0.535685" /><path
     id="path71"
     d="m 49.123513,158.93037 v -2.86256 h -0.60892 v 2.86256 z m 0,0"
     style="fill:#241f1f;fill-opacity:1;fill-rule:nonzero;stroke:none;stroke-width:0.535685"
     aria-label="I" /><path
     id="path72"
     d="m 50.761953,160.00225 0.23855,-1.07974 c 0.007,-0.0315 0.0188,-0.0941 0.0188,-0.1256 0,-0.2511 -0.18834,-0.38294 -0.46455,-0.38294 -0.21971,0 -0.41432,0.13174 -0.54615,0.26366 l 0.0503,-0.22598 h -0.23855 l -0.34527,1.55054 h 0.23855 l 0.25109,-1.12995 c 0.11934,-0.1256 0.30132,-0.24483 0.49594,-0.24483 0.16949,0 0.3076,0.0691 0.3076,0.25111 0,0.0315 -0.012,0.0753 -0.0188,0.1068 l -0.226,1.01696 z m 0,0"
     style="fill:#241f1f;fill-opacity:1;fill-rule:nonzero;stroke:none;stroke-width:0.535685"
     aria-label="n" /><path
     id="path73"
     d="m 56.178183,184.41966 h 18.79718 v -13.31927 h -18.79718 z"
     style="fill:#ffffff;fill-opacity:1;fill-rule:nonzero;stroke:none;stroke-width:0.535685" /><path
     id="path74"
     d="m 551.222,393.37 h -35.09 v -24.864 h 35.09 z"
     style="fill:none;stroke:#c13439;stroke-width:0.5;stroke-linecap:butt;stroke-linejoin:miter;stroke-miterlimit:4;stroke-dasharray:none;stroke-opacity:1"
     transform="matrix(0.53568448,0,0,-0.53568448,-220.30571,381.82261)"
     clip-path="url(#clipPath75-4)" /><path
     id="path76"
     d="m 61.918713,178.83177 v -0.53358 h -1.38105 l 1.34966,-1.83933 v -0.48964 h -2.14691 v 0.53986 h 1.34967 l -1.34967,1.82677 v 0.49592 z m 0,0"
     style="fill:#241f1f;fill-opacity:1;fill-rule:nonzero;stroke:none;stroke-width:0.535685"
     aria-label="Z" /><path
     id="path77"
     d="m 63.080073,179.53486 c -0.27621,-0.53986 -0.4457,-1.03578 -0.4457,-1.74515 0,-0.71564 0.16949,-1.2053 0.4457,-1.75145 l -0.19461,-0.1444 c -0.38292,0.53359 -0.60263,1.20529 -0.60263,1.89582 0,0.69052 0.21971,1.36851 0.60263,1.89582 z m 0,0"
     style="fill:#241f1f;fill-opacity:1;fill-rule:nonzero;stroke:none;stroke-width:0.535685"
     aria-label="(" /><path
     id="path78"
     d="m 64.964923,178.83177 0.32014,-1.43756 c 0.012,-0.0439 0.0251,-0.13173 0.0251,-0.16948 0,-0.33272 -0.25109,-0.51477 -0.61519,-0.51477 -0.30133,0 -0.55871,0.18205 -0.73448,0.35155 l 0.0691,-0.30131 h -0.32643 l -0.45825,2.07157 h 0.32644 l 0.3327,-1.5066 c 0.15694,-0.16949 0.3955,-0.32644 0.65915,-0.32644 0.22599,0 0.40804,0.0941 0.40804,0.33271 0,0.0439 -0.0188,0.1004 -0.0251,0.13804 l -0.30131,1.36221 z m 0,0"
     style="fill:#241f1f;fill-opacity:1;fill-rule:nonzero;stroke:none;stroke-width:0.535685"
     aria-label="n" /><path
     id="path79"
     d="m 67.540283,176.94852 v 0.0691 c 0.18204,0 0.35153,0.0315 0.40177,0.23226 0.0188,0.0627 0.0188,0.18204 0.0188,0.26364 0,0.26995 -0.0691,0.64659 -0.20088,0.8977 -0.1004,0.17577 -0.26366,0.37666 -0.5022,0.37666 -0.18205,0 -0.28251,-0.17578 -0.28251,-0.35784 0,-0.0315 0,-0.0627 0.012,-0.0941 0.0377,-0.0627 0.0941,-0.15693 0.13187,-0.21344 0.0941,-0.16323 0.17576,-0.43315 0.17576,-0.62776 0,-0.1192 -0.0439,-0.20087 -0.14441,-0.20087 -0.16322,0 -0.28876,0.20715 -0.35154,0.43314 -0.0315,0.1256 -0.0503,0.25738 -0.0503,0.37037 0,0.0565 0.007,0.15064 0.012,0.21344 -0.0815,0.23855 -0.33271,0.47711 -0.52103,0.47711 -0.13819,0 -0.24483,-0.1068 -0.24483,-0.40178 0,-0.35781 0.15694,-0.81608 0.37038,-1.09228 0.16321,-0.2009 0.35782,-0.27621 0.57753,-0.27621 v -0.0691 h -0.0816 c -0.60265,0 -1.04208,0.45826 -1.18645,0.9793 -0.0315,0.11293 -0.0439,0.23226 -0.0439,0.34526 0,0.42688 0.28249,0.60894 0.55871,0.60894 0.30132,0 0.45825,-0.1068 0.62774,-0.3076 0.0691,0.15062 0.15694,0.3076 0.48966,0.3076 0.2762,0 0.60263,-0.18835 0.82863,-0.60894 0.11293,-0.21342 0.18833,-0.43316 0.18833,-0.66542 0,-0.20088 -0.0565,-0.39548 -0.1946,-0.51476 -0.11293,-0.1004 -0.28877,-0.1444 -0.50848,-0.1444 z m 0,0"
     style="fill:#241f1f;fill-opacity:1;fill-rule:nonzero;stroke:none;stroke-width:0.535685"
     aria-label="ω" /><path
     id="path80"
     d="m 69.443953,179.94132 c 0.5838,0 0.81607,-0.59008 0.81607,-1.10484 0,-0.52732 -0.23227,-1.11113 -0.81607,-1.11113 -0.5901,0 -0.82236,0.58381 -0.82236,1.11113 0,0.51476 0.23226,1.10484 0.82236,1.10484 z m 0,-0.23853 c -0.40806,0 -0.54616,-0.43943 -0.54616,-0.86631 0,-0.43315 0.13818,-0.87257 0.54616,-0.87257 0.40804,0 0.54615,0.43942 0.54615,0.87257 0,0.42688 -0.13819,0.86631 -0.54615,0.86631 z m 0,0"
     style="fill:#241f1f;fill-opacity:1;fill-rule:nonzero;stroke:none;stroke-width:0.535685"
     aria-label="0" /><path
     id="path81"
     d="m 70.690033,179.68552 c 0.3892,-0.5273 0.60893,-1.20529 0.60893,-1.89581 0,-0.69052 -0.21973,-1.36223 -0.60893,-1.89582 l -0.18832,0.1444 c 0.27621,0.54616 0.44571,1.0358 0.44571,1.75144 0,0.70938 -0.1695,1.2053 -0.44571,1.74517 z m 0,0"
     style="fill:#241f1f;fill-opacity:1;fill-rule:nonzero;stroke:none;stroke-width:0.535685"
     aria-label=")" /><path
     id="path82"
     d="M 0,0 C 0.379,0 0.686,0.308 0.686,0.687 0.686,1.065 0.379,1.372 0,1.372 -0.379,1.372 -0.687,1.065 -0.687,0.687 -0.687,0.308 -0.379,0 0,0"
     style="fill:#241f1f;fill-opacity:1;fill-rule:nonzero;stroke:none"
     transform="matrix(0.53568448,0,0,-0.53568448,49.027883,148.03222)"
     clip-path="url(#clipPath83-7)" /><path
     id="path84"
     d="M 0,0 C 0.379,0 0.686,0.307 0.686,0.686 0.686,1.065 0.379,1.372 0,1.372 -0.379,1.372 -0.687,1.065 -0.687,0.686 -0.687,0.307 -0.379,0 0,0"
     style="fill:#241f1f;fill-opacity:1;fill-rule:nonzero;stroke:none"
     transform="matrix(0.53568448,0,0,-0.53568448,49.027883,149.94033)"
     clip-path="url(#clipPath85-9)" /><path
     id="path86"
     d="M 0,0 C 0.379,0 0.686,0.308 0.686,0.687 0.686,1.065 0.379,1.372 0,1.372 -0.379,1.372 -0.687,1.065 -0.687,0.687 -0.687,0.308 -0.379,0 0,0"
     style="fill:#241f1f;fill-opacity:1;fill-rule:nonzero;stroke:none"
     transform="matrix(0.53568448,0,0,-0.53568448,49.027883,151.84898)"
     clip-path="url(#clipPath87-1)" /><path
     id="path88"
     d="m 0,0 c 3.713,0 6.721,3.008 6.721,6.721 0,3.711 -3.008,6.72 -6.721,6.72 -3.711,0 -6.721,-3.009 -6.721,-6.72 C -6.721,3.008 -3.711,0 0,0"
     style="fill:#ffeda7;fill-opacity:1;fill-rule:nonzero;stroke:#c13439;stroke-width:0.5;stroke-linecap:butt;stroke-linejoin:miter;stroke-miterlimit:4;stroke-dasharray:none;stroke-opacity:1"
     transform="matrix(0.53568448,0,0,-0.53568448,33.416113,25.330478)"
     clip-path="url(#clipPath89-8)" /><path
     id="path90"
     d="m 34.611373,20.565261 v -0.28249 h -1.11741 v -1.123682 h -0.28249 v 1.123682 h -1.1174 v 0.28249 h 1.1174 v 1.117405 h 0.28249 v -1.117405 z m 0,0"
     style="fill:#c13439;fill-opacity:1;fill-rule:nonzero;stroke:none;stroke-width:0.535685"
     aria-label="+" /><path
     id="path91"
     d="m 34.423053,23.627136 v -0.282493 h -2.14065 v 0.282493 z m 0,0"
     style="fill:#c13439;fill-opacity:1;fill-rule:nonzero;stroke:none;stroke-width:0.535685"
     aria-label="‒" /><path
     id="path92"
     d="m 0,0 c 3.713,0 6.721,3.007 6.721,6.72 0,3.711 -3.008,6.721 -6.721,6.721 -3.711,0 -6.721,-3.01 -6.721,-6.721 C -6.721,3.007 -3.711,0 0,0"
     style="fill:#ffeda7;fill-opacity:1;fill-rule:nonzero;stroke:#c13439;stroke-width:0.5;stroke-linecap:butt;stroke-linejoin:miter;stroke-miterlimit:4;stroke-dasharray:none;stroke-opacity:1"
     transform="matrix(0.53568448,0,0,-0.53568448,33.416433,74.711483)"
     clip-path="url(#clipPath93-5)" /><path
     id="path94"
     d="m 34.611373,69.947623 v -0.28248 h -1.11741 v -1.12368 h -0.28249 v 1.12368 h -1.1174 v 0.28248 h 1.1174 v 1.11742 h 0.28249 v -1.11742 z m 0,0"
     style="fill:#c13439;fill-opacity:1;fill-rule:nonzero;stroke:none;stroke-width:0.535685"
     aria-label="+" /><path
     id="path95"
     d="m 34.423053,73.007933 v -0.28249 h -2.14065 v 0.28249 z m 0,0"
     style="fill:#c13439;fill-opacity:1;fill-rule:nonzero;stroke:none;stroke-width:0.535685"
     aria-label="‒" /><path
     id="path96"
     d="m 0,0 c 3.713,0 6.721,3.008 6.721,6.721 0,3.711 -3.008,6.721 -6.721,6.721 -3.711,0 -6.721,-3.01 -6.721,-6.721 C -6.721,3.008 -3.711,0 0,0"
     style="fill:#ffeda7;fill-opacity:1;fill-rule:nonzero;stroke:#c13439;stroke-width:0.5;stroke-linecap:butt;stroke-linejoin:miter;stroke-miterlimit:4;stroke-dasharray:none;stroke-opacity:1"
     transform="matrix(0.53568448,0,0,-0.53568448,33.416433,123.7582)"
     clip-path="url(#clipPath97-2)" /><path
     id="path98"
     d="m 34.611373,118.99414 v -0.28248 h -1.11741 v -1.12369 h -0.28249 v 1.12369 h -1.1174 v 0.28248 h 1.1174 v 1.11741 h 0.28249 v -1.11741 z m 0,0"
     style="fill:#c13439;fill-opacity:1;fill-rule:nonzero;stroke:none;stroke-width:0.535685"
     aria-label="+" /><path
     id="path99"
     d="m 34.423053,122.05444 v -0.28248 h -2.14065 v 0.28248 z m 0,0"
     style="fill:#c13439;fill-opacity:1;fill-rule:nonzero;stroke:none;stroke-width:0.535685"
     aria-label="‒" /><path
     id="path100"
     d="m 0,0 c 3.713,0 6.721,3.008 6.721,6.721 0,3.711 -3.008,6.721 -6.721,6.721 -3.711,0 -6.721,-3.01 -6.721,-6.721 C -6.721,3.008 -3.711,0 0,0"
     style="fill:#ffeda7;fill-opacity:1;fill-rule:nonzero;stroke:#c13439;stroke-width:0.5;stroke-linecap:butt;stroke-linejoin:miter;stroke-miterlimit:4;stroke-dasharray:none;stroke-opacity:1"
     transform="matrix(0.53568448,0,0,-0.53568448,33.416433,181.36037)"
     clip-path="url(#clipPath101-6)" /><path
     id="path102"
     d="m 34.611373,176.5954 v -0.28251 h -1.11741 v -1.12367 h -0.28249 v 1.12367 h -1.1174 v 0.28251 h 1.1174 v 1.1174 h 0.28249 v -1.1174 z m 0,0"
     style="fill:#c13439;fill-opacity:1;fill-rule:nonzero;stroke:none;stroke-width:0.535685"
     aria-label="+" /><path
     id="path103"
     d="m 34.423053,179.65728 v -0.28249 h -2.14065 v 0.28249 z m 0,0"
     style="fill:#c13439;fill-opacity:1;fill-rule:nonzero;stroke:none;stroke-width:0.535685"
     aria-label="‒" /><path
     id="path104"
     d="m 0.17586246,199.90395 h 0.74702 v -1.11111 H 2.3730024 v -0.66542 H 0.92288246 v -1.2053 H 2.5173924 v -0.65913 H 0.17586246 Z m 3.48247994,-2.66167 c 0.25109,0 0.45825,-0.18832 0.45825,-0.45199 0,-0.26365 -0.20716,-0.45197 -0.45825,-0.45197 -0.24485,0 -0.45829,0.18832 -0.45829,0.45197 0,0.26367 0.21344,0.45199 0.45829,0.45199 z m -0.36411,2.66167 h 0.72819 v -2.27875 h -0.72819 z m 2.9018,-2.28502 c -0.1004,-0.0251 -0.21344,-0.0439 -0.33899,-0.0439 -0.58381,0 -0.97929,0.34525 -0.97929,0.83489 0,0.2009 0.0753,0.38295 0.20088,0.52106 -0.20088,0.0879 -0.31389,0.24482 -0.31389,0.4457 0,0.21343 0.0879,0.3641 0.26994,0.46454 -0.25109,0.0941 -0.41432,0.25737 -0.41432,0.5022 0,0.43316 0.40804,0.74703 1.22412,0.74703 0.90397,0 1.26179,-0.3641 1.26179,-0.84119 0,-0.44571 -0.35782,-0.70308 -0.97929,-0.73447 l -0.55871,-0.0315 c -0.16949,0 -0.23855,-0.0691 -0.23855,-0.18205 0,-0.0565 0.0251,-0.1068 0.0627,-0.13803 0.1256,0.0691 0.28249,0.0941 0.46455,0.0941 0.58381,0 0.96047,-0.35782 0.96047,-0.84747 0,-0.1004 -0.0315,-0.20088 -0.0816,-0.27621 h 0.339 v -0.51475 z m -0.35155,1.11111 c -0.2197,0 -0.33272,-0.1256 -0.33272,-0.32014 0,-0.18204 0.11294,-0.3076 0.33272,-0.3076 0.21971,0 0.33899,0.1256 0.33899,0.3076 0,0.1946 -0.11933,0.32014 -0.33899,0.32014 z m -0.45826,1.34341 0.59637,0.0376 c 0.29504,0.0188 0.38292,0.0627 0.38292,0.18832 0,0.13804 -0.0941,0.25112 -0.52103,0.25112 -0.39549,0 -0.52104,-0.11934 -0.52104,-0.30134 0,-0.0691 0.0188,-0.1256 0.0627,-0.17577 z m 3.17959,-0.11921 c 0.32015,0 0.57753,-0.15062 0.72191,-0.42688 l -0.0188,0.37666 h 0.7219 v -2.27875 h -0.7219 v 1.21784 c 0,0.28877 -0.16323,0.45827 -0.45199,0.45827 -0.25739,0 -0.37664,-0.15064 -0.37664,-0.40804 v -1.26807 h -0.72194 v 1.312 c 0,0.65287 0.35155,1.01697 0.84749,1.01697 z m 2.2614806,-0.0503 h 0.72192 v -1.01068 c 0,-0.48964 0.18206,-0.64031 0.50848,-0.64031 0.1004,0 0.18206,0.0315 0.27622,0.0691 l 0.23226,-0.65915 c -0.0941,-0.0439 -0.20716,-0.0879 -0.35781,-0.0879 -0.23227,0 -0.50221,0.0879 -0.66543,0.45827 l 0.007,-0.40804 h -0.72192 z m 2.94731,-0.92279 h 1.73262 c 0.0503,-0.79724 -0.3955,-1.40618 -1.21159,-1.40618 -0.70935,0 -1.26177,0.48966 -1.26177,1.18018 0,0.70309 0.5273,1.19903 1.3434,1.19903 0.47708,0 0.75329,-0.14442 0.973,-0.339 l -0.41431,-0.44571 c -0.11293,0.0816 -0.3076,0.18205 -0.57125,0.18205 -0.32644,0 -0.52104,-0.13173 -0.5901,-0.37037 z m -0.012,-0.41432 c 0.0627,-0.2762 0.25738,-0.40177 0.53988,-0.40177 0.28248,0 0.4457,0.15064 0.47708,0.40177 z m 4.34408,1.33711 h 0.73446 v -2.79351 h -1.26807 v 0.59637 h 0.53361 z m 1.6761,0.50221 h 0.74703 l 1.40616,-3.23922 v -0.0565 h -2.30385 v 0.59636 h 1.33712 z m 2.77938,-0.47083 c 0.23855,0 0.44571,-0.18832 0.44571,-0.45197 0,-0.26365 -0.20716,-0.45199 -0.44571,-0.45199 -0.25111,0 -0.45825,0.18834 -0.45825,0.45199 0,0.26365 0.20714,0.45197 0.45825,0.45197 z m 1.33399,-0.0315 h 0.73447 v -2.79351 h -1.26807 v 0.59636 h 0.5336 z m 1.979,0.5022 h 0.81607 l 0.78471,-1.1174 c 0.28875,-0.41431 0.45197,-0.71564 0.45197,-1.1174 0,-0.69682 -0.56498,-1.11113 -1.24295,-1.11113 -0.67798,0 -1.23041,0.42687 -1.23041,1.12997 0,0.6403 0.46453,1.04206 1.05463,1.04206 0.15693,0 0.25112,-0.0376 0.37037,-0.0941 0,0 -0.21344,0.15063 -0.33899,0.32644 z m 0.81607,-1.72003 c -0.31387,0 -0.49592,-0.23856 -0.49592,-0.49593 0,-0.25739 0.18205,-0.48966 0.49592,-0.48966 0.31388,0 0.49594,0.23227 0.49594,0.48966 0,0.25737 -0.18206,0.49593 -0.49594,0.49593 z m 0,0"
     style="fill:#007994;fill-opacity:1;fill-rule:nonzero;stroke:none;stroke-width:0.535685"
     aria-label="Figure 17.19" /><path
     id="path105"
     d="m 2.0528524,203.02546 -0.1068,-1.02323 h -0.1004 c -0.0188,0.1068 -0.0691,0.16322 -0.15064,0.16322 -0.0503,0 -0.1256,-0.0188 -0.21342,-0.0565 -0.18206,-0.0816 -0.30761,-0.1068 -0.50848994,-0.1068 -0.47709,0 -0.83492,0.32016 -0.83492,0.84122 0,0.30131 0.15063,0.59636 0.58382,0.82863 0.30757994,0.16322 0.64030994,0.37665 0.80979994,0.55869 0.0941,0.1068 0.1444,0.21344 0.1444,0.38295 0,0.32015 -0.23855,0.53985 -0.57754,0.53985 -0.45824994,0 -0.77213994,-0.26993 -0.99184994,-0.85375 H 1.245969e-5 L 0.13804246,205.32299 h 0.1068 c 0,-0.10054 0.0627,-0.15694 0.13818,-0.15694 0.0503,0 0.13174,0.012 0.226,0.0503 0.17576,0.0753 0.3641,0.11293 0.56497994,0.11293 0.56497,0 0.98557,-0.36408 0.98557,-0.90396 0,-0.36411 -0.23854,-0.64659 -0.74702,-0.94164 -0.50849994,-0.29504 -0.86002994,-0.49592 -0.86002994,-0.82863 0,-0.26365 0.18833,-0.45827 0.48336994,-0.45827 0.28878,0 0.53359,0.16323 0.70308,0.37667 0.0816,0.11934 0.13803,0.24482 0.19462,0.45198 z m 1.64942,1.86446 c -0.1068,0.1256 -0.18206,0.16949 -0.28878,0.16949 -0.17576,0 -0.25109,-0.1256 -0.25109,-0.43316 v -1.38105 h 0.48964 v -0.15694 h -0.48964 v -0.5587 c 0,-0.0439 -0.007,-0.0627 -0.0315,-0.0627 -0.0315,0.0503 -0.0691,0.0941 -0.0941,0.13803 -0.18835,0.26365 -0.34528,0.43944 -0.47083,0.51476 -0.0503,0.0315 -0.0815,0.0627 -0.0815,0.0941 0,0.012 0.007,0.0188 0.0188,0.0315 h 0.25737 v 1.4501 c 0,0.40805 0.14441,0.61521 0.42059,0.61521 0.24482,0 0.42688,-0.11934 0.58383,-0.37038 z m 2.02452,-0.42062 c -0.23228,0.35785 -0.41433,0.50849 -0.74076,0.50849 -0.21971,0 -0.40176,-0.0879 -0.5336,-0.26993 -0.17576,-0.226 -0.20087,-0.41432 -0.22599,-0.7847 h 1.48779 c -0.0188,-0.25738 -0.0691,-0.41431 -0.16323,-0.54614 -0.15693,-0.21972 -0.37037,-0.3327 -0.67169,-0.3327 -0.60892,0 -0.99812,0.48964 -0.99812,1.16761 0,0.66543 0.34525,1.09858 0.91652,1.09858 0.48336,0 0.82236,-0.2825 1.01068,-0.80982 z m -1.48779,-0.6968 c 0.0503,-0.36409 0.23855,-0.55869 0.50847,-0.55869 0.32016,0 0.42061,0.16321 0.47711,0.55869 z m 3.79165,1.16763 c -0.0816,0.0691 -0.1256,0.0941 -0.20716,0.0941 -0.0816,0 -0.14442,-0.0941 -0.14442,-0.32017 v -0.91652 c 0,-0.29504 -0.0188,-0.39548 -0.13802,-0.53986 -0.11294,-0.13803 -0.29506,-0.21343 -0.57127,-0.21343 -0.21344,0 -0.41432,0.0565 -0.55243,0.1444 -0.16948,0.1068 -0.24481,0.25739 -0.24481,0.38293 0,0.13174 0.1068,0.22599 0.20715,0.22599 0.1256,0 0.21972,-0.1068 0.21972,-0.20088 0,-0.1004 -0.0251,-0.11293 -0.0251,-0.20088 0,-0.13173 0.14441,-0.23855 0.339,-0.23855 0.21344,0 0.37037,0.13803 0.37037,0.43315 v 0.26367 c -0.53988,0.20088 -0.72192,0.29504 -0.8663,0.3892 -0.18832,0.1256 -0.33899,0.31388 -0.33899,0.56497 0,0.3139 0.20715,0.50222 0.50848,0.50222 0.20716,0 0.44571,-0.0627 0.69681,-0.35155 h 0.007 c 0.0251,0.25111 0.13187,0.35155 0.3076,0.35155 0.16323,0 0.28877,-0.0503 0.43316,-0.23227 z m -0.74703,-0.29504 c 0,0.1444 -0.0251,0.20715 -0.16323,0.3076 -0.0879,0.0503 -0.18832,0.0753 -0.28249,0.0753 -0.18832,0 -0.33269,-0.11294 -0.33269,-0.37039 0,-0.15063 0.0503,-0.26366 0.1632,-0.37036 0.11933,-0.11294 0.32016,-0.21344 0.61521,-0.32016 z m 3.1262206,0.41432 v -0.0817 c -0.0815,0.007 -0.0879,0.007 -0.11294,0.007 -0.16949,0 -0.20714,-0.0503 -0.20714,-0.27622 v -2.73074 l -0.0251,-0.012 c -0.2322706,0.0879 -0.4017606,0.13187 -0.7093606,0.21344 v 0.0816 c 0.0377,-0.007 0.0691,-0.007 0.1068,-0.007 0.17577,0 0.21971,0.0439 0.21971,0.24483 v 0.75329 c -0.18204,-0.15693 -0.31388,-0.20715 -0.50847,-0.20715 -0.55244,0 -0.99815,0.54615 -0.99815,1.23039 0,0.61522 0.35783,1.0358 0.89143,1.0358 0.26992,0 0.45197,-0.1004 0.61519,-0.32642 v 0.3076 l 0.0188,0.0188 z m -0.7282006,-0.28877 c 0,0.0315 -0.0251,0.0816 -0.0691,0.13173 -0.0879,0.1004 -0.20716,0.15695 -0.35781,0.15695 -0.40806,0 -0.66543,-0.38922 -0.66543,-0.9793 0,-0.54614 0.23227,-0.90397 0.60265,-0.90397 0.25738,0 0.48964,0.226 0.48964,0.48337 z m 3.0634506,-1.68238 h -0.64032 v 0.0753 c 0.14442,0 0.21972,0.0377 0.21972,0.11293 0,0.0188 -0.007,0.0565 -0.0188,0.0879 l -0.47081,1.33084 -0.53988,-1.2053 c -0.0251,-0.0691 -0.0627,-0.1444 -0.0627,-0.1946 0,-0.0879 0.0691,-0.1256 0.2762,-0.13173 v -0.0753 h -0.98556 v 0.0691 c 0.1256,0.0188 0.20715,0.0627 0.2511,0.1695 l 0.6403,1.36221 c 0.0879,0.18834 0.20088,0.41434 0.20088,0.48338 0,0.0753 -0.0941,0.38293 -0.19458,0.52104 -0.0753,0.1192 -0.1695,0.21344 -0.23856,0.21344 -0.0315,0 -0.0753,-0.007 -0.1256,-0.0315 -0.0879,-0.0503 -0.16322,-0.0627 -0.25111,-0.0627 -0.11293,0 -0.20715,0.10054 -0.20715,0.21972 0,0.15694 0.13187,0.27622 0.33898,0.27622 0.3641,0 0.59009,-0.24483 0.8412,-0.92908 l 0.7219,-1.97115 c 0.0691,-0.17578 0.1256,-0.23228 0.24483,-0.24483 z m 1.40617,1.23667 v -0.30132 h -1.18646 v 0.30132 z m 0.984,-0.51476 c -0.13818,-0.0816 -0.20716,-0.21972 -0.20716,-0.32644 0,-0.22599 0.15062,-0.33269 0.35782,-0.33269 0.28878,0 0.43943,0.1632 0.54615,0.59636 h 0.0753 l -0.0251,-0.65914 h -0.0565 c -0.0376,0.0439 -0.0565,0.0503 -0.0753,0.0503 -0.0315,0 -0.0816,-0.012 -0.13186,-0.0376 -0.1068,-0.0503 -0.20716,-0.0565 -0.32645,-0.0565 -0.39548,0 -0.66541,0.21344 -0.66541,0.59637 0,0.24481 0.18205,0.47708 0.57755,0.69679 l 0.26365,0.14441 c 0.15694,0.0879 0.25738,0.21344 0.25738,0.3641 0,0.19461 -0.15695,0.35781 -0.40178,0.35781 -0.33269,0 -0.51475,-0.21343 -0.61519,-0.68426 h -0.0753 v 0.75959 h 0.0627 c 0.0315,-0.0503 0.0565,-0.0565 0.11293,-0.0565 0.0565,0 0.1068,0.007 0.22599,0.0439 0.1068,0.0376 0.2511,0.0439 0.35155,0.0439 0.36409,0 0.67169,-0.28248 0.67169,-0.60263 0,-0.27621 -0.11293,-0.40805 -0.42059,-0.59637 z m 2.36507,1.07975 c -0.1068,0.1256 -0.18204,0.16949 -0.28876,0.16949 -0.17579,0 -0.25111,-0.1256 -0.25111,-0.43316 v -1.38105 h 0.48964 v -0.15694 h -0.48964 v -0.5587 c 0,-0.0439 -0.007,-0.0627 -0.0315,-0.0627 -0.0315,0.0503 -0.0691,0.0941 -0.0941,0.13803 -0.18832,0.26365 -0.34525,0.43944 -0.47081,0.51476 -0.0503,0.0315 -0.0816,0.0627 -0.0816,0.0941 0,0.012 0.007,0.0188 0.0188,0.0315 h 0.25738 v 1.4501 c 0,0.40805 0.14442,0.61521 0.4206,0.61521 0.24483,0 0.42688,-0.11934 0.58382,-0.37038 z m 2.23639,0.0503 c -0.0816,0.0691 -0.1256,0.0941 -0.20718,0.0941 -0.0815,0 -0.1444,-0.0941 -0.1444,-0.32016 v -0.91652 c 0,-0.29503 -0.0188,-0.39548 -0.13818,-0.53986 -0.11294,-0.13802 -0.29504,-0.21344 -0.57124,-0.21344 -0.21344,0 -0.41432,0.0565 -0.55243,0.14442 -0.16949,0.1068 -0.24483,0.25737 -0.24483,0.38292 0,0.13173 0.1068,0.226 0.20715,0.226 0.1256,0 0.21973,-0.1068 0.21973,-0.20088 0,-0.1004 -0.0251,-0.11294 -0.0251,-0.20088 0,-0.13174 0.1444,-0.23856 0.339,-0.23856 0.21341,0 0.37036,0.13804 0.37036,0.43314 v 0.26367 c -0.53988,0.20088 -0.72192,0.29504 -0.8663,0.3892 -0.18833,0.1256 -0.33898,0.31389 -0.33898,0.56499 0,0.31388 0.20714,0.5022 0.50846,0.5022 0.20718,0 0.44571,-0.0627 0.69682,-0.35153 h 0.007 c 0.0251,0.2511 0.13174,0.35153 0.3076,0.35153 0.16322,0 0.28876,-0.0503 0.43316,-0.23227 z m -0.74703,-0.29505 c 0,0.14442 -0.0251,0.20717 -0.16323,0.30761 -0.0879,0.0503 -0.18832,0.0753 -0.28249,0.0753 -0.18832,0 -0.33271,-0.11293 -0.33271,-0.37039 0,-0.15064 0.0503,-0.26365 0.16322,-0.37037 0.11933,-0.11294 0.32016,-0.21344 0.61521,-0.32016 z m 2.03863,0.24483 c -0.1068,0.1256 -0.18205,0.1695 -0.28877,0.1695 -0.17576,0 -0.2511,-0.1256 -0.2511,-0.43317 v -1.38105 h 0.48964 v -0.15693 h -0.48964 v -0.55871 c 0,-0.0439 -0.007,-0.0627 -0.0315,-0.0627 -0.0315,0.0503 -0.0691,0.0941 -0.0941,0.13804 -0.18834,0.26366 -0.34528,0.43943 -0.47083,0.51476 -0.0503,0.0315 -0.0817,0.0627 -0.0817,0.0941 0,0.012 0.007,0.0188 0.0188,0.0315 h 0.25739 v 1.45012 c 0,0.40805 0.1444,0.61519 0.42059,0.61519 0.24482,0 0.42686,-0.11933 0.58381,-0.37037 z m 2.0245,-0.4206 c -0.23226,0.35783 -0.41431,0.50848 -0.74074,0.50848 -0.21972,0 -0.40177,-0.0879 -0.5336,-0.26993 -0.17577,-0.22599 -0.20089,-0.41431 -0.22599,-0.7847 h 1.48778 c -0.0188,-0.25738 -0.0691,-0.41432 -0.16321,-0.54613 -0.15695,-0.21973 -0.37039,-0.33272 -0.6717,-0.33272 -0.60892,0 -0.99813,0.48965 -0.99813,1.16761 0,0.66543 0.34526,1.09858 0.91652,1.09858 0.48337,0 0.82236,-0.28248 1.01069,-0.8098 z m -1.48777,-0.69681 c 0.0503,-0.36408 0.23854,-0.5587 0.50847,-0.5587 0.32016,0 0.42062,0.16323 0.4771,0.5587 z m 3.64097,-0.72192 -0.0251,-0.007 c -0.25738,0.1004 -0.42686,0.16949 -0.71564,0.25739 v 0.0753 c 0.0691,-0.012 0.11293,-0.0188 0.16949,-0.0188 0.11934,0 0.16322,0.0816 0.16322,0.28877 v 1.20529 c 0,0.24482 -0.0315,0.27621 -0.33898,0.33272 v 0.0753 h 1.15506 v -0.0753 c -0.32643,-0.012 -0.40804,-0.0816 -0.40804,-0.35782 v -1.08603 c 0,-0.15064 0.20087,-0.39549 0.339,-0.39549 0.0251,0 0.0691,0.0251 0.1256,0.0753 0.0753,0.0691 0.1256,0.0941 0.18832,0.0941 0.11933,0 0.18832,-0.0816 0.18832,-0.21972 0,-0.15694 -0.1004,-0.2511 -0.26365,-0.2511 -0.20088,0 -0.33899,0.1068 -0.57754,0.45198 z m 2.7888,1.41873 c -0.23226,0.35783 -0.41432,0.50848 -0.74074,0.50848 -0.21973,0 -0.40178,-0.0879 -0.53359,-0.26993 -0.17578,-0.22599 -0.20088,-0.41431 -0.226,-0.7847 h 1.48777 c -0.0188,-0.25738 -0.0691,-0.41432 -0.1632,-0.54613 -0.15693,-0.21973 -0.37037,-0.33272 -0.67169,-0.33272 -0.60894,0 -0.99815,0.48965 -0.99815,1.16761 0,0.66543 0.34527,1.09858 0.91652,1.09858 0.48338,0 0.82236,-0.28248 1.0107,-0.8098 z m -1.48777,-0.69681 c 0.0503,-0.36408 0.23854,-0.5587 0.50848,-0.5587 0.32016,0 0.4206,0.16323 0.47709,0.5587 z m 2.41685,0.0376 c -0.13818,-0.0815 -0.20714,-0.21972 -0.20714,-0.32644 0,-0.22598 0.15062,-0.3327 0.35781,-0.3327 0.28876,0 0.43943,0.1632 0.54615,0.59636 h 0.0753 l -0.0251,-0.65913 h -0.0565 c -0.0376,0.0439 -0.0565,0.0503 -0.0753,0.0503 -0.0315,0 -0.0817,-0.012 -0.13174,-0.0376 -0.1068,-0.0503 -0.20716,-0.0565 -0.32642,-0.0565 -0.3955,0 -0.66543,0.21343 -0.66543,0.59636 0,0.24483 0.18205,0.4771 0.57753,0.6968 l 0.26366,0.1444 c 0.15693,0.0879 0.25739,0.21344 0.25739,0.36411 0,0.1946 -0.15694,0.35782 -0.40177,0.35782 -0.33272,0 -0.51476,-0.21344 -0.61521,-0.68426 h -0.0753 v 0.75959 h 0.0627 c 0.0315,-0.0503 0.0565,-0.0565 0.11294,-0.0565 0.0565,0 0.1068,0.007 0.226,0.0439 0.1068,0.0377 0.25109,0.0439 0.35153,0.0439 0.36411,0 0.67171,-0.28249 0.67171,-0.60264 0,-0.27622 -0.11293,-0.40804 -0.42061,-0.59638 z m 1.88798,-0.75959 -0.0251,-0.007 c -0.25737,0.1004 -0.43314,0.1632 -0.6968,0.24483 v 0.0753 c 0.0439,-0.007 0.0753,-0.007 0.1192,-0.007 0.16323,0 0.2009,0.0503 0.2009,0.27621 v 2.25991 c 0,0.25111 -0.0565,0.30133 -0.33899,0.33272 v 0.0817 h 1.16763 v -0.0879 c -0.36411,-0.007 -0.42688,-0.0565 -0.42688,-0.36411 v -0.75329 c 0.17577,0.15693 0.28248,0.20714 0.48965,0.20714 0.57126,0 1.01068,-0.53986 1.01068,-1.24295 0,-0.59636 -0.33898,-1.02324 -0.80353,-1.02324 -0.26992,0 -0.48336,0.11294 -0.6968,0.37664 z m 0,0.59637 c 0,-0.14441 0.26993,-0.31386 0.48965,-0.31386 0.35782,0 0.59637,0.36408 0.59637,0.92905 0,0.5336 -0.23855,0.89143 -0.58381,0.89143 -0.226,0 -0.50221,-0.17579 -0.50221,-0.32016 z m 3.91091,0.5022 c 0,-0.66542 -0.45198,-1.10484 -1.04207,-1.10484 -0.65286,0 -1.08601,0.44571 -1.08601,1.1174 0,0.6717 0.45827,1.14879 1.04207,1.14879 0.65287,0 1.08601,-0.49592 1.08601,-1.16135 z m -0.43314,0.1256 c 0,0.55871 -0.21343,0.8977 -0.57127,0.8977 -0.16948,0 -0.32643,-0.0879 -0.43314,-0.23853 -0.17578,-0.26367 -0.25738,-0.60893 -0.25738,-0.99186 0,-0.47711 0.226,-0.76587 0.5587,-0.76587 0.21344,0 0.34526,0.1004 0.45827,0.24482 0.15694,0.19461 0.24482,0.52732 0.24482,0.85374 z m 2.91279,0.98559 v -0.0753 c -0.23228,-0.0188 -0.28878,-0.0753 -0.28878,-0.33271 v -1.06719 c 0,-0.47709 -0.20716,-0.74074 -0.57127,-0.74074 -0.2197,0 -0.44569,0.1068 -0.6968,0.3892 v -0.37664 l -0.0377,-0.012 c -0.23855,0.0879 -0.39548,0.13802 -0.66543,0.21344 v 0.0816 c 0.0376,-0.012 0.0879,-0.0188 0.14442,-0.0188 0.13186,0 0.16321,0.0816 0.16321,0.31388 v 1.17389 c 0,0.2825 -0.0503,0.35783 -0.29505,0.37666 v 0.0753 h 1.01697 v -0.0753 c -0.24483,-0.0188 -0.31388,-0.0815 -0.31388,-0.26994 v -1.33084 c 0.21972,-0.21971 0.33899,-0.2762 0.49593,-0.2762 0.23855,0 0.35154,0.1444 0.35154,0.48964 v 0.9542 c 0,0.32015 -0.0565,0.41431 -0.29504,0.43314 l -0.007,0.0753 z m 0.82862,-1.45011 c -0.13817,-0.0816 -0.20716,-0.21973 -0.20716,-0.32645 0,-0.22597 0.15063,-0.33269 0.35783,-0.33269 0.28877,0 0.43943,0.16321 0.54615,0.59637 h 0.0753 l -0.0251,-0.65915 h -0.0565 c -0.0376,0.0439 -0.0565,0.0503 -0.0753,0.0503 -0.0315,0 -0.0816,-0.012 -0.13187,-0.0377 -0.1068,-0.0503 -0.20716,-0.0565 -0.32644,-0.0565 -0.39548,0 -0.66541,0.21344 -0.66541,0.59636 0,0.24483 0.18204,0.4771 0.57752,0.6968 l 0.26368,0.14442 c 0.15693,0.0879 0.25737,0.21342 0.25737,0.36409 0,0.19462 -0.15695,0.35782 -0.40177,0.35782 -0.33271,0 -0.51476,-0.21344 -0.61519,-0.68426 h -0.0753 v 0.75959 h 0.0627 c 0.0315,-0.0503 0.0565,-0.0565 0.11294,-0.0565 0.0565,0 0.1068,0.007 0.226,0.0439 0.1068,0.0376 0.2511,0.0439 0.35154,0.0439 0.3641,0 0.6717,-0.28248 0.6717,-0.60264 0,-0.27622 -0.11293,-0.40804 -0.42059,-0.59636 z m 3.08699,0.65914 c -0.23226,0.35783 -0.41432,0.50848 -0.74076,0.50848 -0.2197,0 -0.40176,-0.0879 -0.53358,-0.26994 -0.17578,-0.22598 -0.20088,-0.4143 -0.22599,-0.78469 h 1.48777 c -0.0188,-0.25739 -0.0691,-0.41432 -0.16322,-0.54615 -0.15694,-0.21972 -0.37036,-0.3327 -0.6717,-0.3327 -0.60892,0 -0.99812,0.48965 -0.99812,1.16761 0,0.66543 0.34527,1.09858 0.91652,1.09858 0.48338,0 0.82236,-0.28248 1.01069,-0.80981 z m -1.48778,-0.69682 c 0.0503,-0.36408 0.23854,-0.55869 0.50849,-0.55869 0.32015,0 0.42059,0.16321 0.47708,0.55869 z m 2.41687,0.0376 c -0.13803,-0.0815 -0.20718,-0.21972 -0.20718,-0.32644 0,-0.22597 0.15064,-0.33269 0.35783,-0.33269 0.28877,0 0.43943,0.1632 0.54615,0.59636 h 0.0753 l -0.0251,-0.65913 h -0.0565 c -0.0376,0.0439 -0.0565,0.0503 -0.0753,0.0503 -0.0315,0 -0.0816,-0.012 -0.13174,-0.0377 -0.1068,-0.0503 -0.20716,-0.0565 -0.32642,-0.0565 -0.3955,0 -0.66543,0.21342 -0.66543,0.59636 0,0.24482 0.18204,0.47709 0.57753,0.6968 l 0.26367,0.1444 c 0.15693,0.0879 0.25736,0.21344 0.25736,0.36411 0,0.1946 -0.15693,0.35781 -0.40175,0.35781 -0.33272,0 -0.51477,-0.21344 -0.6152,-0.68426 h -0.0753 v 0.75959 h 0.0627 c 0.0315,-0.0503 0.0565,-0.0565 0.11293,-0.0565 0.0565,0 0.1068,0.007 0.22599,0.0439 0.1068,0.0377 0.25112,0.0439 0.35154,0.0439 0.36411,0 0.6717,-0.28248 0.6717,-0.60264 0,-0.27621 -0.11294,-0.40804 -0.42059,-0.59636 z m 2.04491,-0.49593 c 0,-0.1444 -0.11934,-0.26992 -0.26367,-0.26992 -0.15063,0 -0.26992,0.1192 -0.26992,0.26992 0,0.15064 0.1256,0.26995 0.26992,0.26995 0.14441,0 0.26367,-0.11934 0.26367,-0.26995 z m 0,1.73262 c 0,-0.1444 -0.11934,-0.26994 -0.26367,-0.26994 -0.15063,0 -0.26992,0.11934 -0.26992,0.26994 0,0.14441 0.1256,0.26365 0.26992,0.26365 0.14441,0 0.26367,-0.11933 0.26367,-0.26365 z m 3.0854,0.99185 c -0.67169,-0.56497 -0.81607,-1.11113 -0.81607,-2.00882 0,-0.92908 0.15063,-1.37478 0.81607,-1.95232 l -0.0376,-0.0753 c -0.77215,0.45827 -1.19273,1.1488 -1.19273,2.04021 0,0.82235 0.41432,1.63843 1.1739,2.07159 z m 2.27091,-1.09857 c -0.0815,0.0691 -0.1256,0.0941 -0.20716,0.0941 -0.0816,0 -0.14441,-0.0941 -0.14441,-0.32016 v -0.91652 c 0,-0.29503 -0.0188,-0.39548 -0.13803,-0.53986 -0.11293,-0.13802 -0.29505,-0.21344 -0.57127,-0.21344 -0.21343,0 -0.41431,0.0565 -0.55241,0.14442 -0.1695,0.1068 -0.24483,0.25737 -0.24483,0.38292 0,0.13173 0.1068,0.226 0.20717,0.226 0.1256,0 0.21971,-0.1068 0.21971,-0.20088 0,-0.1004 -0.0251,-0.11294 -0.0251,-0.20088 0,-0.13174 0.1444,-0.23856 0.33898,-0.23856 0.21344,0 0.37037,0.13804 0.37037,0.43314 v 0.26367 c -0.53987,0.20088 -0.72191,0.29504 -0.86631,0.3892 -0.18832,0.1256 -0.33898,0.31389 -0.33898,0.56499 0,0.31388 0.20717,0.5022 0.50848,0.5022 0.20717,0 0.44572,-0.0627 0.69681,-0.35153 h 0.007 c 0.0251,0.2511 0.13173,0.35153 0.30759,0.35153 0.16321,0 0.28877,-0.0503 0.43314,-0.23227 z m -0.74703,-0.29505 c 0,0.14442 -0.0251,0.20717 -0.16321,0.30761 -0.0879,0.0503 -0.18832,0.0753 -0.28248,0.0753 -0.18835,0 -0.33272,-0.11293 -0.33272,-0.37039 0,-0.15064 0.0503,-0.26365 0.16322,-0.37037 0.1192,-0.11294 0.32015,-0.21344 0.61519,-0.32016 z m 0.8977,-2.56752 c 0.70308,0.55243 0.82236,1.10486 0.82236,2.00882 0,0.93535 -0.13803,1.38735 -0.82236,1.95232 l 0.0439,0.0753 c 0.76587,-0.47082 1.19274,-1.15508 1.19274,-2.04648 0,-0.81609 -0.43943,-1.62589 -1.18019,-2.06532 z m 5.0393,2.98185 v -0.0817 c -0.0815,0.007 -0.0879,0.007 -0.11294,0.007 -0.1695,0 -0.20716,-0.0503 -0.20716,-0.2762 v -2.73074 l -0.0251,-0.012 c -0.23227,0.0879 -0.40176,0.13173 -0.70936,0.21343 v 0.0816 c 0.0377,-0.007 0.0691,-0.007 0.1068,-0.007 0.17578,0 0.2197,0.0439 0.2197,0.24482 v 0.7533 c -0.18204,-0.15693 -0.31386,-0.20716 -0.50846,-0.20716 -0.55243,0 -0.99813,0.54616 -0.99813,1.2304 0,0.61521 0.35782,1.03579 0.89141,1.03579 0.26993,0 0.45198,-0.1004 0.61518,-0.32642 v 0.3076 l 0.0188,0.0188 z m -0.72819,-0.28878 c 0,0.0315 -0.0251,0.0816 -0.0691,0.13187 -0.0879,0.1004 -0.20717,0.15695 -0.35782,0.15695 -0.40806,0 -0.66543,-0.38922 -0.66543,-0.9793 0,-0.54615 0.23228,-0.90399 0.60265,-0.90399 0.25738,0 0.48964,0.226 0.48964,0.48339 z m 2.69307,-0.26365 c -0.23228,0.33899 -0.40804,0.45197 -0.68425,0.45197 -0.43943,0 -0.74703,-0.38292 -0.74703,-0.93535 0,-0.5022 0.26992,-0.84118 0.65913,-0.84118 0.1695,0 0.23227,0.0503 0.28251,0.23226 l 0.0315,0.1068 c 0.0376,0.13819 0.1256,0.21971 0.23226,0.21971 0.1256,0 0.22599,-0.0941 0.22599,-0.20088 0,-0.26992 -0.33897,-0.49592 -0.74703,-0.49592 -0.22598,0 -0.45825,0.0879 -0.64657,0.24483 -0.26367,0.21344 -0.40806,0.54614 -0.40806,0.9479 0,0.62149 0.38294,1.07346 0.91653,1.07346 0.20717,0 0.3892,-0.0691 0.55242,-0.20715 0.14442,-0.11293 0.24483,-0.2511 0.39548,-0.55244 z m 3.34594,0 c -0.23227,0.33899 -0.40806,0.45197 -0.68427,0.45197 -0.43943,0 -0.74703,-0.38292 -0.74703,-0.93535 0,-0.5022 0.26995,-0.84118 0.65915,-0.84118 0.16951,0 0.23227,0.0503 0.28249,0.23226 l 0.0315,0.1068 c 0.0376,0.13819 0.1256,0.21971 0.23227,0.21971 0.1256,0 0.226,-0.0941 0.226,-0.20088 0,-0.26992 -0.33899,-0.49592 -0.74703,-0.49592 -0.226,0 -0.45827,0.0879 -0.6466,0.24483 -0.26365,0.21344 -0.40803,0.54614 -0.40803,0.9479 0,0.62149 0.38294,1.07346 0.91652,1.07346 0.20715,0 0.3892,-0.0691 0.55242,-0.20715 0.14441,-0.11293 0.24482,-0.2511 0.39549,-0.55244 z m 2.48591,-0.35783 c 0,-0.66543 -0.452,-1.10484 -1.04207,-1.10484 -0.65288,0 -1.08603,0.44571 -1.08603,1.1174 0,0.6717 0.45826,1.14879 1.04208,1.14879 0.65287,0 1.08602,-0.49592 1.08602,-1.16135 z m -0.43315,0.1256 c 0,0.55871 -0.21345,0.89768 -0.57127,0.89768 -0.16949,0 -0.32642,-0.0879 -0.43314,-0.23853 -0.17578,-0.26367 -0.25739,-0.60892 -0.25739,-0.99186 0,-0.4771 0.22599,-0.76586 0.55869,-0.76586 0.21344,0 0.34528,0.1004 0.45828,0.24482 0.15694,0.1946 0.24483,0.52732 0.24483,0.85375 z m 4.31266,0.98558 v -0.0753 l -0.1256,-0.007 c -0.1444,-0.012 -0.20716,-0.0753 -0.20716,-0.28878 v -0.97931 c 0,-0.57125 -0.16949,-0.86629 -0.55869,-0.86629 -0.27622,0 -0.52732,0.1256 -0.78471,0.40176 -0.0879,-0.27621 -0.2511,-0.40176 -0.50847,-0.40176 -0.21972,0 -0.42061,0.0439 -0.74076,0.37037 h -0.012 v -0.35781 l -0.0376,-0.012 c -0.24481,0.0879 -0.40177,0.14441 -0.66543,0.21344 v 0.0816 c 0.0627,-0.012 0.1004,-0.0188 0.15064,-0.0188 0.1256,0 0.1695,0.0816 0.1695,0.32016 v 1.19274 c 0,0.28248 -0.0691,0.35153 -0.33899,0.35153 v 0.0753 h 1.07345 v -0.0753 c -0.25738,-0.007 -0.32642,-0.0565 -0.32642,-0.26365 v -1.33713 c 0,-0.012 0.0251,-0.0439 0.0627,-0.0815 0.0941,-0.11934 0.33271,-0.20718 0.50847,-0.20718 0.20717,0 0.31389,0.20088 0.31389,0.5336 v 1.01697 c 0,0.29504 -0.0565,0.32016 -0.32642,0.33898 v 0.0753 h 1.07972 v -0.0753 c -0.27621,0 -0.35155,-0.0691 -0.35155,-0.38293 v -1.21158 c 0.14442,-0.21341 0.28878,-0.29504 0.52106,-0.29504 0.26992,0 0.37037,0.15694 0.37037,0.53988 v 0.99186 c 0,0.27621 -0.0439,0.33269 -0.31388,0.35781 v 0.0753 z m 0.76587,-2.2097 -0.0251,-0.007 c -0.25739,0.1004 -0.43315,0.16322 -0.69681,0.24483 v 0.0753 c 0.0439,-0.007 0.0753,-0.007 0.11933,-0.007 0.16323,0 0.20088,0.0503 0.20088,0.27621 v 2.25991 c 0,0.25112 -0.0565,0.30133 -0.33899,0.33272 v 0.0817 h 1.16765 v -0.0879 c -0.36411,-0.007 -0.42688,-0.0565 -0.42688,-0.3641 v -0.7533 c 0.17576,0.15693 0.28248,0.20714 0.48965,0.20714 0.57124,0 1.01068,-0.53985 1.01068,-1.24295 0,-0.59636 -0.33899,-1.02324 -0.80353,-1.02324 -0.26992,0 -0.48338,0.11294 -0.6968,0.37666 z m 0,0.59636 c 0,-0.1444 0.26993,-0.31387 0.48964,-0.31387 0.35783,0 0.59639,0.36408 0.59639,0.92908 0,0.53358 -0.23856,0.89141 -0.58383,0.89141 -0.22599,0 -0.5022,-0.17578 -0.5022,-0.32015 z m 3.91092,0.50221 c 0,-0.66542 -0.45198,-1.10485 -1.04208,-1.10485 -0.65288,0 -1.08601,0.44571 -1.08601,1.1174 0,0.67171 0.45825,1.14879 1.04207,1.14879 0.65286,0 1.08602,-0.49592 1.08602,-1.16134 z m -0.43316,0.1256 c 0,0.55871 -0.21344,0.8977 -0.57125,0.8977 -0.16949,0 -0.32644,-0.0879 -0.43316,-0.23855 -0.17576,-0.26367 -0.25739,-0.60892 -0.25739,-0.99184 0,-0.47711 0.226,-0.76588 0.55872,-0.76588 0.21343,0 0.34527,0.1004 0.45826,0.24483 0.15693,0.1946 0.24482,0.52732 0.24482,0.85374 z m 2.91278,0.98558 v -0.0753 c -0.23227,-0.0188 -0.28876,-0.0753 -0.28876,-0.33272 v -1.06719 c 0,-0.47708 -0.20715,-0.74074 -0.57125,-0.74074 -0.21972,0 -0.44572,0.1068 -0.69682,0.3892 V 203.057 l -0.0376,-0.012 c -0.23856,0.0879 -0.39549,0.13803 -0.66543,0.21343 v 0.0816 c 0.0376,-0.012 0.0879,-0.0188 0.1444,-0.0188 0.13187,0 0.16322,0.0815 0.16322,0.31387 v 1.17391 c 0,0.28249 -0.0503,0.35782 -0.29504,0.37665 v 0.0753 h 1.01696 v -0.0753 c -0.24481,-0.0188 -0.31388,-0.0816 -0.31388,-0.26995 v -1.33083 c 0.21972,-0.2197 0.33899,-0.27621 0.49593,-0.27621 0.23854,0 0.35155,0.1444 0.35155,0.48964 v 0.9542 c 0,0.32016 -0.0565,0.41432 -0.29505,0.43315 l -0.007,0.0753 z m 2.04022,-0.79098 c -0.23227,0.35785 -0.41432,0.50849 -0.74076,0.50849 -0.21971,0 -0.40176,-0.0879 -0.53359,-0.26993 -0.17578,-0.226 -0.20088,-0.41432 -0.22599,-0.7847 h 1.48778 c -0.0188,-0.25738 -0.0691,-0.41431 -0.16323,-0.54614 -0.15693,-0.21972 -0.37036,-0.3327 -0.67169,-0.3327 -0.60891,0 -0.99813,0.48964 -0.99813,1.16761 0,0.66543 0.34527,1.09858 0.91653,1.09858 0.48337,0 0.82236,-0.2825 1.01068,-0.80982 z m -1.48779,-0.69681 c 0.0503,-0.36408 0.23855,-0.55868 0.50849,-0.55868 0.32015,0 0.42059,0.16321 0.4771,0.55868 z m 3.99882,1.48779 v -0.0753 c -0.23228,-0.0188 -0.28879,-0.0753 -0.28879,-0.33272 v -1.06719 c 0,-0.47708 -0.20715,-0.74074 -0.57125,-0.74074 -0.21971,0 -0.4457,0.1068 -0.69681,0.3892 V 203.057 l -0.0376,-0.012 c -0.23853,0.0879 -0.39546,0.13803 -0.66541,0.21343 v 0.0816 c 0.0376,-0.012 0.0879,-0.0188 0.14441,-0.0188 0.13187,0 0.1632,0.0815 0.1632,0.31387 v 1.17391 c 0,0.28249 -0.0503,0.35782 -0.29504,0.37665 v 0.0753 h 1.01697 v -0.0753 c -0.24483,-0.0188 -0.31387,-0.0816 -0.31387,-0.26995 v -1.33083 c 0.21971,-0.2197 0.33897,-0.27621 0.49593,-0.27621 0.23854,0 0.35154,0.1444 0.35154,0.48964 v 0.9542 c 0,0.32016 -0.0565,0.41432 -0.29506,0.43315 l -0.007,0.0753 z m 1.35593,-0.37036 c -0.1068,0.1256 -0.18205,0.16948 -0.28877,0.16948 -0.17576,0 -0.2511,-0.1256 -0.2511,-0.43316 v -1.38104 h 0.48966 v -0.15694 h -0.48966 v -0.5587 c 0,-0.0439 -0.007,-0.0627 -0.0315,-0.0627 -0.0315,0.0503 -0.0691,0.0941 -0.0941,0.13803 -0.18832,0.26365 -0.34525,0.43944 -0.47082,0.51476 -0.0503,0.0315 -0.0815,0.0627 -0.0815,0.0941 0,0.012 0.007,0.0188 0.0188,0.0315 h 0.25739 v 1.4501 c 0,0.40805 0.1444,0.61521 0.42059,0.61521 0.24481,0 0.42686,-0.11934 0.5838,-0.37038 z m 0.4614,1.04833 c 0.33272,-0.15693 0.53988,-0.45826 0.53988,-0.75329 0,-0.24483 -0.1695,-0.41432 -0.38921,-0.41432 -0.16949,0 -0.28877,0.1068 -0.28877,0.26993 0,0.1695 0.1004,0.2511 0.2825,0.2511 0.0503,0 0.1004,-0.0188 0.13818,-0.0188 0.0376,0 0.0691,0.0251 0.0691,0.0627 0,0.15694 -0.13818,0.33271 -0.40176,0.51476 z m 0,0"
     style="fill:#241f1f;fill-opacity:1;fill-rule:nonzero;stroke:none;stroke-width:0.535685"
     aria-label="Steady-state responses: (a) dc component, " /><path
     id="path106"
     d="m 1.2555924,211.39658 c -0.67169994,-0.56497 -0.81606994,-1.11113 -0.81606994,-2.00882 0,-0.92908 0.15062,-1.37478 0.81606994,-1.95232 l -0.0376,-0.0753 c -0.77214994,0.45827 -1.19273994,1.1488 -1.19273994,2.04021 0,0.82237 0.41432,1.63843 1.17390994,2.07159 z m 0.88357,-4.06158 -0.0251,-0.012 c -0.20714,0.0753 -0.33269,0.1068 -0.55869,0.1695 l -0.14441,0.0439 v 0.0815 c 0.0251,0 0.0503,-0.007 0.0817,-0.007 0.20088,0 0.23855,0.0376 0.23855,0.2762 v 2.46081 c 0,0.16321 0.40804,0.32016 0.79724,0.32016 0.63404,0 1.12369,-0.49592 1.12369,-1.2053 0,-0.60264 -0.35155,-1.06089 -0.86631,-1.06089 -0.29504,0 -0.54613,0.15693 -0.64658,0.40176 z m 0,1.75143 c 0,-0.20088 0.21971,-0.38292 0.47709,-0.38292 0.1695,0 0.32644,0.0817 0.42687,0.22599 0.11933,0.16949 0.18833,0.45198 0.18833,0.74076 0,0.27621 -0.0628,0.48964 -0.18204,0.63403 -0.1004,0.13802 -0.25738,0.20716 -0.44572,0.20716 -0.25109,0 -0.46453,-0.0941 -0.46453,-0.25111 z m 1.80792,-1.65099 c 0.70311,0.55242 0.82236,1.10486 0.82236,2.00882 0,0.93536 -0.13817,1.38735 -0.82236,1.95232 l 0.0439,0.0753 c 0.76587,-0.47082 1.19275,-1.15508 1.19275,-2.04648 0,-0.81609 -0.43944,-1.62589 -1.1802,-2.06532 z m 4.80077,2.86257 c -0.0815,0.0691 -0.1256,0.0941 -0.20716,0.0941 -0.0816,0 -0.14441,-0.0941 -0.14441,-0.32015 v -0.91652 c 0,-0.29504 -0.0188,-0.39549 -0.13818,-0.53987 -0.11293,-0.13818 -0.29505,-0.21344 -0.57127,-0.21344 -0.21344,0 -0.41432,0.0565 -0.55242,0.14442 -0.16948,0.1068 -0.24482,0.25737 -0.24482,0.38292 0,0.13186 0.1068,0.226 0.20716,0.226 0.1256,0 0.21971,-0.1068 0.21971,-0.20088 0,-0.1004 -0.0251,-0.11294 -0.0251,-0.20088 0,-0.13174 0.14442,-0.23855 0.33899,-0.23855 0.21344,0 0.37037,0.13817 0.37037,0.43313 v 0.26368 c -0.53986,0.20087 -0.72192,0.29503 -0.8663,0.38921 -0.18832,0.1256 -0.33899,0.31388 -0.33899,0.56497 0,0.31388 0.20717,0.5022 0.50848,0.5022 0.20716,0 0.44572,-0.0627 0.69681,-0.35153 h 0.007 c 0.0251,0.2511 0.13187,0.35153 0.3076,0.35153 0.1632,0 0.28878,-0.0503 0.43315,-0.23227 z m -0.74703,-0.29504 c 0,0.14441 -0.0251,0.20716 -0.16321,0.3076 -0.0879,0.0503 -0.18832,0.0753 -0.28248,0.0753 -0.18835,0 -0.33272,-0.11293 -0.33272,-0.37039 0,-0.15064 0.0503,-0.26365 0.16322,-0.37037 0.1192,-0.11293 0.32015,-0.21344 0.61519,-0.32016 z m 2.6805306,-0.13818 c -0.23229,0.339 -0.40805,0.45199 -0.6842606,0.45199 -0.43943,0 -0.74703,-0.38293 -0.74703,-0.93535 0,-0.50221 0.26992,-0.84119 0.65914,-0.84119 0.1694906,0 0.2322606,0.0503 0.2824806,0.23226 l 0.0315,0.1068 c 0.0376,0.13817 0.1256,0.2197 0.23228,0.2197 0.1256,0 0.22598,-0.0941 0.22598,-0.20088 0,-0.26994 -0.33899,-0.49592 -0.7470306,-0.49592 -0.22597,0 -0.45825,0.0879 -0.64657,0.24483 -0.26366,0.21343 -0.40806,0.54613 -0.40806,0.94791 0,0.62148 0.38294,1.07345 0.91652,1.07345 0.2071806,0 0.3892206,-0.0691 0.5524406,-0.20714 0.1444,-0.11294 0.24483,-0.25112 0.39549,-0.55244 z m 3.34592,0 c -0.23225,0.339 -0.40804,0.45199 -0.68425,0.45199 -0.43943,0 -0.74703,-0.38293 -0.74703,-0.93535 0,-0.50221 0.26994,-0.84119 0.65915,-0.84119 0.16949,0 0.23228,0.0503 0.28249,0.23226 l 0.0315,0.1068 c 0.0376,0.13817 0.1256,0.2197 0.23226,0.2197 0.1256,0 0.226,-0.0941 0.226,-0.20088 0,-0.26994 -0.33898,-0.49592 -0.74702,-0.49592 -0.226,0 -0.45827,0.0879 -0.64661,0.24483 -0.26365,0.21343 -0.40802,0.54613 -0.40802,0.94791 0,0.62148 0.38292,1.07345 0.91652,1.07345 0.20715,0 0.3892,-0.0691 0.55241,-0.20714 0.14442,-0.11294 0.24483,-0.25112 0.3955,-0.55244 z m 2.48592,-0.35781 c 0,-0.66543 -0.452,-1.10484 -1.04206,-1.10484 -0.65289,0 -1.08605,0.44569 -1.08605,1.1174 0,0.67169 0.45827,1.14879 1.0421,1.14879 0.65285,0 1.08601,-0.49592 1.08601,-1.16135 z m -0.43316,0.1256 c 0,0.55871 -0.21344,0.89769 -0.57125,0.89769 -0.16949,0 -0.32643,-0.0879 -0.43315,-0.23854 -0.17577,-0.26366 -0.25739,-0.60892 -0.25739,-0.99186 0,-0.47709 0.226,-0.76587 0.5587,-0.76587 0.21344,0 0.34528,0.1004 0.45827,0.24483 0.15694,0.19461 0.24482,0.52732 0.24482,0.85375 z m 4.31268,0.98559 v -0.0753 l -0.1256,-0.007 c -0.1444,-0.012 -0.20716,-0.0753 -0.20716,-0.28875 v -0.97931 c 0,-0.57125 -0.1695,-0.86629 -0.5587,-0.86629 -0.27621,0 -0.52732,0.1256 -0.78471,0.40176 -0.0879,-0.27622 -0.25109,-0.40176 -0.50848,-0.40176 -0.21972,0 -0.4206,0.0439 -0.74075,0.37037 h -0.012 v -0.35783 l -0.0376,-0.012 c -0.24482,0.0879 -0.40176,0.1444 -0.66542,0.21343 v 0.0816 c 0.0627,-0.012 0.1004,-0.0188 0.15064,-0.0188 0.1256,0 0.16949,0.0816 0.16949,0.32015 v 1.19273 c 0,0.28248 -0.0691,0.35155 -0.33899,0.35155 v 0.0753 h 1.07347 v -0.0753 c -0.25737,-0.007 -0.32644,-0.0565 -0.32644,-0.26365 v -1.33713 c 0,-0.012 0.0251,-0.0439 0.0627,-0.0816 0.0941,-0.11933 0.33272,-0.20716 0.50849,-0.20716 0.20716,0 0.31387,0.20088 0.31387,0.53359 v 1.01698 c 0,0.29504 -0.0565,0.32014 -0.32643,0.33897 v 0.0753 h 1.07975 v -0.0753 c -0.27623,0 -0.35156,-0.0691 -0.35156,-0.38292 v -1.21158 c 0.14441,-0.21344 0.28877,-0.29504 0.52105,-0.29504 0.26992,0 0.37038,0.15694 0.37038,0.53986 v 0.99185 c 0,0.27623 -0.0439,0.33272 -0.3139,0.35783 v 0.0753 z m 0.76744,-2.20971 -0.0251,-0.007 c -0.25739,0.1004 -0.43315,0.1632 -0.69681,0.24483 v 0.0753 c 0.0439,-0.007 0.0753,-0.007 0.11933,-0.007 0.16321,0 0.20087,0.0503 0.20087,0.2762 v 2.25993 c 0,0.2511 -0.0565,0.30132 -0.33898,0.3327 v 0.0817 h 1.16763 v -0.0879 c -0.36411,-0.007 -0.42688,-0.0565 -0.42688,-0.36411 v -0.75329 c 0.17577,0.15693 0.28249,0.20715 0.48965,0.20715 0.57126,0 1.01069,-0.53987 1.01069,-1.24295 0,-0.59638 -0.33899,-1.02324 -0.80354,-1.02324 -0.26992,0 -0.48336,0.11293 -0.6968,0.37664 z m 0,0.59637 c 0,-0.14441 0.26992,-0.31387 0.48965,-0.31387 0.35781,0 0.59636,0.36408 0.59636,0.92906 0,0.5336 -0.23855,0.89143 -0.5838,0.89143 -0.226,0 -0.50221,-0.17579 -0.50221,-0.32016 z m 3.91091,0.5022 c 0,-0.66543 -0.45199,-1.10484 -1.04207,-1.10484 -0.65287,0 -1.08603,0.44571 -1.08603,1.1174 0,0.6717 0.45828,1.14879 1.04208,1.14879 0.65287,0 1.08602,-0.49592 1.08602,-1.16135 z m -0.43315,0.1256 c 0,0.55871 -0.21344,0.8977 -0.57127,0.8977 -0.16949,0 -0.32642,-0.0879 -0.43314,-0.23855 -0.17578,-0.26365 -0.25738,-0.60891 -0.25738,-0.99186 0,-0.47709 0.22599,-0.76585 0.5587,-0.76585 0.21344,0 0.34526,0.1004 0.45826,0.24481 0.15694,0.19462 0.24483,0.52732 0.24483,0.85375 z m 2.91278,0.98559 v -0.0753 c -0.23227,-0.0188 -0.28876,-0.0753 -0.28876,-0.33271 v -1.06719 c 0,-0.47709 -0.20716,-0.74075 -0.57127,-0.74075 -0.21971,0 -0.44569,0.1068 -0.69681,0.3892 v -0.37665 l -0.0376,-0.012 c -0.23855,0.0879 -0.39548,0.13819 -0.66543,0.21344 v 0.0815 c 0.0376,-0.012 0.0879,-0.0188 0.14441,-0.0188 0.13187,0 0.16322,0.0816 0.16322,0.31386 v 1.17391 c 0,0.2825 -0.0503,0.35783 -0.29506,0.37666 v 0.0753 h 1.01698 v -0.0753 c -0.24483,-0.0188 -0.3139,-0.0815 -0.3139,-0.26994 v -1.33084 c 0.21974,-0.21971 0.33899,-0.27621 0.49594,-0.27621 0.23854,0 0.35154,0.14441 0.35154,0.48965 v 0.95419 c 0,0.32015 -0.0565,0.41432 -0.29505,0.43315 l -0.007,0.0753 z m 2.0402,-0.79097 c -0.23227,0.35781 -0.41432,0.50848 -0.74075,0.50848 -0.21972,0 -0.40176,-0.0879 -0.53358,-0.26994 -0.17578,-0.22598 -0.2009,-0.41432 -0.22599,-0.78469 h 1.48776 c -0.0188,-0.25739 -0.0691,-0.41432 -0.1632,-0.54615 -0.15695,-0.21972 -0.37039,-0.33271 -0.67169,-0.33271 -0.60894,0 -0.99815,0.48966 -0.99815,1.16762 0,0.66543 0.34528,1.09857 0.91652,1.09857 0.48337,0 0.82236,-0.28248 1.0107,-0.8098 z m -1.48777,-0.69682 c 0.0503,-0.36409 0.23854,-0.55869 0.50848,-0.55869 0.32016,0 0.4206,0.16321 0.47709,0.55869 z m 3.9988,1.48779 v -0.0753 c -0.23226,-0.0188 -0.28877,-0.0753 -0.28877,-0.33271 v -1.06719 c 0,-0.47709 -0.20716,-0.74075 -0.57127,-0.74075 -0.21971,0 -0.44569,0.1068 -0.69679,0.3892 v -0.37665 l -0.0377,-0.012 c -0.23853,0.0879 -0.39548,0.13819 -0.66541,0.21344 v 0.0815 c 0.0376,-0.012 0.0879,-0.0188 0.14441,-0.0188 0.13187,0 0.16323,0.0816 0.16323,0.31386 v 1.17391 c 0,0.2825 -0.0503,0.35783 -0.29504,0.37666 v 0.0753 h 1.01694 v -0.0753 c -0.24482,-0.0188 -0.31386,-0.0815 -0.31386,-0.26994 v -1.33084 c 0.2197,-0.21971 0.33898,-0.27621 0.49592,-0.27621 0.23854,0 0.35153,0.14441 0.35153,0.48965 v 0.95419 c 0,0.32015 -0.0565,0.41432 -0.29504,0.43315 l -0.007,0.0753 z m 1.35595,-0.37037 c -0.1068,0.1256 -0.18204,0.16949 -0.28876,0.16949 -0.17579,0 -0.25112,-0.1256 -0.25112,-0.43316 v -1.38106 h 0.48965 v -0.15694 h -0.48965 v -0.5587 c 0,-0.0439 -0.007,-0.0627 -0.0315,-0.0627 -0.0315,0.0503 -0.0691,0.0941 -0.0941,0.13802 -0.18832,0.26366 -0.34525,0.43943 -0.47081,0.51476 -0.0503,0.0315 -0.0816,0.0627 -0.0816,0.0941 0,0.012 0.007,0.0188 0.0188,0.0315 h 0.25738 v 1.45013 c 0,0.40804 0.1444,0.61518 0.4206,0.61518 0.24483,0 0.42687,-0.11933 0.58382,-0.37037 z m 2.72759,1.14878 c -0.67169,-0.56497 -0.81608,-1.11113 -0.81608,-2.00881 0,-0.92908 0.15063,-1.37479 0.81608,-1.95232 l -0.0376,-0.0753 c -0.77215,0.45827 -1.19275,1.1488 -1.19275,2.04022 0,0.82236 0.41432,1.63843 1.17391,2.07159 z m 0.24327,-2.95045 v 0.15694 h 0.39548 v 1.5129 c 0,0.35153 -0.0503,0.40804 -0.40178,0.42687 v 0.0753 h 1.25551 v -0.0753 c -0.39546,-0.012 -0.44569,-0.0627 -0.44569,-0.42687 v -1.5129 h 0.58381 v -0.15694 h -0.58381 v -0.5587 c 0,-0.28249 0.0815,-0.42686 0.26993,-0.42686 0.1068,0 0.1695,0.0503 0.2511,0.18832 0.0817,0.13186 0.13818,0.17577 0.21972,0.17577 0.11293,0 0.20088,-0.0879 0.20088,-0.20088 0,-0.17577 -0.21344,-0.30132 -0.5022,-0.30132 -0.30134,0 -0.55243,0.13173 -0.67798,0.35153 -0.1256,0.21344 -0.16321,0.3892 -0.16949,0.77214 z m 2.27717,-0.0376 -0.0251,-0.007 c -0.25738,0.1004 -0.42687,0.16949 -0.71564,0.25736 v 0.0753 c 0.0691,-0.012 0.11293,-0.0188 0.16949,-0.0188 0.11933,0 0.16323,0.0817 0.16323,0.28878 v 1.20528 c 0,0.24483 -0.0315,0.27621 -0.33899,0.33272 v 0.0753 h 1.15507 v -0.0753 c -0.32644,-0.012 -0.40804,-0.0816 -0.40804,-0.35783 v -1.08601 c 0,-0.15064 0.20088,-0.3955 0.33899,-0.3955 0.0251,0 0.0691,0.0251 0.1256,0.0753 0.0753,0.0691 0.1256,0.0941 0.18833,0.0941 0.1192,0 0.18832,-0.0816 0.18832,-0.21971 0,-0.15693 -0.1004,-0.25109 -0.26365,-0.25109 -0.2009,0 -0.339,0.1068 -0.57754,0.45197 z m 2.78881,1.41872 c -0.23228,0.35781 -0.41434,0.50848 -0.74076,0.50848 -0.21971,0 -0.40175,-0.0879 -0.53359,-0.26993 -0.17576,-0.22599 -0.20088,-0.41432 -0.226,-0.7847 h 1.48779 c -0.0188,-0.25739 -0.0691,-0.41432 -0.16321,-0.54615 -0.15694,-0.21972 -0.37038,-0.3327 -0.6717,-0.3327 -0.60893,0 -0.99813,0.48965 -0.99813,1.16761 0,0.66543 0.34525,1.09858 0.91652,1.09858 0.48336,0 0.82236,-0.28248 1.01068,-0.8098 z m -1.48779,-0.69682 c 0.0503,-0.36409 0.23856,-0.55869 0.50848,-0.55869 0.32016,0 0.4206,0.16321 0.47711,0.55869 z m 4.01763,2.53614 v -0.0817 c -0.25736,-0.0315 -0.3076,-0.0815 -0.3076,-0.28876 v -2.88141 h -0.0503 l -0.26366,0.15695 c -0.21973,-0.13173 -0.36411,-0.16948 -0.55871,-0.16948 -0.59637,0 -1.0609,0.53359 -1.0609,1.23039 0,0.60265 0.32016,1.03579 0.77213,1.03579 0.28249,0 0.54615,-0.1256 0.75959,-0.35782 v 0.90398 c 0,0.26993 -0.0879,0.34526 -0.42688,0.37036 v 0.0817 z m -0.70936,-1.66355 c 0,0.11294 -0.0188,0.18204 -0.0565,0.21344 -0.1068,0.1004 -0.26992,0.15694 -0.42688,0.15694 -0.13818,0 -0.26366,-0.0439 -0.3641,-0.13174 -0.16321,-0.13818 -0.26992,-0.45197 -0.26992,-0.78469 0,-0.57126 0.25738,-0.91652 0.6654,-0.91652 0.30134,0 0.452,0.15693 0.452,0.47082 z m 3.01951,0.37666 h -0.0315 c -0.21971,0 -0.2762,-0.0565 -0.2762,-0.27622 v -1.65728 h -0.75959 v 0.0817 c 0.28876,0.0251 0.35781,0.0627 0.35781,0.31387 v 1.11742 c 0,0.16949 -0.0376,0.21344 -0.11293,0.27621 -0.11934,0.1068 -0.26366,0.15063 -0.40176,0.15063 -0.18834,0 -0.34528,-0.15695 -0.34528,-0.38292 v -1.55686 h -0.70308 v 0.0691 c 0.23226,0.012 0.30133,0.0816 0.30133,0.32642 v 1.2053 c 0,0.37665 0.21343,0.62148 0.5838,0.62148 0.18205,0 0.45199,-0.0941 0.69053,-0.41432 h 0.012 v 0.39549 l 0.0188,0.012 c 0.24483,-0.0941 0.41433,-0.15064 0.66542,-0.21973 z m 2.05905,-0.55243 c -0.23227,0.35781 -0.41433,0.50848 -0.74077,0.50848 -0.2197,0 -0.40176,-0.0879 -0.5336,-0.26993 -0.17576,-0.22599 -0.20088,-0.41432 -0.22598,-0.7847 h 1.48779 c -0.0188,-0.25739 -0.0691,-0.41432 -0.16323,-0.54615 -0.15694,-0.21972 -0.37038,-0.3327 -0.6717,-0.3327 -0.60892,0 -0.99812,0.48965 -0.99812,1.16761 0,0.66543 0.34526,1.09858 0.91652,1.09858 0.48338,0 0.82237,-0.28248 1.01069,-0.8098 z m -1.48779,-0.69682 c 0.0503,-0.36409 0.23854,-0.55869 0.50848,-0.55869 0.32016,0 0.42058,0.16321 0.47709,0.55869 z m 3.99879,1.48779 v -0.0753 c -0.23227,-0.0188 -0.28876,-0.0753 -0.28876,-0.33271 v -1.06719 c 0,-0.47709 -0.20716,-0.74074 -0.57126,-0.74074 -0.2197,0 -0.4457,0.1068 -0.69681,0.3892 v -0.37666 l -0.0376,-0.012 c -0.23856,0.0879 -0.39549,0.13819 -0.66543,0.21344 v 0.0815 c 0.0376,-0.012 0.0879,-0.0188 0.1444,-0.0188 0.13174,0 0.16323,0.0816 0.16323,0.31387 v 1.17391 c 0,0.28249 -0.0503,0.35782 -0.29505,0.37665 v 0.0753 h 1.01696 v -0.0753 c -0.24483,-0.0188 -0.31388,-0.0815 -0.31388,-0.26993 v -1.33085 c 0.21972,-0.2197 0.33898,-0.27621 0.49593,-0.27621 0.23853,0 0.35155,0.14441 0.35155,0.48965 v 0.95419 c 0,0.32015 -0.0565,0.41432 -0.29507,0.43315 l -0.007,0.0753 z m 1.99627,-0.75332 c -0.23227,0.339 -0.40806,0.45199 -0.68426,0.45199 -0.43942,0 -0.74702,-0.38292 -0.74702,-0.93535 0,-0.5022 0.26993,-0.84119 0.65914,-0.84119 0.1695,0 0.23227,0.0503 0.28248,0.23227 l 0.0315,0.1068 c 0.0376,0.13819 0.1256,0.21971 0.23227,0.21971 0.1256,0 0.22598,-0.0941 0.22598,-0.20088 0,-0.26994 -0.33898,-0.49591 -0.74702,-0.49591 -0.226,0 -0.45826,0.0879 -0.64659,0.24481 -0.26367,0.21344 -0.40804,0.54614 -0.40804,0.94791 0,0.62148 0.38293,1.07346 0.91652,1.07346 0.20717,0 0.38921,-0.0691 0.55243,-0.20715 0.1444,-0.11293 0.24481,-0.25111 0.39548,-0.55244 z m 2.51103,-1.41872 h -0.64032 v 0.0753 c 0.14441,0 0.2197,0.0376 0.2197,0.11294 0,0.0188 -0.007,0.0565 -0.0188,0.0879 l -0.47081,1.33083 -0.53987,-1.20528 c -0.0251,-0.0691 -0.0627,-0.14441 -0.0627,-0.19461 0,-0.0879 0.0691,-0.1256 0.2762,-0.13174 v -0.0753 h -0.98567 v 0.0691 c 0.1256,0.0188 0.20716,0.0627 0.25111,0.16949 l 0.64032,1.36223 c 0.0879,0.18833 0.20088,0.41432 0.20088,0.48337 0,0.0753 -0.0941,0.38292 -0.19462,0.52103 -0.0753,0.11933 -0.16949,0.21344 -0.23853,0.21344 -0.0315,0 -0.0753,-0.007 -0.1256,-0.0315 -0.0879,-0.0503 -0.1632,-0.0627 -0.25109,-0.0627 -0.11294,0 -0.20716,0.1004 -0.20716,0.2197 0,0.15695 0.13186,0.27623 0.339,0.27623 0.36409,0 0.59008,-0.24484 0.84118,-0.92908 l 0.72191,-1.97116 c 0.0691,-0.17576 0.1256,-0.23227 0.24483,-0.24483 z m 3.69119,1.97116 v -0.0817 c -0.0815,0.007 -0.0879,0.007 -0.11293,0.007 -0.1695,0 -0.20715,-0.0503 -0.20715,-0.27622 v -2.73073 l -0.0251,-0.012 c -0.23226,0.0879 -0.40176,0.13173 -0.70936,0.21344 v 0.0815 c 0.0376,-0.007 0.0691,-0.007 0.1068,-0.007 0.17578,0 0.21971,0.0439 0.21971,0.24481 v 0.75331 c -0.18204,-0.15694 -0.31387,-0.20715 -0.50847,-0.20715 -0.55243,0 -0.99812,0.54613 -0.99812,1.23039 0,0.6152 0.35781,1.03579 0.8914,1.03579 0.26994,0 0.45199,-0.1004 0.61519,-0.32642 V 210.65 l 0.0188,0.0188 z m -0.7282,-0.28877 c 0,0.0315 -0.0251,0.0816 -0.0691,0.13187 -0.0879,0.1004 -0.20716,0.15694 -0.35781,0.15694 -0.40806,0 -0.66542,-0.38921 -0.66542,-0.9793 0,-0.54614 0.23227,-0.90398 0.60265,-0.90398 0.25737,0 0.48964,0.226 0.48964,0.48339 z m 3.03834,-0.62148 c 0,-0.66543 -0.45199,-1.10484 -1.04207,-1.10484 -0.65287,0 -1.08602,0.4457 -1.08602,1.1174 0,0.67169 0.45827,1.14879 1.04207,1.14879 0.65287,0 1.08602,-0.49592 1.08602,-1.16135 z m -0.43315,0.1256 c 0,0.55871 -0.21344,0.89769 -0.57127,0.89769 -0.16949,0 -0.32642,-0.0879 -0.43315,-0.23856 -0.17577,-0.26365 -0.25737,-0.6089 -0.25737,-0.99185 0,-0.47708 0.22599,-0.76586 0.55871,-0.76586 0.21344,0 0.34525,0.1004 0.45825,0.24483 0.15695,0.1946 0.24483,0.52732 0.24483,0.85375 z m 4.31267,0.98557 v -0.0753 l -0.1256,-0.007 c -0.14441,-0.012 -0.20716,-0.0753 -0.20716,-0.28876 v -0.97881 c 0,-0.57124 -0.1695,-0.86628 -0.55871,-0.86628 -0.27621,0 -0.52732,0.1256 -0.78469,0.40174 -0.0879,-0.2762 -0.25109,-0.40174 -0.50848,-0.40174 -0.21971,0 -0.42059,0.0439 -0.74075,0.37036 h -0.012 v -0.35783 l -0.0376,-0.012 c -0.24483,0.0879 -0.40176,0.14441 -0.66541,0.21344 v 0.0816 c 0.0627,-0.012 0.1004,-0.0188 0.15064,-0.0188 0.1256,0 0.16946,0.0816 0.16946,0.32016 v 1.19274 c 0,0.28248 -0.0691,0.35153 -0.33898,0.35153 v 0.0753 h 1.07348 v -0.0753 c -0.25739,-0.007 -0.32644,-0.0565 -0.32644,-0.26364 v -1.33714 c 0,-0.012 0.0251,-0.0439 0.0627,-0.0815 0.0941,-0.11934 0.33272,-0.20718 0.50849,-0.20718 0.20715,0 0.31387,0.20088 0.31387,0.5336 v 1.01697 c 0,0.29504 -0.0565,0.32016 -0.32643,0.33898 v 0.0753 h 1.07973 v -0.0753 c -0.2762,0 -0.35154,-0.0691 -0.35154,-0.38293 v -1.21158 c 0.1444,-0.21342 0.28878,-0.29504 0.52105,-0.29504 0.26993,0 0.37036,0.15694 0.37036,0.53987 v 0.99186 c 0,0.27622 -0.0439,0.3327 -0.31388,0.35782 v 0.0753 z m 2.14378,-0.32014 c -0.0815,0.0691 -0.1256,0.0941 -0.20715,0.0941 -0.0815,0 -0.1444,-0.0941 -0.1444,-0.32015 v -0.91652 c 0,-0.29504 -0.0188,-0.39549 -0.13819,-0.53987 -0.11293,-0.13817 -0.29504,-0.21344 -0.57125,-0.21344 -0.21343,0 -0.41431,0.0565 -0.55241,0.14442 -0.1695,0.1068 -0.24484,0.25737 -0.24484,0.38293 0,0.13173 0.1068,0.22599 0.20716,0.22599 0.1256,0 0.21973,-0.1068 0.21973,-0.20088 0,-0.1004 -0.0251,-0.11294 -0.0251,-0.20088 0,-0.13174 0.14442,-0.23855 0.339,-0.23855 0.21343,0 0.37038,0.13817 0.37038,0.43315 v 0.26366 c -0.53988,0.20088 -0.72191,0.29505 -0.86631,0.38921 -0.18833,0.1256 -0.33897,0.31388 -0.33897,0.56497 0,0.31388 0.20714,0.50221 0.50846,0.50221 0.20718,0 0.44571,-0.0627 0.69682,-0.35154 h 0.007 c 0.0252,0.2511 0.13187,0.35154 0.30762,0.35154 0.1632,0 0.28875,-0.0503 0.43315,-0.23226 z m -0.74703,-0.29504 c 0,0.1444 -0.0251,0.20714 -0.1632,0.30758 -0.0879,0.0503 -0.18833,0.0753 -0.28249,0.0753 -0.18832,0 -0.33272,-0.11294 -0.33272,-0.37039 0,-0.15063 0.0503,-0.26365 0.16322,-0.37037 0.11934,-0.11294 0.32015,-0.21343 0.61519,-0.32015 z m 1.6259,-2.42943 c 0,-0.13803 -0.1068,-0.2511 -0.24483,-0.2511 -0.13173,0 -0.24481,0.11294 -0.24481,0.2511 0,0.13802 0.1068,0.24482 0.23854,0.24482 0.14442,0 0.2511,-0.1068 0.2511,-0.24482 z m 0.35154,3.04461 v -0.0753 c -0.31389,-0.0188 -0.35781,-0.0753 -0.35781,-0.43313 v -1.68867 l -0.0188,-0.0188 -0.74704,0.26365 v 0.0753 c 0.0879,-0.0251 0.16323,-0.0251 0.20716,-0.0251 0.11933,0 0.15695,0.0817 0.15695,0.3076 v 1.09229 c 0,0.36411 -0.0503,0.40806 -0.38294,0.42688 v 0.0753 z m 2.45767,0 v -0.0753 c -0.23226,-0.0188 -0.28877,-0.0753 -0.28877,-0.33271 v -1.06719 c 0,-0.47708 -0.20716,-0.74073 -0.57127,-0.74073 -0.2197,0 -0.4457,0.1068 -0.6968,0.3892 v -0.37667 l -0.0376,-0.012 c -0.23855,0.0879 -0.39548,0.13819 -0.66543,0.21344 v 0.0816 c 0.0376,-0.012 0.0879,-0.0188 0.14442,-0.0188 0.13173,0 0.16321,0.0816 0.16321,0.31388 v 1.1739 c 0,0.28249 -0.0503,0.35783 -0.29504,0.37667 v 0.0753 h 1.01696 v -0.0753 c -0.24482,-0.0188 -0.31388,-0.0816 -0.31388,-0.26995 v -1.33084 c 0.21972,-0.21971 0.33899,-0.2762 0.49592,-0.2762 0.23856,0 0.35155,0.1444 0.35155,0.48964 v 0.9542 c 0,0.32013 -0.0565,0.41431 -0.29504,0.43315 l -0.007,0.0753 z m 0.21343,-3.18272 c 0.7031,0.55243 0.82235,1.10485 0.82235,2.00883 0,0.93535 -0.13817,1.38733 -0.82235,1.95231 l 0.0439,0.0753 c 0.76587,-0.47081 1.19275,-1.15507 1.19275,-2.04648 0,-0.81608 -0.43944,-1.6259 -1.18019,-2.06532 z m 2.33996,2.97556 c 0,-0.14441 -0.1256,-0.27621 -0.26366,-0.27621 -0.15064,0 -0.26994,0.1192 -0.26994,0.26993 0,0.15064 0.11294,0.26366 0.26366,0.26366 0.14441,0 0.26994,-0.11934 0.26994,-0.25738 z m 0,0"
     style="fill:#241f1f;fill-opacity:1;fill-rule:nonzero;stroke:none;stroke-width:0.535685"
     aria-label="(b) ac component (frequency domain)." /></svg>
