<?xml version="1.0" encoding="UTF-8" standalone="no"?>
<!-- Created with Inkscape (http://www.inkscape.org/) -->

<svg
   width="106.46155mm"
   height="132.29164mm"
   viewBox="0 0 106.46155 132.29164"
   version="1.1"
   id="svg1"
   xml:space="preserve"
   xmlns="http://www.w3.org/2000/svg"
   xmlns:svg="http://www.w3.org/2000/svg"><defs
     id="defs1"><clipPath
       clipPathUnits="userSpaceOnUse"
       id="clipPath62-2"><path
         d="M 138,425.927 H 366.347 V 713.868 H 138 Z"
         transform="matrix(1,0,0,-1,-180.619,429.47101)"
         id="path62-4" /></clipPath><clipPath
       clipPathUnits="userSpaceOnUse"
       id="clipPath66-5"><path
         d="M 138,425.927 H 366.347 V 713.868 H 138 Z"
         transform="matrix(1,0,0,-1,-301.21801,707.19902)"
         id="path66-5" /></clipPath><clipPath
       clipPathUnits="userSpaceOnUse"
       id="clipPath69-1"><path
         d="M 138,425.927 H 366.347 V 713.868 H 138 Z"
         transform="matrix(1,0,0,-1,-350.06901,601.15802)"
         id="path69-7" /></clipPath><clipPath
       clipPathUnits="userSpaceOnUse"
       id="clipPath76-1"><path
         d="M 138,425.927 H 366.347 V 713.868 H 138 Z"
         transform="matrix(1,0,0,-1,-350.09101,520.13702)"
         id="path76-1" /></clipPath><clipPath
       clipPathUnits="userSpaceOnUse"
       id="clipPath83-5"><path
         d="M 138,425.927 H 366.347 V 713.868 H 138 Z"
         transform="matrix(1,0,0,-1,-350.09101,439.84601)"
         id="path83-2" /></clipPath><clipPath
       clipPathUnits="userSpaceOnUse"
       id="clipPath88-7"><path
         d="M 138,425.927 H 366.347 V 713.868 H 138 Z"
         transform="translate(-358.19701,-609.17301)"
         id="path88-6" /></clipPath><clipPath
       clipPathUnits="userSpaceOnUse"
       id="clipPath90-1"><path
         d="M 138,425.927 H 366.347 V 713.868 H 138 Z"
         transform="translate(-261.02901,-609.19401)"
         id="path90-4" /></clipPath><clipPath
       clipPathUnits="userSpaceOnUse"
       id="clipPath92-2"><path
         d="M 138,425.927 H 366.347 V 713.868 H 138 Z"
         transform="translate(-358.21901,-528.26912)"
         id="path92-3" /></clipPath><clipPath
       clipPathUnits="userSpaceOnUse"
       id="clipPath94-2"><path
         d="M 138,425.927 H 366.347 V 713.868 H 138 Z"
         transform="translate(-358.21901,-447.77711)"
         id="path94-2" /></clipPath><clipPath
       clipPathUnits="userSpaceOnUse"
       id="clipPath96-1"><path
         d="M 138,425.927 H 366.347 V 713.868 H 138 Z"
         transform="translate(-260.989,-447.79911)"
         id="path96-6" /></clipPath><clipPath
       clipPathUnits="userSpaceOnUse"
       id="clipPath98-8"><path
         d="M 138,425.927 H 366.347 V 713.868 H 138 Z"
         transform="translate(-261.00801,-528.24812)"
         id="path98-5" /></clipPath><clipPath
       clipPathUnits="userSpaceOnUse"
       id="clipPath100-7"><path
         d="m 261.128,449.158 h 97.091 c -11.962,5.38 -31.679,19.253 -48.546,19.253 v 0 c -16.866,0 -36.583,-13.873 -48.545,-19.253"
         transform="translate(-309.67301,-468.41201)"
         id="path100-6" /></clipPath></defs><path
     id="path2"
     d="m 80.162532,60.008505 v 25.05916 m 0,-85.0676738696024 V 47.349535"
     style="fill:none;stroke:#241f1f;stroke-width:0.233534;stroke-linecap:butt;stroke-linejoin:miter;stroke-miterlimit:4;stroke-dasharray:none;stroke-opacity:1" /><path
     id="path3"
     d="m 9.0517516,94.474105 0.48713,-2.21674 h 0.7936504 l 0.0602,-0.27915 H 8.4989216 l -0.0602,0.27915 h 0.79364 l -0.49261,2.21674 z m 0,0"
     style="fill:#241f1f;fill-opacity:1;fill-rule:nonzero;stroke:none;stroke-width:0.467069"
     aria-label="T" /><path
     id="path5"
     d="m 13.508512,93.275425 v -0.2463 h -2.20033 v 0.2463 z m 0,0.74987 v -0.24631 h -2.20033 v 0.24631 z m 0,0"
     style="fill:#241f1f;fill-opacity:1;fill-rule:nonzero;stroke:none;stroke-width:0.467069"
     aria-label="=" /><path
     id="path6"
     d="m 16.566802,94.474105 v -0.27914 h -1.22606 c 0.69513,-0.54735 1.21512,-1.01259 1.21512,-1.52162 0,-0.49261 -0.42694,-0.72797 -0.83744,-0.72797 -0.35578,0 -0.67871,0.14231 -0.87029,0.38862 l 0.19158,0.20252 c 0.14778,-0.19158 0.37767,-0.31747 0.67871,-0.31747 0.25725,0 0.51998,0.13684 0.51998,0.4543 0,0.43241 -0.48715,0.84839 -1.38479,1.55446 v 0.2463 z m 0,0"
     style="fill:#241f1f;fill-opacity:1;fill-rule:nonzero;stroke:none;stroke-width:0.467069"
     aria-label=" 2" /><path
     id="path7"
     d="m 1.8589416,47.563005 h 3.97616 v -13.17134 h 1.47126 v 13.17134 h 5.1144004 v -13.17134 h 1.47126 v 13.17134 h 5.11441 v -13.17134 h 1.54133 v 13.17134 h 5.1144 v -13.17134 h 1.68144 v 13.17134 h 4.83416 v -13.17134 h 1.6114 v 13.17134 h 3.97614"
     style="fill:none;stroke:#c13439;stroke-width:0.467069;stroke-linecap:butt;stroke-linejoin:miter;stroke-miterlimit:4;stroke-dasharray:none;stroke-opacity:1" /><path
     id="path8"
     d="m 5.8349516,29.168525 v 5.06162 m 1.47127,-5.06162 v 5.06162"
     style="fill:none;stroke:#275b8d;stroke-width:0.233534;stroke-linecap:butt;stroke-linejoin:miter;stroke-miterlimit:4;stroke-dasharray:0.934137, 0.934137;stroke-dashoffset:0;stroke-opacity:1" /><path
     id="path9"
     d="M 13.024122,30.639235 H 9.0246116"
     style="fill:none;stroke:#241f1f;stroke-width:0.233534;stroke-linecap:butt;stroke-linejoin:miter;stroke-miterlimit:4;stroke-dasharray:none;stroke-opacity:1" /><path
     id="path10"
     d="m 9.3719216,31.141935 -1.89863,-0.50863 1.89863,-0.50911 z"
     style="fill:#241f1f;fill-opacity:1;fill-rule:nonzero;stroke:none;stroke-width:0.467069" /><path
     id="path11"
     d="M 12.965732,106.18025 H 8.9666916"
     style="fill:none;stroke:#241f1f;stroke-width:0.233534;stroke-linecap:butt;stroke-linejoin:miter;stroke-miterlimit:4;stroke-dasharray:none;stroke-opacity:1" /><path
     id="path12"
     d="m 9.3135416,106.68328 -1.89864,-0.50911 1.89864,-0.50863 z"
     style="fill:#241f1f;fill-opacity:1;fill-rule:nonzero;stroke:none;stroke-width:0.467069" /><path
     id="path13"
     d="M 0.05839151,106.18025 H 4.0574216"
     style="fill:none;stroke:#241f1f;stroke-width:0.233534;stroke-linecap:butt;stroke-linejoin:miter;stroke-miterlimit:4;stroke-dasharray:none;stroke-opacity:1" /><path
     id="path14"
     d="m 3.7105416,106.68328 1.89864,-0.50911 -1.89864,-0.50863 z"
     style="fill:#241f1f;fill-opacity:1;fill-rule:nonzero;stroke:none;stroke-width:0.467069" /><path
     id="path15"
     d="M 0.05839151,68.464465 H 4.0574216"
     style="fill:none;stroke:#241f1f;stroke-width:0.233534;stroke-linecap:butt;stroke-linejoin:miter;stroke-miterlimit:4;stroke-dasharray:none;stroke-opacity:1" /><path
     id="path16"
     d="m 3.7105416,68.967445 1.89864,-0.50911 -1.89864,-0.50863 z"
     style="fill:#241f1f;fill-opacity:1;fill-rule:nonzero;stroke:none;stroke-width:0.467069" /><path
     id="path17"
     d="M 13.024122,68.464465 H 9.0246116"
     style="fill:none;stroke:#241f1f;stroke-width:0.233534;stroke-linecap:butt;stroke-linejoin:miter;stroke-miterlimit:4;stroke-dasharray:none;stroke-opacity:1" /><path
     id="path18"
     d="m 9.3719216,68.967445 -1.89863,-0.50911 1.89863,-0.50863 z"
     style="fill:#241f1f;fill-opacity:1;fill-rule:nonzero;stroke:none;stroke-width:0.467069" /><path
     id="path19"
     d="M 1.5174636e-6,30.639365 H 3.9995116"
     style="fill:none;stroke:#241f1f;stroke-width:0.233534;stroke-linecap:butt;stroke-linejoin:miter;stroke-miterlimit:4;stroke-dasharray:none;stroke-opacity:1" /><path
     id="path20"
     d="m 3.6521616,31.142085 1.89863,-0.50864 -1.89863,-0.5091 z"
     style="fill:#241f1f;fill-opacity:1;fill-rule:nonzero;stroke:none;stroke-width:0.467069" /><path
     id="path21"
     d="m 2.5424316,25.626175 h -0.81556 c -0.37219,0 -0.62944,0.36125 -0.73344009,0.60208 h 0.0602002 c 0.10949,-0.19156 0.27915,-0.32841 0.4816599,-0.32841 h 0.22989 c -0.1751499,0.38863 -0.3667199,0.8265 -0.3667199,1.10017 0,0.15873 0.0657,0.2682 0.24083,0.2682 0.23535,0 0.4543,-0.25178 0.54186,-0.54735 h -0.0602 c -0.0657,0.13684 -0.1860901,0.26273 -0.2791401,0.26273 -0.0985,0 -0.13684,-0.0821 -0.13684,-0.19158 0,-0.0547 0,-0.29556 0.26272,-0.89217 h 0.4980901 z m 0,0"
     style="fill:#241f1f;fill-opacity:1;fill-rule:nonzero;stroke:none;stroke-width:0.467069"
     aria-label="τ" /><path
     id="path23"
     d="m 5.8265116,26.025745 v -0.24632 h -2.20033 v 0.24632 z m 0,0.74986 v -0.2463 h -2.20033 v 0.2463 z m 0,0"
     style="fill:#241f1f;fill-opacity:1;fill-rule:nonzero;stroke:none;stroke-width:0.467069"
     aria-label="=" /><path
     id="path25"
     d="m 8.1130416,27.268215 c 0.6787,0 0.95238,-0.68418 0.95238,-1.28626 0,-0.61302 -0.27368,-1.28627 -0.95238,-1.28627 -0.68418,0 -0.95238,0.67325 -0.95238,1.28627 0,0.60208 0.2682,1.28626 0.95238,1.28626 z m 0,-0.27367 c -0.4762,0 -0.63493,-0.51998 -0.63493,-1.01259 0,-0.49809 0.15873,-1.0126 0.63493,-1.0126 0.47619,0 0.63492,0.51451 0.63492,1.0126 0,0.49261 -0.15873,1.01259 -0.63492,1.01259 z m 1.45867,0.2682 c 0.10949,0 0.20252,-0.0931 0.20252,-0.208 0,-0.10949 -0.0931,-0.20251 -0.20252,-0.20251 -0.11492,0 -0.20798,0.0931 -0.20798,0.20251 0,0.11492 0.0931,0.208 0.20798,0.208 z m 0,0"
     style="fill:#241f1f;fill-opacity:1;fill-rule:nonzero;stroke:none;stroke-width:0.467069"
     aria-label="0." /><path
     id="path26"
     d="m 11.914362,27.224425 v -0.27914 h -1.22605 c 0.69513,-0.54735 1.21511,-1.01259 1.21511,-1.52162 0,-0.49261 -0.42693,-0.72798 -0.83745,-0.72798 -0.35576,0 -0.6787,0.14232 -0.87027,0.38862 l 0.19157,0.20251 c 0.14778,-0.19156 0.37767,-0.31746 0.6787,-0.31746 0.25727,0 0.51998,0.13685 0.51998,0.45431 0,0.4324 -0.48713,0.84838 -1.38478,1.55445 v 0.24631 z m 0,0"
     style="fill:#241f1f;fill-opacity:1;fill-rule:nonzero;stroke:none;stroke-width:0.467069"
     aria-label="2" /><path
     id="path27"
     d="m 5.8352316,47.740295 v 5.0621 m 6.5856704,-5.13216 v 5.06209"
     style="fill:none;stroke:#275b8d;stroke-width:0.233534;stroke-linecap:butt;stroke-linejoin:miter;stroke-miterlimit:4;stroke-dasharray:0.934137, 0.934137;stroke-dashoffset:0;stroke-opacity:1" /><path
     id="path28"
     d="m 10.483312,51.542705 1.89863,-0.50816 -1.89863,-0.50911 z"
     style="fill:#241f1f;fill-opacity:1;fill-rule:nonzero;stroke:none;stroke-width:0.467069" /><path
     id="path29"
     d="M 10.922592,51.011595 H 7.5363416"
     style="fill:none;stroke:#241f1f;stroke-width:0.233534;stroke-linecap:butt;stroke-linejoin:miter;stroke-miterlimit:4;stroke-dasharray:none;stroke-opacity:1" /><path
     id="path30"
     d="m 7.8834216,51.513745 -1.89863,-0.50864 1.89863,-0.50864 z"
     style="fill:#241f1f;fill-opacity:1;fill-rule:nonzero;stroke:none;stroke-width:0.467069" /><path
     id="path31"
     d="m 6.3642616,56.742805 0.48715,-2.21674 h 0.79365 l 0.0602,-0.27915 h -1.89381 l -0.0602,0.27915 h 0.79366 l -0.49261,2.21674 z m 0,0"
     style="fill:#241f1f;fill-opacity:1;fill-rule:nonzero;stroke:none;stroke-width:0.467069"
     aria-label="T" /><path
     id="path33"
     d="m 10.821042,55.544115 v -0.2463 H 8.6207016 v 0.2463 z m 0,0.74987 v -0.24631 H 8.6207016 v 0.24631 z m 0,0"
     style="fill:#241f1f;fill-opacity:1;fill-rule:nonzero;stroke:none;stroke-width:0.467069"
     aria-label="=" /><path
     id="path34"
     d="m 12.937892,56.742805 v -2.49589 h -0.27367 l -0.62397,0.64586 0.1861,0.19158 0.40503,-0.42146 v 2.07991 z m 0,0"
     style="fill:#241f1f;fill-opacity:1;fill-rule:nonzero;stroke:none;stroke-width:0.467069"
     aria-label=" 1" /><path
     id="path35"
     d="m 1.8339416,85.278605 h 3.97616 v -13.17087 h 1.47127 v 13.17087 H 18.981432 v -13.17087 h 1.54134 v 13.17087 h 11.63 v -13.17087 h 1.61139 v 13.17087 h 3.97615"
     style="fill:none;stroke:#c13439;stroke-width:0.467069;stroke-linecap:butt;stroke-linejoin:miter;stroke-miterlimit:4;stroke-dasharray:none;stroke-opacity:1" /><path
     id="path36"
     d="m 5.8099716,66.963855 v 5.06162 m 1.47127,-5.06162 v 5.06162"
     style="fill:none;stroke:#275b8d;stroke-width:0.233534;stroke-linecap:butt;stroke-linejoin:miter;stroke-miterlimit:4;stroke-dasharray:0.934137, 0.934137;stroke-dashoffset:0;stroke-opacity:1" /><path
     id="path37"
     d="m 2.5123216,63.362955 h -0.81555 c -0.3722,0 -0.62945,0.36124 -0.73345009,0.60209 h 0.0602 c 0.1095,-0.19158 0.27915,-0.32841 0.48167,-0.32841 h 0.2298801 c -0.17515,0.38861 -0.36672,0.82649 -0.36672,1.10017 0,0.15873 0.0657,0.26819 0.24083,0.26819 0.23535,0 0.4543,-0.25178 0.54187,-0.54734 h -0.0602 c -0.0657,0.13683 -0.1861,0.26272 -0.2791501,0.26272 -0.0985,0 -0.1368299,-0.0821 -0.1368299,-0.19157 0,-0.0547 0,-0.29556 0.26271,-0.89217 h 0.4981 z m 0,0"
     style="fill:#241f1f;fill-opacity:1;fill-rule:nonzero;stroke:none;stroke-width:0.467069"
     aria-label="τ" /><path
     id="path39"
     d="m 5.7977616,63.762515 v -0.2463 h -2.20032 v 0.2463 z m 0,0.74987 v -0.24631 h -2.20032 v 0.24631 z m 0,0"
     style="fill:#241f1f;fill-opacity:1;fill-rule:nonzero;stroke:none;stroke-width:0.467069"
     aria-label="=" /><path
     id="path41"
     d="m 8.0842916,65.004995 c 0.67871,0 0.95239,-0.68419 0.95239,-1.28626 0,-0.61303 -0.27368,-1.28627 -0.95239,-1.28627 -0.68417,0 -0.95237,0.67324 -0.95237,1.28627 0,0.60207 0.2682,1.28626 0.95237,1.28626 z m 0,-0.27368 c -0.47618,0 -0.63491,-0.51997 -0.63491,-1.01258 0,-0.49808 0.15873,-1.01259 0.63491,-1.01259 0.4762,0 0.63493,0.51451 0.63493,1.01259 0,0.49261 -0.15873,1.01258 -0.63493,1.01258 z m 1.45869,0.2682 c 0.10949,0 0.20252,-0.0931 0.20252,-0.20798 0,-0.10949 -0.0931,-0.20253 -0.20252,-0.20253 -0.11492,0 -0.208,0.0931 -0.208,0.20253 0,0.11492 0.0931,0.20798 0.208,0.20798 z m 0,0"
     style="fill:#241f1f;fill-opacity:1;fill-rule:nonzero;stroke:none;stroke-width:0.467069"
     aria-label="0." /><path
     id="path42"
     d="m 11.885622,64.961205 v -0.27915 h -1.22605 c 0.69514,-0.54734 1.21511,-1.01259 1.21511,-1.52162 0,-0.49261 -0.42692,-0.72797 -0.83744,-0.72797 -0.35577,0 -0.6787,0.14231 -0.87028,0.38862 l 0.19158,0.20252 c 0.14778,-0.19158 0.37766,-0.31746 0.6787,-0.31746 0.25725,0 0.51998,0.13683 0.51998,0.45429 0,0.43241 -0.48714,0.84839 -1.38478,1.55447 v 0.2463 z m 0,0"
     style="fill:#241f1f;fill-opacity:1;fill-rule:nonzero;stroke:none;stroke-width:0.467069"
     aria-label="2" /><path
     id="path43"
     d="m 5.8099716,85.456045 v 5.06209 m 13.1713304,-5.13216 v 5.0621"
     style="fill:none;stroke:#275b8d;stroke-width:0.233534;stroke-linecap:butt;stroke-linejoin:miter;stroke-miterlimit:4;stroke-dasharray:0.934137, 0.934137;stroke-dashoffset:0;stroke-opacity:1" /><path
     id="path44"
     d="m 16.963942,89.167795 1.89863,-0.50911 -1.89863,-0.50863 z"
     style="fill:#241f1f;fill-opacity:1;fill-rule:nonzero;stroke:none;stroke-width:0.467069" /><path
     id="path45"
     d="M 17.403222,88.635325 H 7.5074416"
     style="fill:none;stroke:#241f1f;stroke-width:0.233534;stroke-linecap:butt;stroke-linejoin:miter;stroke-miterlimit:4;stroke-dasharray:none;stroke-opacity:1" /><path
     id="path46"
     d="m 7.8542816,89.138835 -1.89863,-0.50911 1.89863,-0.50863 z"
     style="fill:#241f1f;fill-opacity:1;fill-rule:nonzero;stroke:none;stroke-width:0.467069" /><path
     id="path47"
     d="m 1.8143316,123.05274 h 3.97616 v -13.17087 h 1.47127 v 13.17087 H 37.738452 v -13.17087 h 1.61092 v 13.17087 h 3.97616"
     style="fill:none;stroke:#c13439;stroke-width:0.467069;stroke-linecap:butt;stroke-linejoin:miter;stroke-miterlimit:4;stroke-dasharray:none;stroke-opacity:1" /><path
     id="path48"
     d="m 5.7903516,104.70907 v 5.06116 m 1.47126,-5.06116 v 5.06116"
     style="fill:none;stroke:#275b8d;stroke-width:0.233534;stroke-linecap:butt;stroke-linejoin:miter;stroke-miterlimit:4;stroke-dasharray:0.934137, 0.934137;stroke-dashoffset:0;stroke-opacity:1" /><path
     id="path49"
     d="m 2.5424316,101.17225 h -0.81554 c -0.3722,0 -0.62946,0.36124 -0.73345009,0.60208 h 0.0602001 c 0.1095,-0.19157 0.27915,-0.3284 0.48167,-0.3284 h 0.22989 c -0.17515,0.38861 -0.36673,0.82649 -0.36673,1.10015 0,0.15873 0.0657,0.2682 0.24083,0.2682 0.23537,0 0.4543,-0.25178 0.54188,-0.54734 h -0.0602 c -0.0657,0.13684 -0.1861,0.26273 -0.27915,0.26273 -0.0985,0 -0.13683,-0.0821 -0.13683,-0.19157 0,-0.0547 0,-0.29558 0.26273,-0.89217 h 0.49808 z m 0,0"
     style="fill:#241f1f;fill-opacity:1;fill-rule:nonzero;stroke:none;stroke-width:0.467069"
     aria-label="τ" /><path
     id="path51"
     d="m 5.8265116,101.57181 v -0.24631 h -2.20034 v 0.24631 z m 0,0.74986 v -0.2463 h -2.20034 v 0.2463 z m 0,0"
     style="fill:#241f1f;fill-opacity:1;fill-rule:nonzero;stroke:none;stroke-width:0.467069"
     aria-label="=" /><path
     id="path53"
     d="m 8.1130516,102.81428 c 0.67871,0 0.95237,-0.68418 0.95237,-1.28625 0,-0.61303 -0.27366,-1.28627 -0.95237,-1.28627 -0.68419,0 -0.95239,0.67324 -0.95239,1.28627 0,0.60207 0.2682,1.28625 0.95239,1.28625 z m 0,-0.27366 c -0.47619,0 -0.63493,-0.51998 -0.63493,-1.01259 0,-0.4981 0.15874,-1.01259 0.63493,-1.01259 0.47618,0 0.63491,0.51449 0.63491,1.01259 0,0.49261 -0.15873,1.01259 -0.63491,1.01259 z m 1.45867,0.26819 c 0.1095,0 0.20252,-0.0931 0.20252,-0.20799 0,-0.1095 -0.0931,-0.20252 -0.20252,-0.20252 -0.11492,0 -0.20799,0.0931 -0.20799,0.20252 0,0.11492 0.0931,0.20799 0.20799,0.20799 z m 0,0"
     style="fill:#241f1f;fill-opacity:1;fill-rule:nonzero;stroke:none;stroke-width:0.467069"
     aria-label="0." /><path
     id="path54"
     d="m 11.914362,102.7705 v -0.27915 h -1.22605 c 0.69513,-0.54734 1.21511,-1.01259 1.21511,-1.52162 0,-0.49261 -0.42693,-0.72797 -0.83745,-0.72797 -0.35577,0 -0.6787,0.14231 -0.87028,0.38861 l 0.19158,0.20252 c 0.14778,-0.19157 0.37766,-0.31745 0.6787,-0.31745 0.25725,0 0.51998,0.13683 0.51998,0.45429 0,0.4324 -0.48714,0.84838 -1.38478,1.55447 v 0.2463 z m 0,0"
     style="fill:#241f1f;fill-opacity:1;fill-rule:nonzero;stroke:none;stroke-width:0.467069"
     aria-label="2" /><path
     id="path55"
     d="m 5.7903516,123.23021 v 5.06162 m 31.9596404,-5.13168 v 5.06163"
     style="fill:none;stroke:#275b8d;stroke-width:0.233534;stroke-linecap:butt;stroke-linejoin:miter;stroke-miterlimit:4;stroke-dasharray:0.934137, 0.934137;stroke-dashoffset:0;stroke-opacity:1" /><path
     id="path56"
     d="m 35.674992,127.01585 1.89863,-0.50863 -1.89863,-0.50864 z"
     style="fill:#241f1f;fill-opacity:1;fill-rule:nonzero;stroke:none;stroke-width:0.467069" /><path
     id="path57"
     d="M 36.289382,126.48481 H 7.5067416"
     style="fill:none;stroke:#241f1f;stroke-width:0.233534;stroke-linecap:butt;stroke-linejoin:miter;stroke-miterlimit:4;stroke-dasharray:none;stroke-opacity:1" /><path
     id="path58"
     d="m 7.8540416,126.98686 -1.89863,-0.50863 1.89863,-0.50911 z"
     style="fill:#241f1f;fill-opacity:1;fill-rule:nonzero;stroke:none;stroke-width:0.467069" /><path
     id="path59"
     d="m 17.829802,132.24783 0.48714,-2.21676 h 0.79365 l 0.0602,-0.27914 h -1.89383 l -0.0602,0.27914 h 0.79366 l -0.49261,2.21676 z m 0,0"
     style="fill:#241f1f;fill-opacity:1;fill-rule:nonzero;stroke:none;stroke-width:0.467069"
     aria-label="T" /><path
     id="path61"
     d="M 5.0962203,-2.5665859 V -3.0939297 H 0.38528281 v 0.5273438 z m 0,1.60546871 V -1.4884609 H 0.38528281 v 0.52734371 z m 0,0"
     style="fill:#241f1f;fill-opacity:1;fill-rule:nonzero;stroke:none"
     aria-label="="
     transform="matrix(0.46706865,0,0,0.46706865,19.906282,132.24791)"
     clip-path="url(#clipPath62-2)" /><path
     id="path63"
     d="m 24.404792,132.24783 v -2.4959 h -0.27367 l -0.62397,0.64587 0.1861,0.19157 0.40503,-0.42146 v 2.07992 z m 1.43541,0.0438 c 0.67873,0 0.95239,-0.68417 0.95239,-1.28626 0,-0.61303 -0.27366,-1.28626 -0.95239,-1.28626 -0.68417,0 -0.95237,0.67323 -0.95237,1.28626 0,0.60209 0.2682,1.28626 0.95237,1.28626 z m 0,-0.27368 c -0.47618,0 -0.63491,-0.51997 -0.63491,-1.01258 0,-0.49808 0.15873,-1.01259 0.63491,-1.01259 0.4762,0 0.63493,0.51451 0.63493,1.01259 0,0.49261 -0.15873,1.01258 -0.63493,1.01258 z m 0,0"
     style="fill:#241f1f;fill-opacity:1;fill-rule:nonzero;stroke:none;stroke-width:0.467069"
     aria-label=" 10" /><path
     id="path64"
     d="m 62.204962,37.083155 v 10.46233 m 4.49179,-22.39594 v 22.39594 m 4.49227,-33.7742 v 33.7742 M 75.680812,4.9436851 V 47.545485 m 4.482,-44.7433099 V 47.545485 M 84.664882,4.9436851 V 47.545485 m 4.49181,-33.7742 v 33.7742 m 4.49226,-22.39594 v 22.39594 m 4.4918,-10.46233 v 10.46233"
     style="fill:none;stroke:#c13439;stroke-width:0.467069;stroke-linecap:butt;stroke-linejoin:miter;stroke-miterlimit:4;stroke-dasharray:none;stroke-opacity:1" /><path
     id="path65"
     d="M 4.1017125,-6.953125e-4 V -0.59835156 h -2.625 C 2.9649938,-1.7702266 4.078275,-2.7663203 4.078275,-3.8561641 c 0,-1.0546875 -0.9140625,-1.5585937 -1.7929687,-1.5585937 -0.7617188,0 -1.45312505,0.3046875 -1.8632813,0.8320312 l 0.41015625,0.4335938 C 1.1485875,-4.5592891 1.640775,-4.8288203 2.2853063,-4.8288203 c 0.5507812,0 1.1132812,0.2929687 1.1132812,0.9726562 0,0.9257813 -1.0429687,1.8164063 -2.96484375,3.32812504 v 0.5273437475 z m 0,0"
     style="fill:#241f1f;fill-opacity:1;fill-rule:nonzero;stroke:none"
     aria-label="2"
     transform="matrix(0.46706865,0,0,0.46706865,76.234302,2.5298751)"
     clip-path="url(#clipPath66-5)" /><path
     id="path67"
     d="m 80.203992,52.083525 c 0.67871,0 0.95238,-0.68419 0.95238,-1.28627 0,-0.61302 -0.27367,-1.28626 -0.95238,-1.28626 -0.68418,0 -0.95238,0.67324 -0.95238,1.28626 0,0.60208 0.2682,1.28627 0.95238,1.28627 z m 0,-0.27368 c -0.47618,0 -0.63491,-0.51998 -0.63491,-1.01259 0,-0.49808 0.15873,-1.01258 0.63491,-1.01258 0.47619,0 0.63492,0.5145 0.63492,1.01258 0,0.49261 -0.15873,1.01259 -0.63492,1.01259 z m 0,0"
     style="fill:#241f1f;fill-opacity:1;fill-rule:nonzero;stroke:none;stroke-width:0.467069"
     aria-label="0" /><path
     id="path68"
     d="m 2.4128219,0.09502344 c 1.0664062,0 1.8867187,-0.66796875 1.8867187,-1.75781254 0,-1.1015625 -0.8085937,-1.7109375 -1.6875,-1.7109375 -0.5390625,0 -0.9960937,0.234375 -1.2539062,0.4804688 V -4.7448203 H 3.9596969 V -5.3424766 H 0.69016562 v 2.8828125 l 0.49218748,0.1757813 c 0.3632813,-0.3515625 0.7617188,-0.5039063 1.2304688,-0.5039063 0.7265625,0 1.2304687,0.4453125 1.2304687,1.1484375 0,0.64453129 -0.5039062,1.14843754 -1.2304687,1.14843754 -0.65625,0 -1.125,-0.2578125 -1.47656253,-0.70312504 l -0.41015625,0.43359379 c 0.3984375,0.52734375 0.97265628,0.85546875 1.88671878,0.85546875 z m 9.4453121,-0.09375 V -5.3424766 h -0.667968 v 2.296875 H 8.0729781 v -2.296875 H 7.4050094 V 0.00127344 H 8.0729781 V -2.4479453 h 3.1171879 v 2.44921874 z m 3.984375,0 v -0.515625 h -2.179687 l 2.144531,-2.89453124 v -0.4570313 h -2.90625 v 0.5273438 h 2.121094 l -2.121094,2.87109374 v 0.46875 z m 0,0"
     style="fill:#241f1f;fill-opacity:1;fill-rule:nonzero;stroke:none"
     aria-label="5 Hz"
     transform="matrix(0.46706865,0,0,0.46706865,99.051062,52.058305)"
     clip-path="url(#clipPath69-1)" /><path
     id="path70"
     d="m 56.235712,51.083255 v -0.24632 h -1.86646 v 0.24632 z m 0,0"
     style="fill:#241f1f;fill-opacity:1;fill-rule:nonzero;stroke:none;stroke-width:0.467069"
     aria-label="‒" /><path
     id="path71"
     d="m 57.515132,52.080785 c 0.49808,0 0.88123,-0.31198 0.88123,-0.82102 0,-0.5145 -0.37767,-0.79913 -0.78818,-0.79913 -0.25178,0 -0.46524,0.1095 -0.58566,0.22442 v -0.86481 h 1.21511 v -0.27915 h -1.5271 v 1.34647 l 0.22989,0.0821 c 0.16967,-0.16421 0.35577,-0.23536 0.57471,-0.23536 0.33935,0 0.57471,0.20798 0.57471,0.53639 0,0.30105 -0.23536,0.5364 -0.57471,0.5364 -0.30651,0 -0.52545,-0.12049 -0.68965,-0.3284 l -0.19158,0.20251 c 0.18609,0.24631 0.45431,0.39956 0.88123,0.39956 z m 0,0"
     style="fill:#241f1f;fill-opacity:1;fill-rule:nonzero;stroke:none;stroke-width:0.467069"
     aria-label="5" /><path
     id="path72"
     d="m 59.757052,82.647565 v 2.68564 m 2.26855,-5.16997 v 5.16997 m 2.26855,-7.78556 v 7.78556 m 2.26855,-10.14005 v 10.14005 m 2.26856,-13.47446 v 13.47446 m 2.26855,-16.54823 v 16.54823 m 2.26761,-18.64071 v 18.64071 m 2.26857,-20.92888 v 20.92888 m 2.26855,-22.0405 v 22.0405 m 2.26855,-22.49869 v 22.49869 m 2.26855,-22.0405 v 22.0405 m 2.26855,-20.92888 v 20.92888 m 2.26855,-18.64071 v 18.64071 m 2.26808,-16.54823 v 16.54823 m 2.26809,-13.47446 v 13.47446 m 2.26855,-10.14005 v 10.14005 m 2.26855,-7.78556 v 7.78556 m 2.26857,-5.16997 v 5.16997 m 2.268068,-2.68564 v 2.68564"
     style="fill:none;stroke:#c13439;stroke-width:0.467069;stroke-linecap:butt;stroke-linejoin:miter;stroke-miterlimit:4;stroke-dasharray:none;stroke-opacity:1" /><path
     id="path73"
     d="m 77.995452,62.518685 v -2.49591 h -0.27368 l -0.62397,0.64588 0.1861,0.19156 0.40504,-0.42145 v 2.07992 z m 0,0"
     style="fill:#241f1f;fill-opacity:1;fill-rule:nonzero;stroke:none;stroke-width:0.467069"
     aria-label="1" /><path
     id="path74"
     d="m 80.223162,89.914715 c 0.67871,0 0.95237,-0.68418 0.95237,-1.28627 0,-0.61303 -0.27366,-1.28625 -0.95237,-1.28625 -0.68419,0 -0.95239,0.67322 -0.95239,1.28625 0,0.60209 0.2682,1.28627 0.95239,1.28627 z m 0,-0.27367 c -0.4762,0 -0.63493,-0.51999 -0.63493,-1.0126 0,-0.49808 0.15873,-1.01259 0.63493,-1.01259 0.47618,0 0.63491,0.51451 0.63491,1.01259 0,0.49261 -0.15873,1.0126 -0.63491,1.0126 z m 0,0"
     style="fill:#241f1f;fill-opacity:1;fill-rule:nonzero;stroke:none;stroke-width:0.467069"
     aria-label="0" /><path
     id="path75"
     d="m 2.4142594,0.09453125 c 1.0664062,0 1.8867187,-0.66796875 1.8867187,-1.75781245 0,-1.1015625 -0.8085937,-1.7109375 -1.6875,-1.7109375 -0.5390625,0 -0.9960937,0.234375 -1.2539062,0.4804687 V -4.7453125 H 3.9611344 V -5.3429687 H 0.69160313 v 2.8828125 L 1.1837906,-2.284375 c 0.3632813,-0.3515625 0.7617188,-0.5039062 1.2304688,-0.5039062 0.7265625,0 1.2304687,0.4453125 1.2304687,1.1484375 0,0.6445312 -0.5039062,1.14843745 -1.2304687,1.14843745 -0.65625,0 -1.125,-0.2578125 -1.47656252,-0.70312495 l -0.41015625,0.4335937 c 0.3984375,0.52734375 0.97265627,0.85546875 1.88671877,0.85546875 z m 9.4453126,-0.09375 V -5.3429687 h -0.667969 v 2.296875 H 8.0744156 v -2.296875 H 7.4064469 V 7.8125e-4 H 8.0744156 V -2.4484375 H 11.191603 V 7.8125e-4 Z m 3.984375,0 v -0.515625 H 13.664259 L 15.808791,-3.409375 v -0.4570312 h -2.90625 v 0.5273437 h 2.121093 l -2.121093,2.87109375 v 0.46875 z m 0,0"
     style="fill:#241f1f;fill-opacity:1;fill-rule:nonzero;stroke:none"
     aria-label="5 Hz"
     transform="matrix(0.46706865,0,0,0.46706865,99.061352,89.900665)"
     clip-path="url(#clipPath76-1)" /><path
     id="path77"
     d="m 56.235712,88.885705 v -0.2463 h -1.86646 v 0.2463 z m 0,0"
     style="fill:#241f1f;fill-opacity:1;fill-rule:nonzero;stroke:none;stroke-width:0.467069"
     aria-label="‒" /><path
     id="path78"
     d="m 57.515132,89.884615 c 0.49808,0 0.88123,-0.31198 0.88123,-0.82102 0,-0.5145 -0.37767,-0.79912 -0.78818,-0.79912 -0.25178,0 -0.46524,0.10949 -0.58566,0.22441 v -0.86481 h 1.21511 v -0.27914 h -1.5271 v 1.34646 l 0.22989,0.0821 c 0.16967,-0.16421 0.35577,-0.23536 0.57471,-0.23536 0.33935,0 0.57471,0.20799 0.57471,0.53639 0,0.30105 -0.23536,0.53641 -0.57471,0.53641 -0.30651,0 -0.52545,-0.12035 -0.68965,-0.32841 l -0.19158,0.20251 c 0.18609,0.24632 0.45431,0.39957 0.88123,0.39957 z m 0,0"
     style="fill:#241f1f;fill-opacity:1;fill-rule:nonzero;stroke:none;stroke-width:0.467069"
     aria-label="5" /><path
     id="path79"
     d="m 80.175262,127.4257 c 0.67872,0 0.95238,-0.68417 0.95238,-1.28625 0,-0.61303 -0.27366,-1.28627 -0.95238,-1.28627 -0.68418,0 -0.95238,0.67324 -0.95238,1.28627 0,0.60208 0.2682,1.28625 0.95238,1.28625 z m 0,-0.27366 c -0.47618,0 -0.63491,-0.51998 -0.63491,-1.01259 0,-0.49809 0.15873,-1.01259 0.63491,-1.01259 0.47619,0 0.63492,0.5145 0.63492,1.01259 0,0.49261 -0.15873,1.01259 -0.63492,1.01259 z m 0,0"
     style="fill:#241f1f;fill-opacity:1;fill-rule:nonzero;stroke:none;stroke-width:0.467069"
     aria-label="0" /><path
     id="path80"
     d="m 78.705652,112.2738 c 0.6787,0 0.95237,-0.68418 0.95237,-1.28627 0,-0.61303 -0.27367,-1.28625 -0.95237,-1.28625 -0.68419,0 -0.95239,0.67322 -0.95239,1.28625 0,0.60209 0.2682,1.28627 0.95239,1.28627 z m 0,-0.27367 c -0.4762,0 -0.63493,-0.51997 -0.63493,-1.0126 0,-0.49808 0.15873,-1.01259 0.63493,-1.01259 0.47619,0 0.63492,0.51451 0.63492,1.01259 0,0.49263 -0.15873,1.0126 -0.63492,1.0126 z m 1.46003,0.2682 c 0.1095,0 0.20253,-0.0931 0.20253,-0.208 0,-0.10949 -0.0931,-0.20251 -0.20253,-0.20251 -0.11492,0 -0.20798,0.0931 -0.20798,0.20251 0,0.11492 0.0931,0.208 0.20798,0.208 z m 0,0"
     style="fill:#241f1f;fill-opacity:1;fill-rule:nonzero;stroke:none;stroke-width:0.467069"
     aria-label="0." /><path
     id="path81"
     d="m 82.508322,112.23001 v -0.27914 h -1.22605 c 0.69513,-0.54735 1.21511,-1.01259 1.21511,-1.52162 0,-0.49262 -0.42693,-0.72797 -0.83744,-0.72797 -0.35577,0 -0.67871,0.1423 -0.87028,0.38861 l 0.19157,0.20251 c 0.14779,-0.19156 0.37767,-0.31746 0.67871,-0.31746 0.25726,0 0.51999,0.13685 0.51999,0.45431 0,0.4324 -0.48715,0.84838 -1.3848,1.55445 v 0.24631 z m 0,0"
     style="fill:#241f1f;fill-opacity:1;fill-rule:nonzero;stroke:none;stroke-width:0.467069"
     aria-label="2" /><path
     id="path82"
     d="m 2.4142594,0.09454688 c 1.0664062,0 1.8867187,-0.66796875 1.8867187,-1.75781248 0,-1.1015625 -0.8085937,-1.7109375 -1.6875,-1.7109375 -0.5390625,0 -0.9960937,0.234375 -1.2539062,0.4804687 V -4.7452969 H 3.9611344 V -5.3429531 H 0.69160313 v 2.8828125 l 0.49218747,0.1757812 c 0.3632813,-0.3515625 0.7617188,-0.5039062 1.2304688,-0.5039062 0.7265625,0 1.2304687,0.4453125 1.2304687,1.1484375 0,0.64453123 -0.5039062,1.14843748 -1.2304687,1.14843748 -0.65625,0 -1.125,-0.2578125 -1.47656252,-0.70312498 L 0.52754063,-0.76092187 C 0.92597813,-0.23357812 1.5001969,0.09454688 2.4142594,0.09454688 Z M 11.859572,7.96875e-4 V -5.3429531 h -0.667969 v 2.296875 H 8.0744156 v -2.296875 H 7.4064469 V 7.96875e-4 H 8.0744156 V -2.4484219 H 11.191603 V 7.96875e-4 Z m 3.984375,0 V -0.51482812 h -2.179688 l 2.144532,-2.89453128 v -0.4570312 h -2.90625 v 0.5273437 h 2.121093 l -2.121093,2.87109378 V 7.96875e-4 Z m 0,0"
     style="fill:#241f1f;fill-opacity:1;fill-rule:nonzero;stroke:none"
     aria-label="5 Hz"
     transform="matrix(0.46706865,0,0,0.46706865,99.061352,127.40207)"
     clip-path="url(#clipPath83-5)" /><path
     id="path84"
     d="m 56.235712,126.4268 v -0.24631 h -1.86646 v 0.24631 z m 0,0"
     style="fill:#241f1f;fill-opacity:1;fill-rule:nonzero;stroke:none;stroke-width:0.467069"
     aria-label="‒" /><path
     id="path85"
     d="m 57.515132,127.42434 c 0.49808,0 0.88123,-0.31198 0.88123,-0.82101 0,-0.51451 -0.37767,-0.79914 -0.78818,-0.79914 -0.25178,0 -0.46524,0.10949 -0.58566,0.22442 v -0.86481 h 1.21511 v -0.27915 h -1.5271 v 1.34648 l 0.22989,0.0821 c 0.16967,-0.16421 0.35577,-0.23536 0.57471,-0.23536 0.33935,0 0.57471,0.20799 0.57471,0.53639 0,0.30105 -0.23536,0.53641 -0.57471,0.53641 -0.30651,0 -0.52545,-0.12035 -0.68965,-0.32841 l -0.19158,0.20251 c 0.18609,0.24632 0.45431,0.39957 0.88123,0.39957 z m 0,0"
     style="fill:#241f1f;fill-opacity:1;fill-rule:nonzero;stroke:none;stroke-width:0.467069"
     aria-label="5" /><path
     id="path86"
     d="M 54.712242,122.91682 H 105.7166 M 54.701502,85.333205 H 105.7054 M 54.701502,47.545485 H 105.7054"
     style="fill:none;stroke:#241f1f;stroke-width:0.233534;stroke-linecap:butt;stroke-linejoin:miter;stroke-miterlimit:4;stroke-dasharray:none;stroke-opacity:1" /><path
     id="path87"
     d="M 0,0 C 0.909,0 1.647,0.737 1.647,1.647 1.647,2.556 0.909,3.294 0,3.294 -0.909,3.294 -1.646,2.556 -1.646,1.647 -1.646,0.737 -0.909,0 0,0"
     style="fill:#c13439;fill-opacity:1;fill-rule:nonzero;stroke:none"
     transform="matrix(0.46706865,0,0,-0.46706865,102.8474,48.314745)"
     clip-path="url(#clipPath88-7)" /><path
     id="path89"
     d="M 0,0 C 0.909,0 1.646,0.737 1.646,1.647 1.646,2.556 0.909,3.293 0,3.293 -0.909,3.293 -1.647,2.556 -1.647,1.647 -1.647,0.737 -0.909,0 0,0"
     style="fill:#c13439;fill-opacity:1;fill-rule:nonzero;stroke:none"
     transform="matrix(0.46706865,0,0,-0.46706865,57.463272,48.304945)"
     clip-path="url(#clipPath90-1)" /><path
     id="path91"
     d="M 0,0 C 0.909,0 1.646,0.737 1.646,1.647 1.646,2.556 0.909,3.293 0,3.293 -0.91,3.293 -1.648,2.556 -1.648,1.647 -1.648,0.737 -0.91,0 0,0"
     style="fill:#c13439;fill-opacity:1;fill-rule:nonzero;stroke:none"
     transform="matrix(0.46706865,0,0,-0.46706865,102.85768,86.102425)"
     clip-path="url(#clipPath92-2)" /><path
     id="path93"
     d="M 0,0 C 0.909,0 1.646,0.737 1.646,1.648 1.646,2.557 0.909,3.294 0,3.294 -0.91,3.294 -1.648,2.557 -1.648,1.648 -1.648,0.737 -0.91,0 0,0"
     style="fill:#c13439;fill-opacity:1;fill-rule:nonzero;stroke:none"
     transform="matrix(0.46706865,0,0,-0.46706865,102.85768,123.69771)"
     clip-path="url(#clipPath94-2)" /><path
     id="path95"
     d="M 0,0 C 0.909,0 1.646,0.737 1.646,1.646 1.646,2.556 0.909,3.293 0,3.293 -0.909,3.293 -1.647,2.556 -1.647,1.646 -1.647,0.737 -0.909,0 0,0"
     style="fill:#c13439;fill-opacity:1;fill-rule:nonzero;stroke:none"
     transform="matrix(0.46706865,0,0,-0.46706865,57.444592,123.68744)"
     clip-path="url(#clipPath96-1)" /><path
     id="path97"
     d="M 0,0 C 0.909,0 1.647,0.737 1.647,1.646 1.647,2.556 0.909,3.293 0,3.293 -0.909,3.293 -1.647,2.556 -1.647,1.646 -1.647,0.737 -0.909,0 0,0"
     style="fill:#c13439;fill-opacity:1;fill-rule:nonzero;stroke:none"
     transform="matrix(0.46706865,0,0,-0.46706865,57.453462,86.112235)"
     clip-path="url(#clipPath98-8)" /><path
     id="path99"
     d="M 0,0 V -18.963 M -1.058,0 V -18.963 M -2.116,0 V -18.963 M -3.175,0 V -18.963 M -4.234,0 V -18.963 M -5.292,0 V -18.963 M -6.35,0 V -18.963 M -7.408,0 V -18.963 M -8.467,0 V -18.963 M -9.525,0 V -18.963 M -10.583,0 V -18.963 M -11.642,0 V -18.963 M -12.7,0 V -18.963 M -13.758,0 V -18.963 M -14.817,0 V -18.963 M -15.875,0 V -18.963 M -16.933,0 V -18.963 M -17.991,0 V -18.963 M -19.05,0 V -18.963 M -20.109,0 V -18.963 M -21.167,0 V -18.963 M -22.225,0 V -18.963 M -23.283,0 V -18.963 M -24.342,0 V -18.963 M -25.4,0 V -18.963 M -26.459,0 V -18.963 M -27.517,0 V -18.963 M -28.575,0 V -18.963 M -29.634,0 V -18.963 M -30.692,0 V -18.963 M -31.75,0 V -18.963 M -32.809,0 V -18.963 M -33.867,0 V -18.963 M -34.926,0 V -18.963 M -35.984,0 V -18.963 M -37.042,0 V -18.963 M -38.101,0 V -18.963 M -39.159,0 V -18.963 M -40.217,0 V -18.963 M -41.276,0 V -18.963 M -42.334,0 V -18.963 M -43.392,0 V -18.963 M -44.451,0 V -18.963 M -45.509,0 V -18.963 M -46.568,0 V -18.963 M -47.626,0 V -18.963 M -48.684,0 V -18.963 M 1.058,0 V -18.963 M 2.117,0 V -18.963 M 3.176,0 V -18.963 M 4.234,0 V -18.963 M 5.292,0 V -18.963 M 6.35,0 V -18.963 M 7.409,0 V -18.963 M 8.468,0 V -18.963 M 9.525,0 V -18.963 M 10.584,0 V -18.963 M 11.642,0 V -18.963 M 12.701,0 V -18.963 M 13.759,0 V -18.963 M 14.817,0 V -18.963 M 15.876,0 V -18.963 M 16.934,0 V -18.963 M 17.992,0 V -18.963 M 19.051,0 V -18.963 M 20.109,0 V -18.963 M 21.167,0 V -18.963 M 22.225,0 V -18.963 M 23.284,0 V -18.963 M 24.343,0 V -18.963 M 25.401,0 V -18.963 M 26.46,0 V -18.963 M 27.517,0 V -18.963 M 28.576,0 V -18.963 M 29.635,0 V -18.963 M 30.692,0 V -18.963 M 31.751,0 V -18.963 M 32.809,0 V -18.963 M 33.868,0 V -18.963 M 34.927,0 V -18.963 M 35.984,0 V -18.963 M 37.043,0 V -18.963 M 38.101,0 V -18.963 M 39.16,0 V -18.963 M 40.218,0 V -18.963 M 41.276,0 V -18.963 M 42.335,0 V -18.963 M 43.393,0 V -18.963 M 44.452,0 V -18.963 M 45.511,0 V -18.963 M 46.568,0 V -18.963 M 47.626,0 V -18.963 M 48.684,0 v -18.963"
     style="fill:none;stroke:#c13439;stroke-width:0.5;stroke-linecap:butt;stroke-linejoin:miter;stroke-miterlimit:4;stroke-dasharray:none;stroke-opacity:1"
     transform="matrix(0.46706865,0,0,-0.46706865,80.183362,114.05979)"
     clip-path="url(#clipPath100-7)" /></svg>
