<?xml version="1.0" encoding="UTF-8" standalone="no"?>
<!-- Created with Inkscape (http://www.inkscape.org/) -->

<svg
   width="57.345692mm"
   height="92.604134mm"
   viewBox="0 0 57.345693 92.604135"
   version="1.1"
   id="svg1"
   xml:space="preserve"
   xmlns="http://www.w3.org/2000/svg"
   xmlns:svg="http://www.w3.org/2000/svg"><defs
     id="defs1"><clipPath
       clipPathUnits="userSpaceOnUse"
       id="clipPath168-1"><path
         d="M 93,211.339 H 227.051 V 409.955 H 93 Z"
         transform="translate(6.0000002e-4)"
         id="path168-1" /></clipPath><clipPath
       clipPathUnits="userSpaceOnUse"
       id="clipPath166-5"><path
         d="M 93,211.339 H 227.051 V 409.955 H 93 Z"
         transform="translate(-210.3604,-240.787)"
         id="path166-2" /></clipPath><clipPath
       clipPathUnits="userSpaceOnUse"
       id="clipPath164-7"><path
         d="M 93,211.339 H 227.051 V 409.955 H 93 Z"
         transform="translate(-196.12041,-239.173)"
         id="path164-6" /></clipPath><clipPath
       clipPathUnits="userSpaceOnUse"
       id="clipPath162-1"><path
         d="M 93,211.339 H 227.051 V 409.955 H 93 Z"
         transform="translate(-200.28841,-293.53401)"
         id="path162-4" /></clipPath><clipPath
       clipPathUnits="userSpaceOnUse"
       id="clipPath160-2"><path
         d="M 93,211.339 H 227.051 V 409.955 H 93 Z"
         transform="translate(-214.52841,-295.147)"
         id="path160-3" /></clipPath><clipPath
       clipPathUnits="userSpaceOnUse"
       id="clipPath158-2"><path
         d="M 93,211.339 H 227.051 V 409.955 H 93 Z"
         transform="translate(-109.0654,-240.787)"
         id="path158-2" /></clipPath><clipPath
       clipPathUnits="userSpaceOnUse"
       id="clipPath156-1"><path
         d="M 93,211.339 H 227.051 V 409.955 H 93 Z"
         transform="translate(-123.3066,-239.173)"
         id="path156-6" /></clipPath><clipPath
       clipPathUnits="userSpaceOnUse"
       id="clipPath154-8"><path
         d="M 93,211.339 H 227.051 V 409.955 H 93 Z"
         transform="translate(-119.1391,-293.53401)"
         id="path154-5" /></clipPath><clipPath
       clipPathUnits="userSpaceOnUse"
       id="clipPath152-7"><path
         d="M 93,211.339 H 227.051 V 409.955 H 93 Z"
         transform="translate(-104.89791,-295.147)"
         id="path152-6" /></clipPath><clipPath
       clipPathUnits="userSpaceOnUse"
       id="clipPath150-1"><path
         d="M 93,211.339 H 227.051 V 409.955 H 93 Z"
         transform="translate(-224.46391,-242.77201)"
         id="path150-8" /></clipPath><clipPath
       clipPathUnits="userSpaceOnUse"
       id="clipPath148-9"><path
         d="M 93,211.339 H 227.051 V 409.955 H 93 Z"
         transform="translate(-224.46391,-287.722)"
         id="path148-2" /></clipPath><clipPath
       clipPathUnits="userSpaceOnUse"
       id="clipPath146-7"><path
         d="M 93,211.339 H 227.051 V 409.955 H 93 Z"
         transform="translate(-224.46391,-244.76001)"
         id="path146-9" /></clipPath><clipPath
       clipPathUnits="userSpaceOnUse"
       id="clipPath144-5"><path
         d="M 93,211.339 H 227.051 V 409.955 H 93 Z"
         transform="translate(-95.088902,-242.77201)"
         id="path144-4" /></clipPath><clipPath
       clipPathUnits="userSpaceOnUse"
       id="clipPath142-3"><path
         d="M 93,211.339 H 227.051 V 409.955 H 93 Z"
         transform="translate(-95.088902,-287.722)"
         id="path142-1" /></clipPath><clipPath
       clipPathUnits="userSpaceOnUse"
       id="clipPath140-2"><path
         d="M 93,211.339 H 227.051 V 409.955 H 93 Z"
         transform="matrix(1,0,0,-1,-161.589,213.51501)"
         id="path140-3" /></clipPath><clipPath
       clipPathUnits="userSpaceOnUse"
       id="clipPath138-3"><path
         d="M 93,211.339 H 227.051 V 409.955 H 93 Z"
         transform="matrix(1,0,0,-1,-154.605,213.51501)"
         id="path138-4" /></clipPath><clipPath
       clipPathUnits="userSpaceOnUse"
       id="clipPath128-1"><path
         d="M 93,211.339 H 227.051 V 409.955 H 93 Z"
         transform="matrix(1,0,0,-1,-223.522,262.32001)"
         id="path128-1" /></clipPath><clipPath
       clipPathUnits="userSpaceOnUse"
       id="clipPath119-3"><path
         d="M 93,211.339 H 227.051 V 409.955 H 93 Z"
         transform="translate(-95.088602,-244.76031)"
         id="path119-8" /></clipPath><clipPath
       clipPathUnits="userSpaceOnUse"
       id="clipPath117-7"><path
         d="M 93,211.339 H 227.051 V 409.955 H 93 Z"
         transform="translate(-127.3644,-344.35711)"
         id="path117-4" /></clipPath><clipPath
       clipPathUnits="userSpaceOnUse"
       id="clipPath115-2"><path
         d="M 93,211.339 H 227.051 V 409.955 H 93 Z"
         transform="translate(-141.6052,-342.74341)"
         id="path115-7" /></clipPath><clipPath
       clipPathUnits="userSpaceOnUse"
       id="clipPath113-7"><path
         d="M 93,211.339 H 227.051 V 409.955 H 93 Z"
         transform="translate(-137.4382,-397.10321)"
         id="path113-9" /></clipPath><clipPath
       clipPathUnits="userSpaceOnUse"
       id="clipPath111-3"><path
         d="M 93,211.339 H 227.051 V 409.955 H 93 Z"
         transform="translate(-123.19701,-398.71701)"
         id="path111-1" /></clipPath><clipPath
       clipPathUnits="userSpaceOnUse"
       id="clipPath107-9"><path
         d="M 93,211.339 H 227.051 V 409.955 H 93 Z"
         transform="translate(-113.388,-346.34181)"
         id="path107-8" /></clipPath><clipPath
       clipPathUnits="userSpaceOnUse"
       id="clipPath105-6"><path
         d="M 93,211.339 H 227.051 V 409.955 H 93 Z"
         transform="translate(-113.388,-391.29201)"
         id="path105-5" /></clipPath><clipPath
       clipPathUnits="userSpaceOnUse"
       id="clipPath100-0"><path
         d="M 93,211.339 H 227.051 V 409.955 H 93 Z"
         transform="matrix(1,0,0,-1,-131.326,403.28601)"
         id="path100-2" /></clipPath></defs><path
     id="path95"
     d="m 11.773777,24.274224 h 26.05358 V 6.2396102 h -26.05358"
     style="fill:none;stroke:#275b8d;stroke-width:0.201279;stroke-linecap:butt;stroke-linejoin:miter;stroke-miterlimit:4;stroke-dasharray:none;stroke-opacity:1" /><path
     id="path96"
     d="m 12.576807,22.0271 v -0.212287 h -1.60867 V 22.0271 Z m 0,0"
     style="fill:#241f1f;fill-opacity:1;fill-rule:nonzero;stroke:none;stroke-width:0.402559"
     aria-label="‒" /><path
     id="path97"
     d="m 12.485987,9.3052312 v -0.169829 h -0.61799 v -0.665165 h -0.18398 v 0.665165 h -0.61799 v 0.169829 h 0.61799 v 0.684035 h 0.18398 v -0.684035 z m 0,0"
     style="fill:#241f1f;fill-opacity:1;fill-rule:nonzero;stroke:none;stroke-width:0.402559"
     aria-label="+" /><path
     id="path98"
     d="m 12.313797,17.129175 0.83029,-2.151171 h -0.52365 l -0.58968,1.655835 -0.59913,-1.655835 h -0.51892 l 0.83028,2.151171 z m 0,0"
     style="fill:#241f1f;fill-opacity:1;fill-rule:nonzero;stroke:none;stroke-width:0.402559"
     aria-label="V" /><path
     id="path99"
     d="M 1.6642344,-1.328125e-4 V -5.3438828 H 0.52751562 v 5.3437499875 z m 0,0"
     style="fill:#241f1f;fill-opacity:1;fill-rule:nonzero;stroke:none"
     aria-label="I"
     transform="matrix(0.40255834,0,0,0.40255834,18.994867,2.1512252)"
     clip-path="url(#clipPath100-0)" /><path
     id="path101"
     d="m 19.664807,30.73321 v -2.151172 h -0.45759 v 2.151172 z m 0,0"
     style="fill:#241f1f;fill-opacity:1;fill-rule:nonzero;stroke:none;stroke-width:0.402559"
     aria-label="I" /><path
     id="path102"
     d="m 28.997177,36.829375 c -0.20757,-0.405703 -0.33495,-0.778384 -0.33495,-1.31146 0,-0.537792 0.12738,-0.905756 0.33495,-1.316177 l -0.14624,-0.108497 c -0.28776,0.400985 -0.45288,0.905757 -0.45288,1.424679 0,0.518923 0.16512,1.02841 0.45288,1.42468 z m 1.51667,-0.528358 v -1.070868 c 0,-0.377398 -0.27361,-0.523641 -0.60383,-0.523641 -0.25476,0 -0.45289,0.08491 -0.62272,0.259462 l 0.1132,0.165112 c 0.13681,-0.146242 0.29249,-0.217003 0.47647,-0.217003 0.22645,0 0.39155,0.122654 0.39155,0.330223 v 0.278331 c -0.12266,-0.141524 -0.30191,-0.212287 -0.51421,-0.212287 -0.26418,0 -0.54251,0.165112 -0.54251,0.514206 0,0.339658 0.27833,0.514205 0.54251,0.514205 0.2123,0 0.38684,-0.07549 0.51421,-0.217004 v 0.179264 z m -0.66988,-0.136807 c -0.22644,0 -0.38684,-0.141525 -0.38684,-0.33494 0,-0.202852 0.1604,-0.344377 0.38684,-0.344377 0.16983,0 0.33494,0.06605 0.42458,0.193417 v 0.292483 c -0.0897,0.13209 -0.25475,0.193417 -0.42458,0.193417 z m 1.10743,0.778385 c 0.29248,-0.396269 0.45759,-0.905757 0.45759,-1.42468 0,-0.518922 -0.16511,-1.023693 -0.45759,-1.424678 l -0.14152,0.108496 c 0.20756,0.410422 0.33493,0.778385 0.33493,1.316178 0,0.533075 -0.12737,0.905756 -0.33493,1.31146 z m 0,0"
     style="fill:#241f1f;fill-opacity:1;fill-rule:nonzero;stroke:none;stroke-width:0.402559"
     aria-label="(a)" /><path
     id="path103"
     d="M 48.406577,3.7389272 H 27.473547 V 26.684753 h 20.93303 z"
     style="fill:#ffffff;fill-opacity:1;fill-rule:nonzero;stroke:#275b8d;stroke-width:0.201279;stroke-linecap:butt;stroke-linejoin:miter;stroke-miterlimit:4;stroke-dasharray:none;stroke-opacity:1" /><path
     id="path104"
     d="M 0,0 C 1.016,0 1.839,0.823 1.839,1.838 1.839,2.854 1.016,3.677 0,3.677 -1.016,3.677 -1.839,2.854 -1.839,1.838 -1.839,0.823 -1.016,0 0,0"
     style="fill:#ffffff;fill-opacity:1;fill-rule:nonzero;stroke:#c13439;stroke-width:0.5;stroke-linecap:butt;stroke-linejoin:miter;stroke-miterlimit:4;stroke-dasharray:none;stroke-opacity:1"
     transform="matrix(0.40255834,0,0,-0.40255834,11.773777,6.9795102)"
     clip-path="url(#clipPath105-6)" /><path
     id="path106"
     d="M 0,0 C 1.016,0 1.839,0.823 1.839,1.838 1.839,2.854 1.016,3.677 0,3.677 -1.016,3.677 -1.839,2.854 -1.839,1.838 -1.839,0.823 -1.016,0 0,0"
     style="fill:#ffffff;fill-opacity:1;fill-rule:nonzero;stroke:#c13439;stroke-width:0.5;stroke-linecap:butt;stroke-linejoin:miter;stroke-miterlimit:4;stroke-dasharray:none;stroke-opacity:1"
     transform="matrix(0.40255834,0,0,-0.40255834,11.773777,25.07459)"
     clip-path="url(#clipPath107-9)" /><path
     id="path108"
     d="m 33.729987,14.10291 v -0.240591 h -1.00012 v -1.91058 h -0.26889 v 2.151171 z m 0.48118,-1.77849 c 0.0944,0 0.16511,-0.07076 0.16511,-0.160394 0,-0.08963 -0.0707,-0.165112 -0.16511,-0.165112 -0.0849,0 -0.16039,0.07549 -0.16039,0.165112 0,0.08963 0.0754,0.160394 0.16039,0.160394 z m 0.12265,1.77849 v -1.556769 h -0.24059 v 1.556769 z m 1.77731,0 v -1.094455 c 0,-0.33494 -0.16983,-0.500052 -0.49533,-0.500052 -0.23116,0 -0.44345,0.136806 -0.55667,0.264178 v -0.22644 h -0.24059 v 1.556769 h 0.24059 v -1.136912 c 0.0944,-0.127372 0.27361,-0.240592 0.46232,-0.240592 0.21228,0 0.34909,0.08491 0.34909,0.35853 v 1.018974 z m 1.18408,0.03774 c 0.25475,0 0.46233,-0.08491 0.618,-0.235875 l -0.1132,-0.160393 c -0.12264,0.127372 -0.30663,0.198134 -0.48118,0.198134 -0.33494,0 -0.54251,-0.24531 -0.56138,-0.537793 h 1.25956 v -0.06132 c 0,-0.467031 -0.27832,-0.834994 -0.74536,-0.834994 -0.44816,0 -0.76895,0.363246 -0.76895,0.816123 0,0.485901 0.33023,0.816125 0.79254,0.816125 z m 0.48592,-0.915191 h -1.02371 c 0.0141,-0.235875 0.17927,-0.518923 0.50949,-0.518923 0.35382,0 0.50949,0.287766 0.51422,0.518923 z m 1.84216,0.877451 v -1.070868 c 0,-0.377399 -0.27361,-0.52364 -0.60384,-0.52364 -0.25473,0 -0.45287,0.08491 -0.6227,0.259462 l 0.1132,0.165111 c 0.13681,-0.146242 0.29248,-0.217004 0.47646,-0.217004 0.22644,0 0.39155,0.122655 0.39155,0.330224 v 0.278331 c -0.12265,-0.141524 -0.30192,-0.212287 -0.5142,-0.212287 -0.26417,0 -0.54251,0.165112 -0.54251,0.514206 0,0.339659 0.27834,0.514205 0.54251,0.514205 0.21228,0 0.38683,-0.07548 0.5142,-0.217004 v 0.179264 z m -0.66988,-0.136809 c -0.22643,0 -0.38683,-0.141526 -0.38683,-0.334942 0,-0.202851 0.1604,-0.344377 0.38683,-0.344377 0.16983,0 0.33495,0.06605 0.42457,0.193418 v 0.292483 c -0.0896,0.132089 -0.25474,0.193418 -0.42457,0.193418 z m 1.39048,0.136806 v -1.10389 c 0.0707,-0.122655 0.27833,-0.245308 0.42457,-0.245308 0.0378,0 0.0661,0.0047 0.0944,0.0095 v -0.250027 c -0.21229,0 -0.39155,0.122653 -0.51893,0.283048 v -0.250026 h -0.24059 v 1.556769 z m 0,0"
     style="fill:#241f1f;fill-opacity:1;fill-rule:nonzero;stroke:none;stroke-width:0.402559"
     aria-label="Linear" /><path
     id="path109"
     d="m 33.744137,18.129279 v -1.094455 c 0,-0.33494 -0.16983,-0.500052 -0.49534,-0.500052 -0.23116,0 -0.44344,0.136806 -0.55667,0.264178 v -0.22644 h -0.24059 v 1.556769 h 0.24059 v -1.136912 c 0.0944,-0.127372 0.27362,-0.240592 0.46231,-0.240592 0.2123,0 0.34911,0.08491 0.34911,0.358529 v 1.018975 z m 1.18408,0.03774 c 0.25474,0 0.46231,-0.08491 0.618,-0.235875 l -0.11321,-0.160393 c -0.12265,0.127372 -0.30663,0.198133 -0.48118,0.198133 -0.33493,0 -0.54251,-0.245309 -0.56138,-0.537792 h 1.25957 v -0.06133 c 0,-0.467032 -0.27833,-0.834994 -0.74536,-0.834994 -0.44816,0 -0.76895,0.363245 -0.76895,0.816123 0,0.485901 0.33022,0.816125 0.79253,0.816125 z m 0.4859,-0.915191 h -1.0237 c 0.0141,-0.235875 0.17927,-0.518924 0.5095,-0.518924 0.3538,0 0.50949,0.287767 0.5142,0.518924 z m 1.02134,0.915191 c 0.14152,0 0.22644,-0.04246 0.28776,-0.09907 l -0.0707,-0.179265 c -0.033,0.03303 -0.0944,0.06132 -0.1651,0.06132 -0.10384,0 -0.15568,-0.0802 -0.15568,-0.198134 v -0.967083 h 0.31607 v -0.212284 h -0.31607 V 16.14793 h -0.24531 v 0.424573 h -0.25475 v 0.212287 h 0.25475 v 1.018975 c 0,0.231158 0.11793,0.363247 0.34909,0.363247 z m 2.13937,-0.03774 0.49534,-1.556769 h -0.25002 l -0.38212,1.240699 -0.4057,-1.240699 h -0.20757 l -0.41043,1.240699 -0.38211,-1.240699 h -0.25002 l 0.49533,1.556769 h 0.2453 l 0.40572,-1.250132 0.40569,1.250132 z m 1.45416,0.03774 c 0.47648,0 0.77368,-0.367964 0.77368,-0.816125 0,-0.452878 -0.2972,-0.816123 -0.77368,-0.816123 -0.47174,0 -0.76894,0.363245 -0.76894,0.816123 0,0.448161 0.2972,0.816125 0.76894,0.816125 z m 0,-0.217004 c -0.33022,0 -0.51891,-0.283049 -0.51891,-0.599121 0,-0.31607 0.18869,-0.599119 0.51891,-0.599119 0.33495,0 0.51893,0.283049 0.51893,0.599119 0,0.316072 -0.18398,0.599121 -0.51893,0.599121 z m 1.40345,0.179264 v -1.103891 c 0.0707,-0.122654 0.27834,-0.245308 0.42458,-0.245308 0.0378,0 0.0661,0.0047 0.0944,0.0095 v -0.250027 c -0.21228,0 -0.39155,0.122654 -0.51892,0.283048 v -0.250026 h -0.24059 v 1.556769 z m 2.19009,0 -0.68875,-0.849146 0.68875,-0.707623 h -0.30662 l -0.82085,0.830277 v -1.424679 h -0.24059 v 2.151171 h 0.24059 v -0.44344 l 0.25947,-0.254744 0.56138,0.698187 z m 0,0"
     style="fill:#241f1f;fill-opacity:1;fill-rule:nonzero;stroke:none;stroke-width:0.402559"
     aria-label="network" /><path
     id="path110"
     d="M 0,0 H 15.356"
     style="fill:none;stroke:#c13439;stroke-width:0.75;stroke-linecap:butt;stroke-linejoin:miter;stroke-miterlimit:4;stroke-dasharray:none;stroke-opacity:1"
     transform="matrix(0.40255834,0,0,-0.40255834,15.722457,3.9905142)"
     clip-path="url(#clipPath111-3)" /><path
     id="path112"
     d="M 0,0 6.098,1.634 0,3.268 Z"
     style="fill:#c13439;fill-opacity:1;fill-rule:nonzero;stroke:none"
     transform="matrix(0.40255834,0,0,-0.40255834,21.455387,4.6401652)"
     clip-path="url(#clipPath113-7)" /><path
     id="path114"
     d="M 0,0 H -15.356"
     style="fill:none;stroke:#c13439;stroke-width:0.75;stroke-linecap:butt;stroke-linejoin:miter;stroke-miterlimit:4;stroke-dasharray:none;stroke-opacity:1"
     transform="matrix(0.40255834,0,0,-0.40255834,23.132847,26.523157)"
     clip-path="url(#clipPath115-2)" /><path
     id="path116"
     d="M 0,0 -6.098,-1.634 0,-3.268 Z"
     style="fill:#c13439;fill-opacity:1;fill-rule:nonzero;stroke:none"
     transform="matrix(0.40255834,0,0,-0.40255834,17.400087,25.873548)"
     clip-path="url(#clipPath117-7)" /><path
     id="path118"
     d="M 0,0 H 64.72 V 44.8 H 0"
     style="fill:none;stroke:#275b8d;stroke-width:0.5;stroke-linecap:butt;stroke-linejoin:miter;stroke-miterlimit:4;stroke-dasharray:none;stroke-opacity:1"
     transform="matrix(0.40255834,0,0,-0.40255834,4.4071973,65.967074)"
     clip-path="url(#clipPath119-3)" /><path
     id="path120"
     d="m 5.2517373,63.694251 v -0.212289 h -1.60867 v 0.212289 z m 0,0"
     style="fill:#241f1f;fill-opacity:1;fill-rule:nonzero;stroke:none;stroke-width:0.402559"
     aria-label="‒" /><path
     id="path121"
     d="m 5.1113973,50.99479 v -0.16983 h -0.618 v -0.665164 h -0.18398 v 0.665164 h -0.61799 v 0.16983 h 0.61799 v 0.684035 h 0.18398 V 50.99479 Z m 0,0"
     style="fill:#241f1f;fill-opacity:1;fill-rule:nonzero;stroke:none;stroke-width:0.402559"
     aria-label="+" /><path
     id="path122"
     d="m 5.0712973,58.425999 0.83027,-2.151171 h -0.52363 l -0.5897,1.655836 -0.59911,-1.655836 h -0.51892 l 0.83027,2.151171 z m 0,0"
     style="fill:#241f1f;fill-opacity:1;fill-rule:nonzero;stroke:none;stroke-width:0.402559"
     aria-label="V" /><path
     id="path123"
     d="m 6.1964173,59.232689 v -1.608661 h -0.17926 l -0.40099,0.415138 0.11793,0.122655 0.25947,-0.273614 v 1.344482 z m 0,0"
     style="fill:#241f1f;fill-opacity:1;fill-rule:nonzero;stroke:none;stroke-width:0.402559"
     aria-label="1" /><path
     id="path124"
     d="m 57.296157,63.716651 v -0.212282 h -1.60865 v 0.212282 z m 0,0"
     style="fill:#241f1f;fill-opacity:1;fill-rule:nonzero;stroke:none;stroke-width:0.402559"
     aria-label="‒" /><path
     id="path125"
     d="m 57.192377,50.99479 v -0.16983 h -0.61799 v -0.665164 h -0.18398 v 0.665164 h -0.61799 v 0.16983 h 0.61799 v 0.684035 h 0.18398 V 50.99479 Z m 0,0"
     style="fill:#241f1f;fill-opacity:1;fill-rule:nonzero;stroke:none;stroke-width:0.402559"
     aria-label="+" /><path
     id="path126"
     d="m 55.615557,58.091059 0.83027,-2.151171 h -0.52363 l -0.58969,1.655836 -0.59912,-1.655836 h -0.51892 l 0.83027,2.151171 z m 0,0"
     style="fill:#241f1f;fill-opacity:1;fill-rule:nonzero;stroke:none;stroke-width:0.402559"
     aria-label="V" /><path
     id="path127"
     d="m 3.07175,-0.00128906 v -0.4453125 H 1.1147188 C 2.228,-1.3255078 3.0600313,-2.0755078 3.0600313,-2.8841016 c 0,-0.796875 -0.6796875,-1.1835937 -1.3476563,-1.1835937 -0.5625,0 -1.08984375,0.234375 -1.39453125,0.6328125 l 0.3046875,0.3164062 c 0.234375,-0.2929687 0.60937505,-0.5039062 1.08984375,-0.5039062 0.4101563,0 0.8320313,0.2226562 0.8320313,0.7382812 0,0.6914063 -0.7734375,1.3476563 -2.2148438,2.48437504 v 0.3984375 z m 0,0"
     style="fill:#241f1f;fill-opacity:1;fill-rule:nonzero;stroke:none"
     aria-label="2"
     transform="matrix(0.40255834,0,0,0.40255834,56.109127,58.898268)"
     clip-path="url(#clipPath128-1)" /><path
     id="path129"
     d="m 11.889227,43.844269 v -2.151171 h -0.4576 v 2.151171 z m 0,0"
     style="fill:#241f1f;fill-opacity:1;fill-rule:nonzero;stroke:none;stroke-width:0.402559"
     aria-label="I" /><path
     id="path130"
     d="m 12.733657,44.649777 v -1.608661 h -0.17927 l -0.40099,0.415138 0.11795,0.122655 0.25946,-0.273614 v 1.344482 z m 0,0"
     style="fill:#241f1f;fill-opacity:1;fill-rule:nonzero;stroke:none;stroke-width:0.402559"
     aria-label="1" /><path
     id="path131"
     d="m 12.291397,72.426301 v -2.151169 h -0.4576 v 2.151169 z m 0,0"
     style="fill:#241f1f;fill-opacity:1;fill-rule:nonzero;stroke:none;stroke-width:0.402559"
     aria-label="I" /><path
     id="path132"
     d="m 13.137007,73.230636 v -1.608663 h -0.17927 l -0.40098,0.415142 0.11794,0.122654 0.25946,-0.273616 v 1.344483 z m 0,0"
     style="fill:#241f1f;fill-opacity:1;fill-rule:nonzero;stroke:none;stroke-width:0.402559"
     aria-label="1" /><path
     id="path133"
     d="m 48.206757,43.844269 v -2.151171 h -0.45759 v 2.151171 z m 0,0"
     style="fill:#241f1f;fill-opacity:1;fill-rule:nonzero;stroke:none;stroke-width:0.402559"
     aria-label="I" /><path
     id="path134"
     d="m 49.656197,44.649777 v -0.179263 h -0.78782 c 0.44816,-0.353813 0.7831,-0.655731 0.7831,-0.981237 0,-0.320789 -0.27362,-0.476466 -0.54251,-0.476466 -0.22644,0 -0.43872,0.09435 -0.56138,0.254744 l 0.12266,0.127372 c 0.0944,-0.117936 0.2453,-0.202851 0.43872,-0.202851 0.16511,0 0.33494,0.08963 0.33494,0.297201 0,0.278332 -0.31136,0.54251 -0.89161,1.000106 v 0.160394 z m 0,0"
     style="fill:#241f1f;fill-opacity:1;fill-rule:nonzero;stroke:none;stroke-width:0.402559"
     aria-label="2" /><path
     id="path135"
     d="m 48.046367,72.426301 v -2.151169 h -0.4576 v 2.151169 z m 0,0"
     style="fill:#241f1f;fill-opacity:1;fill-rule:nonzero;stroke:none;stroke-width:0.402559"
     aria-label="I" /><path
     id="path136"
     d="m 49.494617,73.230636 v -0.179263 h -0.78781 c 0.44816,-0.353815 0.78309,-0.655732 0.78309,-0.981239 0,-0.320789 -0.27361,-0.476462 -0.5425,-0.476462 -0.22644,0 -0.43873,0.09435 -0.56138,0.254744 l 0.12265,0.127365 c 0.0944,-0.117936 0.24531,-0.202846 0.43873,-0.202846 0.16511,0 0.33494,0.08964 0.33494,0.297199 0,0.278334 -0.31135,0.542514 -0.89161,1.000104 v 0.160398 z m 0,0"
     style="fill:#241f1f;fill-opacity:1;fill-rule:nonzero;stroke:none;stroke-width:0.402559"
     aria-label="2" /><path
     id="path137"
     d="M 1.8403125,1.311875 C 1.3246875,0.3040625 1.0082813,-0.62171875 1.0082813,-1.9459375 c 0,-1.3359375 0.3164062,-2.25 0.8320312,-3.2695313 L 1.4770313,-5.485 c -0.7148438,0.9960937 -1.12500005,2.25 -1.12500005,3.5390625 0,1.2890625 0.41015625,2.5546875 1.12500005,3.5390625 z M 3.5805469,-1.0435938 V -2.8014063 C 3.7914844,-3.14125 4.2719531,-3.4225 4.7407031,-3.4225 c 0.7851563,0 1.2421875,0.6328125 1.2421875,1.4882812 0,0.8554688 -0.4570312,1.4882813 -1.2421875,1.4882813 -0.46875,0 -0.9492187,-0.26953125 -1.1601562,-0.5976563 z m 0,1.0429688 v -0.57421875 c 0.2929687,0.38671875 0.7617187,0.66796875 1.3125,0.66796875 1.0078125,0 1.7226562,-0.76171875 1.7226562,-2.0273438 0,-1.2304687 -0.7148437,-2.0273437 -1.7226562,-2.0273437 -0.5273438,0 -0.9960938,0.2578125 -1.3125,0.6796875 v -2.0625 H 2.9828906 v 5.34375 z m 0,0"
     style="fill:#241f1f;fill-opacity:1;fill-rule:nonzero;stroke:none"
     aria-label="(b"
     transform="matrix(0.40255834,0,0,0.40255834,28.366027,78.545126)"
     clip-path="url(#clipPath138-3)" /><path
     id="path139"
     d="M 0.49303125,1.593125 C 1.2195938,0.60875 1.62975,-0.656875 1.62975,-1.9459375 1.62975,-3.235 1.2195938,-4.4889063 0.49303125,-5.485 l -0.3515625,0.2695312 C 0.65709375,-4.1959375 0.9735,-3.281875 0.9735,-1.9459375 c 0,1.32421875 -0.31640625,2.25 -0.83203125,3.2578125 z m 0,0"
     style="fill:#241f1f;fill-opacity:1;fill-rule:nonzero;stroke:none"
     aria-label=")"
     transform="matrix(0.40255834,0,0,0.40255834,31.177497,78.545126)"
     clip-path="url(#clipPath140-2)" /><path
     id="path141"
     d="M 0,0 C 1.016,0 1.839,0.823 1.839,1.838 1.839,2.854 1.016,3.677 0,3.677 -1.015,3.677 -1.839,2.854 -1.839,1.838 -1.839,0.823 -1.015,0 0,0"
     style="fill:#ffffff;fill-opacity:1;fill-rule:nonzero;stroke:#c13439;stroke-width:0.5;stroke-linecap:butt;stroke-linejoin:miter;stroke-miterlimit:4;stroke-dasharray:none;stroke-opacity:1"
     transform="matrix(0.40255834,0,0,-0.40255834,4.4073173,48.672482)"
     clip-path="url(#clipPath142-3)" /><path
     id="path143"
     d="M 0,0 C 1.016,0 1.839,0.822 1.839,1.838 1.839,2.853 1.016,3.677 0,3.677 -1.015,3.677 -1.839,2.853 -1.839,1.838 -1.839,0.822 -1.015,0 0,0"
     style="fill:#ffffff;fill-opacity:1;fill-rule:nonzero;stroke:#c13439;stroke-width:0.5;stroke-linecap:butt;stroke-linejoin:miter;stroke-miterlimit:4;stroke-dasharray:none;stroke-opacity:1"
     transform="matrix(0.40255834,0,0,-0.40255834,4.4073173,66.767482)"
     clip-path="url(#clipPath144-5)" /><path
     id="path145"
     d="M 0,0 H -64.72 V 44.8 H 0"
     style="fill:none;stroke:#275b8d;stroke-width:0.5;stroke-linecap:butt;stroke-linejoin:miter;stroke-miterlimit:4;stroke-dasharray:none;stroke-opacity:1"
     transform="matrix(0.40255834,0,0,-0.40255834,56.488297,65.967193)"
     clip-path="url(#clipPath146-7)" /><path
     id="path147"
     d="m 0,0 c -1.016,0 -1.838,0.823 -1.838,1.838 0,1.016 0.822,1.839 1.838,1.839 1.015,0 1.839,-0.823 1.839,-1.839 C 1.839,0.823 1.015,0 0,0"
     style="fill:#ffffff;fill-opacity:1;fill-rule:nonzero;stroke:#c13439;stroke-width:0.5;stroke-linecap:butt;stroke-linejoin:miter;stroke-miterlimit:4;stroke-dasharray:none;stroke-opacity:1"
     transform="matrix(0.40255834,0,0,-0.40255834,56.488297,48.672482)"
     clip-path="url(#clipPath148-9)" /><path
     id="path149"
     d="m 0,0 c -1.016,0 -1.838,0.822 -1.838,1.838 0,1.015 0.822,1.839 1.838,1.839 1.015,0 1.839,-0.824 1.839,-1.839 C 1.839,0.822 1.015,0 0,0"
     style="fill:#ffffff;fill-opacity:1;fill-rule:nonzero;stroke:#c13439;stroke-width:0.5;stroke-linecap:butt;stroke-linejoin:miter;stroke-miterlimit:4;stroke-dasharray:none;stroke-opacity:1"
     transform="matrix(0.40255834,0,0,-0.40255834,56.488297,66.767482)"
     clip-path="url(#clipPath150-1)" /><path
     id="path151"
     d="M 0,0 H 15.356"
     style="fill:none;stroke:#c13439;stroke-width:0.75;stroke-linecap:butt;stroke-linejoin:miter;stroke-miterlimit:4;stroke-dasharray:none;stroke-opacity:1"
     transform="matrix(0.40255834,0,0,-0.40255834,8.3560173,45.683486)"
     clip-path="url(#clipPath152-7)" /><path
     id="path153"
     d="M 0,0 6.098,1.633 0,3.267 Z"
     style="fill:#c13439;fill-opacity:1;fill-rule:nonzero;stroke:none"
     transform="matrix(0.40255834,0,0,-0.40255834,14.088927,46.332811)"
     clip-path="url(#clipPath154-8)" /><path
     id="path155"
     d="M 0,0 H -15.356"
     style="fill:none;stroke:#c13439;stroke-width:0.75;stroke-linecap:butt;stroke-linejoin:miter;stroke-miterlimit:4;stroke-dasharray:none;stroke-opacity:1"
     transform="matrix(0.40255834,0,0,-0.40255834,15.766587,68.216285)"
     clip-path="url(#clipPath156-1)" /><path
     id="path157"
     d="M 0,0 -6.098,-1.633 0,-3.268 Z"
     style="fill:#c13439;fill-opacity:1;fill-rule:nonzero;stroke:none"
     transform="matrix(0.40255834,0,0,-0.40255834,10.033677,67.566559)"
     clip-path="url(#clipPath158-2)" /><path
     id="path159"
     d="M 0,0 H -15.355"
     style="fill:none;stroke:#c13439;stroke-width:0.75;stroke-linecap:butt;stroke-linejoin:miter;stroke-miterlimit:4;stroke-dasharray:none;stroke-opacity:1"
     transform="matrix(0.40255834,0,0,-0.40255834,52.488687,45.683486)"
     clip-path="url(#clipPath160-2)" /><path
     id="path161"
     d="M 0,0 -6.099,1.633 0,3.267 Z"
     style="fill:#c13439;fill-opacity:1;fill-rule:nonzero;stroke:none"
     transform="matrix(0.40255834,0,0,-0.40255834,46.756267,46.332811)"
     clip-path="url(#clipPath162-1)" /><path
     id="path163"
     d="M 0,0 H 15.356"
     style="fill:none;stroke:#c13439;stroke-width:0.75;stroke-linecap:butt;stroke-linejoin:miter;stroke-miterlimit:4;stroke-dasharray:none;stroke-opacity:1"
     transform="matrix(0.40255834,0,0,-0.40255834,45.078397,68.216285)"
     clip-path="url(#clipPath164-7)" /><path
     id="path165"
     d="M 0,0 6.099,-1.633 0,-3.268 Z"
     style="fill:#c13439;fill-opacity:1;fill-rule:nonzero;stroke:none"
     transform="matrix(0.40255834,0,0,-0.40255834,50.810827,67.566559)"
     clip-path="url(#clipPath166-5)" /><path
     id="path167"
     d="m 186.089,295.771 h -52 v -56.999 h 52 z"
     style="fill:#ffffff;fill-opacity:1;fill-rule:nonzero;stroke:#275b8d;stroke-width:0.5;stroke-linecap:butt;stroke-linejoin:miter;stroke-miterlimit:4;stroke-dasharray:none;stroke-opacity:1"
     transform="matrix(0.40255834,0,0,-0.40255834,-33.871753,164.49738)"
     clip-path="url(#clipPath168-1)" /><path
     id="path169"
     d="m 26.363637,55.796004 v -0.240591 h -1.00011 v -1.91058 h -0.26889 v 2.151171 z m 0.48119,-1.778491 c 0.0944,0 0.16511,-0.07076 0.16511,-0.160394 0,-0.08963 -0.0707,-0.165112 -0.16511,-0.165112 -0.0849,0 -0.1604,0.07548 -0.1604,0.165112 0,0.08963 0.0755,0.160394 0.1604,0.160394 z m 0.12265,1.778491 v -1.556768 h -0.24059 v 1.556768 z m 1.77731,0 v -1.094456 c 0,-0.33494 -0.16982,-0.500052 -0.49532,-0.500052 -0.23117,0 -0.44345,0.136806 -0.55667,0.264178 v -0.226438 h -0.2406 v 1.556768 h 0.2406 v -1.136913 c 0.0944,-0.127372 0.27361,-0.240591 0.46231,-0.240591 0.21229,0 0.34909,0.08491 0.34909,0.358529 v 1.018975 z m 1.18409,0.03774 c 0.25474,0 0.46231,-0.08491 0.61799,-0.235874 l -0.11319,-0.160394 c -0.12267,0.127372 -0.30665,0.198134 -0.48119,0.198134 -0.33494,0 -0.54251,-0.245308 -0.56138,-0.537792 h 1.25957 v -0.06132 c 0,-0.46703 -0.27833,-0.834994 -0.74536,-0.834994 -0.44817,0 -0.76895,0.363246 -0.76895,0.816125 0,0.485899 0.33022,0.816122 0.79254,0.816122 z m 0.4859,-0.915191 h -1.02369 c 0.0141,-0.235874 0.17926,-0.518923 0.50949,-0.518923 0.3538,0 0.50948,0.287767 0.5142,0.518923 z m 1.84219,0.877451 v -1.070868 c 0,-0.377399 -0.27362,-0.52364 -0.60385,-0.52364 -0.25474,0 -0.45288,0.08491 -0.6227,0.259461 l 0.1132,0.165112 c 0.13679,-0.146241 0.29248,-0.217004 0.47646,-0.217004 0.22643,0 0.39154,0.122654 0.39154,0.330224 v 0.278331 c -0.12264,-0.141524 -0.30191,-0.212287 -0.5142,-0.212287 -0.26418,0 -0.54251,0.165111 -0.54251,0.514206 0,0.339658 0.27833,0.514205 0.54251,0.514205 0.21229,0 0.38683,-0.07547 0.5142,-0.217004 v 0.179264 z m -0.6699,-0.136807 c -0.22644,0 -0.38683,-0.141524 -0.38683,-0.334941 0,-0.202852 0.16039,-0.344376 0.38683,-0.344376 0.16984,0 0.33495,0.06605 0.42457,0.193417 v 0.292483 c -0.0897,0.13209 -0.25473,0.193417 -0.42457,0.193417 z m 1.39048,0.136807 v -1.10389 c 0.0708,-0.122655 0.27833,-0.245309 0.42457,-0.245309 0.0378,0 0.0661,0.0047 0.0944,0.0095 v -0.250026 c -0.21228,0 -0.39154,0.122654 -0.51892,0.283049 v -0.250026 h -0.24059 v 1.556767 z m 0,0"
     style="fill:#241f1f;fill-opacity:1;fill-rule:nonzero;stroke:none;stroke-width:0.402559"
     aria-label="Linear" /><path
     id="path170"
     d="m 26.377797,59.821197 v -1.094456 c 0,-0.334941 -0.16983,-0.500053 -0.49534,-0.500053 -0.23116,0 -0.44344,0.136808 -0.55666,0.26418 v -0.22644 h -0.24059 v 1.556769 h 0.24059 v -1.136913 c 0.0944,-0.127372 0.27361,-0.240591 0.46231,-0.240591 0.21229,0 0.3491,0.08491 0.3491,0.358528 v 1.018976 z m 1.18408,0.03774 c 0.25475,0 0.46232,-0.08491 0.618,-0.235875 l -0.1132,-0.160394 c -0.12266,0.127372 -0.30664,0.198134 -0.48118,0.198134 -0.33494,0 -0.54251,-0.245309 -0.56138,-0.537793 h 1.25956 v -0.06132 c 0,-0.46703 -0.27832,-0.834994 -0.74536,-0.834994 -0.44816,0 -0.76895,0.363246 -0.76895,0.816124 0,0.485901 0.33023,0.816125 0.79254,0.816125 z m 0.4859,-0.915191 h -1.02368 c 0.0141,-0.235875 0.17926,-0.518924 0.50948,-0.518924 0.35381,0 0.50949,0.287766 0.5142,0.518924 z m 1.02134,0.915191 c 0.14152,0 0.22645,-0.04246 0.28777,-0.09907 l -0.0707,-0.179264 c -0.033,0.03303 -0.0944,0.06132 -0.16512,0.06132 -0.10384,0 -0.15567,-0.0802 -0.15567,-0.198134 v -0.967085 h 0.31606 v -0.212286 h -0.31606 v -0.424573 h -0.24532 v 0.424573 h -0.25474 v 0.212286 h 0.25474 v 1.018977 c 0,0.231157 0.11795,0.363246 0.3491,0.363246 z m 2.14055,-0.03774 0.49534,-1.556769 h -0.25002 l -0.38212,1.240697 -0.4057,-1.240697 h -0.20757 l -0.41042,1.240697 -0.38212,-1.240697 h -0.25002 l 0.49533,1.556769 h 0.24532 l 0.4057,-1.250132 0.40569,1.250132 z m 1.45299,0.03774 c 0.47647,0 0.77366,-0.367964 0.77366,-0.816125 0,-0.452878 -0.29719,-0.816124 -0.77366,-0.816124 -0.47175,0 -0.76895,0.363246 -0.76895,0.816124 0,0.448161 0.2972,0.816125 0.76895,0.816125 z m 0,-0.217004 c -0.33023,0 -0.51892,-0.28305 -0.51892,-0.599121 0,-0.316071 0.18869,-0.59912 0.51892,-0.59912 0.33494,0 0.51892,0.283049 0.51892,0.59912 0,0.316071 -0.18398,0.599121 -0.51892,0.599121 z m 1.40345,0.179263 v -1.10389 c 0.0707,-0.122654 0.27833,-0.245309 0.42458,-0.245309 0.0378,0 0.0661,0.0047 0.0944,0.0095 v -0.250026 c -0.21227,0 -0.39154,0.122654 -0.51891,0.283048 v -0.250025 h -0.24059 v 1.556768 z m 2.19009,0 -0.68875,-0.849146 0.68875,-0.707623 h -0.30664 l -0.82083,0.830277 v -1.424679 h -0.2406 v 2.151171 h 0.2406 v -0.443443 l 0.25945,-0.254744 0.56138,0.698187 z m 0,0"
     style="fill:#241f1f;fill-opacity:1;fill-rule:nonzero;stroke:none;stroke-width:0.402559"
     aria-label="network" /><path
     id="path174"
     d="m 1.6982873,92.552256 v -0.0566 c -0.17455,-0.0141 -0.21701,-0.0566 -0.21701,-0.25003 v -0.80197 c 0,-0.35853 -0.15566,-0.55666 -0.42928,-0.55666 -0.16512001,0 -0.33495001,0.0802 -0.52364001,0.29248 v -0.28305 l -0.0283,-0.009 c -0.17927,0.0661 -0.29721,0.10379 -0.5000599974931,0.16039 v 0.0613 C 0.02829729,91.100116 0.06609729,91.095016 0.10851729,91.095016 c 0.099,0 0.12265,0.0613 0.12265,0.23588 v 0.88217 c 0,0.21228 -0.0378,0.2689 -0.22171,0.28305 v 0.0566 h 0.76422 v -0.0566 c -0.18398,-0.0141 -0.23586,-0.0613 -0.23586,-0.20286 v -1.00006 c 0.16511,-0.16511 0.25474,-0.20757 0.37267,-0.20757 0.17927001,0 0.26418001,0.1085 0.26418001,0.36796 v 0.71706 c 0,0.24059 -0.0424,0.31135 -0.22172001,0.32551 l -0.005,0.0566 z m 1.53319,-0.5944 c -0.17455,0.26889 -0.31135,0.38211 -0.55667,0.38211 -0.16511,0 -0.30192,-0.066 -0.40099,-0.20285 -0.13208,-0.16983 -0.15096,-0.31135 -0.16983,-0.58968 h 1.11805 c -0.0141,-0.19342 -0.0519,-0.31135 -0.12266,-0.41043 -0.11793,-0.1651 -0.27833,-0.25002 -0.50477,-0.25002 -0.4576,0 -0.75008,0.36796 -0.75008,0.87745 0,0.50005 0.25946,0.82556 0.68875,0.82556 0.36326,0 0.618,-0.21228 0.75952,-0.60855 z m -1.11806,-0.52365 c 0.0378,-0.27361 0.17927,-0.41985 0.38213,-0.41985 0.24059,0 0.31607,0.12265 0.35852,0.41985 z m 2.17948,0.83972 c -0.0802,0.0943 -0.13681,0.12737 -0.217,0.12737 -0.13209,0 -0.1887,-0.0943 -0.1887,-0.32551 v -1.03784 h 0.36797 v -0.11794 h -0.36797 v -0.41986 c 0,-0.03303 -0.005,-0.04717 -0.0236,-0.04717 -0.0236,0.03773 -0.0519,0.07077 -0.0708,0.10379 -0.14153,0.19813 -0.25946,0.33021 -0.35381,0.38683 -0.0378,0.0236 -0.0612,0.0472 -0.0612,0.0708 0,0.009 0.005,0.0141 0.0141,0.0236 h 0.19342 v 1.08974 c 0,0.30664 0.10852,0.46232 0.31607,0.46232 0.18398,0 0.32079,-0.0896 0.43872,-0.27834 z m 2.55924,-1.35392 h -0.44345 v 0.0566 c 0.12266,0.0236 0.15568,0.0519 0.15568,0.1085 0,0.0566 -0.0188,0.14624 -0.0613,0.24059 l -0.32551,0.80669 -0.30192,-0.8114 c -0.0471,-0.11323 -0.0612,-0.15568 -0.0612,-0.21701 0,-0.0755 0.0378,-0.10378 0.20757,-0.12737 v -0.0566 h -0.73593 v 0.0566 c 0.1368,0.0141 0.18399,0.0519 0.25003,0.25002 l 0.0754,0.20286 -0.33022,0.72177 -0.35853,-0.94821 c -0.0141,-0.033 -0.0236,-0.0708 -0.0236,-0.1085 0,-0.0755 0.0378,-0.10378 0.16511,-0.11794 v -0.0566 h -0.65101 v 0.0566 c 0.0849,0.005 0.11794,0.033 0.19342,0.22644 l 0.49062,1.2407 c 0.0424,0.11322 0.0707,0.16039 0.0897,0.16039 0.0188,0 0.0471,-0.0472 0.0944,-0.14152 l 0.40571,-0.87274 0.33021,0.85859 c 0.0519,0.13681 0.0614,0.15567 0.0849,0.15567 0.0236,0 0.0424,-0.033 0.10373,-0.17926 l 0.50004,-1.25485 c 0.0566,-0.14152 0.0754,-0.16983 0.14625,-0.19342 z m 1.71009,0.79726 c 0,-0.50006 -0.33966,-0.83028 -0.78311,-0.83028 -0.49061,0 -0.81612,0.33494 -0.81612,0.83971 0,0.50477 0.34437,0.8633 0.78309,0.8633 0.49063,0 0.81614,-0.37268 0.81614,-0.87273 z m -0.32551,0.0943 c 0,0.41986 -0.1604,0.67461 -0.42929,0.67461 -0.12737,0 -0.24532,-0.0661 -0.32551,-0.17927 -0.13208,-0.19814 -0.19341,-0.45759 -0.19341,-0.74536 0,-0.35853 0.16982,-0.57554 0.41985,-0.57554 0.16039,0 0.25946,0.0755 0.34437,0.18398 0.11795,0.14625 0.18399,0.39627 0.18399,0.64158 z m 1.01426,-0.9199 -0.0188,-0.005 c -0.19342,0.0755 -0.32079,0.12737 -0.53779,0.19341 v 0.0566 c 0.0519,-0.009 0.0849,-0.0141 0.12737,-0.0141 0.0897,0 0.12266,0.0613 0.12266,0.21701 v 0.90575 c 0,0.18398 -0.0236,0.20757 -0.25475,0.25003 v 0.0566 h 0.86802 v -0.0566 c -0.24531,-0.009 -0.30663,-0.0613 -0.30663,-0.2689 v -0.81612 c 0,-0.11322 0.15095,-0.2972 0.25474,-0.2972 0.0188,0 0.0519,0.0189 0.0944,0.0566 0.0566,0.0519 0.0944,0.0708 0.14153,0.0708 0.0897,0 0.14152,-0.0613 0.14152,-0.16512 0,-0.11793 -0.0754,-0.18869 -0.19813,-0.18869 -0.15096,0 -0.25474,0.0802 -0.43401,0.33966 z m 2.4318597,1.66055 v -0.0566 c -0.1604,-0.009 -0.27833,-0.0755 -0.42458,-0.26418 l -0.55666,-0.7029 0.10852,-0.0943 c 0.44345,-0.41514 0.54724,-0.4576 0.78312,-0.4576 v -0.0566 h -0.74065 v 0.0519 c 0.14152,0.005 0.17927,0.0189 0.17927,0.066 0,0.033 -0.033,0.0802 -0.0802,0.12737 l -0.50006,0.44345 v -1.523748 l -0.0141,-0.0095 c -0.14153,0.04718 -0.23588,0.07548 -0.4528797,0.13209 l -0.10852,0.02828 v 0.06132 c 0.0471,-0.0049 0.0802,-0.0095 0.11793,-0.0095 0.1226597,0 0.1556797,0.04718 0.1556797,0.221718 v 1.74547 c 0,0.1887 -0.009,0.19814 -0.2736097,0.24059 v 0.0566 h 0.8491497 v -0.0566 h -0.0708 c -0.14625,-0.009 -0.20286,-0.0613 -0.20286,-0.18398 v -0.66988 l 0.54723,0.71705 c 0.0283,0.0377 0.0378,0.0661 0.0378,0.0849 0,0.033 -0.033,0.0519 -0.0754,0.0519 h -0.0707 v 0.0566 z m 0.63332,-0.15568 c 0,-0.1085 -0.0944,-0.20757 -0.19813,-0.20757 -0.11319,0 -0.20285,0.0896 -0.20285,0.20285 0,0.11322 0.0849,0.19814 0.19813,0.19814 0.10852,0 0.20285,-0.0896 0.20285,-0.19342 z m 0,0"
     style="fill:#241f1f;fill-opacity:1;fill-rule:nonzero;stroke:none;stroke-width:0.402559"
     aria-label="network." /><path
     id="path171"
     d="m 0.23114729,84.500697 h 0.56138 V 83.665702 H 1.8822673 V 83.16565 H 0.79252729 V 82.259892 H 1.9907773 V 81.764558 H 0.23114729 Z M 2.8469973,82.500482 c 0.1887,0 0.34438,-0.141519 0.34438,-0.339654 0,-0.198135 -0.15568,-0.339661 -0.34438,-0.339661 -0.18398,0 -0.34438,0.141526 -0.34438,0.339661 0,0.198135 0.1604,0.339654 0.34438,0.339654 z m -0.27361,2.000215 h 0.54723 v -1.712445 h -0.54723 z m 2.18183,-1.717163 c -0.0754,-0.0189 -0.16039,-0.03304 -0.25475,-0.03304 -0.43872,0 -0.73593,0.259462 -0.73593,0.627431 0,0.150955 0.0566,0.287763 0.15096,0.391545 -0.15096,0.06608 -0.23587,0.183988 -0.23587,0.334943 0,0.160398 0.0661,0.273616 0.20286,0.349097 -0.1887,0.07076 -0.31136,0.193417 -0.31136,0.377398 0,0.325507 0.30664,0.561379 0.91991,0.561379 0.67932,0 0.94821,-0.273616 0.94821,-0.632142 0,-0.334943 -0.26889,-0.52836 -0.73592,-0.55195 l -0.41986,-0.02359 c -0.12738,0 -0.17926,-0.05187 -0.17926,-0.136808 0,-0.04249 0.0188,-0.0802 0.0471,-0.103782 0.0944,0.05187 0.2123,0.07076 0.34909,0.07076 0.43873,0 0.72178,-0.268891 0.72178,-0.636853 0,-0.07549 -0.0236,-0.150962 -0.0612,-0.207571 h 0.25473 v -0.386834 z m -0.26418,0.834995 c -0.16511,0 -0.25002,-0.09435 -0.25002,-0.24059 0,-0.136808 0.0849,-0.231161 0.25002,-0.231161 0.16511,0 0.25475,0.09435 0.25475,0.231161 0,0.146237 -0.0897,0.24059 -0.25475,0.24059 z m -0.34437,1.00954 0.44816,0.02828 c 0.22171,0.01414 0.28777,0.04718 0.28777,0.141526 0,0.103782 -0.0707,0.188699 -0.39156,0.188699 -0.29719,0 -0.39155,-0.08964 -0.39155,-0.226436 0,-0.05187 0.0141,-0.09435 0.0472,-0.13209 z m 2.38939,-0.08964 c 0.2406,0 0.43401,-0.113218 0.54252,-0.320789 l -0.0141,0.283052 h 0.54251 v -1.712445 h -0.54251 v 0.915187 c 0,0.217007 -0.12265,0.344379 -0.33965,0.344379 -0.19342,0 -0.28306,-0.113225 -0.28306,-0.306635 v -0.952931 h -0.5425 v 0.98595 c 0,0.490616 0.26418,0.764232 0.63685,0.764232 z m 1.69948,-0.03773 h 0.54251 v -0.759514 c 0,-0.367962 0.1368,-0.48118 0.38212,-0.48118 0.0754,0 0.13681,0.02359 0.20757,0.05187 l 0.17454,-0.495334 c -0.0707,-0.03304 -0.15568,-0.06608 -0.2689,-0.06608 -0.17454,0 -0.37739,0.06608 -0.50004,0.344379 l 0.005,-0.306635 h -0.54251 z M 10.449207,83.80723 h 1.30204 c 0.0377,-0.599123 -0.29721,-1.056713 -0.91049,-1.056713 -0.53307,0 -0.9481997,0.367962 -0.9481997,0.886886 0,0.528353 0.3962597,0.90104 1.0095397,0.90104 0.35852,0 0.56609,-0.1085 0.73121,-0.254744 l -0.31136,-0.334943 c -0.0849,0.06132 -0.23116,0.136808 -0.42929,0.136808 -0.24531,0 -0.39155,-0.09907 -0.44345,-0.278334 z m -0.009,-0.311353 c 0.0471,-0.207571 0.19342,-0.301917 0.40571,-0.301917 0.21229,0 0.33494,0.113218 0.35853,0.301917 z m 3.2645,1.004822 h 0.55195 V 82.40142 h -0.95293 v 0.448161 h 0.40098 z m 1.48719,0.377398 h 0.61328 l 0.58968,-0.839706 c 0.21701,-0.31136 0.33966,-0.537796 0.33966,-0.839713 0,-0.523642 -0.42457,-0.834995 -0.93407,-0.834995 -0.50948,0 -0.92461,0.320789 -0.92461,0.849142 0,0.481187 0.34908,0.783104 0.79253,0.783104 0.11794,0 0.18869,-0.02828 0.27833,-0.07076 0,0 -0.16039,0.113225 -0.25475,0.245315 z m 0.61328,-1.292585 c -0.23588,0 -0.37269,-0.17927 -0.37269,-0.372687 0,-0.193417 0.13681,-0.367962 0.37269,-0.367962 0.23586,0 0.37267,0.174545 0.37267,0.367962 0,0.193417 -0.13681,0.372687 -0.37267,0.372687 z m 1.61573,0.938777 c 0.17927,0 0.33494,-0.141526 0.33494,-0.339661 0,-0.198135 -0.15567,-0.339661 -0.33494,-0.339661 -0.18869,0 -0.34438,0.141526 -0.34438,0.339661 0,0.198135 0.15569,0.339661 0.34438,0.339661 z m 1.00129,-0.02359 h 0.55194 V 82.40142 h -0.95295 v 0.448161 h 0.40098 z m 0,0"
     style="fill:#007994;fill-opacity:1;fill-rule:nonzero;stroke:none;stroke-width:0.402559"
     aria-label="Figure 19.1" /><path
     id="path172"
     d="M 1.0425573,89.110854 C 0.53778729,88.686283 0.42928729,88.275859 0.42928729,87.601262 c 0,-0.698187 0.11319,-1.03313 0.61327001,-1.467137 l -0.0283,-0.05663 c -0.58024001,0.344372 -0.89632001,0.863296 -0.89632001,1.533175 0,0.617995 0.31136,1.231265 0.88218001,1.556772 z m 1.70654,-0.825559 c -0.0613,0.05187 -0.0944,0.07076 -0.15566,0.07076 -0.0613,0 -0.10853,-0.07076 -0.10853,-0.240597 v -0.688751 c 0,-0.221718 -0.0141,-0.297199 -0.10372,-0.405699 -0.0849,-0.103789 -0.22172,-0.160398 -0.42929,-0.160398 -0.16039,0 -0.31135,0.04249 -0.41514,0.1085 -0.12737,0.08019 -0.18398,0.193417 -0.18398,0.287763 0,0.09907 0.0802,0.169834 0.15568,0.169834 0.0944,0 0.16511,-0.0802 0.16511,-0.150962 0,-0.07549 -0.0188,-0.08491 -0.0188,-0.150962 0,-0.09907 0.10852,-0.179263 0.25475,-0.179263 0.16039,0 0.27832,0.103782 0.27832,0.325507 v 0.198135 c -0.4057,0.150955 -0.5425,0.221718 -0.651,0.292481 -0.14153,0.09435 -0.25475,0.235872 -0.25475,0.424578 0,0.235872 0.15568,0.377398 0.38213,0.377398 0.15566,0 0.33493,-0.04718 0.52362,-0.26418 h 0.005 c 0.0188,0.188699 0.099,0.26418 0.23116,0.26418 0.12266,0 0.217,-0.03773 0.3255,-0.174552 z m -0.56138,-0.221725 c 0,0.108514 -0.0188,0.15568 -0.12264,0.231161 -0.0661,0.03773 -0.14154,0.05663 -0.21229,0.05663 -0.14152,0 -0.25004,-0.08491 -0.25004,-0.278334 0,-0.113218 0.0378,-0.198128 0.12266,-0.278327 0.0897,-0.08492 0.24059,-0.160398 0.46231,-0.24059 z m 0.67461,-1.929445 c 0.52835,0.415135 0.61798,0.830277 0.61798,1.509592 0,0.702905 -0.10372,1.042566 -0.61798,1.467137 l 0.033,0.05663 c 0.57553,-0.353808 0.89632,-0.868014 0.89632,-1.5379 0,-0.61327 -0.33022,-1.221829 -0.88689,-1.552047 z m 4.49929,1.193521 c 0,-0.717059 -0.47175,-1.25013 -1.18408,-1.25013 -0.70762,0 -1.18409,0.50477 -1.18409,1.235976 0,0.754796 0.48118,1.264284 1.18409,1.264284 0.69819,0 1.18408,-0.50477 1.18408,-1.25013 z m -0.41041,-0.02359 c 0,0.434014 -0.10384,0.778386 -0.30193,0.967085 -0.12737,0.122654 -0.28776,0.174545 -0.46702,0.174545 -0.16512,0 -0.32551,-0.05187 -0.44816,-0.160391 -0.22173,-0.202853 -0.32551,-0.533078 -0.32551,-0.962367 0,-0.344372 0.0944,-0.693469 0.25003,-0.872732 0.14151,-0.165116 0.32078,-0.245308 0.5142,-0.245308 0.17455,0 0.31607,0.06601 0.44816,0.174545 0.20757,0.169827 0.33023,0.514206 0.33023,0.924623 z m 2.29033,1.221829 v -0.05663 c -0.17454,-0.01414 -0.217,-0.05663 -0.217,-0.250026 v -0.801976 c 0,-0.358526 -0.15568,-0.556661 -0.42928,-0.556661 -0.16513,0 -0.33495,0.0802 -0.52365,0.292488 v -0.283052 l -0.0283,-0.0095 c -0.17927,0.06601 -0.29721,0.103782 -0.50006,0.160398 v 0.06132 c 0.0283,-0.0095 0.0661,-0.01414 0.10852,-0.01414 0.099,0 0.12265,0.06132 0.12265,0.235872 v 0.882168 c 0,0.212289 -0.0378,0.268898 -0.22172,0.283052 v 0.05663 h 0.76423 v -0.05663 c -0.18398,-0.01414 -0.23587,-0.06132 -0.23587,-0.202853 v -1.000111 c 0.16511,-0.165109 0.25474,-0.207564 0.37268,-0.207564 0.17927,0 0.26418,0.108493 0.26418,0.367962 v 0.717059 c 0,0.24059 -0.0424,0.311353 -0.22172,0.325507 l -0.005,0.05663 z m 1.5331897,-0.594398 c -0.17456,0.268891 -0.31136,0.382116 -0.55667,0.382116 -0.1651,0 -0.3019097,-0.06608 -0.4009797,-0.202853 -0.13209,-0.169834 -0.15097,-0.311353 -0.16984,-0.589687 h 1.1180497 c -0.0141,-0.193417 -0.0519,-0.311353 -0.12265,-0.410424 -0.11794,-0.165109 -0.27834,-0.250026 -0.50477,-0.250026 -0.4575997,0 -0.7500797,0.367969 -0.7500797,0.877457 0,0.500052 0.25945,0.825559 0.6887497,0.825559 0.36324,0 0.61799,-0.212289 0.75951,-0.608559 z M 9.6566773,87.407845 c 0.0378,-0.273616 0.17927,-0.41986 0.3821097,-0.41986 0.24059,0 0.31608,0.122654 0.35854,0.41986 z m 2.2832597,0.415135 v -0.226436 h -0.8916 v 0.226436 z m 0.7489,-0.957649 -0.0188,-0.0049 c -0.19342,0.07548 -0.32551,0.122654 -0.52364,0.183981 v 0.05663 c 0.033,-0.0049 0.0566,-0.0049 0.0897,-0.0049 0.12265,0 0.15095,0.03773 0.15095,0.207571 v 1.698291 c 0,0.188699 -0.0424,0.226436 -0.25474,0.250026 v 0.06132 h 0.87746 v -0.06608 c -0.27363,-0.0049 -0.3208,-0.04249 -0.3208,-0.273616 v -0.566097 c 0.13209,0.117936 0.21229,0.15568 0.36796,0.15568 0.4293,0 0.75952,-0.405706 0.75952,-0.934066 0,-0.448154 -0.25475,-0.768943 -0.60384,-0.768943 -0.20285,0 -0.36325,0.08491 -0.52364,0.283045 z m 0,0.448161 c 0,-0.108507 0.20285,-0.235872 0.36796,-0.235872 0.2689,0 0.44817,0.273616 0.44817,0.698187 0,0.400988 -0.17927,0.669879 -0.43873,0.669879 -0.16984,0 -0.3774,-0.132083 -0.3774,-0.24059 z m 2.939,0.377398 c 0,-0.500052 -0.33967,-0.830277 -0.78311,-0.830277 -0.49061,0 -0.81612,0.334943 -0.81612,0.839713 0,0.50477 0.34437,0.863303 0.78309,0.863303 0.49062,0 0.81614,-0.372687 0.81614,-0.872739 z m -0.32552,0.09435 c 0,0.41986 -0.16039,0.674604 -0.42928,0.674604 -0.12738,0 -0.24532,-0.06601 -0.32552,-0.179263 -0.13208,-0.198135 -0.1934,-0.457597 -0.1934,-0.745367 0,-0.358526 0.16982,-0.575533 0.41984,-0.575533 0.1604,0 0.25947,0.07549 0.34438,0.183988 0.11795,0.146237 0.18398,0.396263 0.18398,0.641571 z m 1.01427,-0.919905 -0.0188,-0.0049 c -0.19342,0.07548 -0.32079,0.127372 -0.5378,0.19341 v 0.05663 c 0.0519,-0.0095 0.0849,-0.01414 0.12738,-0.01414 0.0897,0 0.12266,0.06132 0.12266,0.217007 V 88.2191 c 0,0.183981 -0.0236,0.207564 -0.25475,0.250026 v 0.05663 h 0.86802 v -0.05663 c -0.24531,-0.0095 -0.30664,-0.06132 -0.30664,-0.268898 v -0.816123 c 0,-0.113225 0.15096,-0.297206 0.25475,-0.297206 0.0188,0 0.0519,0.0189 0.0944,0.05663 0.0566,0.05187 0.0944,0.07076 0.14154,0.07076 0.0897,0 0.14151,-0.06132 0.14151,-0.165109 0,-0.117936 -0.0754,-0.188699 -0.19812,-0.188699 -0.15097,0 -0.25475,0.0802 -0.43402,0.339654 z m 1.67117,1.38222 c -0.0802,0.09435 -0.13681,0.127372 -0.21701,0.127372 -0.1321,0 -0.18871,-0.09435 -0.18871,-0.325507 v -1.037841 h 0.36796 v -0.117936 h -0.36796 v -0.41986 c 0,-0.03304 -0.005,-0.04718 -0.0236,-0.04718 -0.0236,0.03773 -0.0519,0.07076 -0.0708,0.103782 -0.14152,0.198135 -0.25945,0.330225 -0.35381,0.386834 -0.0378,0.02359 -0.0612,0.04718 -0.0612,0.07076 0,0.0095 0.005,0.01414 0.0141,0.02359 h 0.19342 v 1.089739 c 0,0.306635 0.10852,0.462315 0.31607,0.462315 0.18398,0 0.32079,-0.08964 0.43872,-0.278334 z m 2.70547,0.278334 v -0.05663 c -0.17455,-0.01414 -0.21701,-0.05663 -0.21701,-0.250026 v -0.801976 c 0,-0.358526 -0.15567,-0.556661 -0.42929,-0.556661 -0.16512,0 -0.33494,0.0802 -0.52364,0.292481 v -0.283045 l -0.0283,-0.0095 c -0.17926,0.06601 -0.2972,0.103782 -0.50005,0.160391 v 0.06132 c 0.0283,-0.0095 0.0661,-0.01414 0.10851,-0.01414 0.0991,0 0.12265,0.06132 0.12265,0.235879 v 0.882168 c 0,0.212282 -0.0378,0.268898 -0.22172,0.283045 v 0.05663 h 0.76424 v -0.05663 c -0.18398,-0.01414 -0.23588,-0.06132 -0.23588,-0.202853 v -1.000104 c 0.16512,-0.165109 0.25474,-0.207571 0.37269,-0.207571 0.17925,0 0.26418,0.1085 0.26418,0.367969 v 0.717052 c 0,0.240597 -0.0425,0.31136 -0.22174,0.325507 l -0.005,0.05663 z m 1.53318,-0.594405 c -0.17455,0.268898 -0.31135,0.382116 -0.55667,0.382116 -0.16511,0 -0.30192,-0.06601 -0.40099,-0.202853 -0.13208,-0.169827 -0.15095,-0.311353 -0.16982,-0.58968 h 1.11804 c -0.0141,-0.193417 -0.0519,-0.311353 -0.12266,-0.410424 -0.11793,-0.165109 -0.27833,-0.250026 -0.50477,-0.250026 -0.4576,0 -0.75007,0.367962 -0.75007,0.87745 0,0.500052 0.25946,0.825559 0.68875,0.825559 0.36325,0 0.61799,-0.212282 0.75952,-0.608552 z m -1.11805,-0.523642 c 0.0378,-0.273609 0.17927,-0.419853 0.38212,-0.419853 0.24059,0 0.31607,0.122654 0.35853,0.419853 z m 2.18066,0.839713 c -0.0802,0.09435 -0.13681,0.127372 -0.217,0.127372 -0.13209,0 -0.18871,-0.09435 -0.18871,-0.325507 v -1.037841 h 0.36798 v -0.117936 h -0.36798 v -0.41986 c 0,-0.03304 -0.005,-0.04718 -0.0236,-0.04718 -0.0236,0.03773 -0.0519,0.07076 -0.0707,0.103782 -0.14152,0.198135 -0.25945,0.330225 -0.3538,0.386834 -0.0378,0.02359 -0.0612,0.04718 -0.0612,0.07076 0,0.0095 0.005,0.01414 0.0141,0.02359 h 0.19341 v 1.089739 c 0,0.306635 0.10852,0.462315 0.31608,0.462315 0.18398,0 0.32079,-0.08964 0.43872,-0.278334 z m 2.55924,-1.353912 h -0.44345 v 0.05663 c 0.12266,0.02359 0.15567,0.05187 0.15567,0.108493 0,0.05663 -0.0188,0.146244 -0.0613,0.24059 l -0.3255,0.806694 -0.30192,-0.811405 c -0.0471,-0.113225 -0.0613,-0.15568 -0.0613,-0.217007 0,-0.07549 0.0378,-0.103782 0.20756,-0.127372 v -0.05663 h -0.73592 v 0.05663 c 0.1368,0.01414 0.18398,0.05187 0.25003,0.250026 l 0.0754,0.202853 -0.33021,0.72177 -0.35854,-0.948213 c -0.0141,-0.03304 -0.0236,-0.07076 -0.0236,-0.108507 0,-0.07548 0.0378,-0.103782 0.16513,-0.117936 v -0.05663 h -0.65102 v 0.05663 c 0.0849,0.0049 0.11793,0.03304 0.19342,0.226443 l 0.49062,1.240694 c 0.0424,0.113225 0.0707,0.160398 0.0896,0.160398 0.0188,0 0.0473,-0.04718 0.0944,-0.141526 l 0.4057,-0.872732 0.33022,0.858578 c 0.0519,0.136808 0.0612,0.15568 0.0849,0.15568 0.0236,0 0.0424,-0.03304 0.10372,-0.17927 l 0.50006,-1.254848 c 0.0566,-0.141526 0.0756,-0.169827 0.14625,-0.193417 z m 1.71008,0.797251 c 0,-0.500052 -0.33965,-0.830277 -0.7831,-0.830277 -0.49062,0 -0.81612,0.334943 -0.81612,0.839713 0,0.50477 0.34437,0.863296 0.78309,0.863296 0.49063,0 0.81613,-0.37268 0.81613,-0.872732 z m -0.3255,0.09435 c 0,0.41986 -0.1604,0.674604 -0.4293,0.674604 -0.12737,0 -0.24531,-0.06608 -0.3255,-0.17927 -0.1321,-0.198135 -0.19342,-0.45759 -0.19342,-0.74536 0,-0.358526 0.16983,-0.575533 0.41986,-0.575533 0.16039,0 0.25945,0.07549 0.34437,0.183981 0.11794,0.146244 0.18399,0.39627 0.18399,0.641578 z m 1.01425,-0.919905 -0.0188,-0.0049 c -0.19342,0.07549 -0.32079,0.127372 -0.5378,0.193417 v 0.05663 c 0.0519,-0.0094 0.0849,-0.01414 0.12737,-0.01414 0.0897,0 0.12266,0.06132 0.12266,0.217 v 0.905758 c 0,0.183981 -0.0236,0.207571 -0.25475,0.250026 v 0.05663 h 0.86802 v -0.05663 c -0.24531,-0.0095 -0.30665,-0.06132 -0.30665,-0.268898 v -0.816123 c 0,-0.113218 0.15097,-0.297199 0.25475,-0.297199 0.0188,0 0.0519,0.0189 0.0944,0.05663 0.0566,0.05187 0.0944,0.07076 0.14153,0.07076 0.0897,0 0.14152,-0.06132 0.14152,-0.165116 0,-0.117936 -0.0754,-0.188699 -0.19814,-0.188699 -0.15095,0 -0.25473,0.0802 -0.434,0.339661 z m 2.43069,1.660554 v -0.05663 c -0.16039,-0.0095 -0.27834,-0.07548 -0.42459,-0.26418 l -0.55665,-0.702905 0.10852,-0.09435 c 0.44344,-0.415135 0.54723,-0.457597 0.78311,-0.457597 v -0.05663 h -0.74065 v 0.05187 c 0.14152,0.0049 0.17927,0.0189 0.17927,0.06601 0,0.03304 -0.033,0.0802 -0.0802,0.127372 l -0.50006,0.443443 v -1.523739 l -0.0141,-0.0095 c -0.14154,0.04718 -0.23588,0.07548 -0.45289,0.13209 l -0.10852,0.02828 v 0.06132 c 0.0471,-0.0049 0.0802,-0.0095 0.11794,-0.0095 0.12266,0 0.15568,0.04718 0.15568,0.221725 v 1.745464 c 0,0.188699 -0.009,0.198135 -0.27362,0.240597 v 0.05663 h 0.84915 v -0.05663 h -0.0707 c -0.14624,-0.0095 -0.20285,-0.06132 -0.20285,-0.183988 v -0.669879 l 0.54723,0.717059 c 0.0283,0.03773 0.0377,0.06608 0.0377,0.08491 0,0.03304 -0.033,0.05187 -0.0754,0.05187 h -0.0707 v 0.05663 z m 0.30074,0.509488 c 0.25002,-0.117943 0.4057,-0.344379 0.4057,-0.566104 0,-0.183981 -0.12737,-0.311353 -0.29249,-0.311353 -0.12737,0 -0.21701,0.0802 -0.21701,0.202853 0,0.127372 0.0754,0.188699 0.21229,0.188699 0.0378,0 0.0754,-0.01414 0.10374,-0.01414 0.0283,0 0.0519,0.0189 0.0519,0.04718 0,0.117936 -0.10385,0.250026 -0.30193,0.386834 z m 2.60876,0.07548 c -0.50477,-0.424571 -0.61327,-0.834995 -0.61327,-1.509592 0,-0.698187 0.1132,-1.03313 0.61327,-1.467137 l -0.0283,-0.05663 c -0.58025,0.344372 -0.89633,0.863296 -0.89633,1.533182 0,0.617988 0.31136,1.231258 0.88217,1.556765 z m 0.66399,-3.05221 -0.0188,-0.0094 c -0.15567,0.05663 -0.25003,0.0802 -0.41985,0.127372 l -0.10852,0.03304 v 0.06132 c 0.0188,0 0.0378,-0.0049 0.0612,-0.0049 0.15097,0 0.17927,0.02828 0.17927,0.207571 v 1.849253 c 0,0.122654 0.30664,0.24059 0.59912,0.24059 0.47647,0 0.84443,-0.37268 0.84443,-0.905758 0,-0.452879 -0.26418,-0.797251 -0.65101,-0.797251 -0.22172,0 -0.41043,0.117936 -0.4859,0.301917 z m 0,1.316175 c 0,-0.150955 0.1651,-0.287763 0.35853,-0.287763 0.12736,0 0.2453,0.06132 0.32079,0.169827 0.0896,0.127372 0.14152,0.339661 0.14152,0.556668 0,0.207564 -0.0471,0.367962 -0.13681,0.476462 -0.0754,0.103782 -0.19342,0.15568 -0.33495,0.15568 -0.18869,0 -0.34908,-0.07076 -0.34908,-0.188699 z m 1.35863,-1.240694 c 0.52835,0.415135 0.61799,0.830277 0.61799,1.509592 0,0.702905 -0.10373,1.042566 -0.61799,1.467137 l 0.033,0.05663 c 0.57553,-0.353808 0.89632,-0.868014 0.89632,-1.5379 0,-0.61327 -0.33023,-1.221822 -0.88688,-1.552047 z m 2.97084,2.113433 c -0.0802,0.09435 -0.13681,0.127372 -0.21701,0.127372 -0.13208,0 -0.18869,-0.09435 -0.18869,-0.325507 v -1.037848 h 0.36796 v -0.117936 h -0.36796 v -0.41986 c 0,-0.03304 -0.005,-0.04718 -0.0236,-0.04718 -0.0236,0.03773 -0.0519,0.07076 -0.0707,0.103789 -0.14154,0.198135 -0.25946,0.330225 -0.35381,0.386834 -0.0378,0.02359 -0.0612,0.04718 -0.0612,0.07076 0,0.0095 0.005,0.01414 0.0141,0.02359 h 0.19342 v 1.089739 c 0,0.306635 0.10852,0.462308 0.31606,0.462308 0.18398,0 0.32079,-0.08964 0.43873,-0.278327 z m 2.55923,-1.353919 h -0.44345 v 0.05663 c 0.12266,0.02359 0.15569,0.05187 0.15569,0.1085 0,0.05663 -0.0188,0.146237 -0.0614,0.24059 l -0.3255,0.806687 -0.30192,-0.811405 c -0.0471,-0.113218 -0.0612,-0.155673 -0.0612,-0.217007 0,-0.07548 0.0378,-0.103782 0.20757,-0.127372 v -0.05663 h -0.73592 v 0.05663 c 0.13681,0.01414 0.18398,0.05187 0.25002,0.250033 l 0.0754,0.202846 -0.33024,0.721777 -0.35853,-0.948213 c -0.0141,-0.03304 -0.0236,-0.07076 -0.0236,-0.108507 0,-0.07549 0.0378,-0.103782 0.16511,-0.117936 v -0.05663 h -0.65101 v 0.05663 c 0.0849,0.0049 0.11793,0.03304 0.19341,0.226436 l 0.49063,1.240701 c 0.0424,0.113218 0.0707,0.160391 0.0896,0.160391 0.0188,0 0.0473,-0.04718 0.0944,-0.141526 l 0.4057,-0.872732 0.33023,0.858585 c 0.0519,0.136801 0.0612,0.155673 0.0849,0.155673 0.0236,0 0.0424,-0.03304 0.10384,-0.179263 l 0.50004,-1.254848 c 0.0566,-0.141526 0.0754,-0.169834 0.14625,-0.193417 z m 1.71127,0.797251 c 0,-0.500052 -0.33967,-0.83027 -0.78311,-0.83027 -0.49061,0 -0.81612,0.334936 -0.81612,0.839706 0,0.50477 0.34437,0.863303 0.78311,0.863303 0.49061,0 0.81612,-0.37268 0.81612,-0.872739 z m -0.32551,0.09435 c 0,0.419853 -0.1604,0.674597 -0.42929,0.674597 -0.12738,0 -0.2453,-0.06601 -0.3255,-0.179263 -0.1321,-0.198135 -0.19342,-0.457597 -0.19342,-0.74536 0,-0.358533 0.16982,-0.575533 0.41985,-0.575533 0.16039,0 0.25946,0.07548 0.34437,0.183981 0.11793,0.146237 0.18399,0.396263 0.18399,0.641578 z m 1.46713,0.03773 v -0.226443 h -0.89161 v 0.226443 z m 0.7489,-0.957649 -0.0188,-0.0049 c -0.19343,0.07549 -0.32551,0.122654 -0.52365,0.183981 v 0.05663 c 0.033,-0.0049 0.0566,-0.0049 0.0897,-0.0049 0.12266,0 0.15096,0.03773 0.15096,0.207571 v 1.698291 c 0,0.188699 -0.0424,0.226443 -0.25474,0.250026 v 0.06132 h 0.87744 v -0.06601 c -0.2736,-0.0049 -0.32078,-0.04249 -0.32078,-0.273616 v -0.566097 c 0.13209,0.117936 0.21229,0.155673 0.36797,0.155673 0.42929,0 0.75951,-0.405699 0.75951,-0.934059 0,-0.448161 -0.25474,-0.76895 -0.60384,-0.76895 -0.20286,0 -0.36324,0.08491 -0.52364,0.283052 z m 0,0.448161 c 0,-0.108514 0.20286,-0.235879 0.36796,-0.235879 0.2689,0 0.44816,0.273616 0.44816,0.698187 0,0.400988 -0.17926,0.669886 -0.43872,0.669886 -0.16983,0 -0.3774,-0.13209 -0.3774,-0.24059 z m 2.93899,0.377398 c 0,-0.500052 -0.33966,-0.830277 -0.78311,-0.830277 -0.4906,0 -0.81611,0.334936 -0.81611,0.839706 0,0.504777 0.34437,0.863303 0.7831,0.863303 0.49061,0 0.81612,-0.37268 0.81612,-0.872732 z m -0.32551,0.09435 c 0,0.419853 -0.16039,0.674597 -0.42928,0.674597 -0.12737,0 -0.24531,-0.06601 -0.3255,-0.179263 -0.1321,-0.198135 -0.19342,-0.457597 -0.19342,-0.74536 0,-0.358533 0.16982,-0.575533 0.41985,-0.575533 0.16039,0 0.25946,0.07548 0.34437,0.183981 0.11794,0.146244 0.18398,0.39627 0.18398,0.641578 z m 1.01427,-0.919912 -0.0188,-0.0049 c -0.19343,0.07548 -0.32079,0.127372 -0.53779,0.193417 v 0.05663 c 0.0519,-0.0095 0.0849,-0.01414 0.12737,-0.01414 0.0896,0 0.12265,0.06132 0.12265,0.217 v 0.905758 c 0,0.183981 -0.0236,0.207571 -0.25474,0.250026 v 0.05663 h 0.86801 v -0.05663 c -0.24531,-0.0095 -0.30663,-0.06132 -0.30663,-0.268898 v -0.816123 c 0,-0.113218 0.15095,-0.297199 0.25474,-0.297199 0.019,0 0.0519,0.0189 0.0944,0.05663 0.0566,0.05187 0.0944,0.07076 0.14152,0.07076 0.0896,0 0.14152,-0.06132 0.14152,-0.165109 0,-0.117936 -0.0754,-0.188699 -0.19813,-0.188699 -0.15096,0 -0.25475,0.0802 -0.43401,0.339661 z m 1.67117,1.382227 c -0.0802,0.09435 -0.13681,0.127372 -0.21701,0.127372 -0.1321,0 -0.1887,-0.09435 -0.1887,-0.325507 v -1.037848 h 0.36797 v -0.117936 h -0.36797 v -0.41986 c 0,-0.03304 -0.005,-0.04718 -0.0236,-0.04718 -0.0236,0.03773 -0.0519,0.07076 -0.0708,0.103789 -0.14153,0.198135 -0.25947,0.330218 -0.35382,0.386827 -0.0378,0.02359 -0.0612,0.04718 -0.0612,0.07076 0,0.0095 0.005,0.01414 0.0141,0.02359 h 0.19343 v 1.089732 c 0,0.306642 0.10851,0.462315 0.31607,0.462315 0.18398,0 0.32079,-0.08964 0.43872,-0.278334 z m 0,0"
     style="fill:#241f1f;fill-opacity:1;fill-rule:nonzero;stroke:none;stroke-width:0.402559"
     aria-label="(a) One-port network, (b) two-port " /></svg>
