<?xml version="1.0" encoding="UTF-8"?>
<svg xmlns="http://www.w3.org/2000/svg" xmlns:xlink="http://www.w3.org/1999/xlink" width="240.838" height="113.784" viewBox="0 0 240.838 113.784">
<defs>
<g>
<g id="glyph-0-0">
<path d="M 2.5625 -6.78125 C 2.5625 -6.796875 2.5625 -6.890625 2.4375 -6.890625 C 2.203125 -6.890625 1.484375 -6.8125 1.21875 -6.796875 C 1.140625 -6.78125 1.03125 -6.78125 1.03125 -6.59375 C 1.03125 -6.484375 1.140625 -6.484375 1.28125 -6.484375 C 1.765625 -6.484375 1.765625 -6.390625 1.765625 -6.3125 L 1.734375 -6.109375 L 0.484375 -1.140625 C 0.453125 -1.03125 0.4375 -0.96875 0.4375 -0.8125 C 0.4375 -0.234375 0.875 0.109375 1.34375 0.109375 C 1.671875 0.109375 1.921875 -0.09375 2.09375 -0.453125 C 2.265625 -0.828125 2.390625 -1.40625 2.390625 -1.421875 C 2.390625 -1.515625 2.296875 -1.515625 2.265625 -1.515625 C 2.171875 -1.515625 2.15625 -1.484375 2.125 -1.34375 C 1.953125 -0.703125 1.765625 -0.109375 1.375 -0.109375 C 1.078125 -0.109375 1.078125 -0.421875 1.078125 -0.5625 C 1.078125 -0.8125 1.078125 -0.859375 1.140625 -1.046875 Z M 2.5625 -6.78125 "/>
</g>
<g id="glyph-0-1">
<path d="M 3.734375 -6.109375 C 3.78125 -6.34375 3.8125 -6.4375 4 -6.46875 C 4.09375 -6.484375 4.40625 -6.484375 4.609375 -6.484375 C 5.3125 -6.484375 6.421875 -6.484375 6.421875 -5.5 C 6.421875 -5.15625 6.265625 -4.46875 5.875 -4.078125 C 5.609375 -3.828125 5.09375 -3.515625 4.1875 -3.515625 L 3.078125 -3.515625 Z M 5.15625 -3.375 C 6.15625 -3.59375 7.34375 -4.296875 7.34375 -5.296875 C 7.34375 -6.15625 6.453125 -6.78125 5.140625 -6.78125 L 2.3125 -6.78125 C 2.109375 -6.78125 2.03125 -6.78125 2.03125 -6.59375 C 2.03125 -6.484375 2.109375 -6.484375 2.3125 -6.484375 C 2.328125 -6.484375 2.515625 -6.484375 2.6875 -6.453125 C 2.859375 -6.4375 2.953125 -6.421875 2.953125 -6.296875 C 2.953125 -6.265625 2.9375 -6.234375 2.90625 -6.109375 L 1.578125 -0.78125 C 1.484375 -0.390625 1.453125 -0.3125 0.671875 -0.3125 C 0.5 -0.3125 0.40625 -0.3125 0.40625 -0.109375 C 0.40625 0 0.53125 0 0.546875 0 C 0.828125 0 1.515625 -0.03125 1.796875 -0.03125 C 2.078125 -0.03125 2.78125 0 3.0625 0 C 3.140625 0 3.265625 0 3.265625 -0.203125 C 3.265625 -0.3125 3.171875 -0.3125 2.984375 -0.3125 C 2.609375 -0.3125 2.328125 -0.3125 2.328125 -0.484375 C 2.328125 -0.546875 2.359375 -0.59375 2.359375 -0.65625 L 3.015625 -3.296875 L 4.203125 -3.296875 C 5.109375 -3.296875 5.28125 -2.734375 5.28125 -2.390625 C 5.28125 -2.234375 5.203125 -1.921875 5.140625 -1.703125 C 5.078125 -1.421875 4.984375 -1.046875 4.984375 -0.859375 C 4.984375 0.21875 6.1875 0.21875 6.3125 0.21875 C 7.15625 0.21875 7.5 -0.78125 7.5 -0.921875 C 7.5 -1.046875 7.390625 -1.046875 7.390625 -1.046875 C 7.296875 -1.046875 7.28125 -0.96875 7.25 -0.90625 C 7 -0.171875 6.578125 0 6.34375 0 C 6.015625 0 5.953125 -0.21875 5.953125 -0.609375 C 5.953125 -0.921875 6.015625 -1.421875 6.046875 -1.734375 C 6.078125 -1.875 6.09375 -2.0625 6.09375 -2.203125 C 6.09375 -2.96875 5.421875 -3.28125 5.15625 -3.375 Z M 5.15625 -3.375 "/>
</g>
<g id="glyph-0-2">
<path d="M 2.859375 -6.78125 C 2.859375 -6.796875 2.859375 -6.890625 2.71875 -6.890625 C 2.5 -6.890625 1.765625 -6.8125 1.515625 -6.796875 C 1.4375 -6.78125 1.328125 -6.78125 1.328125 -6.59375 C 1.328125 -6.484375 1.40625 -6.484375 1.5625 -6.484375 C 2.03125 -6.484375 2.0625 -6.40625 2.0625 -6.3125 L 2.03125 -6.109375 L 0.59375 -0.390625 C 0.546875 -0.25 0.546875 -0.234375 0.546875 -0.171875 C 0.546875 0.0625 0.75 0.109375 0.828125 0.109375 C 1 0.109375 1.15625 -0.015625 1.203125 -0.15625 L 1.390625 -0.90625 L 1.609375 -1.796875 C 1.671875 -2.015625 1.734375 -2.234375 1.78125 -2.46875 C 1.796875 -2.53125 1.875 -2.859375 1.890625 -2.90625 C 1.921875 -3 2.21875 -3.5625 2.5625 -3.828125 C 2.78125 -3.984375 3.09375 -4.171875 3.515625 -4.171875 C 3.9375 -4.171875 4.046875 -3.828125 4.046875 -3.484375 C 4.046875 -2.9375 3.671875 -1.859375 3.4375 -1.25 C 3.359375 -1.03125 3.3125 -0.90625 3.3125 -0.703125 C 3.3125 -0.234375 3.65625 0.109375 4.125 0.109375 C 5.0625 0.109375 5.421875 -1.34375 5.421875 -1.421875 C 5.421875 -1.515625 5.34375 -1.515625 5.3125 -1.515625 C 5.203125 -1.515625 5.203125 -1.484375 5.15625 -1.34375 C 5.015625 -0.8125 4.6875 -0.109375 4.140625 -0.109375 C 3.96875 -0.109375 3.90625 -0.203125 3.90625 -0.4375 C 3.90625 -0.6875 4 -0.921875 4.078125 -1.140625 C 4.25 -1.5625 4.6875 -2.75 4.6875 -3.328125 C 4.6875 -3.96875 4.296875 -4.390625 3.546875 -4.390625 C 2.921875 -4.390625 2.4375 -4.078125 2.078125 -3.625 Z M 2.859375 -6.78125 "/>
</g>
<g id="glyph-0-3">
<path d="M 4.515625 -4.96875 C 4.515625 -5.625 4.34375 -7 3.328125 -7 C 1.953125 -7 0.421875 -4.203125 0.421875 -1.921875 C 0.421875 -1 0.703125 0.109375 1.609375 0.109375 C 3.015625 0.109375 4.515625 -2.75 4.515625 -4.96875 Z M 1.46875 -3.609375 C 1.640625 -4.25 1.84375 -5.03125 2.234375 -5.75 C 2.5 -6.234375 2.875 -6.78125 3.3125 -6.78125 C 3.8125 -6.78125 3.859375 -6.15625 3.859375 -5.578125 C 3.859375 -5.09375 3.78125 -4.59375 3.546875 -3.609375 Z M 3.453125 -3.296875 C 3.34375 -2.828125 3.140625 -1.984375 2.765625 -1.265625 C 2.421875 -0.59375 2.03125 -0.109375 1.609375 -0.109375 C 1.28125 -0.109375 1.078125 -0.390625 1.078125 -1.328125 C 1.078125 -1.734375 1.140625 -2.3125 1.390625 -3.296875 Z M 3.453125 -3.296875 "/>
</g>
<g id="glyph-0-4">
<path d="M 4.734375 -2.34375 C 4.734375 -3.90625 3.8125 -4.390625 3.078125 -4.390625 C 1.71875 -4.390625 0.40625 -2.96875 0.40625 -1.5625 C 0.40625 -0.640625 1 0.109375 2.015625 0.109375 C 2.640625 0.109375 3.359375 -0.125 4.109375 -0.71875 C 4.25 -0.203125 4.578125 0.109375 5.015625 0.109375 C 5.546875 0.109375 5.859375 -0.4375 5.859375 -0.59375 C 5.859375 -0.671875 5.796875 -0.703125 5.734375 -0.703125 C 5.671875 -0.703125 5.640625 -0.671875 5.609375 -0.59375 C 5.421875 -0.109375 5.0625 -0.109375 5.046875 -0.109375 C 4.734375 -0.109375 4.734375 -0.890625 4.734375 -1.125 C 4.734375 -1.328125 4.734375 -1.34375 4.84375 -1.46875 C 5.78125 -2.640625 5.984375 -3.796875 5.984375 -3.8125 C 5.984375 -3.828125 5.96875 -3.90625 5.859375 -3.90625 C 5.765625 -3.90625 5.765625 -3.875 5.71875 -3.703125 C 5.53125 -3.078125 5.203125 -2.3125 4.734375 -1.734375 Z M 4.078125 -0.984375 C 3.203125 -0.21875 2.4375 -0.109375 2.03125 -0.109375 C 1.4375 -0.109375 1.140625 -0.5625 1.140625 -1.1875 C 1.140625 -1.671875 1.40625 -2.75 1.71875 -3.265625 C 2.1875 -3.984375 2.71875 -4.171875 3.078125 -4.171875 C 4.046875 -4.171875 4.046875 -2.875 4.046875 -2.09375 C 4.046875 -1.734375 4.046875 -1.15625 4.078125 -0.984375 Z M 4.078125 -0.984375 "/>
</g>
<g id="glyph-0-5">
<path d="M 4.34375 -6.65625 C 4.34375 -6.671875 4.375 -6.78125 4.375 -6.796875 C 4.375 -6.8125 4.375 -6.890625 4.25 -6.890625 C 4.15625 -6.890625 4.140625 -6.859375 4.109375 -6.703125 L 3.53125 -4.40625 C 1.953125 -4.359375 0.484375 -3.03125 0.484375 -1.671875 C 0.484375 -0.734375 1.1875 0.046875 2.390625 0.125 C 2.3125 0.421875 2.25 0.75 2.171875 1.046875 C 2.046875 1.515625 1.953125 1.890625 1.953125 1.921875 C 1.953125 2.03125 2.015625 2.03125 2.0625 2.03125 C 2.109375 2.03125 2.140625 2.03125 2.171875 2 C 2.1875 1.984375 2.25 1.734375 2.28125 1.59375 L 2.65625 0.125 C 4.25 0.0625 5.6875 -1.265625 5.6875 -2.609375 C 5.6875 -3.390625 5.171875 -4.296875 3.78125 -4.40625 Z M 2.4375 -0.09375 C 1.84375 -0.125 1.140625 -0.484375 1.140625 -1.46875 C 1.140625 -2.65625 1.984375 -4.046875 3.46875 -4.1875 Z M 3.734375 -4.1875 C 4.484375 -4.140625 5.046875 -3.6875 5.046875 -2.8125 C 5.046875 -1.640625 4.1875 -0.21875 2.703125 -0.09375 Z M 3.734375 -4.1875 "/>
</g>
<g id="glyph-0-6">
<path d="M 5.71875 -5.65625 C 5.71875 -6.40625 5.171875 -7.015625 4.359375 -7.015625 C 3.78125 -7.015625 3.515625 -6.859375 3.15625 -6.59375 C 2.609375 -6.203125 2.0625 -5.234375 1.875 -4.484375 L 0.296875 1.828125 C 0.28125 1.875 0.34375 1.921875 0.421875 1.921875 C 0.5 1.921875 0.53125 1.90625 0.53125 1.875 L 1.234375 -0.859375 C 1.421875 -0.265625 1.859375 0.09375 2.578125 0.09375 C 3.3125 0.09375 4.046875 -0.25 4.5 -0.6875 C 4.984375 -1.140625 5.296875 -1.78125 5.296875 -2.515625 C 5.296875 -3.234375 4.921875 -3.75 4.578125 -4 C 5.140625 -4.328125 5.71875 -4.9375 5.71875 -5.65625 Z M 3.921875 -4 C 3.796875 -3.953125 3.6875 -3.9375 3.453125 -3.9375 C 3.3125 -3.9375 3.109375 -3.921875 3.015625 -3.96875 C 3.03125 -4.078125 3.390625 -4.046875 3.5 -4.046875 C 3.703125 -4.046875 3.796875 -4.046875 3.921875 -4 Z M 5.15625 -5.890625 C 5.15625 -5.1875 4.78125 -4.46875 4.265625 -4.15625 C 4 -4.265625 3.796875 -4.28125 3.5 -4.28125 C 3.296875 -4.28125 2.734375 -4.296875 2.734375 -3.96875 C 2.71875 -3.6875 3.234375 -3.71875 3.421875 -3.71875 C 3.78125 -3.71875 3.9375 -3.734375 4.234375 -3.84375 C 4.609375 -3.484375 4.65625 -3.1875 4.671875 -2.71875 C 4.6875 -2.140625 4.453125 -1.40625 4.171875 -1.015625 C 3.78125 -0.484375 3.125 -0.125 2.546875 -0.125 C 1.796875 -0.125 1.421875 -0.703125 1.421875 -1.40625 C 1.421875 -1.5 1.421875 -1.65625 1.46875 -1.84375 L 2.109375 -4.359375 C 2.328125 -5.203125 3.046875 -6.78125 4.234375 -6.78125 C 4.8125 -6.78125 5.15625 -6.484375 5.15625 -5.890625 Z M 5.15625 -5.890625 "/>
</g>
<g id="glyph-0-7">
<path d="M 7.359375 -4.328125 C 7.359375 -5.9375 6.296875 -7 4.8125 -7 C 2.671875 -7 0.484375 -4.75 0.484375 -2.4375 C 0.484375 -0.78125 1.59375 0.21875 3.03125 0.21875 C 5.140625 0.21875 7.359375 -1.953125 7.359375 -4.328125 Z M 3.09375 -0.046875 C 2.109375 -0.046875 1.40625 -0.84375 1.40625 -2.15625 C 1.40625 -2.59375 1.546875 -4.046875 2.3125 -5.203125 C 3 -6.234375 3.96875 -6.75 4.765625 -6.75 C 5.578125 -6.75 6.46875 -6.203125 6.46875 -4.71875 C 6.46875 -4 6.203125 -2.453125 5.21875 -1.234375 C 4.734375 -0.625 3.921875 -0.046875 3.09375 -0.046875 Z M 3.09375 -0.046875 "/>
</g>
<g id="glyph-0-8">
<path d="M 6.234375 -5.65625 C 6.734375 -6.421875 7.140625 -6.453125 7.515625 -6.484375 C 7.625 -6.484375 7.640625 -6.65625 7.640625 -6.671875 C 7.640625 -6.75 7.59375 -6.78125 7.515625 -6.78125 C 7.25 -6.78125 6.96875 -6.75 6.703125 -6.75 C 6.375 -6.75 6.03125 -6.78125 5.71875 -6.78125 C 5.65625 -6.78125 5.53125 -6.78125 5.53125 -6.59375 C 5.53125 -6.484375 5.609375 -6.484375 5.6875 -6.484375 C 5.953125 -6.453125 6.140625 -6.359375 6.140625 -6.15625 C 6.140625 -6 6 -5.78125 6 -5.78125 L 2.9375 -0.921875 L 2.265625 -6.1875 C 2.265625 -6.34375 2.5 -6.484375 2.953125 -6.484375 C 3.09375 -6.484375 3.203125 -6.484375 3.203125 -6.671875 C 3.203125 -6.765625 3.125 -6.78125 3.0625 -6.78125 C 2.65625 -6.78125 2.234375 -6.75 1.828125 -6.75 C 1.65625 -6.75 1.453125 -6.765625 1.28125 -6.765625 C 1.109375 -6.765625 0.921875 -6.78125 0.75 -6.78125 C 0.671875 -6.78125 0.5625 -6.78125 0.5625 -6.59375 C 0.5625 -6.484375 0.640625 -6.484375 0.8125 -6.484375 C 1.359375 -6.484375 1.375 -6.390625 1.40625 -6.140625 L 2.1875 -0.015625 C 2.21875 0.1875 2.25 0.21875 2.390625 0.21875 C 2.546875 0.21875 2.578125 0.171875 2.65625 0.046875 Z M 6.234375 -5.65625 "/>
</g>
<g id="glyph-0-9">
<path d="M 6.40625 -6.90625 C 6.40625 -6.9375 6.390625 -7 6.296875 -7 C 6.25 -7 6.234375 -7 6.125 -6.859375 L 5.640625 -6.296875 C 5.390625 -6.75 4.875 -7 4.21875 -7 C 2.96875 -7 1.765625 -5.859375 1.765625 -4.65625 C 1.765625 -3.859375 2.296875 -3.40625 2.796875 -3.25 L 3.859375 -2.96875 C 4.234375 -2.875 4.78125 -2.734375 4.78125 -1.921875 C 4.78125 -1.03125 3.96875 -0.09375 2.984375 -0.09375 C 2.359375 -0.09375 1.25 -0.3125 1.25 -1.546875 C 1.25 -1.78125 1.296875 -2.015625 1.3125 -2.078125 C 1.328125 -2.109375 1.328125 -2.125 1.328125 -2.140625 C 1.328125 -2.25 1.265625 -2.25 1.21875 -2.25 C 1.15625 -2.25 1.140625 -2.25 1.109375 -2.21875 C 1.078125 -2.171875 0.515625 0.09375 0.515625 0.125 C 0.515625 0.171875 0.5625 0.21875 0.625 0.21875 C 0.671875 0.21875 0.6875 0.203125 0.8125 0.0625 L 1.296875 -0.5 C 1.71875 0.078125 2.390625 0.21875 2.96875 0.21875 C 4.328125 0.21875 5.5 -1.109375 5.5 -2.328125 C 5.5 -3.015625 5.15625 -3.359375 5.015625 -3.5 C 4.78125 -3.734375 4.625 -3.765625 3.75 -4 C 3.53125 -4.046875 3.171875 -4.15625 3.078125 -4.171875 C 2.8125 -4.265625 2.46875 -4.546875 2.46875 -5.078125 C 2.46875 -5.890625 3.265625 -6.734375 4.21875 -6.734375 C 5.03125 -6.734375 5.640625 -6.296875 5.640625 -5.1875 C 5.640625 -4.875 5.609375 -4.6875 5.609375 -4.625 C 5.609375 -4.625 5.609375 -4.53125 5.71875 -4.53125 C 5.828125 -4.53125 5.828125 -4.5625 5.875 -4.734375 Z M 6.40625 -6.90625 "/>
</g>
<g id="glyph-0-10">
<path d="M 3.015625 -3.140625 L 4.703125 -3.140625 C 6.109375 -3.140625 7.5 -4.171875 7.5 -5.28125 C 7.5 -6.046875 6.84375 -6.78125 5.53125 -6.78125 L 2.3125 -6.78125 C 2.125 -6.78125 2.015625 -6.78125 2.015625 -6.59375 C 2.015625 -6.484375 2.109375 -6.484375 2.3125 -6.484375 C 2.4375 -6.484375 2.609375 -6.46875 2.734375 -6.453125 C 2.890625 -6.4375 2.953125 -6.40625 2.953125 -6.296875 C 2.953125 -6.265625 2.9375 -6.234375 2.90625 -6.109375 L 1.578125 -0.78125 C 1.484375 -0.390625 1.453125 -0.3125 0.671875 -0.3125 C 0.5 -0.3125 0.390625 -0.3125 0.390625 -0.125 C 0.390625 0 0.515625 0 0.546875 0 C 0.828125 0 1.53125 -0.03125 1.8125 -0.03125 C 2.015625 -0.03125 2.234375 -0.015625 2.4375 -0.015625 C 2.65625 -0.015625 2.875 0 3.09375 0 C 3.15625 0 3.296875 0 3.296875 -0.203125 C 3.296875 -0.3125 3.203125 -0.3125 3.015625 -0.3125 C 2.640625 -0.3125 2.359375 -0.3125 2.359375 -0.484375 C 2.359375 -0.546875 2.390625 -0.59375 2.390625 -0.65625 Z M 3.734375 -6.109375 C 3.8125 -6.453125 3.828125 -6.484375 4.265625 -6.484375 L 5.21875 -6.484375 C 6.046875 -6.484375 6.5625 -6.21875 6.5625 -5.53125 C 6.5625 -5.140625 6.375 -4.28125 5.984375 -3.921875 C 5.484375 -3.484375 4.890625 -3.40625 4.453125 -3.40625 L 3.046875 -3.40625 Z M 3.734375 -6.109375 "/>
</g>
<g id="glyph-0-11">
<path d="M 4.359375 -0.0625 C 5.890625 -0.640625 7.359375 -2.421875 7.359375 -4.328125 C 7.359375 -5.9375 6.296875 -7 4.8125 -7 C 2.671875 -7 0.484375 -4.75 0.484375 -2.4375 C 0.484375 -0.78125 1.59375 0.21875 3.03125 0.21875 C 3.28125 0.21875 3.625 0.171875 4 0.0625 C 3.96875 0.6875 3.96875 0.703125 3.96875 0.828125 C 3.96875 1.15625 3.96875 1.921875 4.796875 1.921875 C 5.96875 1.921875 6.453125 0.109375 6.453125 0 C 6.453125 -0.0625 6.375 -0.09375 6.34375 -0.09375 C 6.265625 -0.09375 6.234375 -0.046875 6.21875 0.015625 C 5.984375 0.71875 5.40625 0.96875 5.0625 0.96875 C 4.59375 0.96875 4.453125 0.703125 4.359375 -0.0625 Z M 2.46875 -0.140625 C 1.703125 -0.453125 1.359375 -1.21875 1.359375 -2.109375 C 1.359375 -2.796875 1.625 -4.21875 2.375 -5.28125 C 3.09375 -6.296875 4.03125 -6.75 4.765625 -6.75 C 5.75 -6.75 6.484375 -5.984375 6.484375 -4.65625 C 6.484375 -3.65625 5.96875 -1.328125 4.296875 -0.390625 C 4.25 -0.75 4.15625 -1.46875 3.421875 -1.46875 C 2.90625 -1.46875 2.421875 -0.96875 2.421875 -0.453125 C 2.421875 -0.265625 2.46875 -0.15625 2.46875 -0.140625 Z M 3.09375 -0.03125 C 2.953125 -0.03125 2.640625 -0.03125 2.640625 -0.453125 C 2.640625 -0.859375 3.015625 -1.25 3.421875 -1.25 C 3.84375 -1.25 4.03125 -1.015625 4.03125 -0.40625 C 4.03125 -0.265625 4.03125 -0.25 3.921875 -0.203125 C 3.671875 -0.09375 3.375 -0.03125 3.09375 -0.03125 Z M 3.09375 -0.03125 "/>
</g>
<g id="glyph-0-12">
<path d="M 3.890625 -3.71875 C 3.609375 -3.703125 3.40625 -3.484375 3.40625 -3.265625 C 3.40625 -3.125 3.5 -2.984375 3.71875 -2.984375 C 3.9375 -2.984375 4.171875 -3.15625 4.171875 -3.53125 C 4.171875 -3.984375 3.75 -4.390625 2.984375 -4.390625 C 1.671875 -4.390625 1.3125 -3.375 1.3125 -2.9375 C 1.3125 -2.171875 2.046875 -2.015625 2.328125 -1.953125 C 2.859375 -1.859375 3.375 -1.75 3.375 -1.203125 C 3.375 -0.9375 3.140625 -0.109375 1.953125 -0.109375 C 1.8125 -0.109375 1.046875 -0.109375 0.8125 -0.640625 C 1.1875 -0.59375 1.4375 -0.890625 1.4375 -1.15625 C 1.4375 -1.390625 1.28125 -1.515625 1.078125 -1.515625 C 0.8125 -1.515625 0.515625 -1.296875 0.515625 -0.859375 C 0.515625 -0.28125 1.078125 0.109375 1.9375 0.109375 C 3.546875 0.109375 3.9375 -1.09375 3.9375 -1.546875 C 3.9375 -1.890625 3.75 -2.140625 3.625 -2.265625 C 3.359375 -2.546875 3.078125 -2.59375 2.640625 -2.6875 C 2.28125 -2.765625 1.875 -2.828125 1.875 -3.28125 C 1.875 -3.5625 2.109375 -4.171875 2.984375 -4.171875 C 3.234375 -4.171875 3.734375 -4.109375 3.890625 -3.71875 Z M 3.890625 -3.71875 "/>
</g>
<g id="glyph-0-13">
<path d="M 0.875 -0.59375 C 0.84375 -0.4375 0.78125 -0.203125 0.78125 -0.15625 C 0.78125 0.015625 0.921875 0.109375 1.078125 0.109375 C 1.1875 0.109375 1.375 0.03125 1.4375 -0.171875 C 1.453125 -0.1875 1.5625 -0.65625 1.625 -0.90625 L 1.84375 -1.796875 C 1.90625 -2.015625 1.96875 -2.234375 2.015625 -2.46875 C 2.0625 -2.640625 2.140625 -2.921875 2.140625 -2.96875 C 2.296875 -3.265625 2.828125 -4.171875 3.765625 -4.171875 C 4.21875 -4.171875 4.296875 -3.8125 4.296875 -3.484375 C 4.296875 -2.859375 3.8125 -1.59375 3.65625 -1.15625 C 3.5625 -0.9375 3.5625 -0.8125 3.5625 -0.703125 C 3.5625 -0.234375 3.90625 0.109375 4.375 0.109375 C 5.3125 0.109375 5.671875 -1.34375 5.671875 -1.421875 C 5.671875 -1.515625 5.578125 -1.515625 5.5625 -1.515625 C 5.453125 -1.515625 5.453125 -1.484375 5.40625 -1.34375 C 5.203125 -0.671875 4.875 -0.109375 4.390625 -0.109375 C 4.21875 -0.109375 4.15625 -0.203125 4.15625 -0.4375 C 4.15625 -0.6875 4.25 -0.921875 4.328125 -1.140625 C 4.515625 -1.671875 4.9375 -2.765625 4.9375 -3.328125 C 4.9375 -4 4.515625 -4.390625 3.796875 -4.390625 C 2.90625 -4.390625 2.421875 -3.75 2.25 -3.53125 C 2.203125 -4.078125 1.78125 -4.390625 1.328125 -4.390625 C 0.875 -4.390625 0.6875 -4 0.59375 -3.828125 C 0.421875 -3.484375 0.28125 -2.90625 0.28125 -2.859375 C 0.28125 -2.765625 0.390625 -2.765625 0.40625 -2.765625 C 0.5 -2.765625 0.515625 -2.765625 0.578125 -2.984375 C 0.75 -3.703125 0.9375 -4.171875 1.296875 -4.171875 C 1.5 -4.171875 1.609375 -4.046875 1.609375 -3.71875 C 1.609375 -3.515625 1.578125 -3.40625 1.453125 -2.875 Z M 0.875 -0.59375 "/>
</g>
<g id="glyph-1-0">
<path d="M 3.6875 -1.84375 C 3.6875 -2.625 3.109375 -3.0625 2.4375 -3.0625 C 1.40625 -3.0625 0.4375 -2.09375 0.4375 -1.140625 C 0.4375 -0.453125 0.9375 0.0625 1.703125 0.0625 C 2.6875 0.0625 3.6875 -0.84375 3.6875 -1.84375 Z M 1.703125 -0.125 C 1.359375 -0.125 1.015625 -0.34375 1.015625 -0.890625 C 1.015625 -1.1875 1.140625 -1.859375 1.40625 -2.265625 C 1.703125 -2.6875 2.109375 -2.875 2.421875 -2.875 C 2.796875 -2.875 3.125 -2.609375 3.125 -2.09375 C 3.125 -1.9375 3.03125 -1.25 2.734375 -0.765625 C 2.46875 -0.34375 2.046875 -0.125 1.703125 -0.125 Z M 1.703125 -0.125 "/>
</g>
<g id="glyph-1-1">
<path d="M 2.25 -4.34375 C 2.25 -4.453125 2.171875 -4.609375 1.96875 -4.609375 C 1.78125 -4.609375 1.578125 -4.421875 1.578125 -4.234375 C 1.578125 -4.109375 1.671875 -3.96875 1.859375 -3.96875 C 2.0625 -3.96875 2.25 -4.15625 2.25 -4.34375 Z M 0.828125 -0.8125 C 0.8125 -0.71875 0.765625 -0.640625 0.765625 -0.515625 C 0.765625 -0.1875 1.046875 0.0625 1.4375 0.0625 C 2.125 0.0625 2.4375 -0.890625 2.4375 -1 C 2.4375 -1.078125 2.34375 -1.078125 2.328125 -1.078125 C 2.21875 -1.078125 2.21875 -1.046875 2.1875 -0.96875 C 2.03125 -0.40625 1.71875 -0.125 1.453125 -0.125 C 1.3125 -0.125 1.28125 -0.21875 1.28125 -0.375 C 1.28125 -0.53125 1.328125 -0.65625 1.390625 -0.8125 C 1.453125 -1 1.53125 -1.1875 1.609375 -1.375 C 1.671875 -1.53125 1.921875 -2.171875 1.953125 -2.25 C 1.96875 -2.328125 2 -2.40625 2 -2.46875 C 2 -2.796875 1.71875 -3.0625 1.328125 -3.0625 C 0.640625 -3.0625 0.328125 -2.125 0.328125 -2 C 0.328125 -1.90625 0.421875 -1.90625 0.4375 -1.90625 C 0.546875 -1.90625 0.546875 -1.953125 0.5625 -2.015625 C 0.75 -2.625 1.0625 -2.875 1.3125 -2.875 C 1.421875 -2.875 1.484375 -2.8125 1.484375 -2.625 C 1.484375 -2.46875 1.453125 -2.359375 1.265625 -1.9375 Z M 0.828125 -0.8125 "/>
</g>
<g id="glyph-1-2">
<path d="M 1.703125 -2.75 L 2.421875 -2.75 C 2.546875 -2.75 2.640625 -2.75 2.640625 -2.90625 C 2.640625 -3 2.546875 -3 2.4375 -3 L 1.765625 -3 L 2.03125 -4.03125 C 2.03125 -4.0625 2.046875 -4.09375 2.046875 -4.125 C 2.046875 -4.25 1.953125 -4.34375 1.8125 -4.34375 C 1.640625 -4.34375 1.53125 -4.234375 1.484375 -4.046875 C 1.4375 -3.875 1.53125 -4.203125 1.21875 -3 L 0.515625 -3 C 0.375 -3 0.296875 -3 0.296875 -2.84375 C 0.296875 -2.75 0.375 -2.75 0.5 -2.75 L 1.15625 -2.75 L 0.75 -1.109375 C 0.703125 -0.9375 0.640625 -0.6875 0.640625 -0.59375 C 0.640625 -0.1875 1 0.0625 1.390625 0.0625 C 2.15625 0.0625 2.59375 -0.90625 2.59375 -1 C 2.59375 -1.078125 2.515625 -1.078125 2.484375 -1.078125 C 2.40625 -1.078125 2.40625 -1.078125 2.34375 -0.953125 C 2.15625 -0.515625 1.796875 -0.125 1.40625 -0.125 C 1.265625 -0.125 1.171875 -0.21875 1.171875 -0.46875 C 1.171875 -0.53125 1.203125 -0.6875 1.203125 -0.75 Z M 1.703125 -2.75 "/>
</g>
<g id="glyph-2-0">
<path d="M 2.328125 -4.421875 C 2.328125 -4.609375 2.3125 -4.609375 2.125 -4.609375 C 1.671875 -4.171875 1.046875 -4.171875 0.765625 -4.171875 L 0.765625 -3.921875 C 0.921875 -3.921875 1.390625 -3.921875 1.765625 -4.109375 L 1.765625 -0.5625 C 1.765625 -0.34375 1.765625 -0.25 1.078125 -0.25 L 0.8125 -0.25 L 0.8125 0 C 0.9375 0 1.78125 -0.03125 2.046875 -0.03125 C 2.265625 -0.03125 3.140625 0 3.28125 0 L 3.28125 -0.25 L 3.03125 -0.25 C 2.328125 -0.25 2.328125 -0.34375 2.328125 -0.5625 Z M 2.328125 -4.421875 "/>
</g>
<g id="glyph-2-1">
<path d="M 3.515625 -1.265625 L 3.28125 -1.265625 C 3.25 -1.109375 3.1875 -0.703125 3.09375 -0.625 C 3.03125 -0.59375 2.5 -0.59375 2.40625 -0.59375 L 1.125 -0.59375 C 1.859375 -1.234375 2.09375 -1.4375 2.515625 -1.765625 C 3.03125 -2.171875 3.515625 -2.59375 3.515625 -3.265625 C 3.515625 -4.109375 2.78125 -4.609375 1.890625 -4.609375 C 1.015625 -4.609375 0.4375 -4.015625 0.4375 -3.375 C 0.4375 -3.015625 0.734375 -2.984375 0.8125 -2.984375 C 0.96875 -2.984375 1.171875 -3.09375 1.171875 -3.34375 C 1.171875 -3.484375 1.125 -3.71875 0.765625 -3.71875 C 0.984375 -4.21875 1.453125 -4.359375 1.78125 -4.359375 C 2.46875 -4.359375 2.84375 -3.828125 2.84375 -3.265625 C 2.84375 -2.65625 2.40625 -2.171875 2.1875 -1.921875 L 0.5 -0.265625 C 0.4375 -0.203125 0.4375 -0.1875 0.4375 0 L 3.296875 0 Z M 3.515625 -1.265625 "/>
</g>
</g>
<clipPath id="clip-0">
<path clip-rule="nonzero" d="M 78 0 L 147 0 L 147 113.570312 L 78 113.570312 Z M 78 0 "/>
</clipPath>
</defs>
<g clip-path="url(#clip-0)">
<path fill="none" stroke-width="0.3985" stroke-linecap="butt" stroke-linejoin="miter" stroke="rgb(0%, 0%, 0%)" stroke-opacity="1" stroke-miterlimit="10" d="M 56.694847 56.692403 C 25.38161 56.692403 0.00149013 31.312283 0.00149013 -0.000953425 C 0.00149013 -31.310276 25.38161 -56.69431 56.694847 -56.69431 " transform="matrix(0.998105, 0, 0, -0.998105, 84.377419, 56.784205)"/>
</g>
<path fill="none" stroke-width="0.3985" stroke-linecap="butt" stroke-linejoin="miter" stroke="rgb(0%, 0%, 0%)" stroke-opacity="1" stroke-miterlimit="10" d="M -70.867162 -0.000953425 L 141.734881 -0.000953425 " transform="matrix(0.998105, 0, 0, -0.998105, 84.377419, 56.784205)"/>
<path fill="none" stroke-width="0.3985" stroke-linecap="butt" stroke-linejoin="miter" stroke="rgb(0%, 0%, 0%)" stroke-opacity="1" stroke-miterlimit="10" d="M -70.867162 -0.000953425 L 7.594001 28.345725 " transform="matrix(0.998105, 0, 0, -0.998105, 84.377419, 56.784205)"/>
<g fill="rgb(0%, 0%, 0%)" fill-opacity="1">
<use xlink:href="#glyph-0-0" x="49.107373" y="37.632561"/>
</g>
<g fill="rgb(0%, 0%, 0%)" fill-opacity="1">
<use xlink:href="#glyph-1-0" x="52.073742" y="39.124728"/>
</g>
<path fill="none" stroke-width="0.3985" stroke-linecap="butt" stroke-linejoin="miter" stroke="rgb(0%, 0%, 0%)" stroke-opacity="1" stroke-miterlimit="10" d="M 7.594001 28.345725 L 141.734881 -0.000953425 " transform="matrix(0.998105, 0, 0, -0.998105, 84.377419, 56.784205)"/>
<g fill="rgb(0%, 0%, 0%)" fill-opacity="1">
<use xlink:href="#glyph-0-0" x="155.760909" y="37.632561"/>
</g>
<g fill="rgb(0%, 0%, 0%)" fill-opacity="1">
<use xlink:href="#glyph-1-1" x="158.727278" y="39.124728"/>
</g>
<path fill="none" stroke-width="0.3985" stroke-linecap="butt" stroke-linejoin="miter" stroke="rgb(0%, 0%, 0%)" stroke-opacity="1" stroke-miterlimit="10" d="M 56.694847 -0.000953425 L 7.594001 28.345725 " transform="matrix(0.998105, 0, 0, -0.998105, 84.377419, 56.784205)"/>
<g fill="rgb(0%, 0%, 0%)" fill-opacity="1">
<use xlink:href="#glyph-0-1" x="110.658529" y="50.957266"/>
</g>
<path fill="none" stroke-width="0.3985" stroke-linecap="butt" stroke-linejoin="miter" stroke="rgb(0%, 0%, 0%)" stroke-opacity="1" stroke-dasharray="2.98883 2.98883" stroke-miterlimit="10" d="M 7.594001 28.345725 L -26.771895 48.188008 " transform="matrix(0.998105, 0, 0, -0.998105, 84.377419, 56.784205)"/>
<path fill="none" stroke-width="0.3985" stroke-linecap="butt" stroke-linejoin="miter" stroke="rgb(0%, 0%, 0%)" stroke-opacity="1" stroke-miterlimit="10" d="M 7.594001 28.345725 L 7.594001 -0.000953425 " transform="matrix(0.998105, 0, 0, -0.998105, 84.377419, 56.784205)"/>
<g fill="rgb(0%, 0%, 0%)" fill-opacity="1">
<use xlink:href="#glyph-0-2" x="93.482135" y="46.090505"/>
</g>
<path fill="none" stroke-width="0.3985" stroke-linecap="butt" stroke-linejoin="miter" stroke="rgb(0%, 0%, 0%)" stroke-opacity="1" stroke-miterlimit="10" d="M 11.848155 -0.000953425 L 11.848155 4.253201 L 7.594001 4.253201 " transform="matrix(0.998105, 0, 0, -0.998105, 84.377419, 56.784205)"/>
<path fill="none" stroke-width="0.3985" stroke-linecap="butt" stroke-linejoin="miter" stroke="rgb(0%, 0%, 0%)" stroke-opacity="1" stroke-miterlimit="10" d="M 23.127339 19.379517 C 24.070532 21.01543 24.75151 22.792234 25.138963 24.639484 " transform="matrix(0.998105, 0, 0, -0.998105, 84.377419, 56.784205)"/>
<g fill="rgb(0%, 0%, 0%)" fill-opacity="1">
<use xlink:href="#glyph-0-3" x="119.628501" y="43.366676"/>
</g>
<g fill="rgb(0%, 0%, 0%)" fill-opacity="1">
<use xlink:href="#glyph-1-2" x="124.296639" y="44.857845"/>
</g>
<path fill="none" stroke-width="0.3985" stroke-linecap="butt" stroke-linejoin="miter" stroke="rgb(0%, 0%, 0%)" stroke-opacity="1" stroke-miterlimit="10" d="M -3.622564 34.822841 C -5.528519 31.515794 -5.880749 27.535596 -4.585326 23.946765 " transform="matrix(0.998105, 0, 0, -0.998105, 84.377419, 56.784205)"/>
<g fill="rgb(0%, 0%, 0%)" fill-opacity="1">
<use xlink:href="#glyph-0-3" x="68.654267" y="29.485028"/>
</g>
<g fill="rgb(0%, 0%, 0%)" fill-opacity="1">
<use xlink:href="#glyph-1-1" x="73.322405" y="30.977195"/>
</g>
<path fill="none" stroke-width="0.3985" stroke-linecap="butt" stroke-linejoin="miter" stroke="rgb(0%, 0%, 0%)" stroke-opacity="1" stroke-miterlimit="10" d="M -56.918859 -0.000953425 C -56.918859 1.61539 -57.200643 3.219993 -57.748556 4.738495 " transform="matrix(0.998105, 0, 0, -0.998105, 84.377419, 56.784205)"/>
<g fill="rgb(0%, 0%, 0%)" fill-opacity="1">
<use xlink:href="#glyph-0-4" x="32.386116" y="55.083433"/>
</g>
<path fill="none" stroke-width="0.3985" stroke-linecap="butt" stroke-linejoin="miter" stroke="rgb(0%, 0%, 0%)" stroke-opacity="1" stroke-miterlimit="10" d="M 45.478282 6.476163 C 44.339405 4.507589 43.740614 2.272886 43.740614 -0.000953425 " transform="matrix(0.998105, 0, 0, -0.998105, 84.377419, 56.784205)"/>
<g fill="rgb(0%, 0%, 0%)" fill-opacity="1">
<use xlink:href="#glyph-0-5" x="120.519809" y="54.586377"/>
</g>
<path fill="none" stroke-width="0.3985" stroke-linecap="butt" stroke-linejoin="miter" stroke="rgb(0%, 0%, 0%)" stroke-opacity="1" stroke-miterlimit="10" d="M 119.313492 4.738495 C 118.984745 3.180857 118.820371 1.591908 118.820371 -0.000953425 " transform="matrix(0.998105, 0, 0, -0.998105, 84.377419, 56.784205)"/>
<g fill="rgb(0%, 0%, 0%)" fill-opacity="1">
<use xlink:href="#glyph-0-6" x="186.3718" y="55.467704"/>
</g>
<path fill-rule="nonzero" fill="rgb(0%, 0%, 0%)" fill-opacity="1" stroke-width="0.3985" stroke-linecap="butt" stroke-linejoin="miter" stroke="rgb(0%, 0%, 0%)" stroke-opacity="1" stroke-miterlimit="10" d="M 57.688918 -0.000953425 C 57.688918 0.550873 57.24276 0.997031 56.694847 0.997031 C 56.14302 0.997031 55.696862 0.550873 55.696862 -0.000953425 C 55.696862 -0.548867 56.14302 -0.995024 56.694847 -0.995024 C 57.24276 -0.995024 57.688918 -0.548867 57.688918 -0.000953425 Z M 57.688918 -0.000953425 " transform="matrix(0.998105, 0, 0, -0.998105, 84.377419, 56.784205)"/>
<g fill="rgb(0%, 0%, 0%)" fill-opacity="1">
<use xlink:href="#glyph-0-7" x="144.475333" y="67.091638"/>
</g>
<path fill-rule="nonzero" fill="rgb(0%, 0%, 0%)" fill-opacity="1" stroke-width="0.3985" stroke-linecap="butt" stroke-linejoin="miter" stroke="rgb(0%, 0%, 0%)" stroke-opacity="1" stroke-miterlimit="10" d="M 0.995561 -0.000953425 C 0.995561 0.550873 0.549403 0.997031 0.00149013 0.997031 C -0.550337 0.997031 -0.996495 0.550873 -0.996495 -0.000953425 C -0.996495 -0.548867 -0.550337 -0.995024 0.00149013 -0.995024 C 0.549403 -0.995024 0.995561 -0.548867 0.995561 -0.000953425 Z M 0.995561 -0.000953425 " transform="matrix(0.998105, 0, 0, -0.998105, 84.377419, 56.784205)"/>
<g fill="rgb(0%, 0%, 0%)" fill-opacity="1">
<use xlink:href="#glyph-0-8" x="72.853296" y="67.091638"/>
</g>
<path fill-rule="nonzero" fill="rgb(0%, 0%, 0%)" fill-opacity="1" stroke-width="0.3985" stroke-linecap="butt" stroke-linejoin="miter" stroke="rgb(0%, 0%, 0%)" stroke-opacity="1" stroke-miterlimit="10" d="M -69.869178 -0.000953425 C -69.869178 0.550873 -70.315336 0.997031 -70.867162 0.997031 C -71.418989 0.997031 -71.865147 0.550873 -71.865147 -0.000953425 C -71.865147 -0.548867 -71.418989 -0.995024 -70.867162 -0.995024 C -70.315336 -0.995024 -69.869178 -0.548867 -69.869178 -0.000953425 Z M -69.869178 -0.000953425 " transform="matrix(0.998105, 0, 0, -0.998105, 84.377419, 56.784205)"/>
<g fill="rgb(0%, 0%, 0%)" fill-opacity="1">
<use xlink:href="#glyph-0-9" x="3.462023" y="67.091638"/>
</g>
<path fill-rule="nonzero" fill="rgb(0%, 0%, 0%)" fill-opacity="1" stroke-width="0.3985" stroke-linecap="butt" stroke-linejoin="miter" stroke="rgb(0%, 0%, 0%)" stroke-opacity="1" stroke-miterlimit="10" d="M 8.591986 28.345725 C 8.591986 28.897552 8.145828 29.343709 7.594001 29.343709 C 7.046088 29.343709 6.59993 28.897552 6.59993 28.345725 C 6.59993 27.797812 7.046088 27.351654 7.594001 27.351654 C 8.145828 27.351654 8.591986 27.797812 8.591986 28.345725 Z M 8.591986 28.345725 " transform="matrix(0.998105, 0, 0, -0.998105, 84.377419, 56.784205)"/>
<g fill="rgb(0%, 0%, 0%)" fill-opacity="1">
<use xlink:href="#glyph-0-10" x="88.075399" y="24.978582"/>
</g>
<path fill-rule="nonzero" fill="rgb(0%, 0%, 0%)" fill-opacity="1" stroke-width="0.3985" stroke-linecap="butt" stroke-linejoin="miter" stroke="rgb(0%, 0%, 0%)" stroke-opacity="1" stroke-miterlimit="10" d="M 8.591986 -0.000953425 C 8.591986 0.550873 8.145828 0.997031 7.594001 0.997031 C 7.046088 0.997031 6.59993 0.550873 6.59993 -0.000953425 C 6.59993 -0.548867 7.046088 -0.995024 7.594001 -0.995024 C 8.145828 -0.995024 8.591986 -0.548867 8.591986 -0.000953425 Z M 8.591986 -0.000953425 " transform="matrix(0.998105, 0, 0, -0.998105, 84.377419, 56.784205)"/>
<path fill-rule="nonzero" fill="rgb(0%, 0%, 0%)" fill-opacity="1" stroke-width="0.3985" stroke-linecap="butt" stroke-linejoin="miter" stroke="rgb(0%, 0%, 0%)" stroke-opacity="1" stroke-miterlimit="10" d="M 142.728952 -0.000953425 C 142.728952 0.550873 142.282795 0.997031 141.734881 0.997031 C 141.183055 0.997031 140.736897 0.550873 140.736897 -0.000953425 C 140.736897 -0.548867 141.183055 -0.995024 141.734881 -0.995024 C 142.282795 -0.995024 142.728952 -0.548867 142.728952 -0.000953425 Z M 142.728952 -0.000953425 " transform="matrix(0.998105, 0, 0, -0.998105, 84.377419, 56.784205)"/>
<g fill="rgb(0%, 0%, 0%)" fill-opacity="1">
<use xlink:href="#glyph-0-11" x="229.354205" y="67.091638"/>
</g>
<path fill="none" stroke-width="0.3985" stroke-linecap="butt" stroke-linejoin="miter" stroke="rgb(0%, 0%, 0%)" stroke-opacity="1" stroke-miterlimit="10" d="M -70.867162 -0.000953425 L -70.867162 -31.181125 " transform="matrix(0.998105, 0, 0, -0.998105, 84.377419, 56.784205)"/>
<path fill="none" stroke-width="0.3985" stroke-linecap="butt" stroke-linejoin="miter" stroke="rgb(0%, 0%, 0%)" stroke-opacity="1" stroke-miterlimit="10" d="M 0.00149013 -0.000953425 L 0.00149013 -31.181125 " transform="matrix(0.998105, 0, 0, -0.998105, 84.377419, 56.784205)"/>
<path fill="none" stroke-width="0.3985" stroke-linecap="butt" stroke-linejoin="miter" stroke="rgb(0%, 0%, 0%)" stroke-opacity="1" stroke-miterlimit="10" d="M 141.734881 -0.000953425 L 141.734881 -31.181125 " transform="matrix(0.998105, 0, 0, -0.998105, 84.377419, 56.784205)"/>
<path fill="none" stroke-width="0.3985" stroke-linecap="butt" stroke-linejoin="miter" stroke="rgb(0%, 0%, 0%)" stroke-opacity="1" stroke-miterlimit="10" d="M -67.802762 -25.510224 L -3.06291 -25.510224 " transform="matrix(0.998105, 0, 0, -0.998105, 84.377419, 56.784205)"/>
<path fill-rule="nonzero" fill="rgb(0%, 0%, 0%)" fill-opacity="1" stroke-width="0.3985" stroke-linecap="butt" stroke-linejoin="miter" stroke="rgb(0%, 0%, 0%)" stroke-opacity="1" stroke-miterlimit="10" d="M 4.214761 -0.00170572 L 0.641584 1.344595 L 1.819598 -0.00170572 L 0.641584 -1.344093 Z M 4.214761 -0.00170572 " transform="matrix(-0.998105, 0, 0, 0.998105, 18.417712, 82.247796)"/>
<path fill-rule="nonzero" fill="rgb(0%, 0%, 0%)" fill-opacity="1" stroke-width="0.3985" stroke-linecap="butt" stroke-linejoin="miter" stroke="rgb(0%, 0%, 0%)" stroke-opacity="1" stroke-miterlimit="10" d="M 4.216099 0.00170572 L 0.642922 1.344093 L 1.817022 0.00170572 L 0.642922 -1.344595 Z M 4.216099 0.00170572 " transform="matrix(0.998105, 0, 0, -0.998105, 79.60439, 82.247796)"/>
<g fill="rgb(0%, 0%, 0%)" fill-opacity="1">
<use xlink:href="#glyph-0-12" x="44.469178" y="90.04207"/>
</g>
<g fill="rgb(0%, 0%, 0%)" fill-opacity="1">
<use xlink:href="#glyph-1-0" x="49.13033" y="91.533239"/>
</g>
<g fill="rgb(0%, 0%, 0%)" fill-opacity="1">
<use xlink:href="#glyph-0-13" x="89.106442" y="104.957755"/>
</g>
<g fill="rgb(0%, 0%, 0%)" fill-opacity="1">
<use xlink:href="#glyph-2-0" x="95.075111" y="106.448924"/>
</g>
<path fill="none" stroke-width="0.3985" stroke-linecap="butt" stroke-linejoin="miter" stroke="rgb(0%, 0%, 0%)" stroke-opacity="1" stroke-miterlimit="10" d="M 3.061976 -25.510224 L 138.670481 -25.510224 " transform="matrix(0.998105, 0, 0, -0.998105, 84.377419, 56.784205)"/>
<path fill-rule="nonzero" fill="rgb(0%, 0%, 0%)" fill-opacity="1" stroke-width="0.3985" stroke-linecap="butt" stroke-linejoin="miter" stroke="rgb(0%, 0%, 0%)" stroke-opacity="1" stroke-miterlimit="10" d="M 4.213118 -0.00170572 L 0.643856 1.344595 L 1.817955 -0.00170572 L 0.643856 -1.344093 Z M 4.213118 -0.00170572 " transform="matrix(-0.998105, 0, 0, 0.998105, 89.150448, 82.247796)"/>
<path fill-rule="nonzero" fill="rgb(0%, 0%, 0%)" fill-opacity="1" stroke-width="0.3985" stroke-linecap="butt" stroke-linejoin="miter" stroke="rgb(0%, 0%, 0%)" stroke-opacity="1" stroke-miterlimit="10" d="M 4.21547 0.00170572 L 0.642293 1.344093 L 1.816393 0.00170572 L 0.642293 -1.344595 Z M 4.21547 0.00170572 " transform="matrix(0.998105, 0, 0, -0.998105, 221.069861, 82.247796)"/>
<g fill="rgb(0%, 0%, 0%)" fill-opacity="1">
<use xlink:href="#glyph-0-12" x="151.122714" y="90.04207"/>
</g>
<g fill="rgb(0%, 0%, 0%)" fill-opacity="1">
<use xlink:href="#glyph-1-1" x="155.783866" y="91.533239"/>
</g>
<g fill="rgb(0%, 0%, 0%)" fill-opacity="1">
<use xlink:href="#glyph-0-13" x="125.035237" y="104.957755"/>
</g>
<g fill="rgb(0%, 0%, 0%)" fill-opacity="1">
<use xlink:href="#glyph-2-1" x="131.002908" y="106.448924"/>
</g>
</svg>
